<svg xmlns="http://www.w3.org/2000/svg" xmlns:xlink="http://www.w3.org/1999/xlink" preserveAspectRatio="xMinYMin meet" viewBox="0 0 793 1123"><defs><clipPath id="a"><path d="M0 842V0h595v842H0z"/></clipPath><clipPath id="b"><path d="M0 0h595v842H0z"/></clipPath><clipPath id="c"><path d="M-1638.4 0h3871.75v39.4H-1638.4z"/></clipPath><clipPath id="d"><path d="M0 0h595v842H0z"/></clipPath><clipPath id="e"><path d="M0 0h595v842H0z"/></clipPath><clipPath id="f"><path d="M61.7 469.65h462.15v254.2H61.7z"/></clipPath><clipPath id="g"><path d="M72.4 471.25h198.1v36.15H72.4z"/></clipPath><clipPath id="h"><path d="M61.7 469.65h462.15v254.2H61.7z"/></clipPath><clipPath id="i"><path d="M270.45 471.25h45.5v36.15h-45.5z"/></clipPath><clipPath id="j"><path d="M61.7 469.65h462.15v254.2H61.7z"/></clipPath><clipPath id="k"><path d="M315.9 471.25h197.5v36.15H315.9z"/></clipPath><clipPath id="l"><path d="M61.7 469.65h462.15v254.2H61.7z"/></clipPath><clipPath id="m"><path d="M72.4 507.4h198.1v107.25H72.4z"/></clipPath><clipPath id="n"><path d="M61.7 469.65h462.15v254.2H61.7z"/></clipPath><clipPath id="o"><path d="M72.4 614.65h198.1V722.3H72.4z"/></clipPath><clipPath id="p"><path d="M61.7 469.65h462.15v254.2H61.7z"/></clipPath><clipPath id="q"><path d="M0 0h595v842H0z"/></clipPath></defs><g clip-path="url(#a)" transform="scale(1.33333)"><g clip-path="url(#b)"><g clip-path="url(#c)"><image xlink:href="img_11.png" width="716" height="47" transform="matrix(.83933 0 0 .84 0 -.84)"/></g></g><g clip-path="url(#d)"><path d="M28.8 304.32v96h537.6v-96H28.8" fill="#F8F8F8" fill-rule="evenodd"/></g><g clip-path="url(#e)"><g clip-path="url(#f)"><g clip-path="url(#g)"><path d="M72.4 471.4h198.1v36.15H72.4z" fill="#EEE" fill-rule="evenodd"/></g></g></g><g clip-path="url(#h)"><g clip-path="url(#i)"><path d="M270.45 471.4h45.5v36.15h-45.5z" fill="#EEE" fill-rule="evenodd"/></g></g><g clip-path="url(#j)"><g clip-path="url(#k)"><path d="M315.9 471.4h197.5v36.15H315.9z" fill="#EEE" fill-rule="evenodd"/></g></g><g clip-path="url(#l)"><g clip-path="url(#m)"><image xlink:href="img_12.png" width="13" height="14" transform="matrix(.67385 0 0 .68571 86.52 562.32)"/></g></g><g clip-path="url(#n)"><g clip-path="url(#o)"><image xlink:href="img_13.png" width="13" height="13" transform="matrix(.67385 0 0 .73846 84.96 669.72)"/></g></g><g clip-path="url(#p)" stroke="#DDD" stroke-width=".24" fill="none"><path d="M72.28 471.37h441.19M72.28 507.52h441.19M72.28 614.77h441.19M72.28 722.12h441.19M72.4 471.25V722m198.05-250.75V722m45.45-250.75V722m197.45-250.75V722"/></g><g clip-path="url(#q)" fill="#DCE6F2" fill-rule="evenodd"><path d="M33.24 206.64c.01-45.377 37.954-82.19 84.76-82.19 46.806 0 84.75 36.813 84.75 82.225 0 45.412-37.944 82.225-84.75 82.225s-84.75-36.813-84.76-82.26"/><path d="M60.6 155.4h111v105.36h-111z"/></g></g></svg>