<svg xmlns="http://www.w3.org/2000/svg" xmlns:xlink="http://www.w3.org/1999/xlink" preserveAspectRatio="xMinYMin meet" viewBox="0 0 793 1123"><defs><clipPath id="a"><path d="M0 842V0h595v842H0z"/></clipPath><clipPath id="b"><path d="M0 0h595v842H0z"/></clipPath><clipPath id="c"><path d="M0 0h595v842H0z"/></clipPath><clipPath id="d"><path d="M-.2 75.75h594.5v411.3H-.2z"/></clipPath><clipPath id="e"><path d="M0 0h595v842H0z"/></clipPath></defs><g clip-path="url(#a)" transform="scale(1.33333)"><g clip-path="url(#b)"><image xlink:href="img_01.png" width="794" height="1004" transform="matrix(.74932 0 0 .74964 0 42.6)"/><path d="M3.6 33h57.36v52.44H3.6z" fill="#FFF" fill-rule="evenodd"/><image xlink:href="img_02.png" width="225" height="115" transform="matrix(.32693 0 0 .3266 19.44 29.76)"/><path d="M-1.2 71.16h596.52v420.48H-1.2z" fill="#FFF" fill-rule="evenodd"/></g><g clip-path="url(#c)"><g clip-path="url(#d)"><image xlink:href="img_03.png" width="1244" height="1348" transform="matrix(.38576 0 0 .28496 6.96 88.68)"/></g></g><g clip-path="url(#e)" fill="#FFF" fill-rule="evenodd"><path d="M-1.08 497.76c-.02-9.165 7.375-16.56 16.44-16.56h208.68c9.065 0 16.46 7.395 16.44 16.56v66c.02 9.145-7.375 16.54-16.44 16.56H15.36c-9.065-.02-16.46-7.415-16.44-16.56v-66"/><path d="M221.76 472.68H294v32.64h-72.24zm24.6-430.56H595.2v57.84H246.36z"/></g></g></svg>