<svg xmlns="http://www.w3.org/2000/svg" xmlns:xlink="http://www.w3.org/1999/xlink" preserveAspectRatio="xMinYMin meet" viewBox="0 0 793 1123"><defs><clipPath id="a"><path d="M0 842V0h595v842H0z"/></clipPath><clipPath id="b"><path d="M0 0h595v842H0z"/></clipPath><clipPath id="c"><path d="M-1638.4 0h3871.75v39.4H-1638.4z"/></clipPath><clipPath id="d"><path d="M0 0h595v842H0z"/></clipPath><clipPath id="e"><path d="M0 0h595v842H0z"/></clipPath><clipPath id="f"><path d="M29.15 70.35H563.6v51.85H29.15z"/></clipPath><clipPath id="g"><path d="M0 0h595v842H0z"/></clipPath><clipPath id="h"><path d="M29.15 265.5h145v71.95h-145z"/></clipPath><clipPath id="i"><path d="M0 0h595v842H0z"/></clipPath></defs><g clip-path="url(#a)" transform="scale(1.33333)"><g clip-path="url(#b)"><g clip-path="url(#c)"><image xlink:href="img_11.png" width="716" height="47" transform="matrix(.83933 0 0 .84 0 -.84)"/></g></g><g clip-path="url(#d)"><path d="M28.8 38.88V64.8h101.76V38.88H28.8" fill="#EBF4FF" fill-rule="evenodd"/></g><g clip-path="url(#e)"><g clip-path="url(#f)"><path d="M29.4 71h533.95v51.35H29.4z" fill="#EDEDED" fill-rule="evenodd"/></g></g><g clip-path="url(#g)"><g clip-path="url(#h)"><image xlink:href="img_15.png" width="14" height="16" transform="matrix(.72857 0 0 .72 51 278.04)"/></g></g><g clip-path="url(#i)" stroke="#DDD" fill="none"><path d="M28.79 70.71h535.12" stroke-width=".72"/><path d="M29.51 122.32h533.68" stroke-width=".24"/><path d="M29.15 70.35V337.4m534.4-266.33V337.4" stroke-width=".72"/></g></g></svg>