<svg xmlns="http://www.w3.org/2000/svg" xmlns:xlink="http://www.w3.org/1999/xlink" preserveAspectRatio="xMinYMin meet" viewBox="0 0 793 1123"><defs><clipPath id="a"><path d="M0 842V0h595v842H0z"/></clipPath><clipPath id="b"><path d="M0 0h595v842H0z"/></clipPath><clipPath id="c"><path d="M-1638.4 0h3871.75v39.4H-1638.4z"/></clipPath><clipPath id="d"><path d="M0 0h595v842H0z"/></clipPath><clipPath id="e"><path d="M28.9 103.25h60.25v36.2H28.9z"/></clipPath><clipPath id="f"><path d="M0 0h595v842H0z"/></clipPath><clipPath id="g"><path d="M89.1 103.25h477.2v36.2H89.1z"/></clipPath><clipPath id="h"><path d="M0 0h595v842H0z"/></clipPath><clipPath id="i"><path d="M0 0h595v842H0z"/></clipPath><clipPath id="j"><path d="M28.9 294.3h60.25v36.2H28.9z"/></clipPath><clipPath id="k"><path d="M0 0h595v842H0z"/></clipPath><clipPath id="l"><path d="M89.1 294.3h149.75v36.2H89.1z"/></clipPath><clipPath id="m"><path d="M0 0h595v842H0z"/></clipPath><clipPath id="n"><path d="M238.8 294.3h327.5v36.2H238.8z"/></clipPath><clipPath id="o"><path d="M0 0h595v842H0z"/></clipPath><clipPath id="p"><path d="M0 0h595v842H0z"/></clipPath><clipPath id="q"><path d="M0 0h595v842H0z"/></clipPath><clipPath id="r"><path d="M0 0h595v842H0z"/></clipPath></defs><g clip-path="url(#a)" transform="scale(1.33333)"><g clip-path="url(#b)"><g clip-path="url(#c)"><image xlink:href="img_11.png" width="716" height="47" transform="matrix(.83933 0 0 .84 0 -.84)"/></g></g><g clip-path="url(#d)"><g clip-path="url(#e)"><path d="M28.9 103.4h60.25v36.2H28.9z" fill="#EEE" fill-rule="evenodd"/></g></g><g clip-path="url(#f)"><g clip-path="url(#g)"><path d="M89.1 103.4h477.2v36.2H89.1z" fill="#EEE" fill-rule="evenodd"/></g></g><g clip-path="url(#h)" stroke="#DDD" stroke-width=".24" fill="none"><path d="M28.78 103.42h537.59m-537.59 36.2h537.59M28.78 167.87h537.59M28.78 196.12h537.59m-537.59 28.3h537.59M28.9 103.3v121m60.2-121v121m477.15-121v121"/></g><g clip-path="url(#i)"><g clip-path="url(#j)"><path d="M28.9 294.45h60.25v36.2H28.9z" fill="#EEE" fill-rule="evenodd"/></g></g><g clip-path="url(#k)"><g clip-path="url(#l)"><path d="M89.1 294.45h149.75v36.2H89.1z" fill="#EEE" fill-rule="evenodd"/></g></g><g clip-path="url(#m)"><g clip-path="url(#n)"><path d="M238.8 294.45h327.5v36.2H238.8z" fill="#EEE" fill-rule="evenodd"/></g></g><g clip-path="url(#o)"><path d="M46.56 341.04h26.76c5.88.01 10.63 4.721 10.63 10.585 0 5.814-4.75 10.575-10.63 10.535H46.56c-5.91.04-10.61-4.721-10.61-10.535 0-5.864 4.7-10.575 10.61-10.585" fill="#FCC" fill-rule="evenodd"/></g><g clip-path="url(#p)"><path d="M46.56 385.68h26.76c5.88.02 10.63 4.731 10.63 10.595 0 5.814-4.75 10.575-10.63 10.525H46.56c-5.91.05-10.61-4.711-10.61-10.525 0-5.864 4.7-10.575 10.61-10.595" fill="#FFE396" fill-rule="evenodd"/></g><g clip-path="url(#q)"><path d="M46.56 424.56h26.76c5.88-.01 10.63 4.701 10.63 10.565 0 5.814-4.75 10.575-10.63 10.555H46.56a10.548 10.548 0 0 1-10.61-10.555c0-5.864 4.7-10.575 10.61-10.565" fill="#FFF0D6" fill-rule="evenodd"/></g><g clip-path="url(#r)" stroke="#DDD" stroke-width=".24" fill="none"><path d="M28.78 294.42h537.59m-537.59 36.2h537.59M28.78 375.17h537.59M28.78 419.72h537.59m-537.59 33.3h537.59M28.9 294.3v158.6m60.2-158.6v158.6m149.7-158.6v158.6m327.45-158.6v158.6"/></g></g></svg>