<svg xmlns="http://www.w3.org/2000/svg" xmlns:xlink="http://www.w3.org/1999/xlink" preserveAspectRatio="xMinYMin meet" viewBox="0 0 793 1123"><defs><clipPath id="a"><path d="M0 842V0h595v842H0z"/></clipPath><clipPath id="b"><path d="M0 0h595v842H0z"/></clipPath><clipPath id="c"><path d="M-1638.4 0h3871.75v39.4H-1638.4z"/></clipPath><clipPath id="d"><path d="M0 0h595v842H0z"/></clipPath><clipPath id="e"><path d="M0 0h595v842H0z"/></clipPath><clipPath id="f"><path d="M-1638.4 75.6h3871.75v23.85H-1638.4z"/></clipPath><clipPath id="g"><path d="M0 0h595v842H0z"/></clipPath><clipPath id="h"><path d="M-1638.4 99.5h3871.75v14.45H-1638.4z"/></clipPath><clipPath id="i"><path d="M0 0h595v842H0z"/></clipPath><clipPath id="j"><path d="M-.8 276.5h250.1v546.2H-.8z"/></clipPath><clipPath id="k"><path d="M-1638.4 412.2h3523.1v42.35h-3523.1z"/></clipPath><clipPath id="l"><path d="M0 0h595v842H0z"/></clipPath><clipPath id="m"><path d="M247.7 276.5h348.1v546.2H247.7z"/></clipPath><clipPath id="n"><path d="M-1638.4 489.25h3871.8v42.35h-3871.8z"/></clipPath><clipPath id="o"><path d="M0 0h595v842H0z"/></clipPath><clipPath id="p"><path d="M0 0h595v842H0z"/></clipPath><clipPath id="q"><path d="M0 0h595v842H0z"/></clipPath></defs><g clip-path="url(#a)" transform="scale(1.33333)"><g clip-path="url(#b)"><g clip-path="url(#c)"><image xlink:href="img_11.png" width="716" height="47" transform="matrix(.83933 0 0 .84 0 -.84)"/></g></g><g clip-path="url(#d)"><image xlink:href="img_17.png" width="718" height="513" transform="matrix(.74875 0 0 .74854 28.8 334.92)"/></g><g clip-path="url(#e)"><g clip-path="url(#f)"><image xlink:href="img_18.png" width="5" height="5" transform="matrix(.672 0 0 .672 28.8 88.68)"/></g></g><g clip-path="url(#g)"><g clip-path="url(#h)"><image xlink:href="img_19.png" width="5" height="5" transform="matrix(.672 0 0 .672 28.8 103.92)"/></g></g><g clip-path="url(#i)"><g clip-path="url(#j)"><g clip-path="url(#k)"><image xlink:href="img_20.png" width="75" height="57" transform="matrix(.744 0 0 .74316 190.56 412.32)"/></g></g></g><g clip-path="url(#l)"><g clip-path="url(#m)"><g clip-path="url(#n)"><image xlink:href="img_21.png" width="54" height="58" transform="matrix(.73333 0 0 .73034 276.36 489.36)"/></g></g></g><g clip-path="url(#o)"><path d="M281.85 124h232.3c1.35 0 2.4 1.05 2.4 2.4v32.15a2.4 2.4 0 0 1-2.4 2.4h-232.3a2.4 2.4 0 0 1-2.4-2.4V126.4c0-1.35 1.05-2.4 2.4-2.4m0-.95h232.3c1.85 0 3.35 1.5 3.35 3.35v32.15c0 1.85-1.5 3.35-3.35 3.35h-232.3a3.35 3.35 0 0 1-3.35-3.35V126.4c0-1.85 1.5-3.35 3.35-3.35z" fill="#71A4E1" fill-rule="evenodd"/></g><g clip-path="url(#p)"><path d="M33.8 123.8h232.3c1.35 0 2.4 1.05 2.4 2.4v32.15a2.4 2.4 0 0 1-2.4 2.4H33.8a2.4 2.4 0 0 1-2.4-2.4V126.2c0-1.35 1.05-2.4 2.4-2.4m0-.95h232.3c1.85 0 3.35 1.5 3.35 3.35v32.15c0 1.85-1.5 3.35-3.35 3.35H33.8a3.35 3.35 0 0 1-3.35-3.35V126.2c0-1.85 1.5-3.35 3.35-3.35z" fill="#71A4E1" fill-rule="evenodd"/></g><g clip-path="url(#q)" fill="#71A4E1" fill-rule="evenodd"><path d="M281.75 172.55h232.3c1.35 0 2.4 1.05 2.4 2.4v32.15a2.4 2.4 0 0 1-2.4 2.4h-232.3a2.4 2.4 0 0 1-2.4-2.4v-32.15c0-1.35 1.05-2.4 2.4-2.4m0-.95h232.3c1.85 0 3.35 1.5 3.35 3.35v32.15c0 1.85-1.5 3.35-3.35 3.35h-232.3a3.35 3.35 0 0 1-3.35-3.35v-32.15c0-1.85 1.5-3.35 3.35-3.35zm-248.05.7H266c1.35 0 2.4 1.05 2.4 2.4v32.15a2.4 2.4 0 0 1-2.4 2.4H33.7a2.4 2.4 0 0 1-2.4-2.4V174.7c0-1.35 1.05-2.4 2.4-2.4m0-.95H266c1.85 0 3.35 1.5 3.35 3.35v32.15c0 1.85-1.5 3.35-3.35 3.35H33.7a3.35 3.35 0 0 1-3.35-3.35V174.7c0-1.85 1.5-3.35 3.35-3.35z"/></g></g></svg>