<svg xmlns="http://www.w3.org/2000/svg" xmlns:xlink="http://www.w3.org/1999/xlink" preserveAspectRatio="xMinYMin meet" viewBox="0 0 793 1123"><defs><clipPath id="a"><path d="M0 842V0h595v842H0z"/></clipPath><clipPath id="b"><path d="M0 0h595v842H0z"/></clipPath><clipPath id="c"><path d="M0 0h595v842H0z"/></clipPath><clipPath id="d"><path d="M0 0h595v842H0z"/></clipPath><clipPath id="e"><path d="M-1638.4 90.2h3842.7v24.6h-3842.7z"/></clipPath><clipPath id="f"><path d="M0 0h595v842H0z"/></clipPath><clipPath id="g"><path d="M0 0h595v842H0z"/></clipPath><clipPath id="h"><path d="M-1638.4 114.7h3842.7v25.2h-3842.7z"/></clipPath><clipPath id="i"><path d="M0 0h595v842H0z"/></clipPath><clipPath id="j"><path d="M0 0h595v842H0z"/></clipPath><clipPath id="k"><path d="M-1638.4 139.95h3842.7v25.1h-3842.7z"/></clipPath><clipPath id="l"><path d="M0 0h595v842H0z"/></clipPath><clipPath id="m"><path d="M0 0h595v842H0z"/></clipPath><clipPath id="n"><path d="M-1638.4 165.05h3842.7v25.2h-3842.7z"/></clipPath><clipPath id="o"><path d="M0 0h595v842H0z"/></clipPath><clipPath id="p"><path d="M0 0h595v842H0z"/></clipPath><clipPath id="q"><path d="M-1638.4 190.35h3842.7v25.85h-3842.7z"/></clipPath><clipPath id="r"><path d="M0 0h595v842H0z"/></clipPath><clipPath id="s"><path d="M0 0h595v842H0z"/></clipPath><clipPath id="t"><path d="M-1638.4 216.1h3842.7v25.2h-3842.7z"/></clipPath><clipPath id="u"><path d="M0 0h595v842H0z"/></clipPath><clipPath id="v"><path d="M0 0h595v842H0z"/></clipPath><clipPath id="w"><path d="M-1638.4 241.3h3842.7v25.15h-3842.7z"/></clipPath><clipPath id="x"><path d="M0 0h595v842H0z"/></clipPath><clipPath id="y"><path d="M0 0h595v842H0z"/></clipPath><clipPath id="z"><path d="M-1638.4 266.6h3842.7v19.45h-3842.7z"/></clipPath><clipPath id="A"><path d="M0 0h595v842H0z"/></clipPath></defs><g clip-path="url(#a)" transform="scale(1.33333)"><g clip-path="url(#b)"><path d="M29.28 42.36v28.8h536.64v-28.8H29.28" fill="#F1F1F1" fill-rule="evenodd"/></g><g clip-path="url(#c)"><path d="M31.1 94.45h120.5V115H31.1z" fill="#FFFFFE" fill-rule="evenodd"/></g><g clip-path="url(#d)"><g clip-path="url(#e)"><image xlink:href="img_05.png" width="1" height="2" transform="matrix(.48 0 0 .24 30.24 105)"/></g></g><g clip-path="url(#f)"><path d="M30.6 105.8h.45" stroke="#333" stroke-width=".6" fill="none"/><path d="M151.55 105.8h3.6m0 0h3.6m0 0h3.6m0 0h3.6m0 0h3.6m0 0h3.6m0 0h3.6m0 0h3.6m0 0h3.6m0 0h3.6m0 0h3.6m0 0h3.6m0 0h3.6m0 0h3.6m0 0h3.6m0 0h3.6m0 0h3.6m0 0h3.6m0 0h3.6m0 0h3.6m0 0h3.6m0 0h3.6m0 0h3.6m0 0h3.6m0 0h3.6m0 0h3.6m0 0h3.6m0 0h3.6m0 0h3.6m0 0h3.6m0 0h3.6m0 0h3.6m0 0h3.6m0 0h3.6m0 0h3.6m0 0h3.6m0 0h3.6m0 0h3.6m0 0h3.6m0 0h3.6m0 0h3.6m0 0h3.6m0 0h3.45m0 0h3.6m0 0h3.6m0 0h3.5m0 0h3.6m0 0h3.5m0 0h3.6m0 0h3.6m0 0h3.45m0 0h3.6m0 0h3.5m0 0h3.6m0 0h3.45m0 0h3.6m0 0h3.6m0 0h3.5m0 0h3.6m0 0h3.5m0 0h3.6m0 0h3.6m0 0h3.6m0 0h3.45m0 0h3.6m0 0h3.5m0 0h3.6m0 0H395m0 0h3.6m0 0h3.6m0 0h3.5m0 0h3.6m0 0h3.5m0 0h3.6m0 0h3.6m0 0h3.45m0 0h3.6m0 0h3.5m0 0h3.6m0 0h3.45m0 0h3.6m0 0h3.6m0 0h3.5m0 0h3.6m0 0h3.5m0 0h3.6m0 0h3.6m0 0h3.45m0 0h3.6m0 0h3.5m0 0h3.6m0 0h3.45m0 0h3.6m0 0h3.6m0 0h3.5m0 0h3.6m0 0h3.5m0 0h3.6m0 0h3.6m0 0h3.45m0 0h3.6m0 0h3.5m0 0h3.6m0 0h3.45m0 0h3.6m0 0h3.6m0 0h3.5m0 0h3.6m0 0h3.5m0 0h3.6m0 0h3.6m0 0h3.45m0 0h3.6m0 0h3.5m0 0h7.05" stroke="#666" stroke-width=".6" fill="none"/><path d="M55.35 119.6h17.1v20.55h-17.1zm17.1 0h3.6v20.55h-3.6zm3.6 0h72.3v20.55h-72.3z" fill="#FFFFFE" fill-rule="evenodd"/></g><g clip-path="url(#g)"><g clip-path="url(#h)"><image xlink:href="img_05.png" width="1" height="2" transform="matrix(.48 0 0 .24 54.36 130.2)"/></g></g><g clip-path="url(#i)"><path d="M54.8 131h.5m17.15 0h3.6" stroke="#333" stroke-width=".6" fill="none"/><path d="M148.3 131h3.6m0 0h3.6m0 0h3.6m0 0h3.6m0 0h3.6m0 0h3.6m0 0h3.6m0 0h3.6m0 0h3.6m0 0h3.6m0 0h3.6m0 0h3.6m0 0h3.6m0 0h3.6m0 0h3.6m0 0h3.6m0 0h3.6m0 0h3.6m0 0h3.6m0 0h3.6m0 0h3.6m0 0h3.6m0 0h3.6m0 0h3.6m0 0h3.6m0 0h3.6m0 0h3.6m0 0h3.6m0 0h3.6m0 0h3.6m0 0h3.6m0 0h3.6m0 0h3.6m0 0h3.6m0 0h3.6m0 0h3.6m0 0h3.6m0 0h3.6m0 0h3.6m0 0h3.6m0 0h3.5m0 0h3.6m0 0h3.6m0 0h3.45m0 0h3.6m0 0h3.6m0 0h3.5m0 0h3.6m0 0h3.45m0 0h3.6m0 0h3.6m0 0h3.5m0 0h3.6m0 0h3.5m0 0h3.6m0 0h3.6m0 0h3.45m0 0h3.6m0 0h3.5m0 0h3.6m0 0h3.45m0 0h3.6m0 0h3.6m0 0h3.5m0 0h3.6m0 0h3.5m0 0h3.6m0 0h3.6m0 0h3.45m0 0h3.6m0 0h3.5m0 0h3.6m0 0h3.45m0 0h3.6m0 0h3.6m0 0h3.5m0 0h3.6m0 0h3.5m0 0h3.6m0 0h3.6m0 0h3.45m0 0h3.6m0 0h3.5m0 0h3.6m0 0H452m0 0h3.6m0 0h3.6m0 0h3.5m0 0h3.6m0 0h3.5m0 0h3.6m0 0h3.6m0 0h3.45m0 0h3.6m0 0h3.5m0 0h3.6m0 0h3.45m0 0h3.6m0 0h3.6m0 0h3.5m0 0h3.6m0 0h3.5m0 0h3.6m0 0h3.6m0 0h3.45m0 0h3.6m0 0h3.5m0 0h3.6m0 0h3.45m0 0h3.6m0 0h3.6m0 0h3.6m0 0h3.5m0 0h3.6m0 0h3.5m0 0h7.05" stroke="#666" stroke-width=".6" fill="none"/><path d="M56.65 144.75H73.6v20.55H56.65zm16.95 0h3.55v20.55H73.6zm3.55 0h36v20.55h-36zm36 0h24v20.55h-24z" fill="#FFFFFE" fill-rule="evenodd"/></g><g clip-path="url(#j)"><g clip-path="url(#k)"><image xlink:href="img_06.png" width="1" height="2" transform="matrix(.48 0 0 .24 55.68 155.4)"/></g></g><g clip-path="url(#l)"><path d="M56.15 156.2h.45m16.95 0h3.6" stroke="#333" stroke-width=".6" fill="none"/><path d="M137.15 156.2h3.45m0 0h3.6m0 0h3.6m0 0h3.5m0 0h3.6m0 0h3.5m0 0h3.6m0 0h3.6m0 0h3.45m0 0h3.6m0 0h3.5m0 0h3.6m0 0h3.45m0 0h3.6m0 0h3.6m0 0h3.5m0 0h3.6m0 0h3.5m0 0h3.6m0 0h3.6m0 0h3.45m0 0h3.6m0 0h3.5m0 0h3.6m0 0h3.45m0 0h3.6m0 0h3.6m0 0h3.5m0 0h3.6m0 0h3.5m0 0h3.6m0 0h3.6m0 0h3.45m0 0h3.6m0 0h3.5m0 0h3.6m0 0h3.45m0 0h3.6m0 0h3.6m0 0h3.5m0 0h3.6m0 0h3.5m0 0h3.6m0 0h3.6m0 0h3.45m0 0h3.6m0 0h3.6m0 0h3.5m0 0h3.6m0 0h3.45m0 0h3.6m0 0h3.6m0 0h3.5m0 0h3.6m0 0h3.5m0 0h3.6m0 0h3.6m0 0h3.45m0 0h3.6m0 0h3.5m0 0h3.6m0 0h3.45m0 0h3.6m0 0h3.6m0 0h3.5m0 0h3.6m0 0h3.5m0 0h3.6m0 0h3.6m0 0h3.45m0 0h3.6m0 0h3.5m0 0h3.6m0 0h3.45m0 0h3.6m0 0h3.6m0 0h3.5m0 0h3.6m0 0h3.5m0 0h3.6m0 0h3.6m0 0h3.45m0 0h3.6m0 0h3.5m0 0h3.6m0 0h3.45m0 0h3.6m0 0h3.6m0 0h3.5m0 0h3.6m0 0h3.5m0 0h3.6m0 0h3.6m0 0h3.45m0 0h3.6m0 0h3.5m0 0h3.6m0 0H485m0 0h3.6m0 0h3.6m0 0h3.5m0 0h3.6m0 0h3.5m0 0h3.45m0 0h3.5m0 0h3.45m0 0h3.6m0 0h3.5m0 0h3.5m0 0h3.6m0 0h3.45m0 0h3.5m0 0h3.45m0 0h3.5m0 0h3.5m0 0h3.6m0 0h3.45m0 0h3.5m0 0h3.45m0 0h7" stroke="#666" stroke-width=".6" fill="none"/><path d="M55.3 169.95h17.1v20.55H55.3zm17.1 0H76v20.55h-3.6zm3.6 0h24.1v20.55H76zm24.1 0h48.2v20.55h-48.2z" fill="#FFFFFE" fill-rule="evenodd"/></g><g clip-path="url(#m)"><g clip-path="url(#n)"><image xlink:href="img_07.png" width="1" height="2" transform="matrix(.48 0 0 .24 54.36 180.6)"/></g></g><g clip-path="url(#o)"><path d="M54.8 181.4h.5m17.05 0h3.6" stroke="#333" stroke-width=".6" fill="none"/><path d="M148.3 181.4h3.6m0 0h3.6m0 0h3.6m0 0h3.6m0 0h3.6m0 0h3.6m0 0h3.6m0 0h3.6m0 0h3.6m0 0h3.6m0 0h3.6m0 0h3.6m0 0h3.6m0 0h3.6m0 0h3.6m0 0h3.6m0 0h3.6m0 0h3.6m0 0h3.6m0 0h3.6m0 0h3.6m0 0h3.6m0 0h3.6m0 0h3.6m0 0h3.6m0 0h3.6m0 0h3.6m0 0h3.6m0 0h3.6m0 0h3.6m0 0h3.6m0 0h3.6m0 0h3.6m0 0h3.6m0 0h3.6m0 0h3.6m0 0h3.5m0 0h3.6m0 0h3.6m0 0h3.45m0 0h3.6m0 0h3.5m0 0h3.6m0 0h3.45m0 0h3.6m0 0h3.6m0 0h3.6m0 0h3.5m0 0h3.6m0 0h3.5m0 0h3.6m0 0h3.6m0 0h3.45m0 0h3.6m0 0h3.5m0 0h3.6m0 0h3.45m0 0h3.6m0 0h3.6m0 0h3.5m0 0h3.6m0 0h3.5m0 0h3.6m0 0h3.6m0 0h3.45m0 0h3.6m0 0h3.5m0 0h3.6m0 0H395m0 0h3.6m0 0h3.6m0 0h3.5m0 0h3.6m0 0h3.5m0 0h3.6m0 0h3.6m0 0h3.45m0 0h3.6m0 0h3.5m0 0h3.6m0 0h3.45m0 0h3.6m0 0h3.6m0 0h3.5m0 0h3.6m0 0h3.5m0 0h3.6m0 0h3.6m0 0h3.45m0 0h3.6m0 0h3.5m0 0h3.6m0 0h3.45m0 0h3.6m0 0h3.6m0 0h3.5m0 0h3.6m0 0h3.5m0 0h3.6m0 0h3.6m0 0h3.45m0 0h3.6m0 0h3.5m0 0h3.6m0 0h3.45m0 0h3.6m0 0h3.6m0 0h3.5m0 0h3.6m0 0h3.6m0 0h3.5m0 0h3.6m0 0h3.6m0 0h3.45m0 0h3.6m0 0h6.95" stroke="#666" stroke-width=".6" fill="none"/><path d="M31.15 195.85h96v20.55h-96z" fill="#FFFFFE" fill-rule="evenodd"/></g><g clip-path="url(#p)"><g clip-path="url(#q)"><image xlink:href="img_08.png" width="1" height="1" transform="matrix(.48 0 0 .48 30.24 206.4)"/></g></g><g clip-path="url(#r)"><path d="M30.6 207.2h.6" stroke="#333" stroke-width=".6" fill="none"/><path d="M127.2 207.2h3.45m0 0h3.6m0 0h3.5m0 0h3.6m0 0h3.45m0 0h3.6m0 0h3.6m0 0h3.5m0 0h3.6m0 0h3.5m0 0h3.6m0 0h3.6m0 0h3.45m0 0h3.6m0 0h3.5m0 0h3.6m0 0h3.45m0 0h3.6m0 0h3.6m0 0h3.5m0 0h3.6m0 0h3.5m0 0h3.6m0 0h3.6m0 0h3.45m0 0h3.6m0 0h3.5m0 0h3.6m0 0H230m0 0h3.6m0 0h3.6m0 0h3.5m0 0h3.6m0 0h3.5m0 0h3.6m0 0h3.6m0 0h3.45m0 0h3.6m0 0h3.5m0 0h3.6m0 0h3.45m0 0h3.6m0 0h3.6m0 0h3.5m0 0h3.6m0 0h3.5m0 0h3.6m0 0h3.6m0 0h3.45m0 0h3.6m0 0h3.5m0 0h3.6m0 0h3.45m0 0h3.6m0 0h3.6m0 0h3.5m0 0h3.6m0 0h3.5m0 0h3.6m0 0h3.6m0 0h3.45m0 0h3.6m0 0h3.6m0 0h3.5m0 0h3.6m0 0h3.45m0 0h3.6m0 0h3.6m0 0h3.5m0 0h3.5m0 0h3.45m0 0h3.5m0 0H386m0 0h3.6m0 0h3.5m0 0h3.5m0 0h3.45m0 0h3.5m0 0H407m0 0h3.6m0 0h3.5m0 0h3.5m0 0h3.45m0 0h3.5m0 0H428m0 0h3.6m0 0h3.5m0 0h3.5m0 0h3.45m0 0h3.5m0 0H449m0 0h3.6m0 0h3.5m0 0h3.5m0 0h3.45m0 0h3.5m0 0H470m0 0h3.6m0 0h3.5m0 0h3.5m0 0h3.45m0 0h3.5m0 0H491m0 0h3.6m0 0h3.5m0 0h3.5m0 0h3.45m0 0h3.5m0 0H512m0 0h3.6m0 0h3.5m0 0h3.5m0 0h3.45m0 0h3.5m0 0H533m0 0h3.6m0 0h3.5m0 0h5.15m0 0h3.5m0 0h3.45m0 0h3.5m0 0h7.1" stroke="#666" stroke-width=".6" fill="none"/><path d="M62.3 221h16.8v20.55H62.3zm16.8 0h3.5v20.55h-3.5zm3.5 0h47.8v20.55H82.6z" fill="#FFFFFE" fill-rule="evenodd"/></g><g clip-path="url(#s)"><g clip-path="url(#t)"><image xlink:href="img_09.png" width="1" height="1" transform="matrix(.48 0 0 .48 61.32 231.6)"/></g></g><g clip-path="url(#u)"><path d="M131.6 232.4h3.6m0 0h3.5m0 0h3.5m0 0h3.45m0 0h3.5m0 0h3.45m0 0h3.6m0 0h3.5m0 0h3.5m0 0h3.45m0 0h3.5m0 0h3.45m0 0h3.6m0 0h3.5m0 0h3.5m0 0h3.45m0 0h3.5m0 0h3.45m0 0h3.6m0 0h3.5m0 0h3.5m0 0h3.45m0 0h3.5m0 0h3.45m0 0h3.6m0 0h3.5m0 0h3.5m0 0h3.45m0 0h3.5m0 0h3.45m0 0h3.6m0 0h3.5m0 0h3.5m0 0h3.45m0 0h3.5m0 0h3.45m0 0h3.6m0 0h3.5m0 0h3.5m0 0h3.45m0 0h3.5m0 0h3.45m0 0h3.6m0 0h3.5m0 0h3.5m0 0h3.6m0 0h3.45m0 0h3.5m0 0h3.45m0 0h3.5m0 0h3.5m0 0h3.6m0 0h3.45m0 0h3.5m0 0h3.45m0 0h3.5m0 0h3.5m0 0h3.6m0 0h3.45m0 0h3.5m0 0h3.45m0 0h3.5m0 0h3.5m0 0h3.6m0 0h3.45m0 0h3.5m0 0h3.45m0 0h3.5m0 0h3.5m0 0h3.6m0 0h3.45m0 0h3.5m0 0h3.45m0 0h3.5m0 0h3.5m0 0h3.6m0 0h3.45m0 0h3.5m0 0h3.45m0 0h3.5m0 0h3.5m0 0h3.6m0 0h3.45m0 0h3.5m0 0h3.45m0 0h3.5m0 0h3.5m0 0h3.6m0 0h3.45m0 0h3.5m0 0h3.45m0 0h3.5m0 0h3.5m0 0h3.6m0 0h3.45m0 0h3.5m0 0h3.45m0 0h3.5m0 0h3.5m0 0h3.6m0 0h3.45m0 0h3.5m0 0h3.45m0 0h3.5m0 0h3.5m0 0h3.35m0 0H506m0 0h3.5m0 0h3.5m0 0h3.45m0 0h3.35m0 0h3.5m0 0h3.5m0 0h3.45m0 0h3.35m0 0h3.5m0 0h3.5m0 0h3.45m0 0h3.35m0 0h3.5m0 0h3.5m0 0h3.45m0 0h6.85" stroke="#666" stroke-width=".6" fill="none"/><path d="M31.15 246.2h24v20.55h-24zm24 0h108v20.55h-108z" fill="#FFFFFE" fill-rule="evenodd"/></g><g clip-path="url(#v)"><g clip-path="url(#w)"><image xlink:href="img_05.png" width="1" height="2" transform="matrix(.48 0 0 .24 30.24 256.8)"/></g></g><g clip-path="url(#x)" stroke-width=".6" fill="none"><path d="M30.6 257.6h.6" stroke="#333"/><path d="M163.2 257.6h3.45m0 0h3.6m0 0h3.5m0 0h3.6m0 0h3.45m0 0h3.6m0 0h3.6m0 0h3.5m0 0h3.6m0 0h3.5m0 0h3.6m0 0h3.6m0 0h3.45m0 0h3.6m0 0h3.5m0 0h3.6m0 0h3.45m0 0h3.6m0 0h3.6m0 0h3.5m0 0h3.6m0 0h3.5m0 0h3.6m0 0h3.6m0 0h3.45m0 0h3.6m0 0h3.5m0 0h3.6m0 0H266m0 0h3.6m0 0h3.6m0 0h3.5m0 0h3.6m0 0h3.5m0 0h3.6m0 0h3.6m0 0h3.45m0 0h3.6m0 0h3.5m0 0h3.6m0 0h3.45m0 0h3.6m0 0h3.6m0 0h3.5m0 0h3.6m0 0h3.5m0 0h3.6m0 0h3.6m0 0h3.45m0 0h3.6m0 0h3.5m0 0h3.6m0 0h3.45m0 0h3.6m0 0h3.6m0 0h3.5m0 0h3.6m0 0h3.5m0 0h3.6m0 0h3.6m0 0h3.45m0 0h3.6m0 0h3.6m0 0h3.5m0 0h3.6m0 0h3.45m0 0h3.6m0 0h3.6m0 0h3.5m0 0h3.5m0 0h3.45m0 0h3.5m0 0H422m0 0h3.6m0 0h3.5m0 0h3.5m0 0h3.45m0 0h3.5m0 0H443m0 0h3.6m0 0h3.5m0 0h3.5m0 0h3.45m0 0h3.5m0 0H464m0 0h3.6m0 0h3.5m0 0h3.5m0 0h3.45m0 0h3.5m0 0H485m0 0h3.6m0 0h3.5m0 0h3.5m0 0h3.45m0 0h5.15m0 0h3.5m0 0h3.5m0 0h3.6m0 0h3.45m0 0h3.5m0 0h3.45m0 0h3.5m0 0h3.5m0 0h3.6m0 0h3.45m0 0h3.5m0 0h3.45m0 0h3.5m0 0h3.5m0 0h3.6m0 0h6.95" stroke="#666"/></g><g clip-path="url(#y)"><g clip-path="url(#z)"><image xlink:href="img_05.png" width="1" height="2" transform="matrix(.48 0 0 .24 29.28 281.76)"/></g></g><g clip-path="url(#A)"><path d="M29.6 282.6h.85" stroke="#333" stroke-width=".6" fill="none"/></g></g></svg>