<svg width="64" height="22" viewBox="0 0 64 22" fill="none" xmlns="http://www.w3.org/2000/svg"><path d="m8.461 7.216 3.51 11.344 3.51-11.344h-7.02z" fill-rule="evenodd" fill="url(#a)"/><path d="M9.201 1.28H5.158L2 6.029h5.145L9.2 1.28z" fill-rule="evenodd" fill="url(#b)"/><path d="M15.412 6.028 13.354 1.28h-2.77L8.529 6.029h6.884z" fill-rule="evenodd" fill="url(#c)"/><path d="M2.291 7.216 5.774 11.3c.008-.004 4.533 5.314 4.533 5.314L7.11 7.216H2.29z" fill-rule="evenodd" fill="url(#d)"/><path d="m14.739 1.28 2.057 4.748L22 6.03l-3.218-4.75H14.74z" fill-rule="evenodd" fill="url(#e)"/><path d="m13.71 16.535 6.05-7.048c-.01-.005 1.94-2.27 1.94-2.27h-4.87l-3.12 9.318z" fill-rule="evenodd" fill="url(#f)"/><path d="M61.061 16.64H18.963c-.84 0-1.285-1.011-.692-1.589l6.918-7.463c.296-.337.346-.819.05-1.204l-2.62-3.611c-.444-.626 0-1.493.791-1.493h37.651c.544 0 .939.433.939.963v13.482c0 .482-.445.915-.939.915z" fill-rule="evenodd" fill="#2C3138"/><path d="M28.32 8.02c1.809-.71 3.61-2 4.6-3.499l.84.398c-.07.11-.15.21-.23.322 1.26 1.409 2.71 2.168 4.199 2.769-.23.2-.488.52-.598.81-1.45-.68-2.8-1.48-4.121-2.94-1.09 1.229-2.55 2.25-4.05 2.93-.14-.241-.4-.57-.64-.79zm24.099.1h-2.54v.6c0 .23 0 .46-.009.7h1.99v4.359h-.84V10.25h-1.18c-.07 1.299-.28 2.61-.849 3.58a3.461 3.461 0 0 0-.671-.572c.63-1.238.71-3.07.71-4.529V4.84h.85V7.3h.91V4.6h.84v2.7h.789v.82zm4.202-.68.158-.03.552.14c-.222 1.73-.681 3.099-1.35 4.16.45.58.989 1.041 1.628 1.37-.21.16-.488.501-.63.75a5.203 5.203 0 0 1-1.54-1.38 5.927 5.927 0 0 1-1.709 1.38c-.12-.24-.359-.59-.55-.76.66-.31 1.24-.79 1.739-1.43-.53-.95-.908-2.09-1.17-3.36h-.058v.35c0 1.68-.122 3.801-.982 5.24a4.486 4.486 0 0 0-.74-.53c.74-1.3.83-3.26.83-4.71V5.25c1.451-.1 3.101-.31 4.132-.562l.559.801c-1.07.24-2.49.41-3.8.51v1.44h2.93zM44.709 4.75v7.63h2.69v.92H38.61v-.92h2.69V4.74h.95v7.64h1.51V4.75h.949zM39.65 6.8c.5 1.14 1.099 2.641 1.36 3.54l-.93.342c-.23-.92-.79-2.461-1.28-3.611l.85-.271zm5.181 3.552c.53-.91 1.209-2.37 1.58-3.52l.85.41c-.472 1.189-1.121 2.568-1.66 3.508l-.77-.398zm-8.481.04h-2.781v2.27h3.691v.85h-8.45v-.85H30V9.079h.91v3.582h1.68V7.37h.979v2.19h2.78v.83zm19.08.49c.42-.74.73-1.611.93-2.6h-1.88c.22.95.53 1.828.95 2.6z" fill="url(#g)"/><defs><linearGradient id="a" x1="11.971" y1="7.216" x2="11.971" y2="18.56" gradientUnits="userSpaceOnUse"><stop stop-color="#9E6700"/><stop offset=".588" stop-color="#E89A02"/><stop offset="1" stop-color="#FFB34C"/></linearGradient><linearGradient id="b" x1="5.601" y1="1.28" x2="5.601" y2="6.029" gradientUnits="userSpaceOnUse"><stop stop-color="#9E6700"/><stop offset=".588" stop-color="#E89A02"/><stop offset="1" stop-color="#FFB34C"/></linearGradient><linearGradient id="c" x1="11.97" y1="1.28" x2="11.97" y2="6.029" gradientUnits="userSpaceOnUse"><stop stop-color="#9E6700"/><stop offset=".588" stop-color="#E89A02"/><stop offset="1" stop-color="#FFB34C"/></linearGradient><linearGradient id="d" x1="6.299" y1="7.216" x2="6.299" y2="16.613" gradientUnits="userSpaceOnUse"><stop stop-color="#9E6700"/><stop offset=".588" stop-color="#E89A02"/><stop offset="1" stop-color="#FFB34C"/></linearGradient><linearGradient id="e" x1="18.369" y1="1.28" x2="18.369" y2="6.029" gradientUnits="userSpaceOnUse"><stop stop-color="#9E6700"/><stop offset=".588" stop-color="#E89A02"/><stop offset="1" stop-color="#FFB34C"/></linearGradient><linearGradient id="f" x1="17.705" y1="7.217" x2="17.705" y2="16.535" gradientUnits="userSpaceOnUse"><stop stop-color="#9E6700"/><stop offset=".588" stop-color="#E89A02"/><stop offset="1" stop-color="#FFB34C"/></linearGradient><linearGradient id="g" x1="58" y1="8.5" x2="28.5" y2="8" gradientUnits="userSpaceOnUse"><stop offset=".002" stop-color="#D48823"/><stop offset=".509" stop-color="#FAC240"/><stop offset=".97" stop-color="#E8A936"/></linearGradient></defs></svg>