<svg xmlns="http://www.w3.org/2000/svg" width="18" height="18" viewBox="0 0 18 18" fill="none"><path d="M13.659 3.6 16.2 7.495 9 15.286l-7.2-7.79L4.341 3.6h9.318z" stroke="#9B7E48"/><path d="M9.284 8.813h1.84v-.454h-1.84V6.805h-.492v3.69H7.595V7.994H7.13v2.503h-.802v.462h5.388v-.462H9.284V8.813zM8.97 4.898c-.619 1.03-1.765 1.962-2.936 2.464.12.12.254.291.324.42a7.545 7.545 0 0 0 2.637-2.097c.815 1.017 1.695 1.602 2.662 2.104.064-.149.198-.32.307-.427-.988-.462-1.918-1.039-2.714-2.03.051-.074.103-.142.146-.217l-.426-.217z" fill="#9B7E48"/></svg>