<svg width="75" height="21.993" viewBox="0 0 75 21.993" fill="none" xmlns="http://www.w3.org/2000/svg"><path d="m8.076 7.554 4.388 14.439 4.388-14.439H8.076z" fill-rule="evenodd" fill="url(#a)"/><path d="M9.002 0H3.947L0 6.044h6.431L9.001 0z" fill-rule="evenodd" fill="url(#b)"/><path d="M16.765 6.043 14.193 0h-3.462L8.16 6.044h8.604z" fill-rule="evenodd" fill="url(#c)"/><path d="m.364 7.555 4.353 5.196c.01-.005 5.667 6.764 5.667 6.764L6.386 7.555H.364z" fill-rule="evenodd" fill="url(#d)"/><path d="m15.923 0 2.572 6.043L25 6.044 20.978 0h-5.055z" fill-rule="evenodd" fill="url(#e)"/><path d="m14.637 19.415 7.564-8.97c-.014-.006 2.425-2.89 2.425-2.89h-6.088l-3.901 11.86z" fill-rule="evenodd" fill="url(#f)"/><path d="M73.826 19.55H21.204c-1.05 0-1.606-1.288-.865-2.023l8.647-9.5c.37-.428.432-1.04.062-1.531L25.774 1.9c-.556-.797 0-1.9.989-1.9h47.063C74.506 0 75 .552 75 1.226v17.159c0 .613-.556 1.164-1.174 1.164z" fill-rule="evenodd" fill="#EFA209"/><path d="M59.518 9.236c0 .267 0 .559-.012.854h2.408v5.745h-1.332v-4.41h-1.124c-.1 1.65-.383 3.318-1.061 4.513a6.602 6.602 0 0 0-1.025-.94c.714-1.54.801-3.968.801-5.762V4.33h1.345v3.014h.84V4h1.32v3.343h.854v1.334h-3.014v.56zm2.396 5.926c.347.177.901.583 1.16.838a5.77 5.77 0 0 0 .543-1.208c.271.32.594.801.765 1.133a7.19 7.19 0 0 0 1.939-1.642 7.037 7.037 0 0 0 1.69 1.642c.236-.394.67-.94.99-1.207-.703-.394-1.321-.969-1.84-1.655.778-1.384 1.296-3.166 1.532-5.391l-.877-.227-.236.05h-3.258V5.983c1.567-.102 3.234-.295 4.566-.599l-.813-1.322c-1.348.32-3.346.57-5.148.698v4.262c0 1.803-.112 4.46-1.013 6.14zM43.962 7.687v1.447h-6.48c-.1.37-.211.726-.295 1.07h4.825l.235-.077 1.136.673a114.08 114.08 0 0 1-2.95 3.064c.666.267 1.272.534 1.715.776l-.85 1.322c-1.284-.763-3.94-1.778-5.89-2.312l.778-1.145c.814.201 1.778.484 2.728.813.566-.571 1.16-1.158 1.678-1.704h-5.467c.247-.699.518-1.565.79-2.48H33V7.687h3.322c.099-.37.195-.714.283-1.083h-2.58V5.17h2.95c.088-.41.172-.776.26-1.158h1.555c-.087.382-.184.764-.283 1.158h4.581v1.434H38.16l-.283 1.083h6.085zm9.235 6.09v-2.393l1.124.587c.643-1.22 1.42-3.014 1.963-4.616l-1.32-.649c-.407 1.45-1.149 3.257-1.767 4.464V4.164h-1.519v9.613h-1.615V4.164h-1.52v9.613h-3.185v1.512h11.037v-1.512h-3.198zm-4.74-2.418c-.308-1.207-1.026-3.203-1.604-4.69l-1.348.407c.57 1.564 1.212 3.597 1.483 4.817l1.468-.534zm17.84.292c.382-.813.678-1.754.877-2.784H65.32c.235.993.57 1.933.976 2.784zm-1.975-2.148c-.027 1.602-.15 3.51-.642 5.088.714-.382 1.32-.941 1.85-1.63-.517-1.015-.9-2.185-1.208-3.458z" fill-rule="evenodd" fill="#FFF"/><defs><linearGradient id="a" x1="12.464" y1="7.554" x2="12.464" y2="21.993" gradientUnits="userSpaceOnUse"><stop stop-color="#EFA209"/><stop offset=".588" stop-color="#FFCE6C"/><stop offset="1" stop-color="#FDE7BB"/></linearGradient><linearGradient id="b" x1="4.501" y1="0" x2="4.501" y2="6.044" gradientUnits="userSpaceOnUse"><stop stop-color="#EFA209"/><stop offset=".588" stop-color="#FFCE6C"/><stop offset="1" stop-color="#FDE7BB"/></linearGradient><linearGradient id="c" x1="12.462" y1="0" x2="12.462" y2="6.044" gradientUnits="userSpaceOnUse"><stop stop-color="#EFA209"/><stop offset=".588" stop-color="#FFCE6C"/><stop offset="1" stop-color="#FDE7BB"/></linearGradient><linearGradient id="d" x1="5.374" y1="7.555" x2="5.374" y2="19.515" gradientUnits="userSpaceOnUse"><stop stop-color="#EFA209"/><stop offset=".588" stop-color="#FFCE6C"/><stop offset="1" stop-color="#FDE7BB"/></linearGradient><linearGradient id="e" x1="20.462" y1="0" x2="20.462" y2="6.044" gradientUnits="userSpaceOnUse"><stop stop-color="#EFA209"/><stop offset=".588" stop-color="#FFCE6C"/><stop offset="1" stop-color="#FDE7BB"/></linearGradient><linearGradient id="f" x1="19.631" y1="7.555" x2="19.631" y2="19.415" gradientUnits="userSpaceOnUse"><stop stop-color="#EFA209"/><stop offset=".588" stop-color="#FFCE6C"/><stop offset="1" stop-color="#FDE7BB"/></linearGradient></defs></svg>