<svg xmlns="http://www.w3.org/2000/svg" viewBox="0 0 116 32" style="enable-background:new 0 0 116 32" xml:space="preserve"><path d="M114.1 32H28.9c-1.7 0-2.6-2.1-1.4-3.3l14-15.5c.6-.7.7-1.7.1-2.5l-5.3-7.5c-.9-1.3 0-3.1 1.6-3.1h76.2c1.1 0 1.9.9 1.9 2v28c0 1-.9 1.9-1.9 1.9z" style="fill:#fbe239"/><path d="M56.4 15c-.1.3-.2.6-.4.9-.1.3.1.7.5.7h8.6c.3 0 .5.2.5.5v1.1c0 .1-.1.3-.2.4-.5.5-1.1 1-1.8 1.6-.7.7-1.4 1.3-2.1 2 .6.2 1.1.4 1.6.6.3.1.7.3 1 .4.2.1.3.4.3.6l-.4 1.1c-.1.3-.4.5-.7.3-.6-.3-1.4-.6-2.1-.9-1-.4-2-.8-3.1-1.2-1-.4-2.1-.8-3.1-1.1-.8-.3-1.6-.6-2.2-.8-.3-.1-.4-.4-.3-.6l.3-.9c.1-.3.4-.4.6-.3.7.2 1.6.5 2.5.8 1 .4 2.1.7 3.2 1.1.2.1.4 0 .5-.1.5-.4 1-.9 1.5-1.3.6-.5 1.1-1 1.5-1.4h-8.8c-.3 0-.5-.2-.5-.5v-1c0-.1 0-.2.1-.2.2-.3.3-.6.4-.9.2-.4.3-.8.5-1.1h-3.8c-.3 0-.5-.2-.5-.5v-.9c0-.3.2-.5.5-.5h4.2c.2 0 .4-.1.5-.3l.3-.9c-.2-.3-.3-.4-.5-.7h-3.2c-.3 0-.5-.2-.5-.5V9.4c0-.3.2-.5.5-.5h4.5c.1-.4.2-.8.3-1.1.1-.4.2-.7.3-1.1l1.5.2c.3 0 .5.3.4.6-.1.2-.1.5-.2.7.2.3.3.4.5.7h6.5c.3 0 .5.2.5.5v.9c0 .3-.2.5-.5.5h-7.7c-.1.3-.2.7-.3 1-.1.3-.2.6-.3 1h9.6c.3 0 .5.2.5.5v.9c0 .3-.2.5-.5.5h-10c-.2-.1-.4.1-.5.3zm30.7 7.6v1c0 .3-.2.5-.5.5H70.1c-.3 0-.5-.2-.5-.5v-1c0-.3.2-.5.5-.5h4.6c.3 0 .5-.2.5-.5V19c0-.4-.4-.6-.8-.4l-.5.3c-.3.2-.6 0-.7-.3-.2-.4-.3-.9-.5-1.4-.3-.7-.6-1.5-.9-2.2l-.9-2.1c-.2-.5-.4-.9-.6-1.3-.1-.3 0-.6.2-.7l1-.5c.3-.1.6 0 .7.2.2.3.3.7.5 1.1.3.6.6 1.3.9 2l.9 2.1c.3.7.5 1.3.7 1.8V7.5c0-.3.2-.5.5-.5h1.1c.3 0 .5.2.5.5v14c0 .3.2.5.5.5h1.1c.3 0 .5-.2.5-.5v-14c0-.3.2-.5.5-.5H81c.3 0 .5.2.5.5v10.3c.3-.6.6-1.2.9-1.9.3-.7.6-1.3.9-2 .3-.7.6-1.3.8-2 .2-.4.3-.9.5-1.3.1-.3.4-.4.7-.3l1 .5c.2.1.4.4.3.6-.2.6-.4 1.1-.6 1.6-.3.7-.6 1.4-.9 2.2-.3.7-.7 1.5-1 2.2-.2.5-.5 1-.7 1.4-.1.3-.4.3-.7.2l-1.2-.6v3.2c0 .3.2.5.5.5h4.6c.3 0 .5.2.5.5zm16.7-2.6c-.1.2-.1.4 0 .6.4.5.9.9 1.4 1.4.5.4 1 .8 1.6 1.2.2.1.3.4.2.7l-.5.9c-.1.3-.5.4-.8.2-.6-.4-1.1-.9-1.6-1.3s-.9-.9-1.4-1.4c-.2-.2-.5-.2-.7 0-.5.5-1 .9-1.5 1.4-.6.5-1.2 1-2 1.5-.2.2-.5.1-.7-.1L97 24s0 .1-.1.2-.1.2-.2.4l-1-.7v.9h-1.3c-.3 0-.5-.2-.5-.5v-5.6c0-.3-.2-.5-.5-.5h-.5c-.3 0-.5.2-.5.5 0 .6-.1 1.1-.2 1.7-.1.7-.2 1.3-.4 1.9s-.3 1.2-.5 1.7c-.2.4-.3.7-.5 1.1-.1.3-.5.4-.7.2l-.9-.6c-.2-.1-.3-.4-.2-.7.3-.5.5-.9.7-1.4.2-.6.4-1.2.6-1.9.1-.7.2-1.5.3-2.4s.1-2 .1-3.2V7.8c0-.3.2-.5.5-.5h.8c.3 0 .5.2.5.5v4c0 .3.2.5.5.5h.5c.3 0 .5-.2.5-.5V7.4c0-.3.2-.5.5-.5h.8c.3 0 .5.2.5.5v4.8H97v1.4c0 .3-.2.5-.5.5h-4.1v2h2.8c.3 0 .5.2.5.5v5.6c.3-.6.5-1.2.7-1.8.2-.6.4-1.2.5-1.9.1-.7.2-1.4.3-2.2.1-.8.1-1.6.1-2.6V8.9c0-.3.2-.5.5-.5 1.2-.1 2.5-.2 3.9-.4 1.3-.2 2.6-.4 3.8-.7.3-.1.6.1.6.4l.2 1c0 .3-.1.5-.4.6-.4.1-.8.2-1.3.2-.6.1-1.2.2-1.9.3-.6.1-1.2.2-1.9.3-.4.1-.9.1-1.3.2-.3 0-.4.2-.4.5v1.1c0 .3.2.5.5.5h6c.3 0 .5.2.5.5v1.5c-.3 1.2-.6 2.3-1 3.3-.4.7-.8 1.6-1.3 2.3zm-6.6 3.5c1.6-1 2.9-2 3.8-3.1.2-.2.2-.4.1-.6-.4-.7-.8-1.4-1-2.2-.3-.7-.5-1.5-.6-2.4 0-.3.1-.5.4-.6l.6-.2c.3-.1.6.1.6.4.2 1 .5 2 .9 2.8.2.4.7.4.9 0 .4-.9.8-1.9 1.1-2.9.1-.3-.2-.6-.5-.6h-3.9c-.3 0-.5.2-.5.5 0 .9 0 1.6-.1 2.3l-.3 2.4c-.1.7-.3 1.4-.5 2.1-.4.7-.6 1.4-1 2.1z" style="fill:#b68115"/><path d="M18.7 31.8.2 12.2c-.2-.2-.2-.5 0-.7L8.3.2c.1-.1.2-.2.4-.2h20.6c.2 0 .3.1.4.2l8.1 11.3c.1.2.1.5 0 .6L19.5 31.8c-.2.3-.6.3-.8 0zm-5-21.7h10.7c.4 0 .6-.4.4-.8l-4-7c0-.2-.2-.3-.4-.3h-2.6c-.2 0-.4.1-.4.3l-4 7c-.3.3-.1.8.3.8zm-.4 2.7 5.3 13.4c.2.4.8.4 1 0l5.3-13.4c.1-.3-.1-.7-.5-.7H13.8c-.4 0-.6.4-.5.7zm20.5-3.5-5.1-7c-.1-.2-.2-.3-.4-.3h-4.5c-.4 0-.6.4-.4.8l4 7c.1.2.3.3.4.3h5.5c.5 0 .8-.5.5-.8zm.4 2.8h-6.5c-.2 0-.4.1-.5.3l-4.7 11.9c-.2.5.5 1 .9.5L34.6 13c.3-.4.1-.9-.4-.9zm-29.4-2h5.3c.2 0 .4-.1.4-.3l4-7c.3-.4.1-.8-.3-.8H9.9c-.2 0-.3.1-.4.2l-5.1 7c-.3.4 0 .9.4.9zM3.6 13l11.3 12c.4.4 1.1 0 .9-.5l-4.6-12c-.1-.2-.3-.3-.5-.3H4c-.5-.1-.7.4-.4.8z" style="fill:#c09311"/></svg>