<svg width="15.385" height="11.993" viewBox="0 0 15.385 11.993" fill="none" xmlns="http://www.w3.org/2000/svg"><path d="M4.506 0H2.202c-.2 0-.387.11-.558.327a1.128 1.128 0 0 0-.26.709v.499h3.122V0zm10.261 3.54a.538.538 0 0 1 .268-.222.525.525 0 0 0 .257-.25.785.785 0 0 0 .093-.374.953.953 0 0 0-.094-.401.693.693 0 0 0-.276-.315.391.391 0 0 1-.182-.24 1.027 1.027 0 0 1-.044-.326.863.863 0 0 1 .085-.317.826.826 0 0 1 .176-.249.467.467 0 0 0 .159-.241.57.57 0 0 0 .017-.278.466.466 0 0 0-.11-.231.251.251 0 0 0-.197-.096H5.525v1.515h8.008c.155 0 .283.05.385.154a.802.802 0 0 1 .198.346c.045.164.059.348.042.546-.015.197-.121.355-.31.468a.65.65 0 0 0-.208.27.925.925 0 0 0-.075.367c0 .126.026.252.075.374.05.12.133.215.242.278.1.064.17.143.21.24a.727.727 0 0 1 .051.297.762.762 0 0 1-.077.288.555.555 0 0 1-.168.21.642.642 0 0 0-.216.297 1.057 1.057 0 0 0-.066.375c0 .129.024.243.075.34.051.106.12.18.208.233.07.037.118.105.152.2.03.096.05.202.05.317a.784.784 0 0 1-.068.326.375.375 0 0 1-.2.21.363.363 0 0 0-.149.194.918.918 0 0 0-.057.306.833.833 0 0 0 .05.335.418.418 0 0 0 .19.243.741.741 0 0 1 .285.325c.055.128.055.281 0 .46a.557.557 0 0 1-.085.134c-.034.04-.061.075-.083.109-.02.03-.028.051-.023.064.004.015.042.022.106.022h.9c.111 0 .189-.038.234-.117a.504.504 0 0 0 .066-.265.9.9 0 0 0-.057-.31.563.563 0 0 0-.125-.211c-.223-.189-.332-.382-.332-.574 0-.192.11-.364.332-.518a.486.486 0 0 0 .149-.25 1.14 1.14 0 0 0 .041-.364.967.967 0 0 0-.083-.366.425.425 0 0 0-.21-.23.355.355 0 0 1-.192-.202.815.815 0 0 1-.059-.298c0-.1.024-.194.06-.274a.301.301 0 0 1 .192-.166c.101-.013.174-.075.225-.182a.962.962 0 0 0 .017-.739.63.63 0 0 0-.243-.305.696.696 0 0 1-.308-.617.707.707 0 0 1 .093-.316zM.15 2.618c-.098.149-.15.395-.15.74v2.033c0 .14.028.239.084.298.055.057.145.1.266.126.156.023.305.12.444.286.14.167.208.396.208.69 0 .194-.029.356-.084.489a1.043 1.043 0 0 1-.2.326.903.903 0 0 1-.232.185.472.472 0 0 1-.185.057c-.122.027-.203.076-.241.145a.67.67 0 0 0-.06.315v2.762c0 .357.063.602.185.73.122.129.334.187.634.174.09 0 .252.004.492.008.239.007.48.01.725.01h.916V2.398H.819c-.347 0-.568.072-.668.219zM8.164 7.25a2.86 2.86 0 0 1-.4.462h1.34a3.234 3.234 0 0 1-.33-.461h-.61z" fill="#DD9920"/><path d="M12.832 7.675a.46.46 0 0 0 .2-.23.752.752 0 0 0-.034-.654.552.552 0 0 0-.25-.229.546.546 0 0 1-.277-.247.709.709 0 0 1-.083-.347.699.699 0 0 1 .117-.338.554.554 0 0 1 .31-.22.413.413 0 0 0 .243-.2.612.612 0 0 0 .066-.31.676.676 0 0 0-.1-.315.59.59 0 0 0-.242-.231.512.512 0 0 1-.353-.547.64.64 0 0 1 .109-.296.52.52 0 0 1 .243-.193.374.374 0 0 0 .216-.21.622.622 0 0 0-.022-.584.233.233 0 0 0-.212-.125H3.937v9.594h8.726c.09 0 .16-.04.21-.125a.675.675 0 0 0 .094-.277.725.725 0 0 0-.043-.317.433.433 0 0 0-.193-.238.732.732 0 0 1-.29-.29.62.62 0 0 1 .03-.67.554.554 0 0 1 .31-.21.38.38 0 0 0 .216-.205.668.668 0 0 0 .06-.323.776.776 0 0 0-.1-.347.564.564 0 0 0-.242-.238c-.222-.131-.329-.303-.315-.52.009-.217.154-.402.432-.558zm-2.653.817a2.704 2.704 0 0 1-.457-.235l-.056.608c-.061.5-.333.751-.814.751-.253 0-.482-.003-.688-.01-.02-.137-.06-.34-.122-.608l.683.04c.224 0 .35-.104.38-.31l.043-.456H7.99c-.087.363-.22.646-.396.849-.247.258-.607.47-1.08.637a10.632 10.632 0 0 0-.326-.588c.45-.112.778-.262.984-.452a1.07 1.07 0 0 0 .256-.446h-.422a5.359 5.359 0 0 1-.396.216 6.817 6.817 0 0 0-.366-.565c.459-.203.825-.427 1.097-.672H6.21v-.58h1.588c.038-.08.08-.202.127-.362H6.397v-.56h.666c-.137-.176-.276-.35-.418-.52l.387-.353c.186.196.373.409.562.638l-.257.235h.657c.02-.238.038-.533.052-.883l.601.02c-.02.33-.04.618-.06.863h.578l-.213-.181a5.71 5.71 0 0 0 .51-.702l.473.339c-.136.196-.27.378-.4.544h.68v.56h-1.69c-.023.14-.05.262-.078.363h1.99v.579H9.395c.296.308.66.517 1.092.628a5.634 5.634 0 0 0-.309.613z" fill="#DD9920"/></svg>