<?xml version="1.0" encoding="iso-8859-1"?>
<!-- Generator: Adobe Illustrator 25.2.0, SVG Export Plug-In . SVG Version: 6.00 Build 0)  -->
<svg version="1.1" id="&#x56FE;&#x5C42;_1" xmlns="http://www.w3.org/2000/svg" xmlns:xlink="http://www.w3.org/1999/xlink" x="0px"
	 y="0px" viewBox="0 0 20 20" style="enable-background:new 0 0 20 20;" xml:space="preserve">
<g>
	<polygon style="fill:#D98704;" points="20,20 0,20 20,0 	"/>
</g>
<g>
	<path style="fill:#FFFFFF;" d="M11.56,18.215l-3.189-3.189c-0.096-0.096-0.096-0.251,0-0.347l0.36-0.36
		c0.096-0.096,0.251-0.096,0.347,0l3.189,3.189c0.096,0.096,0.096,0.251,0,0.347l-0.36,0.36C11.811,18.31,11.656,18.31,11.56,18.215
		z"/>
	<path style="fill:#FFFFFF;" d="M18.274,10.787l0.354,0.354c0.098,0.098,0.098,0.256,0,0.354l-6.718,6.718
		c-0.098,0.098-0.256,0.098-0.354,0l-0.354-0.354c-0.098-0.098-0.098-0.256,0-0.354l6.718-6.718
		C18.018,10.689,18.176,10.689,18.274,10.787z"/>
</g>
</svg>
