<svg width="615.993286" height="306.702148" viewBox="0 0 615.993 306.702" fill="none" xmlns="http://www.w3.org/2000/svg" xmlns:xlink="http://www.w3.org/1999/xlink">
	<desc>
			Created with Pixso.
	</desc>
	<g id="企业版">
		<g id="矢量 982">
			<path d="M144.816 26.7029L144.796 26.7229L144.796 28.6829L144.816 28.7029C145.376 28.7029 145.816 28.2629 145.816 27.7029C145.816 27.1428 145.376 26.7029 144.816 26.7029ZM473.817 28.7029L473.837 28.6829L473.837 26.7229L473.817 26.7029C473.257 26.7029 472.817 27.1428 472.817 27.7029C472.817 28.2629 473.257 28.7029 473.817 28.7029Z" fill-rule="evenodd" fill="#C4C4C4"/>
			<path d="M473.817 27.7029L606.884 27.7029C611.301 27.7029 614.884 31.2825 614.884 35.6995L614.993 297.651C614.993 302.071 611.413 305.655 606.994 305.655L9.11021 305.702C4.69299 305.702 1.10957 302.123 1.10957 297.706L1 35.7063C1 31.2866 4.58041 27.7029 9 27.7029L144.816 27.7029" stroke="#B68336" stroke-opacity="0.300000" stroke-width="2.000000" stroke-linecap="round"/>
		</g>
		<g id="矢量 983">
			<path d="M202.405 24.8511L218.628 38.561L398.839 38.561L412.432 23.8457L398.839 4.90894L218.628 4.90894L202.405 24.8511Z" stroke="#B68336" stroke-opacity="0.850000" stroke-width="1.400000"/>
		</g>
		<g id="矢量 984">
			<path d="M404.613 0.702881L424.784 23.3093C424.955 23.5012 424.953 23.7917 424.778 23.981L407.997 42.2029" stroke="#B68336" stroke-opacity="0.600000" stroke-width="1.400000"/>
		</g>
		<g id="矢量 985">
			<path d="M416.524 0.702881L436.69 23.3042C436.863 23.4983 436.859 23.7927 436.68 23.9812L416.524 45.2029" stroke="#B68336" stroke-opacity="0.300000" stroke-width="1.400000"/>
		</g>
		<g id="矢量 986">
			<path d="M210.818 2.57202L191.049 24.6187C190.859 24.8303 190.884 25.1575 191.103 25.3384L213.378 43.7024" stroke="#B68336" stroke-opacity="0.600000" stroke-width="1.400000"/>
		</g>
		<g id="矢量 987">
			<path d="M199.114 2.57202L179.345 24.6187C179.155 24.8303 179.18 25.1575 179.399 25.3384L201.674 43.7024" stroke="#B68336" stroke-opacity="0.300000" stroke-width="1.400000"/>
		</g>
		<g id="矢量 1030">
			<path d="M244.886 15.8103L244.815 16.2764L243.814 23.3796L240.005 23.3796L240.891 17.0295L239.89 17.2083L240.249 14.6562L245.152 13.7461L244.886 15.8103ZM247.155 14.2336L246.687 13.7026L250.898 13.7026L250.343 14.7864L258.097 14.7864L257.053 17.9614L253.684 17.9614L254.223 16.6555L249.364 16.6555L248.738 17.8748L245.217 17.8748L247.155 14.2336ZM242.567 29.28L243.454 24.019L247.155 24.019L246.708 27.1074L251.834 27.1074L252.819 26.1538L252.395 29.28L242.567 29.28ZM252.661 21.8245C252.603 22.24 252.429 22.6067 252.139 22.9246C251.849 23.2424 251.495 23.4014 251.078 23.4014L248.003 23.4014L249.141 21.9817L249.788 17.3384L253.287 17.3384L252.661 21.8245ZM253.129 24.1978L256.519 24.1978L256.628 29.2583L253.244 29.2583L253.129 24.1978ZM241.316 29.2583L237.997 29.2583L239.558 24.1978L242.878 24.1978L241.316 29.2583ZM248.961 18.3623L247.47 22.8865L244.613 22.8865L246.219 18.3623L248.961 18.3623ZM256.519 18.3623L256.851 22.8865L254.022 22.8865L253.82 18.3623L256.519 18.3623ZM247.982 23.824L251.437 23.824L251.546 26.5276L248.069 26.5276L247.982 23.824ZM265.478 28.061L265.701 26.4626L258.877 26.4626L259.149 24.5554L266.615 24.5554L269.042 23.6233L261.021 23.6233L261.288 21.6458L276.088 21.6458L275.773 23.645L272.834 24.5554L276.91 24.5554L276.643 26.4626L270.244 26.4626L269.956 28.5269C269.912 28.8521 269.731 29.1228 269.412 29.3396C269.092 29.5527 268.717 29.6592 268.285 29.6592L263.584 29.6592L265.478 28.061ZM276.709 17.0945L276.154 21.0715L260.863 21.0715L261.418 17.0945L276.709 17.0945ZM267.262 14.7212L267.284 14.5642L266.549 13.7461L271.964 13.7461L271.828 14.7212L278.205 14.7212L277.96 16.4333L260.618 16.4333L260.863 14.7212L267.262 14.7212ZM272.143 19.6248L272.296 18.5627L265.434 18.5627L265.276 19.6248L272.143 19.6248ZM285.291 14.7429L285.716 14.2119L285.291 13.7026L290.374 13.7026L289.547 14.7429L298.688 14.7429L298.394 16.8506L287.92 16.8506L287.25 17.6958L297.415 17.6958L295.946 28.218C295.87 28.6443 295.668 28.9946 295.342 29.2693C295.015 29.5437 294.636 29.6809 294.204 29.6809L290.015 29.6809L291.756 27.8821L291.935 26.5708L286.004 26.5708L285.558 29.6809L281.325 29.6809L282.348 22.3337L279.409 22.3337L283.664 16.8506L280.612 16.8506L280.9 14.7429L285.291 14.7429ZM286.293 24.4631L292.224 24.4631L292.403 23.1792L286.472 23.1792L286.293 24.4631ZM286.782 21.093L292.714 21.093L292.893 19.8035L286.962 19.8035L286.782 21.093ZM317.343 13.7026L315.537 18.4058L317.027 18.4058L318.654 29.6809L314.644 29.6809L313.686 23.2224L311.232 29.6809L307.222 29.6809L313.039 14.3909L312.462 13.7026L317.343 13.7026ZM305.127 26.5979L306.868 26.3489L306.509 28.8574L300.447 29.6809L302.586 14.5425L301.873 13.7026L306.955 13.7026L305.127 26.5979ZM310.367 14.9651L310.03 20.4482L307.064 20.4482L307.402 14.9651L310.367 14.9651ZM337.799 26.3489L333.566 26.3489L330.649 20.0691L329.289 29.6809L325.055 29.6809L326.949 16.2329L321.018 16.2329L321.306 14.1252L339.094 14.1252L338.806 16.2329L331.182 16.2329L330.959 17.918L333.903 17.918L337.799 26.3489ZM354.517 21.9546L354.696 20.7571L349.19 20.7571L349.478 18.7632L352.912 18.7632L353.135 17.2083L350.126 17.2083L350.414 15.209L353.401 15.209L353.537 14.3691L352.732 13.7026L357.814 13.7026L357.591 15.209L360.312 15.209L360.023 17.2083L357.303 17.2083L357.08 18.7632L360.334 18.7632L360.045 20.7571L358.484 20.7571L358.304 21.9546L359.556 21.9546L359.289 23.8889L358.037 23.8889L357.439 28.1477C357.377 28.5774 357.169 28.9297 356.813 29.2041C356.458 29.4788 356.057 29.616 355.611 29.616L351.644 29.616L353.739 27.5515L354.25 23.8889L349.124 23.8889L349.391 21.9546L354.517 21.9546ZM344.82 17.0728L345.511 17.0728L346.001 13.7026L348.836 13.7026L348.346 17.0728L348.879 17.0728L348.591 19.1804L348.052 19.1804L347.497 23.0869L348.455 22.9785L348.167 25.0864L347.187 25.1946L346.561 29.6809L343.416 29.6809L343.999 25.574L340.81 25.9316L341.12 23.824L344.287 23.4663L344.913 19.1804L344.33 19.1804L343.841 21.2935L341.479 21.2935L342.818 15.5449L342.372 14.9651L345.315 14.9651L344.82 17.0728ZM353.026 27.5732L350.039 27.5732L349.124 24.6853L352.112 24.6853L353.026 27.5732ZM374.374 17.6741L375.359 19.9607L377.182 17.2732L377.296 16.4985L371.099 16.4985L371.414 14.2986L380.996 14.2986L380.485 17.8748L376.828 23.3091L379.571 29.616L375.756 29.616L374.51 26.7498L372.573 29.6377L368.78 29.6377L373.041 23.3796L370.875 18.3623L370.99 17.6741L374.374 17.6741ZM364.879 18.449L362.61 18.449L362.898 16.3413L365.173 16.3413L365.461 14.3691L364.906 13.7244L369.14 13.7244L368.759 16.3413L370.767 16.3413L370.478 18.449L368.47 18.449L366.865 29.7026L363.279 29.7026L364.879 18.449ZM361.135 28.8792L362.92 19.1587L364.503 19.1587L362.719 28.8792L361.135 28.8792ZM367.801 27.6167L368.557 19.1587L370.141 19.1587L369.384 27.6167L367.801 27.6167Z" fill-rule="evenodd" fill="#C19554"/>
		</g>
	</g>
	<defs/>
</svg>
