<svg width="692.000000" height="534.000000" viewBox="0 0 692 534" fill="none" xmlns="http://www.w3.org/2000/svg" xmlns:xlink="http://www.w3.org/1999/xlink">
	<desc>
			Created with Pixso.
	</desc>
	<rect id="企业版-购买成功界面" width="692.000000" height="534.000000" fill="#FFFFFF"/>
	<g clip-path="url(#clip17_35)">
		<rect id="矩形 629" width="692.000000" height="534.000000" fill="#3A3E41"/>
		<path id="矢量 980" d="M0 535L0 207.001C243 127.756 477 122.888 692 217.19L692 534.675L0 535Z" fill-rule="evenodd" fill="#FFFFFF"/>
		<path id="合并" d="M10.2695 56.8359C13.749 51.7841 20.6542 50.4805 25.6927 53.9242C30.7311 57.3678 31.9949 64.2548 28.5154 69.3065C27.2917 71.0831 25.6443 72.3962 23.8035 73.2023L35.8813 102.412L80.2949 77.7581C78.8288 74.3793 79.0915 70.3342 81.3466 67.0601C84.8262 62.0082 91.7313 60.7046 96.7698 64.1483C101.808 67.5919 103.072 74.4789 99.5925 79.5306C97.2961 82.8647 93.5075 84.5663 89.7482 84.3479L83.9842 135.29L112.863 133.605C113.023 131.751 113.654 129.91 114.788 128.263C118.269 123.212 125.175 121.909 130.214 125.353C135.252 128.797 136.515 135.683 133.034 140.734C129.553 145.785 122.647 147.087 117.609 143.644C116.82 143.104 116.123 142.481 115.523 141.793L70.4858 185.584L-6.92102 132.678L14.1091 72.8365C13.7631 72.6508 13.4236 72.4448 13.0922 72.2183C8.05371 68.7747 6.78992 61.8877 10.2695 56.8359Z" clip-rule="evenodd" fill-rule="evenodd" fill="#FFFFFF" fill-opacity="0.030000"/>
		<rect id="矩形 608" x="-17.774902" y="134.737915" rx="5.538803" width="109.145668" height="11.077606" transform="rotate(34.0414 -17.774902 134.737915)" fill="#FFFFFF" fill-opacity="0.03"/>
		<path id="合并" d="M599.213 170.726C595.257 167.54 594.624 161.786 597.799 157.873C600.974 153.96 606.755 153.371 610.711 156.557C612.103 157.677 613.083 159.115 613.631 160.679L638.585 152.663L621.049 114.592C618.158 115.576 614.827 115.098 612.262 113.033C608.306 109.847 607.673 104.092 610.848 100.18C614.023 96.267 619.804 95.6776 623.761 98.8633C626.371 100.966 627.535 104.187 627.112 107.259L668.899 115.307L669.369 91.4867C667.844 91.2349 666.361 90.5972 665.071 89.5579C661.116 86.3711 660.483 80.6158 663.658 76.7031C666.833 72.7904 672.614 72.2019 676.569 75.3887C680.524 78.5754 681.157 84.3307 677.981 88.2434C677.484 88.8558 676.924 89.3868 676.316 89.8347L709.649 129.664L660.869 189.776L612.703 168.614C612.527 168.886 612.334 169.152 612.125 169.41C608.95 173.322 603.169 173.912 599.213 170.726Z" clip-rule="evenodd" fill-rule="evenodd" fill="#FFFFFF" fill-opacity="0.030000"/>
		<rect id="矩形 608" x="661.871399" y="198.820435" rx="4.586492" width="90.114655" height="9.172984" transform="rotate(-51.2522 661.871399 198.820435)" fill="#FFFFFF" fill-opacity="0.03"/>
	</g>
	<defs>
		<clipPath id="clip17_35">
			<rect id="企业版-购买成功界面" width="692.000000" height="534.000000" fill="white"/>
		</clipPath>
	</defs>
</svg>
