<svg width="615.991211" height="236.702393" viewBox="0 0 615.991 236.702" fill="none" xmlns="http://www.w3.org/2000/svg" xmlns:xlink="http://www.w3.org/1999/xlink">
	<desc>
			Created with Pixso.
	</desc>
	<g id="专业版">
		<g id="矢量 982">
			<path d="M144.815 26.7029L144.795 26.7229L144.795 28.6829L144.815 28.7029C145.375 28.7029 145.815 28.2629 145.815 27.7029C145.815 27.1428 145.375 26.7029 144.815 26.7029ZM473.816 28.7029L473.836 28.6829L473.836 26.7229L473.816 26.7029C473.256 26.7029 472.816 27.1428 472.816 27.7029C472.816 28.2629 473.256 28.7029 473.816 28.7029Z" fill-rule="evenodd" fill="#C4C4C4"/>
			<path d="M473.816 27.7029L606.884 27.7029C611.301 27.7029 614.884 31.2819 614.884 35.6985L614.991 227.662C614.991 232.082 611.412 235.667 606.992 235.667L9.10791 235.702C4.69116 235.702 1.10742 232.124 1.10742 227.707L1 35.7074C1 31.2874 4.58008 27.7029 9 27.7029L144.815 27.7029" stroke="#FFE8BD" stroke-width="2.000000" stroke-linecap="round"/>
		</g>
		<g id="矢量 986">
			<path d="M210.816 2.57227L191.047 24.619C190.858 24.8307 190.882 25.1577 191.102 25.3386L213.376 43.7028" stroke="#F1B25C" stroke-opacity="0.600000" stroke-width="1.400000" stroke-linecap="round"/>
		</g>
		<g id="矢量 987">
			<path d="M199.112 2.57227L179.343 24.619C179.154 24.8307 179.178 25.1577 179.397 25.3386L201.672 43.7028" stroke="#F4A931" stroke-opacity="0.300000" stroke-width="1.400000" stroke-linecap="round"/>
		</g>
		<g id="矢量 983">
			<path d="M202.404 24.8511L218.627 38.5613L398.838 38.5613L412.431 23.8458L398.838 4.90906L218.627 4.90906L202.404 24.8511Z" stroke="#F1B25C" stroke-opacity="0.800000" stroke-width="1.400000"/>
		</g>
		<g id="矢量 984">
			<path d="M404.612 0.702881L424.782 23.3093C424.954 23.5012 424.951 23.7917 424.777 23.981L407.995 42.2029" stroke="#F1B25C" stroke-opacity="0.600000" stroke-width="1.400000"/>
		</g>
		<g id="矢量 985">
			<path d="M416.523 0.702881L436.689 23.3041C436.862 23.4982 436.857 23.7927 436.678 23.9813L416.523 45.2029" stroke="#F4A931" stroke-opacity="0.300000" stroke-width="1.400000"/>
		</g>
		<g id="矢量 1032">
			<path d="M249.884 15.8105L249.813 16.2765L248.812 23.3798L245.003 23.3798L245.89 17.0297L244.889 17.2085L245.248 14.6565L250.151 13.7462L249.884 15.8105ZM252.153 14.2339L251.685 13.7029L255.897 13.7029L255.342 14.7865L263.096 14.7865L262.051 17.9615L258.683 17.9615L259.222 16.6558L254.363 16.6558L253.737 17.8749L250.216 17.8749L252.153 14.2339ZM247.566 29.2803L248.453 24.0192L252.153 24.0192L251.707 27.1075L256.833 27.1075L257.818 26.1539L257.393 29.2803L247.566 29.2803ZM257.66 21.8248C257.602 22.2402 257.428 22.6068 257.138 22.9247C256.847 23.2426 256.494 23.4015 256.077 23.4015L253.002 23.4015L254.139 21.9819L254.787 17.3385L258.286 17.3385L257.66 21.8248ZM258.128 24.198L261.518 24.198L261.627 29.2585L258.242 29.2585L258.128 24.198ZM246.315 29.2585L242.995 29.2585L244.557 24.198L247.876 24.198L246.315 29.2585ZM253.96 18.3625L252.469 22.8867L249.612 22.8867L251.217 18.3625L253.96 18.3625ZM261.518 18.3625L261.85 22.8867L259.02 22.8867L258.819 18.3625L261.518 18.3625ZM252.98 23.8241L256.436 23.8241L256.544 26.5278L253.067 26.5278L252.98 23.8241ZM270.476 28.0612L270.699 26.4628L263.876 26.4628L264.148 24.5555L271.614 24.5555L274.04 23.6237L266.02 23.6237L266.286 21.646L281.087 21.646L280.771 23.6453L277.833 24.5555L281.909 24.5555L281.642 26.4628L275.243 26.4628L274.955 28.5271C274.911 28.8522 274.73 29.1232 274.41 29.3398C274.091 29.553 273.716 29.6595 273.284 29.6595L268.583 29.6595L270.476 28.0612ZM281.707 17.0947L281.152 21.0717L265.862 21.0717L266.417 17.0947L281.707 17.0947ZM272.261 14.7216L272.283 14.5643L271.548 13.7462L276.962 13.7462L276.826 14.7216L283.204 14.7216L282.959 16.4337L265.617 16.4337L265.862 14.7216L272.261 14.7216ZM277.142 19.625L277.294 18.563L270.433 18.563L270.275 19.625L277.142 19.625ZM290.29 14.7432L290.715 14.2122L290.29 13.7029L295.372 13.7029L294.545 14.7432L303.687 14.7432L303.393 16.8508L292.918 16.8508L292.249 17.6962L302.414 17.6962L300.944 28.2183C300.868 28.6445 300.667 28.9949 300.34 29.2694C300.014 29.5439 299.635 29.6812 299.203 29.6812L295.013 29.6812L296.755 27.8823L296.934 26.5712L291.003 26.5712L290.557 29.6812L286.323 29.6812L287.346 22.3341L284.408 22.3341L288.663 16.8508L285.611 16.8508L285.899 14.7432L290.29 14.7432ZM291.291 24.4635L297.222 24.4635L297.402 23.1793L291.471 23.1793L291.291 24.4635ZM291.781 21.0934L297.712 21.0934L297.892 19.8038L291.961 19.8038L291.781 21.0934ZM322.342 13.7029L320.535 18.4059L322.026 18.4059L323.653 29.6812L319.643 29.6812L318.685 23.2227L316.231 29.6812L312.221 29.6812L318.038 14.391L317.461 13.7029L322.342 13.7029ZM310.126 26.5983L311.867 26.349L311.508 28.8577L305.446 29.6812L307.585 14.5427L306.872 13.7029L311.954 13.7029L310.126 26.5983ZM315.366 14.9653L315.029 20.4486L312.063 20.4486L312.4 14.9653L315.366 14.9653ZM342.798 26.349L338.564 26.349L335.648 20.0693L334.287 29.6812L330.054 29.6812L331.948 16.2332L326.016 16.2332L326.305 14.1255L344.093 14.1255L343.804 16.2332L336.181 16.2332L335.958 17.9182L338.902 17.9182L342.798 26.349ZM359.516 21.9548L359.695 20.7574L354.188 20.7574L354.477 18.7635L357.91 18.7635L358.133 17.2085L355.124 17.2085L355.413 15.2091L358.4 15.2091L358.536 14.3693L357.731 13.7029L362.813 13.7029L362.59 15.2091L365.311 15.2091L365.022 17.2085L362.302 17.2085L362.078 18.7635L365.333 18.7635L365.044 20.7574L363.482 20.7574L363.303 21.9548L364.554 21.9548L364.288 23.8892L363.036 23.8892L362.438 28.1478C362.376 28.5776 362.167 28.9299 361.812 29.2043C361.456 29.4789 361.055 29.6162 360.609 29.6162L356.642 29.6162L358.737 27.5519L359.249 23.8892L354.123 23.8892L354.39 21.9548L359.516 21.9548ZM349.819 17.073L350.51 17.073L351 13.7029L353.835 13.7029L353.345 17.073L353.878 17.073L353.59 19.1807L353.051 19.1807L352.496 23.0873L353.454 22.9789L353.165 25.0865L352.186 25.1949L351.56 29.6812L348.415 29.6812L348.997 25.5742L345.809 25.9318L346.119 23.8241L349.286 23.4666L349.911 19.1807L349.329 19.1807L348.839 21.2938L346.478 21.2938L347.816 15.545L347.37 14.9653L350.314 14.9653L349.819 17.073ZM358.025 27.5735L355.037 27.5735L354.123 24.6857L357.11 24.6857L358.025 27.5735ZM379.373 17.6744L380.358 19.9609L382.181 17.2734L382.295 16.4987L376.097 16.4987L376.413 14.2988L385.995 14.2988L385.484 17.8749L381.827 23.3093L384.57 29.6162L380.755 29.6162L379.509 26.75L377.572 29.6378L373.779 29.6378L378.04 23.3798L375.874 18.3625L375.988 17.6744L379.373 17.6744ZM369.878 18.4492L367.609 18.4492L367.897 16.3416L370.171 16.3416L370.46 14.3693L369.905 13.7246L374.138 13.7246L373.757 16.3416L375.765 16.3416L375.477 18.4492L373.469 18.4492L371.864 29.7029L368.278 29.7029L369.878 18.4492ZM366.134 28.8793L367.919 19.1591L369.502 19.1591L367.717 28.8793L366.134 28.8793ZM372.8 27.6168L373.556 19.1591L375.14 19.1591L374.383 27.6168L372.8 27.6168Z" fill-rule="evenodd" fill="#DC9A3F"/>
		</g>
	</g>
	<defs/>
</svg>
