<svg width="327" height="282" viewBox="0 0 327 282" fill="none" xmlns="http://www.w3.org/2000/svg"><ellipse cx="163.5" cy="234.5" rx="163.5" ry="47.5" fill="url(#a)"/><ellipse cx="293.968" cy="28.964" rx="11.968" ry="11.964" fill="url(#b)"/><ellipse cx="262.525" cy="216.206" rx="6.8" ry="6.798" fill="url(#c)"/><path d="M269.303 187.939c2.681-1.548 5.212-3.013 5.234-7.03.006-1.454-2.22-3.441-4.368-5.361-2.942-2.63-5.99-5.349-5.973-8.518.011-2.475 2.559-4.728 5.256-7.114 2.548-2.253 5.185-4.578 5.191-6.709.005-1.787-2.415-3.951-4.758-6.048-2.753-2.464-5.601-5.011-5.595-7.825.006-2.647 2.648-4.983 5.446-7.458 2.453-2.17 4.984-4.411 4.99-6.37.005-1.909-2.487-4.134-4.896-6.282-2.814-2.514-5.473-4.889-5.468-7.586.006-2.752 2.826-5.255 5.557-7.674 2.392-2.12 4.862-4.312 4.862-6.165 0-2.026-2.564-4.312-5.04-6.515-2.748-2.447-5.346-4.761-5.346-7.336 0-2.924 2.915-5.516 5.735-8.024 2.292-2.037 4.657-4.145 4.657-5.832-.006-2.375-2.903-4.933-5.462-7.186a3.377 3.377 0 0 0-2.221-.855H94.789c-6.195 0-11.218 5.244-11.218 11.709v26.74c0 2.592 1.599 4.928 3.985 5.649 5.962 1.804 10.325 7.542 10.325 14.345 0 6.803-4.363 12.547-10.325 14.344-2.386.722-3.985 3.058-3.985 5.649v37.618c0 6.465 5.023 11.709 11.218 11.709h170.522c.672 0 1.338-.194 1.899-.583.666-.471 1.382-.882 2.093-1.293z" fill="#F1F1F1"/><path fill="#E7E7E7" d="M125 61.879h7v128h-7z"/><path d="M243.556 222.05c2.701-1.614 5.247-3.133 5.264-7.319.006-1.513-2.23-3.58-4.399-5.581-2.962-2.735-6.024-5.564-6.013-8.865.011-2.578 2.574-4.92 5.292-7.403 2.563-2.342 5.214-4.763 5.225-6.982.006-1.86-2.429-4.113-4.787-6.293-2.774-2.561-5.641-5.212-5.63-8.148.005-2.751 2.668-5.183 5.48-7.761 2.469-2.259 5.021-4.59 5.026-6.635.006-1.984-2.502-4.304-4.931-6.54-2.835-2.617-5.509-5.088-5.503-7.895.005-2.864 2.845-5.47 5.591-7.991 2.408-2.208 4.893-4.489 4.893-6.417 0-2.107-2.579-4.488-5.076-6.786-2.768-2.55-5.381-4.954-5.381-7.638 0-3.043 2.935-5.744 5.77-8.355 2.307-2.124 4.687-4.315 4.687-6.069-.005-2.477-2.923-5.133-5.492-7.481a3.34 3.34 0 0 0-2.235-.891H71.39c-6.235 0-12.326 7.033-12.326 13.763v26.265c0 2.695 1.609 8.133 4.01 8.878 6.003 1.877 10.39 4.851 10.39 11.934 0 7.083-4.387 13.063-10.39 14.934-2.401.751-4.01 3.183-4.01 5.879v39.159c0 6.73 5.054 12.188 11.289 12.188h169.192c.677 0 1.348-.202 1.908-.611.666-.476 1.387-.908 2.103-1.339z" fill-rule="evenodd" fill="#EAEAEA"/><path d="M245.705 220.291c2.681-1.548 5.213-3.013 5.235-7.031.005-1.454-2.221-3.44-4.369-5.36-2.942-2.63-5.989-5.35-5.973-8.518.011-2.475 2.559-4.728 5.257-7.114 2.548-2.253 5.185-4.578 5.19-6.709.006-1.787-2.414-3.951-4.757-6.049-2.753-2.463-5.601-5.011-5.595-7.824.005-2.647 2.647-4.983 5.445-7.458 2.454-2.17 4.985-4.412 4.99-6.37.006-1.909-2.486-4.135-4.896-6.282-2.814-2.514-5.473-4.889-5.467-7.586.005-2.752 2.825-5.255 5.556-7.674 2.393-2.12 4.863-4.312 4.863-6.165 0-2.026-2.565-4.312-5.04-6.515-2.748-2.447-5.346-4.761-5.346-7.336 0-2.924 2.914-5.516 5.734-8.024 2.293-2.037 4.658-4.145 4.658-5.832-.006-2.375-2.904-4.934-5.463-7.187a3.376 3.376 0 0 0-2.22-.854H73.59c-6.195 0-11.219 5.244-11.219 11.709v26.741c0 2.592 1.6 4.928 3.986 5.649 5.962 1.804 10.325 7.541 10.325 14.345 0 6.803-4.363 12.546-10.325 14.344-2.387.722-3.986 3.058-3.986 5.649v37.618c0 6.465 5.024 11.709 11.219 11.709h168.124a3.33 3.33 0 0 0 1.898-.583c.667-.466 1.383-.882 2.093-1.293z" fill="#F6F6F6"/><path fill="#ECECEC" d="M105.125 94.408h11.291v127.758h-11.291z"/><path d="M196.695 170.288H179.87v-7.83h16.825c2.87 0 5.201-2.431 5.201-5.427 0-2.997-2.325-5.427-5.201-5.427h-15.937l17.736-20.538c1.92-2.225 1.748-5.654-.383-7.663-2.132-2.009-5.424-1.826-7.344.399l-16.215 18.779-15.632-18.135c-1.92-2.225-5.207-2.408-7.344-.405-2.137 2.003-2.309 5.433-.388 7.663l17.152 19.905h-15.703c-2.87 0-5.202 2.431-5.202 5.427 0 2.997 2.326 5.427 5.202 5.427h16.825v7.83h-16.825c-2.87 0-5.202 2.431-5.202 5.427 0 2.997 2.326 5.427 5.202 5.427h16.825v8.818c0 2.996 2.326 5.427 5.201 5.427 2.875 0 5.201-2.431 5.201-5.427v-8.829h16.825c2.87 0 5.202-2.43 5.202-5.427 0-2.996-2.32-5.421-5.196-5.421z" fill="#E2E2E2"/><path d="M39.76 46.914c1.547-8.942 10.248-14.432 18.363-14.438-6.468-2.925-16.324-2.441-19.96 4.152-5.458-5.126-15.042-2.59-20.27 2.154 7.737-2.417 17.687.139 21.867 8.132z" fill="url(#d)"/><path d="M59.776 7.02c.776-1.96 2.083-3.48 3.918-4.508 1.836-1.027 3.788-1.356 5.857-.988-2.855-1.866-7.563-2.363-9.776.496C57.566-.815 52.831-.318 50 1.548c2.067-.355 4.016-.02 5.848 1.005 1.831 1.024 3.14 2.515 3.928 4.467z" fill="url(#e)"/><defs><linearGradient id="a" x1="163.501" y1="187.001" x2="163.501" y2="282.001" gradientUnits="userSpaceOnUse"><stop stop-color="#EDEFF1"/><stop offset="1" stop-color="#FFF" stop-opacity="0"/></linearGradient><linearGradient id="b" x1="293.965" y1="40.929" x2="293.965" y2="16.997" gradientUnits="userSpaceOnUse"><stop offset=".112" stop-color="#F1F3F6"/><stop offset=".931" stop-color="#D6D6D6"/></linearGradient><linearGradient id="c" x1="269.327" y1="216.206" x2="255.725" y2="216.206" gradientUnits="userSpaceOnUse"><stop offset=".112" stop-color="#F1F3F6"/><stop offset=".92" stop-color="#D6D6D6"/></linearGradient><linearGradient id="d" x1="39.762" y1="46.913" x2="38.152" y2="36.557" gradientUnits="userSpaceOnUse"><stop stop-color="#F7F7F7"/><stop offset="1" stop-color="#D6D6D6"/></linearGradient><linearGradient id="e" x1="59.776" y1="7.02" x2="59.776" y2="1.987" gradientUnits="userSpaceOnUse"><stop stop-color="#FFF"/><stop offset="1" stop-color="#D6D6D6"/></linearGradient></defs></svg>