<svg width="501.000000" height="336.000000" viewBox="0 0 501 336" fill="none" xmlns="http://www.w3.org/2000/svg" xmlns:xlink="http://www.w3.org/1999/xlink">
	<desc>
			Created with Pixso.
	</desc>
	<defs/>
	<path id="减去顶层" d="M477.289 0C477.062 1.09741 476.943 2.23035 476.943 3.38904C476.943 13.2825 485.606 21.3026 496.293 21.3026C497.917 21.3026 499.493 21.1176 501 20.7689L501 46.3184C496.105 48.0677 492.633 52.4655 492.633 57.614C492.633 62.7625 496.105 67.1602 501 68.9095L501 82.1455C496.105 83.8949 492.633 88.2926 492.633 93.441C492.633 98.5896 496.105 102.987 501 104.737L501 117.973C496.105 119.722 492.633 124.12 492.633 129.268C492.633 134.417 496.105 138.814 501 140.564L501 153.8C496.105 155.549 492.633 159.947 492.633 165.095C492.633 170.244 496.105 174.641 501 176.391L501 189.627C496.105 191.376 492.633 195.774 492.633 200.922C492.633 206.071 496.105 210.469 501 212.218L501 225.454C496.105 227.203 492.633 231.601 492.633 236.749C492.633 241.898 496.105 246.296 501 248.045L501 261.281C496.105 263.03 492.633 267.428 492.633 272.577C492.633 277.725 496.105 282.123 501 283.872L501 309.042C500.144 308.94 499.271 308.888 498.385 308.888C487.121 308.888 477.989 317.341 477.989 327.77C477.989 330.72 478.72 333.512 480.024 336L20.611 336C22.7888 332.944 24.0564 329.283 24.0564 325.349C24.0564 314.653 14.6908 305.983 3.13782 305.983C2.07141 305.983 1.02356 306.057 0 306.199L0 284.199C5.43884 282.734 9.41333 278.085 9.41333 272.577C9.41333 267.068 5.43884 262.419 0 260.954L0 248.372C5.43884 246.907 9.41333 242.258 9.41333 236.749C9.41333 231.241 5.43884 226.592 0 225.127L0 212.545C5.43884 211.08 9.41333 206.431 9.41333 200.922C9.41333 195.414 5.43884 190.765 0 189.299L0 176.718C5.43884 175.252 9.41333 170.604 9.41333 165.095C9.41333 159.587 5.43884 154.938 0 153.472L0 140.891C5.43884 139.425 9.41333 134.776 9.41333 129.268C9.41333 123.76 5.43884 119.111 0 117.645L0 105.064C5.43884 103.598 9.41333 98.9493 9.41333 93.441C9.41333 87.9327 5.43884 83.2839 0 81.8182L0 69.2368C5.43884 67.7711 9.41333 63.1223 9.41333 57.614C9.41333 52.1057 5.43884 47.4568 0 45.9911L0 26.005C0.857788 26.0969 1.73022 26.1442 2.61462 26.1442C15.0342 26.1442 25.1022 16.8235 25.1022 5.32568C25.1022 3.48486 24.844 1.69995 24.3596 0L477.289 0Z" clip-rule="evenodd" fill-rule="evenodd" fill="#FEF9F5" fill-opacity="1.000000"/>
</svg>
