<svg class="icon" width="50" height="50" viewBox="0 0 1024 1024" xmlns="http://www.w3.org/2000/svg"><path d="M217.19 831.36a25 25 0 0 1-24.93-24.93V216.94A25 25 0 0 1 217.19 192h589.5a25 25 0 0 1 24.93 24.93v589.5a25 25 0 0 1-24.93 24.93z" fill="#3ED6FF"/><path d="M806.69 204.48a12.5 12.5 0 0 1 12.46 12.46v589.5a12.5 12.5 0 0 1-12.46 12.46h-589.5a12.5 12.5 0 0 1-12.46-12.46v-589.5a12.5 12.5 0 0 1 12.46-12.46zm0-24.93h-589.5a37.34 37.34 0 0 0-37.39 37.39v589.5a37.34 37.34 0 0 0 37.39 37.39h589.5a37.34 37.34 0 0 0 37.39-37.39v-589.5a37.34 37.34 0 0 0-37.39-37.39z" fill="#2481BA"/><path d="M661.49 698.63H362.38A37.34 37.34 0 0 1 325 661.24V362.13a37.34 37.34 0 0 1 37.39-37.39h299.1a37.34 37.34 0 0 1 37.39 37.39v299.11a37.42 37.42 0 0 1-37.39 37.39z" fill="#2481BA"/><path d="M421.58 179.55h-32.4V81.34a16.2 16.2 0 1 1 32.4 0zm213.12 0h-32.4V81.34a16.2 16.2 0 1 1 32.4 0zM405.38 958.86a16.17 16.17 0 0 1-16.2-16.2v-98.21h32.4v98.21a16.17 16.17 0 0 1-16.2 16.2zm213.12 0a16.17 16.17 0 0 1-16.2-16.2v-98.21h32.4v98.21a16.17 16.17 0 0 1-16.2 16.2zM179.8 602v32.4H81.59a16.2 16.2 0 1 1 0-32.4zm0-213.12v32.4H81.59a16.2 16.2 0 1 1 0-32.4zm778.81 229.37a16.17 16.17 0 0 1-16.2 16.2H844.2V602h98.21a16.25 16.25 0 0 1 16.2 16.25zm0-213.12a16.17 16.17 0 0 1-16.2 16.2H844.2v-32.4h98.21a16.25 16.25 0 0 1 16.2 16.2zM315 179.55h-32.4V81.34a16.2 16.2 0 1 1 32.4 0zm213.12 0h-32.4V81.34a16.2 16.2 0 1 1 32.4 0zm213.12 0h-32.4V81.34a16.2 16.2 0 1 1 32.4 0zM298.82 958.86a16.17 16.17 0 0 1-16.2-16.2v-98.21H315v98.21a16.17 16.17 0 0 1-16.18 16.2zm213.12 0a16.17 16.17 0 0 1-16.2-16.2v-98.21h32.4v98.21a16.17 16.17 0 0 1-16.2 16.2zm213.12 0a16.17 16.17 0 0 1-16.2-16.2v-98.21h32.4v98.21a16.17 16.17 0 0 1-16.21 16.2zM179.8 708.6V741H81.59a16.2 16.2 0 1 1 0-32.4zm0-213.12v32.4H81.59a16.2 16.2 0 1 1 0-32.4zm0-213.12v32.4H81.59a16.2 16.2 0 0 1 0-32.4zm778.81 442.45a16.17 16.17 0 0 1-16.2 16.2H844.2V708.6h98.21a16.25 16.25 0 0 1 16.2 16.21zm0-213.12a16.17 16.17 0 0 1-16.2 16.2H844.2v-32.4h98.21a16.25 16.25 0 0 1 16.2 16.2zm0-213.12a16.17 16.17 0 0 1-16.2 16.2H844.2v-32.4h98.21a16.25 16.25 0 0 1 16.2 16.2z" fill="#113B42"/><path d="M477.29 531.5a42 42 0 0 1-14.46 11.34 43.53 43.53 0 1 1-18.69-82.63 41.35 41.35 0 0 1 17.57 3.49 40.71 40.71 0 0 1 13.46 10.1l-11 10.72a31.56 31.56 0 0 0-8.47-6.85 23.6 23.6 0 0 0-11.47-2.49 28.43 28.43 0 0 0-10.84 2 26.44 26.44 0 0 0-8.85 5.73 28.29 28.29 0 0 0-6 9 29.75 29.75 0 0 0-2.24 11.72 29.31 29.31 0 0 0 2.24 11.72 28.29 28.29 0 0 0 6 9 26.44 26.44 0 0 0 8.85 5.73 28.43 28.43 0 0 0 10.84 2 26.49 26.49 0 0 0 12.34-2.87 30.86 30.86 0 0 0 9.6-8.1zm12.46 13.34V462h29.16a32.39 32.39 0 0 1 11.09 1.83 26.87 26.87 0 0 1 9 5.36 25.85 25.85 0 0 1 6 8.23 25.66 25.66 0 0 1-15 34.9 32.39 32.39 0 0 1-11.09 1.87h-13.58v30.41h-15.58zm29.41-45.24c4.11 0 7.23-1.12 9.22-3.49a11.52 11.52 0 0 0 3.12-8 12.14 12.14 0 0 0-.75-4.24 8.71 8.71 0 0 0-2.37-3.61 12.15 12.15 0 0 0-3.86-2.49 14.47 14.47 0 0 0-5.48-.87h-13.83v22.81h14zm69.54 47.11a34.19 34.19 0 0 1-13.21-2.37 27.4 27.4 0 0 1-10.1-6.85 30.86 30.86 0 0 1-6.48-11 44.37 44.37 0 0 1-2.37-14.71v-50h15.58v50.85a28.79 28.79 0 0 0 1 7.6 17 17 0 0 0 3.12 6 14 14 0 0 0 5.23 4 16.65 16.65 0 0 0 7.23 1.5 17.22 17.22 0 0 0 7.35-1.5 14 14 0 0 0 5.23-4 17.14 17.14 0 0 0 3.12-6 24.93 24.93 0 0 0 1-7.6v-50.79H621v50a43 43 0 0 1-2.25 14.16 30.14 30.14 0 0 1-6.48 11 29.57 29.57 0 0 1-10.22 7.1 33.07 33.07 0 0 1-13.34 2.61z" fill="#CCF4FF"/></svg>