<svg class="icon" viewBox="0 0 1024 1024" xmlns="http://www.w3.org/2000/svg" width="50" height="50"><path d="M512 176a32 32 0 0 0 32-32V80a32 32 0 0 0-64 0v64a32 32 0 0 0 32 32zM131.872 289.152a32 32 0 0 0 45.248-45.248l-45.248-45.28a32 32 0 0 0-45.248 45.248l45.248 45.28zm813.28-58.528a32 32 0 0 0-45.248 0l-45.248 45.248a32 32 0 0 0 45.248 45.248l45.248-45.248a32 32 0 0 0 0-45.248zM912 912h-48V560c0-194.4-157.6-352-352-352S160 365.6 160 560v352h-48a32 32 0 0 0 0 64h800a32 32 0 0 0 0-64zm-368 0V784a32 32 0 0 0-64 0v128H224V560c0-159.072 128.928-288 288-288s288 128.928 288 288v352H544z" fill="#555"/><path d="M512 464a128 128 0 1 0 0 256 128 128 0 0 0 0-256zm0 192a64 64 0 1 1 .032-128.032A64 64 0 0 1 512 656z" fill="#555"/></svg>