<svg xmlns="http://www.w3.org/2000/svg" viewBox="0 0 30 30" style="enable-background:new 0 0 30 30" xml:space="preserve"><path style="fill:#02a9f1" d="m30 20.417-9.65-3.245s.741-1.11 1.533-3.287c.792-2.177.905-3.372.905-3.372l-6.247-.051V8.328l7.565-.053V6.766H16.54V3.333h-3.705v3.433H5.777v1.508l7.058-.05v2.288H7.173v1.195h11.654s-.128.97-.575 2.177c-.447 1.207-.907 2.263-.907 2.263s-5.472-1.915-8.355-1.915-6.39 1.158-6.73 4.52c-.339 3.36 1.633 5.18 4.411 5.85 2.778.673 5.343-.007 7.577-1.1 2.233-1.092 4.425-3.574 4.425-3.574L29.92 25.39a5.55 5.55 0 0 1-5.475 4.608H5.555A5.547 5.547 0 0 1 0 24.455v-18.9A5.55 5.55 0 0 1 5.545 0h18.9A5.55 5.55 0 0 1 30 5.545v14.872zm-14.064-1.88s-3.511 4.432-7.647 4.432c-4.138 0-5.007-2.106-5.007-3.62 0-1.513.86-3.159 4.381-3.397 3.519-.237 8.275 2.585 8.275 2.585h-.002zm0 0"/></svg>