<svg width="15.296" height="15.332" viewBox="0 0 15.296 15.332" fill="none" xmlns="http://www.w3.org/2000/svg"><path d="M7.648 15.332C3.43 15.332 0 11.893 0 7.666S3.43 0 7.648 0c4.217 0 7.648 3.439 7.648 7.666s-3.43 7.666-7.648 7.666zm0-14.237c-3.615 0-6.555 2.948-6.555 6.57 0 3.624 2.94 6.572 6.555 6.572 3.615 0 6.555-2.948 6.555-6.571 0-3.623-2.94-6.57-6.555-6.57z" fill="#20A53A"/><path d="M10.255 7.45a.586.586 0 0 0-.117-.179l-2.715-2.73a.545.545 0 0 0-.773 0 .548.548 0 0 0 0 .774l2.326 2.338L6.63 9.98a.548.548 0 0 0 .384.937.545.545 0 0 0 .384-.158l2.736-2.712a.546.546 0 0 0 .121-.596z" fill="#20A53A"/></svg>