<svg xmlns="http://www.w3.org/2000/svg" xmlns:xlink="http://www.w3.org/1999/xlink" viewBox="0 0 100 100" style="enable-background:new 0 0 100 100" xml:space="preserve"><defs><path id="a" d="M9.8 6h80.4v88H9.8z"/></defs><clipPath id="b"><use xlink:href="#a" style="overflow:visible"/></clipPath><path d="M65.3 52.7c6.4-4.7 10.5-12.3 10.5-20.8C75.8 17.7 64.2 6.1 50 6.1c-14.2 0-25.8 11.6-25.8 25.8 0 8.5 4.1 16.1 10.5 20.8-14.6 6-24.9 20.4-24.9 37.2 0 2.2 1.8 4 4 4s4-1.8 4-4c0-17.7 14.4-32.1 32.1-32.1C67.6 57.8 82 72.2 82 89.9c0 2.2 1.8 4 4 4s4-1.8 4-4c.2-16.8-10.1-31.2-24.7-37.2zM32.2 31.9c0-9.8 8-17.8 17.8-17.8s17.8 8 17.8 17.8-8 17.8-17.8 17.8c-9.8-.1-17.8-8-17.8-17.8zm0 0" style="clip-path:url(#b);fill:#969696"/></svg>