<svg width="12" height="14" viewBox="0 0 12 14" fill="none" xmlns="http://www.w3.org/2000/svg"><path d="m6.5.075 5 2.387c.3.199.5.497.5.895v2.885c0 .895-.2 1.69-.5 2.586-.3.795-.7 1.591-1.2 2.288a8.54 8.54 0 0 1-1.9 1.89c-.7.497-1.5.795-2.4.994-.9-.199-1.7-.497-2.4-.995a8.54 8.54 0 0 1-1.9-1.89C1.2 10.42.8 9.724.5 8.829.2 7.933 0 7.038 0 6.142V3.357c0-.398.2-.696.5-.895l5-2.387c.3-.1.7-.1 1 0zM6 1.169 1 3.456v2.686c0 .796.1 1.492.4 2.288.3.696.6 1.392 1.1 1.99.6.795 1.1 1.292 1.7 1.69.5.299 1.1.597 1.8.796.7-.2 1.3-.498 1.8-.796.5-.398 1.1-.895 1.7-1.69.5-.598.8-1.194 1.1-1.99.3-.796.4-1.492.4-2.288V3.456L6 1.17z" fill-rule="evenodd" fill="#999"/><path d="M3.271 8h-.71L2 5h.592l.232 1.464c.043.316.09.636.133.956h.016c.059-.32.122-.644.184-.956L3.495 5h.494l.338 1.464c.062.308.122.632.184.956h.02c.043-.324.086-.644.13-.956L4.887 5h.553l-.537 3H4.18l-.325-1.484c-.047-.235-.09-.466-.126-.694h-.015c-.04.228-.079.459-.126.694L3.271 8zm4.171 0h.609l-.934-3h-.683l-.93 3h.589l.204-.77h.941l.204.77zm1.53 0h-.58V5h1.79v.499h-1.21v.782h1.033v.502H8.973V8zm-2.55-1.236.086-.329c.087-.312.173-.653.248-.98h.016c.086.323.165.668.255.98l.086.329h-.69z" fill-rule="evenodd" fill="#999"/></svg>