<svg width="16" height="16" viewBox="0 0 16 16" fill="none" xmlns="http://www.w3.org/2000/svg"><path d="M12.193 14.857H2.721a1.587 1.587 0 0 1-1.578-1.595V2.63c0-.88.707-1.595 1.578-1.595h7.365c.291 0 .526.237.526.532a.528.528 0 0 1-.526.531H2.721a.531.531 0 0 0-.526.532v10.633a.53.53 0 0 0 .526.532h9.47a.528.528 0 0 0 .526-.532v-8.51a.526.526 0 1 1 1.052 0v8.507a1.588 1.588 0 0 1-1.576 1.598z" fill="#666"/><path d="M9.102 6.348a.534.534 0 0 1-.374-.909l5.23-5.283a.52.52 0 0 1 .744 0 .534.534 0 0 1 0 .752l-5.23 5.285a.522.522 0 0 1-.37.155zm-2.172 0H3.773a.528.528 0 0 1-.526-.532c0-.294.235-.532.526-.532H6.93c.291 0 .526.238.526.532a.528.528 0 0 1-.526.532zm3.16 3.19H3.773a.528.528 0 0 1-.526-.532c0-.294.234-.532.526-.532h6.313a.53.53 0 0 1 .526.532.527.527 0 0 1-.524.532z" fill="#666"/></svg>