<svg width="27.333" height="39.785" viewBox="0 0 27.333 39.785" fill="none" xmlns="http://www.w3.org/2000/svg"><path d="M0 .001h24.248a.6.6 0 0 1 .6.6v19.854a.5.5 0 0 0 .223.416l2.04 1.36a.5.5 0 0 1 .222.416v10.837a.5.5 0 0 1-.5.5H0V.001z" fill-rule="evenodd" fill="url(#a)"/><path d="M.229 34.148a.5.5 0 0 1-.229-.42V0l9.677 6.594a.598.598 0 0 1 .262.495v20.645a.2.2 0 0 1-.2.2h-.593a.2.2 0 0 0-.2.2v10.732a.5.5 0 0 1-.772.42L.229 34.147z" fill-rule="evenodd" fill="url(#b)"/><defs><linearGradient id="a" x1="0" y1="16.993" x2="23.806" y2="16.993" gradientUnits="userSpaceOnUse"><stop stop-color="#EECB64"/><stop offset="1" stop-color="#FEE07C"/></linearGradient><linearGradient id="b" x1="4.97" y1="0" x2="4.97" y2="39.785" gradientUnits="userSpaceOnUse"><stop stop-color="#FFE8A3"/><stop offset="1" stop-color="#FEE188"/></linearGradient></defs></svg>