<svg xmlns="http://www.w3.org/2000/svg" xmlns:xlink="http://www.w3.org/1999/xlink" viewBox="0 0 40 40" style="enable-background:new 0 0 40 40" xml:space="preserve"><defs><path id="a" d="M0 5.66h40v30.67H0z"/></defs><clipPath id="b"><use xlink:href="#a" style="overflow:visible"/></clipPath><path d="M10.04 6.21.22 15.85c-.14.14-.22.32-.22.52 0 .19.08.38.22.51l19.26 18.9c.14.14.32.22.52.22s.39-.08.52-.21l19.26-18.9a.72.72 0 0 0 .22-.51c0-.19-.08-.38-.22-.51l-9.82-9.64a.698.698 0 0 0-.52-.23H10.56c-.2 0-.38.08-.52.21zm1.52 2.52h16.88c.1 0 .19.04.26.11l7.41 7.27c.14.14.14.37 0 .51L20.26 32.19c-.14.14-.38.14-.52 0L3.89 16.62a.362.362 0 0 1 0-.51l7.41-7.28a.4.4 0 0 1 .26-.1zm0 0" style="clip-path:url(#b);fill:#9b7e48"/><path d="m21.86 9.55-.52.59c1.55 1.92 3.69 3.39 6.42 4.41-.49.8-.91 1.51-1.27 2.11-2.76-1.42-4.91-3.06-6.44-4.94-1.44 1.89-3.61 3.62-6.53 5.2-.29-.49-.73-1.17-1.31-2.05 3.06-1.39 5.34-3.16 6.83-5.33h2.82zm-9.11 12.67h2.22v-6h2.28v6h2.25v-7.86h2.28v2.98h3.97v2.02h-3.97v2.86h5.47v2.02h-14.5v-2.02z" style="fill:#9b7e48"/></svg>