<svg width="10" height="36" viewBox="0 0 10 36" fill="none" xmlns="http://www.w3.org/2000/svg"><path d="M4.635 0c.246 0 .369.12.369.361a.365.365 0 0 1-.363.361H1.248v7.334h7.49v-3.29a.365.365 0 0 1 .368-.355c.202 0 .366.158.369.355v3.3a.719.719 0 0 1-.726.712H1.237a.718.718 0 0 1-.726-.71V.71A.718.718 0 0 1 1.237 0h3.398zm2.728.464a1.39 1.39 0 0 1 1.937 0 1.321 1.321 0 0 1 0 1.896L5.484 6.097a.36.36 0 0 1-.14.085l-2.146.7c-.28.091-.546-.169-.452-.443l.715-2.102a.35.35 0 0 1 .087-.137L7.363.464zm1.431.495a.664.664 0 0 0-.925 0L4.113 4.637l-.462 1.359 1.387-.453 3.756-3.678a.64.64 0 0 0 0-.906zM3.179 17.498c-.317-.412-1.002-1.046-1.543-1.498l-.489.462c.541.474 1.214 1.137 1.52 1.57l.512-.534zm6.709 3.078h-2.85v-3.682H9.44v-.712H3.79v.712h2.494v3.682H3.506v.715h2.777v3.561h.755v-3.561h2.85v-.715zm-1.441-.442c.267-.634.583-1.67.838-2.515l-.756-.18c-.142.754-.429 1.86-.683 2.535l.6.16zm-4.308-2.515c.274.786.51 1.8.57 2.476l.686-.182c-.072-.673-.316-1.68-.613-2.464l-.643.17zM2.718 23.09v-4.284h-.713v.01H.606v.715h1.399v3.692a.909.909 0 0 1-.471.793c.132.162.306.464.369.634.142-.19.408-.39 2.071-1.658a5.589 5.589 0 0 1-.264-.624l-.992.722zm.052 7.395c1.808-1.005 2.93-2.503 3.44-3.773l.808.142c-.072.14-.144.303-.214.452.725 1.209 2.012 2.425 3.196 3.039-.175.13-.419.403-.531.584-1.082-.623-2.246-1.76-3.034-2.96a9.156 9.156 0 0 1-3.196 3.1 2.43 2.43 0 0 0-.469-.584zm-2.216.253c.94-.975 1.807-2.476 2.328-3.994l.716.211a16.106 16.106 0 0 1-.992 2.174v6.789H1.86v-5.563c-.274.412-.57.786-.867 1.107a7.478 7.478 0 0 0-.44-.724zm7.71 5.16h-.767v-5.28h.768v5.28zm-5.23-.422c1.471-1.007 1.583-2.535 1.583-3.48v-1.359h.756v1.368c0 1.157-.192 2.808-1.785 3.994a2.28 2.28 0 0 0-.554-.523z" fill-rule="evenodd" fill="#FFF"/></svg>