<svg class="icon" viewBox="0 0 1152 1024" xmlns="http://www.w3.org/2000/svg" width="18" height="16"><path d="M1152 608v192c0 53.02-42.98 96-96 96H96c-53.02 0-96-42.98-96-96V608c0-53.02 42.98-96 96-96h960c53.02 0 96 42.98 96 96zm-96-160a159.114 159.114 0 0 1 61.554 12.33L924.5 170.748A96.006 96.006 0 0 0 844.622 128H307.378a96 96 0 0 0-79.876 42.748L34.446 460.33A159.114 159.114 0 0 1 96 448h960zm-96 192c-35.346 0-64 28.654-64 64s28.654 64 64 64 64-28.654 64-64-28.654-64-64-64zm-192 0c-35.346 0-64 28.654-64 64s28.654 64 64 64 64-28.654 64-64-28.654-64-64-64z" fill="#666"/></svg>