<svg width="44.047" height="53.334" viewBox="0 0 44.047 53.334" fill="none" xmlns="http://www.w3.org/2000/svg"><path d="M44.047 50.772c.001 1.392-.929 2.522-2.077 2.523l-39.724.039c-1.148.001-2.08-1.127-2.081-2.52L.117 2.634C.116 1.24 1.046.11 2.194.109L31.422.081l12.586 11.807.039 38.883z" fill-rule="evenodd" fill="#EDEDED"/><path d="m44.047 12.195-10.608.01c-1.148.002-2.08-1.126-2.081-2.518l-.01-9.298 12.699 11.806zm-10.802 8.054a1.25 1.25 0 0 1-.37.894 1.251 1.251 0 0 1-.895.37H11.113a1.25 1.25 0 0 1-.894-.371 1.25 1.25 0 0 1-.274-1.378c.064-.155.155-.291.274-.41a1.248 1.248 0 0 1 .894-.37h20.868a1.264 1.264 0 0 1 1.264 1.265zm0 9.485A1.259 1.259 0 0 1 31.98 31H11.113c-.168 0-.33-.032-.484-.097a1.243 1.243 0 0 1-.684-.684 1.25 1.25 0 0 1 0-.968 1.265 1.265 0 0 1 1.168-.78h20.868a1.266 1.266 0 0 1 1.264 1.264zm0 10.118a1.254 1.254 0 0 1-.37.894 1.264 1.264 0 0 1-.895.37H11.113a1.263 1.263 0 0 1-.484-2.432c.155-.065.316-.097.484-.097h20.868c.167 0 .329.032.484.097a1.246 1.246 0 0 1 .684.684c.064.154.096.316.096.484z" fill-rule="evenodd" fill="#CDCDCD"/></svg>