<svg class="icon" viewBox="0 0 1024 1024" xmlns="http://www.w3.org/2000/svg" data-spm-anchor-id="a313x.7781069.0.i7" width="16" height="16"><path d="M842.667 981.333H181.333A53.393 53.393 0 0 1 128 928V96a53.393 53.393 0 0 1 53.333-53.333H648.08a52.987 52.987 0 0 1 37.713 15.62L880.38 252.873A52.987 52.987 0 0 1 896 290.587V928a53.393 53.393 0 0 1-53.333 53.333zm-661.334-896A10.667 10.667 0 0 0 170.667 96v832a10.667 10.667 0 0 0 10.666 10.667h661.334A10.667 10.667 0 0 0 853.333 928V298.667h-160A53.393 53.393 0 0 1 640 245.333v-160zM682.667 115.5v129.833A10.667 10.667 0 0 0 693.333 256h129.834zM704 768H320a21.333 21.333 0 0 1 0-42.667h384A21.333 21.333 0 0 1 704 768zm0-213.333H320A21.333 21.333 0 0 1 320 512h384a21.333 21.333 0 0 1 0 42.667zm-213.333-256H320A21.333 21.333 0 0 1 320 256h170.667a21.333 21.333 0 0 1 0 42.667z" fill="#666"/></svg>