<svg width="16" height="16" viewBox="0 0 16 16" fill="none" xmlns="http://www.w3.org/2000/svg"><path d="M12.457 4.095a.32.32 0 0 1 .1.23.31.31 0 0 1-.1.23l-7.66 7.35a.337.337 0 0 1-.24.095.348.348 0 0 1-.24-.095.322.322 0 0 1-.098-.23.31.31 0 0 1 .099-.23l7.66-7.35a.338.338 0 0 1 .24-.095.348.348 0 0 1 .239.095zm-.652 1.583c.707.572 1.382 1.333 2.028 2.285-1.617 2.382-3.422 3.573-5.416 3.573a4.86 4.86 0 0 1-2.183-.511l.508-.487a4.21 4.21 0 0 0 1.675.349c1.638 0 3.168-.95 4.6-2.924-.55-.757-1.113-1.363-1.692-1.823l.48-.462zM8.418 4.39c.778 0 1.528.182 2.249.544l-.505.486a4.167 4.167 0 0 0-1.744-.38c-1.639 0-3.17.95-4.601 2.923.567.782 1.15 1.403 1.748 1.868l-.48.461C4.355 9.715 3.661 8.94 3 7.963 4.617 5.581 6.422 4.39 8.417 4.39zm1.59 3.015a1.56 1.56 0 0 1-.105 1.339 1.68 1.68 0 0 1-.67.644 1.73 1.73 0 0 1-.927.196 1.745 1.745 0 0 1-.47-.095l.574-.551h.008a1.055 1.055 0 0 0 .564-.165 1.006 1.006 0 0 0 .374-.437.943.943 0 0 0 .077-.373v-.007l.575-.55zM8.417 6.34c.232 0 .453.045.654.126l-.55.529a1.054 1.054 0 0 0-.822.28.98.98 0 0 0-.24.363.939.939 0 0 0-.053.426l-.55.528a1.577 1.577 0 0 1-.093-.979 1.572 1.572 0 0 1 .37-.707 1.656 1.656 0 0 1 .484-.373 1.726 1.726 0 0 1 .8-.193z" fill="#C2C2C2"/></svg>