<svg width="40" height="40" viewBox="0 0 40 40" fill="none" xmlns="http://www.w3.org/2000/svg"><defs><clipPath id="a"><path fill="#fff" d="M0 0h40v40H0z"/></clipPath></defs><g clip-path="url(#a)"><path d="M20.5 2.5c-9.94 0-18 8.056-18 18s8.06 18 18 18 18-8.056 18-18-8.06-18-18-18zm0 28.1a1.898 1.898 0 0 1 0-3.797 1.898 1.898 0 0 1 0 3.798zm3.206-18.18-1.61 10.017c-.218 1.301-.933 2.366-1.596 2.366s-1.378-1.065-1.595-2.366L17.294 12.42c-.217-1.302.687-2.72 2.005-2.72h2.398c1.322 0 2.226 1.414 2.01 2.72z" fill="#F0AD4E"/></g></svg>