<svg viewBox="0 0 1025 1024" xmlns="http://www.w3.org/2000/svg"><path d="M674.816 742.912c-49.664 35.328-107.52 52.736-166.912 51.712-7.68 0-15.872-.512-23.552-1.024-3.072-.512-6.144-1.024-9.216-1.024-6.144-1.024-12.288-1.536-17.92-2.56-3.584-.512-7.168-1.536-10.752-2.56-5.632-1.536-11.776-2.56-17.408-4.608-2.56-1.024-5.12-2.048-8.192-2.56-6.656-2.048-12.8-4.608-19.456-7.168-1.536-.512-3.072-1.024-4.096-2.048-7.168-3.072-14.848-6.656-21.504-10.752-.512 0-.512-.512-1.024-.512-24.064-13.312-45.568-29.696-65.024-49.152l-1.024-1.024c-6.144-6.144-11.776-12.288-16.896-18.944-1.024-1.536-2.048-3.072-3.584-4.096a288.717 288.717 0 0 1-62.464-179.712h66.048c1.536 0 3.584-1.024 4.096-2.56 1.024-1.536.512-3.584 0-5.12l-110.08-167.936c-1.024-1.536-2.56-2.048-4.096-2.048s-3.072 1.024-4.096 2.048L66.56 499.712c-1.024 1.536-1.024 3.072 0 5.12 1.024 1.536 2.56 2.56 4.096 2.56h66.048c0 79.872 24.576 153.6 66.56 215.04.512 1.024 1.024 1.536 1.536 2.56 4.096 6.144 9.216 11.776 13.824 17.92 1.536 2.048 3.584 4.608 5.12 6.656 6.656 8.192 14.336 16.384 21.504 24.064l2.048 2.048c25.088 25.6 53.248 46.592 83.968 64 1.024.512 1.536 1.024 2.56 1.536 8.704 4.608 17.92 9.216 27.136 13.312 2.048 1.024 4.608 2.048 6.656 3.072 7.68 3.072 15.872 6.144 24.064 9.216 4.096 1.536 7.68 2.56 11.776 4.096 7.168 2.048 14.336 4.096 22.016 5.632 5.12 1.024 9.728 2.56 14.848 3.584l6.144 1.536c7.168 1.024 13.824 2.048 20.992 2.56 2.56.512 5.12.512 7.68 1.024 12.288 1.024 25.088 2.048 37.376 2.048 76.288 0 150.528-23.552 214.016-68.608 20.48-14.336 25.088-43.008 11.264-63.488-14.848-21.504-43.008-26.624-62.976-12.288M886.272 506.88c0-79.36-24.576-153.6-66.048-214.528l-1.536-3.072c-5.12-7.68-10.752-14.336-16.384-21.504-.512-1.024-1.024-1.536-2.048-2.56-37.888-46.592-85.504-82.944-139.776-106.496-1.536-.512-3.072-1.536-4.608-2.048-8.704-3.584-17.408-6.656-26.112-9.728-3.072-1.024-6.144-2.048-9.728-3.072-7.68-2.56-15.36-4.096-23.552-6.144-4.608-1.024-8.704-2.048-13.312-3.072-2.048-.512-4.096-1.024-6.656-1.536-6.144-1.024-11.776-1.536-17.92-2.048l-12.288-1.536c-9.728-1.024-19.968-1.536-29.696-1.536-1.536 0-3.584-.512-5.12-.512h-1.024c-76.288 0-150.016 23.552-214.016 68.608-20.48 14.336-25.088 43.008-11.264 63.488 14.336 20.48 42.496 25.6 62.464 11.264 49.152-34.816 106.496-52.736 165.376-52.224 8.704 0 16.896.512 25.088 1.024 2.56.512 5.12.512 7.68 1.024l19.968 3.072c3.072.512 5.632 1.536 8.704 2.048 6.656 1.536 12.8 3.072 19.456 5.12 2.048.512 4.096 1.536 6.144 2.048l21.504 7.68c.512.512 1.536.512 2.048 1.024 41.984 18.432 78.848 46.592 107.52 81.408l.512.512c40.448 49.664 64.512 113.152 64.512 182.784h-66.048c-1.536 0-3.584 1.024-4.096 2.56-1.024 1.536-.512 3.584 0 5.12L837.12 682.496c1.024 1.536 2.56 2.048 4.096 2.048s3.072-1.024 4.096-2.048l111.104-168.448c1.024-1.536 1.024-3.072 0-5.12-1.024-1.536-2.56-2.56-4.096-2.56l-66.048.512z"/></svg>