<svg width="13" height="14" viewBox="0 0 13 14" fill="none" xmlns="http://www.w3.org/2000/svg"><path d="M9.78 6.63c-1.77 0-3.22 1.43-3.22 3.18C6.56 11.57 8 13 9.78 13 11.55 13 13 11.57 13 9.81c0-1.75-1.45-3.18-3.22-3.18zm0 5.48c-1.28 0-2.32-1.03-2.32-2.3 0-.42.12-.83.34-1.19l3.35 3.04c-.39.29-.87.45-1.37.45zM11.76 11 8.4 7.97c.4-.29.88-.45 1.38-.45 1.28 0 2.32 1.03 2.32 2.29 0 .43-.12.84-.34 1.19zM2 2h6.21v1.01H2V2zm.01 2.69h4.46v1.02H2.01V4.69z" fill="#999"/><path d="M.92 12.92V1.1c0-.05.05-.1.1-.1L9.96.98c.06 0 .11.05.11.1v5.99H11V.19c0-.11-.1-.19-.22-.19H.21C.09 0 0 .09 0 .19V13.8c0 .11.09.2.21.2H5.9v-.98H1.02c-.05 0-.1-.05-.1-.1z" fill="#999"/></svg>