<svg width="16.036" height="12.24" viewBox="0 0 16.036 12.24" fill="none" xmlns="http://www.w3.org/2000/svg"><path d="M4.033.087.105 4.014c-.14.14-.14.28 0 .42l7.704 7.701c.14.14.28.14.42 0l7.702-7.702c.14-.14.14-.28 0-.419L12.003.087A.286.286 0 0 0 11.794 0H4.243a.286.286 0 0 0-.21.087m.609 1.025h6.753l3.07 3.007c.069.07.069.14 0 .21l-6.342 6.34c-.07.068-.14.068-.21 0l-6.34-6.34c-.07-.07-.07-.14 0-.21l3.069-3.007z" fill-rule="evenodd" fill="#FFA904"/><path d="m7.422 4.484-.1.225a2.57 2.57 0 0 1-.097.204h2.966v.797c-.183.136-.373.286-.571.45-.198.163-.39.325-.578.487l.475.156c.151.049.291.096.419.143l-.223.81a24.59 24.59 0 0 0-.884-.329 42.68 42.68 0 0 0-1.914-.624c-.303-.091-.57-.167-.8-.226l.236-.733a198.314 198.314 0 0 1 1.844.536c.157-.124.31-.248.46-.371a8.89 8.89 0 0 1 .432-.332h-2.83v-.682a3.41 3.41 0 0 0 .125-.236l.134-.275H5.331v-.758h1.492c.03-.072.058-.147.082-.222l.077-.23H5.7v-.767h1.525a16.626 16.626 0 0 0 .18-.643l.821.146a101.1 101.1 0 0 1-.128.497h2.252v.766H7.87l-.153.453h3.01v.758H7.422z" fill-rule="evenodd" fill="#FFA904"/></svg>