<svg width="16" height="16" viewBox="0 0 16 16" fill="none" xmlns="http://www.w3.org/2000/svg"><rect rx="4" width="16" height="16" fill="#999"/><path fill="#FFF" d="M2 3h12v10H2z"/><path d="M5.287 5.31c-.278 0-.557.186-.557.464s.279.464.557.464.464-.186.464-.464c0-.29-.186-.464-.464-.464zM9.055 8c-.185 0-.36.197-.36.371 0 .197.186.371.36.371.278 0 .464-.185.464-.37 0-.186-.186-.372-.464-.372zM7.861 6.238a.444.444 0 0 0 .464-.464c0-.278-.186-.464-.464-.464s-.557.186-.557.464.279.464.557.464zM11.073 8c-.186 0-.36.197-.36.371 0 .197.186.371.36.371.278 0 .463-.185.463-.37 0-.186-.185-.372-.463-.372z" fill-rule="evenodd" fill="#999"/><path d="M8 0a8.001 8.001 0 0 0 0 16A8.001 8.001 0 0 0 8 0zM6.481 10.052c-.464 0-.835-.093-1.275-.197l-1.276.65.36-1.125c-.916-.65-1.473-1.496-1.473-2.505 0-1.774 1.658-3.165 3.664-3.165 1.797 0 3.386 1.113 3.699 2.609a3.388 3.388 0 0 0-.348-.023c-1.74.023-3.107 1.333-3.107 2.956 0 .267.046.522.116.777a3.74 3.74 0 0 1-.36.023zm5.426 1.299.278.927-.997-.556c-.359.093-.73.185-1.101.185-1.75 0-3.13-1.206-3.13-2.701-.012-1.484 1.368-2.69 3.107-2.69 1.658 0 3.119 1.217 3.119 2.701 0 .835-.545 1.577-1.276 2.134z" fill-rule="evenodd" fill="#999"/></svg>