<svg width="12.294" height="12.25" viewBox="0 0 12.294 12.25" fill="none" xmlns="http://www.w3.org/2000/svg"><path d="M.875 10.938h5.031c.263 0 .438.175.438.437s-.175.438-.438.438H.438c-.263 0-.438-.176-.438-.438V.437C0 .175.175 0 .438 0h9.624c.263 0 .438.175.438.438v3.28c0 .263-.175.438-.438.438-.262 0-.437-.175-.437-.437V.875H.875v10.063zm7-8.313c.263 0 .438.175.438.438 0 .262-.175.437-.438.437h-5.25c-.263 0-.438-.175-.438-.438 0-.262.175-.437.438-.437h5.25zm4.156 2.931-2.756-1.05c-.219-.087-.437-.087-.613 0l-2.756 1.05c-.131.044-.218.175-.218.35V8.05c0 1.969 1.312 3.719 3.237 4.2h.131c1.925-.525 3.238-2.231 3.238-4.2V5.906c-.044-.175-.132-.306-.263-.35zM2.625 5.25h2.188c.262 0 .437.175.437.438 0 .262-.175.437-.438.437H2.626c-.263 0-.438-.175-.438-.438 0-.262.175-.437.438-.437zm8.75 2.8c0 1.488-.963 2.844-2.406 3.281-1.444-.48-2.406-1.793-2.406-3.28V6.255l2.406-.919 2.406.92V8.05zm-3.5-.963a1.6 1.6 0 0 0-.394 1.094c0 .394.131.744.394 1.007.263.262.612.437 1.006.393.132 0 .219 0 .35-.043l.35.393h1.138l-.831-.787c.262-.307.393-.656.35-1.05a1.57 1.57 0 0 0-.394-1.05c-.263-.263-.613-.438-.963-.394-.394.044-.743.175-1.006.437zm1.575 1.05a.963.963 0 0 1-.175.57.416.416 0 0 1-.437.174c-.176 0-.35-.044-.438-.175-.219-.35-.219-.787 0-1.093a.538.538 0 0 1 .438-.22c.175 0 .306.045.393.176a.784.784 0 0 1 .219.568zm-6.825-.262h2.188c.262 0 .437.175.437.438 0 .262-.175.437-.438.437H2.626c-.263 0-.438-.175-.438-.438 0-.262.175-.437.438-.437z" fill="#20A53A"/></svg>