<svg width="11.904" height="16" viewBox="0 0 11.904 16" fill="none" xmlns="http://www.w3.org/2000/svg"><path d="M3.38 13.05h5.094c.272 0 .519.212.519.525 0 .275-.21.525-.519.525H3.38a.516.516 0 0 1-.518-.525c0-.313.21-.525.518-.525zm4.675 1.825H3.799c-.074 0-.098.1-.037.175l1.555.813c.172.075.382.137.629.137.21 0 .382-.075.592-.137l1.554-.813c.074-.063.037-.175-.037-.175zm-2.208-11.4c.63 0 1.172.25 1.727.775.555.487.802 1.125.802 1.9 0 .25.21.525.518.525.271 0 .518-.25.518-.525 0-1.125-.345-2-1.073-2.663C7.61 2.825 6.785 2.5 5.847 2.5a.517.517 0 0 0-.518.525c.025.2.234.45.518.45z" fill-rule="evenodd" fill="url(#a)"/><path d="M8.19 12.175H3.665c-.518 0-.938-.388-1-.913-.074-.1-.246-.35-.308-.425A6.06 6.06 0 0 1 0 6.026C-.012 2.7 2.652 0 5.946 0c3.293 0 5.958 2.7 5.958 6.037 0 1.926-.864 3.688-2.393 4.838-.074.075-.247.275-.309.425-.074.45-.48.875-1.011.875zM3.8 10.987h4.255c.099-.425.518-.912.728-1.087 1.209-.913 1.9-2.35 1.9-3.9 0-2.662-2.147-4.838-4.774-4.838C3.28 1.162 1.135 3.338 1.135 6c0 1.537.69 2.95 1.9 3.862.21.175.653.663.764 1.126z" fill-rule="evenodd" fill="url(#b)"/><defs><linearGradient id="a" x1="2.862" y1="9.25" x2="9.412" y2="9.25" gradientUnits="userSpaceOnUse"><stop stop-color="#E8A833"/><stop offset="1" stop-color="#B48A52"/></linearGradient><linearGradient id="b" x1="0" y1="6.088" x2="11.904" y2="6.088" gradientUnits="userSpaceOnUse"><stop stop-color="#E8A833"/><stop offset="1" stop-color="#B48A52"/></linearGradient></defs></svg>