<svg width="12.359" height="13.938" viewBox="0 0 12.359 13.938" fill="none" xmlns="http://www.w3.org/2000/svg"><path d="M11.04 13.93H1.29c-.72 0-1.29-.59-1.29-1.34V1.34C0 .59.57 0 1.29 0h8.07c.19 0 .36.17.36.37 0 .2-.17.37-.36.37H1.29c-.34 0-.6.28-.6.6v11.22c0 .33.26.6.58.6h9.77c.31 0 .57-.27.57-.6V2.91c0-.2.17-.38.36-.38.19 0 .36.18.36.38v9.68c.03.75-.57 1.34-1.29 1.34z" fill="#999" opacity=".9"/><path d="M9 7.34H3.33c-.19 0-.36-.18-.36-.38 0-.19.17-.37.36-.37H9c.19 0 .36.18.36.37 0 .2-.17.38-.36.38z" fill="#999" opacity=".9"/><path d="M6.16 10.27c-.19 0-.36-.17-.36-.37V4.03c0-.2.17-.38.36-.38.2 0 .36.18.36.38V9.9c0 .2-.16.37-.36.37zM12 3.28h-1.71C9.57 3.28 9 2.68 9 1.94V.37c0-.15.09-.28.21-.35.12-.05.29-.02.39.07l2.64 2.54c.11.1.14.28.09.4-.07.15-.19.25-.33.25zM9.72 1.21v.7c0 .32.26.6.57.6h.77l-1.34-1.3z" fill="#999" opacity=".9"/></svg>