<svg width="16" height="16" viewBox="0 0 16 16" fill="none" xmlns="http://www.w3.org/2000/svg"><path d="M11 3H3.154c-.319 0-.59.123-.816.367A1.258 1.258 0 0 0 2 4.25v9.5c0 .69.518 1.25 1.154 1.25H11c.636 0 1.154-.56 1.154-1.25v-9.5C12.154 3.561 11.636 3 11 3zm.23 10.75c0 .137-.103.25-.23.25H3.154c-.154 0-.23-.083-.23-.25v-9.5c0-.167.076-.25.23-.25H11c.154 0 .23.083.23.25v9.5zM12.847 1H5c-.308 0-.462.167-.462.5 0 .333.154.5.462.5h7.846c.154 0 .23.083.23.25v9.5c0 .333.155.5.463.5.307 0 .461-.167.461-.5v-9.5C14 1.561 13.483 1 12.846 1zM9.385 5.625H4.769c-.307 0-.461.167-.461.5 0 .333.154.5.461.5h4.616c.307 0 .461-.167.461-.5 0-.333-.154-.5-.461-.5zm0 2.5H4.769c-.307 0-.461.167-.461.5 0 .333.154.5.461.5h4.616c.307 0 .461-.167.461-.5 0-.333-.154-.5-.461-.5zm-1.847 2.479H4.77c-.307 0-.461.167-.461.5 0 .333.154.5.461.5h2.77c.307 0 .461-.167.461-.5 0-.333-.154-.5-.462-.5z" fill="#666"/></svg>