<svg width="50" height="50" viewBox="0 0 50 50" fill="none" xmlns="http://www.w3.org/2000/svg"><path d="M19.077 46.2c-.595 0-1.19-.188-1.696-.563l-6.931-5.123C3.906 35.678 0 27.894 0 19.688v-8.95a2.848 2.848 0 0 1 2.85-2.84h3.635c1.96 0 3.906-.502 5.629-1.453l5.593-3.087a2.843 2.843 0 0 1 2.726-.02l5.971 3.187a11.693 11.693 0 0 0 5.483 1.374h3.418a2.847 2.847 0 0 1 2.848 2.84v7.167c0 .796-.658 1.441-1.47 1.441-.813 0-1.471-.645-1.471-1.44V10.78h-3.326c-2.391 0-4.773-.597-6.889-1.725l-5.909-3.153-5.531 3.052a14.672 14.672 0 0 1-7.072 1.826H2.94v8.908c0 7.305 3.469 14.231 9.28 18.526l6.856 5.067 3.312-2.448a1.49 1.49 0 0 1 2.06.282c.49.636.36 1.539-.288 2.018l-3.386 2.504a2.857 2.857 0 0 1-1.697.562z" fill="rgba(122, 227, 142, 0.2)"/><path d="M17.604 28.905c-.376 0-.752-.141-1.04-.422l-4.712-4.618a1.42 1.42 0 0 1 0-2.037 1.491 1.491 0 0 1 2.079 0l4.713 4.618a1.42 1.42 0 0 1 0 2.037 1.481 1.481 0 0 1-1.04.422z" fill="rgba(122, 227, 142, 0.2)"/><path d="M17.604 28.905c-.376 0-.752-.141-1.04-.422a1.42 1.42 0 0 1 0-2.037l9.893-9.692a1.49 1.49 0 0 1 2.08 0 1.42 1.42 0 0 1 0 2.037l-9.893 9.692a1.481 1.481 0 0 1-1.04.422zm17.01 15.607c-6.566 0-11.909-5.234-11.909-11.668 0-6.433 5.343-11.667 11.909-11.667 6.566 0 11.908 5.234 11.908 11.667 0 6.434-5.342 11.668-11.908 11.668zm0-20.453c-4.945 0-8.967 3.942-8.967 8.785 0 4.844 4.023 8.786 8.967 8.786 4.944 0 8.967-3.942 8.967-8.786 0-4.843-4.023-8.785-8.967-8.785z" fill="rgba(122, 227, 142, 0.2)"/><path d="M32.448 28.42a5.075 5.075 0 0 1 2.417-.476l-2.417.476z" fill="rgba(122, 227, 142, 0.2)"/><path d="M32.449 29.86a1.475 1.475 0 0 1-1.327-.817 1.427 1.427 0 0 1 .69-1.922 6.641 6.641 0 0 1 3.12-.615c.812.037 1.439.71 1.401 1.506-.037.794-.724 1.402-1.536 1.372l-.184-.004c-.535 0-1.05.114-1.53.34-.2.094-.412.14-.634.14zM48.529 47a1.48 1.48 0 0 1-1.002-.388l-6.283-5.74a1.421 1.421 0 0 1-.072-2.036 1.492 1.492 0 0 1 2.078-.07l6.282 5.74a1.42 1.42 0 0 1 .073 2.036c-.29.304-.682.458-1.076.458z" fill="rgba(122, 227, 142, 0.2)"/></svg>