<svg width="16" height="16" viewBox="0 0 16 16" fill="none" xmlns="http://www.w3.org/2000/svg"><rect rx="4" width="16" height="16" fill="#999"/><path d="M8.256 9.272c-1.723 2.25-3.775 1.547-4.103 1.406-.82-.225-1.094-1.772-.082-2.25 1.723-.562 3.228.084 4.322.647-.082.113-.137.197-.137.197zm1.778-.647c.766-1.406 1.04-2.756 1.04-2.756H8.528v-.957h3.01v-.421h-3.01V3H7.162v1.49H4.426v.422h2.736v.985H4.809v.422h4.732c0 .084 0 .084-.04.365-.042.282-.397.985-.67 1.547-3.502-1.406-4.514-.562-4.788-.422-2.07 1.695-.701 3.641 1.01 3.902 1.712.261 3.258-.667 4.352-1.99.218.085.601.296 1.696.845C12.194 11.114 14 12 14 12V9.89c-.547-.056-2.544-.759-3.966-1.265z" fill="#FFF"/></svg>