<svg width="50" height="50" viewBox="0 0 50 50" fill="none" xmlns="http://www.w3.org/2000/svg"><path d="M31.896 5.172a1.719 1.719 0 0 0 .767 1.434 1.722 1.722 0 0 0 2.391-.476 1.732 1.732 0 0 0 .258-1.294 1.723 1.723 0 0 0-3.125-.621 1.718 1.718 0 0 0-.29.957zm5.173 0a1.719 1.719 0 0 0 .766 1.434 1.722 1.722 0 0 0 2.392-.476 1.718 1.718 0 0 0 .159-1.617 1.718 1.718 0 0 0-1.257-1.032 1.72 1.72 0 0 0-1.77.734 1.712 1.712 0 0 0-.29.957zm5.172 0a1.719 1.719 0 0 0 .767 1.434 1.725 1.725 0 0 0 2.391-2.391 1.723 1.723 0 0 0-3.158.957zm-37.069.862h16.38a.854.854 0 0 0 .61-.252.855.855 0 0 0 .252-.61.853.853 0 0 0-.253-.61.855.855 0 0 0-.61-.252H5.173a.854.854 0 0 0-.61.253.853.853 0 0 0-.252.61.853.853 0 0 0 .253.609.854.854 0 0 0 .61.252zm20.69 25.397h-1.638a3.415 3.415 0 0 1-1.35-.281 3.415 3.415 0 0 1-1.133-.788 3.631 3.631 0 0 1-.772-1.165 3.63 3.63 0 0 1-.28-1.37v-6.275a.853.853 0 0 1 .253-.61.853.853 0 0 1 .61-.252h6.896a.853.853 0 0 1 .61.252.856.856 0 0 1 .252.61v6.241c.002.472-.085.927-.26 1.365a3.63 3.63 0 0 1-.748 1.17 3.43 3.43 0 0 1-1.109.798 3.415 3.415 0 0 1-1.33.305zm-3.448-9.017v5.38a1.88 1.88 0 0 0 .535 1.336c.157.173.344.307.558.401.215.095.44.142.674.141h1.681a1.645 1.645 0 0 0 1.233-.543 1.877 1.877 0 0 0 .491-1.302v-5.413h-5.172z" fill="rgba(122, 227, 142, 0.2)"/><path d="M27.586 22.414h-5.172a.854.854 0 0 1-.61-.253.854.854 0 0 1-.252-.61v-.861a3.438 3.438 0 0 1 1.01-2.439 3.444 3.444 0 0 1 3.758-.747 3.436 3.436 0 0 1 1.547 1.27 3.444 3.444 0 0 1 .581 1.916v.862a.853.853 0 0 1-.252.61.855.855 0 0 1-.61.252zm-4.31-1.724h3.448a1.718 1.718 0 0 0-.766-1.434 1.72 1.72 0 0 0-1.916 0 1.722 1.722 0 0 0-.766 1.434z" fill="rgba(122, 227, 142, 0.2)"/><path d="M29.31 23.276h-.862a.853.853 0 0 1-.61-.253.854.854 0 0 1-.252-.61.853.853 0 0 1 .253-.609.856.856 0 0 1 .61-.252h.861a.855.855 0 0 0 .61-.253.855.855 0 0 0 .252-.61.854.854 0 0 1 .253-.609.854.854 0 0 1 .61-.252.855.855 0 0 1 .609.252.851.851 0 0 1 .253.61 2.582 2.582 0 0 1-2.082 2.536c-.167.033-.335.05-.505.05zm1.725 6.896a.855.855 0 0 1-.61-.252.854.854 0 0 1-.253-.61.853.853 0 0 0-.252-.61.853.853 0 0 0-.61-.252h-.862a.855.855 0 0 1-.61-.252.854.854 0 0 1-.252-.61.853.853 0 0 1 .253-.61.854.854 0 0 1 .61-.252h.861a2.582 2.582 0 0 1 2.39 1.597 2.591 2.591 0 0 1 .197.99.853.853 0 0 1-.253.609.855.855 0 0 1-.61.252zm-9.483-6.896h-.862a2.582 2.582 0 0 1-2.39-1.597 2.594 2.594 0 0 1-.197-.99.853.853 0 0 1 .253-.609.853.853 0 0 1 .61-.252.855.855 0 0 1 .61.252.854.854 0 0 1 .252.61.855.855 0 0 0 .252.61.853.853 0 0 0 .61.252h.862a.855.855 0 0 1 .61.252.855.855 0 0 1 .252.61.855.855 0 0 1-.253.61.855.855 0 0 1-.61.252zm-2.587 6.896a.855.855 0 0 1-.609-.252.851.851 0 0 1-.253-.61 2.582 2.582 0 0 1 2.082-2.536c.167-.033.335-.05.505-.05h.862a.853.853 0 0 1 .61.253.856.856 0 0 1 .252.61.855.855 0 0 1-.253.609.857.857 0 0 1-.61.252h-.861a.853.853 0 0 0-.61.253.855.855 0 0 0-.252.61.854.854 0 0 1-.253.609.854.854 0 0 1-.61.252zM25 31.465a.855.855 0 0 1-.61-.252.852.852 0 0 1-.252-.61v-5.172a.853.853 0 0 1 .252-.61.853.853 0 0 1 .61-.252.853.853 0 0 1 .61.253.853.853 0 0 1 .252.609v5.172a.853.853 0 0 1-.252.61.855.855 0 0 1-.61.252zm-3.448-5.603h-2.587a.853.853 0 0 1-.609-.252.853.853 0 0 1-.253-.61.853.853 0 0 1 .253-.61.853.853 0 0 1 .61-.252h2.586a.853.853 0 0 1 .61.252.856.856 0 0 1 .252.61.855.855 0 0 1-.253.61.855.855 0 0 1-.61.252zm9.483 0h-2.587a.853.853 0 0 1-.61-.252.854.854 0 0 1-.252-.61.853.853 0 0 1 .253-.61.854.854 0 0 1 .61-.252h2.585a.853.853 0 0 1 .61.252.853.853 0 0 1 .253.61.853.853 0 0 1-.253.61.853.853 0 0 1-.61.252z" fill="rgba(122, 227, 142, 0.2)"/><path d="M47.414 0H2.586a2.58 2.58 0 0 0-2.15 1.15A2.58 2.58 0 0 0 0 2.585V41.38a2.58 2.58 0 0 0 1.15 2.15 2.577 2.577 0 0 0 1.436.436h18.966v2.587a3.437 3.437 0 0 0 .58 1.916A3.443 3.443 0 0 0 25 50a3.437 3.437 0 0 0 1.916-.581 3.444 3.444 0 0 0 1.532-2.867v-2.587h18.966a2.574 2.574 0 0 0 1.437-.435A2.583 2.583 0 0 0 50 41.38V2.585a2.574 2.574 0 0 0-.436-1.437 2.576 2.576 0 0 0-1.646-1.1A2.58 2.58 0 0 0 47.414 0zM2.586 1.724h44.828a.854.854 0 0 1 .61.253.853.853 0 0 1 .252.61V8.62H1.724V2.586a.855.855 0 0 1 .253-.61.855.855 0 0 1 .61-.252zm21.552 34.483c.575.043 1.15.043 1.724 0v1.724h-1.724v-1.724zm2.586 10.345a1.72 1.72 0 0 1-.766 1.433 1.717 1.717 0 0 1-1.294.258 1.723 1.723 0 0 1-1.388-1.691v-6.897h3.448v6.897zm20.69-4.31H28.448v-3.449a.855.855 0 0 0-.252-.61.854.854 0 0 0-.61-.252v-2.034a11.194 11.194 0 0 0 5.396-3.013 11.176 11.176 0 0 0 2.587-4.08 11.261 11.261 0 0 0 .663-3.401 11.2 11.2 0 0 0-2.683-7.703 11.227 11.227 0 0 0-4.5-3.178 11.16 11.16 0 0 0-3.387-.727 11.2 11.2 0 0 0-8.768 3.486 11.157 11.157 0 0 0-1.644 2.236.856.856 0 0 0-.085.657.856.856 0 0 0 .404.524.856.856 0 0 0 .656.085.857.857 0 0 0 .525-.404 9.45 9.45 0 0 1 2.306-2.713 9.4 9.4 0 0 1 2.03-1.248 9.436 9.436 0 0 1 2.866-.788 9.482 9.482 0 0 1 2.626 18.775 9.067 9.067 0 0 1-2.371.104 4.08 4.08 0 0 1-.785-.104 9.468 9.468 0 0 1-4.844-2.37 9.476 9.476 0 0 1-2.768-4.63.855.855 0 0 0-.397-.507.852.852 0 0 0-.638-.09.853.853 0 0 0-.522.377.854.854 0 0 0-.115.634 11.212 11.212 0 0 0 8.276 8.078v2.034a.853.853 0 0 0-.61.253.854.854 0 0 0-.252.61v3.447H2.586a.855.855 0 0 1-.61-.252.855.855 0 0 1-.252-.61V10.345h46.552v31.034a.853.853 0 0 1-.253.61.856.856 0 0 1-.61.252z" fill="rgba(122, 227, 142, 0.2)"/><path d="M13.983 22.974c-.084.364-.147.732-.19 1.104a.856.856 0 0 0 .364.765.86.86 0 0 0 .815.098.853.853 0 0 0 .463-.431.856.856 0 0 0 .082-.312c.034-.31.086-.618.155-.922a.868.868 0 0 0-.142-.655.87.87 0 0 0-.564-.362.866.866 0 0 0-.655.142.867.867 0 0 0-.363.564l.035.01z" fill="rgba(122, 227, 142, 0.2)"/></svg>