<svg width="13.888" height="14" viewBox="0 0 13.888 14" fill="none" xmlns="http://www.w3.org/2000/svg"><path d="M13.364 4.319A6.981 6.981 0 0 0 9.608.529a6.973 6.973 0 0 0-5.332 0A7 7 0 0 0 .52 4.32a7.174 7.174 0 0 0 0 5.362 6.986 6.986 0 0 0 3.756 3.79 6.98 6.98 0 0 0 5.332 0 6.97 6.97 0 0 0 3.756-3.79c.7-1.716.697-3.66 0-5.362zm-.706 5.075a6.337 6.337 0 0 1-3.351 3.38c-1.5.632-3.218.614-4.756 0-3.063-1.224-4.606-5.078-3.35-8.162 1.262-3.101 5.066-4.72 8.106-3.38 1.485.655 2.721 1.843 3.35 3.38a6.342 6.342 0 0 1 0 4.782z" fill-rule="evenodd" fill="url(#a)"/><path d="M9.941 7.481H7.063V3.158c0-.566-.878-.566-.878 0V7.97c0 .172.068.298.204.378.09.074.194.111.31.111h3.242a.48.48 0 0 0 .485-.489.5.5 0 0 0-.485-.489z" fill-rule="evenodd" fill="url(#b)"/><defs><linearGradient id="a" x1="0" y1="7" x2="13.888" y2="7" gradientUnits="userSpaceOnUse"><stop stop-color="#E8A833"/><stop offset="1" stop-color="#B48A52"/></linearGradient><linearGradient id="b" x1="6.185" y1="5.596" x2="10.426" y2="5.596" gradientUnits="userSpaceOnUse"><stop stop-color="#E8A833"/><stop offset="1" stop-color="#B48A52"/></linearGradient></defs></svg>