<svg width="15.872" height="13" viewBox="0 0 15.872 13" fill="none" xmlns="http://www.w3.org/2000/svg"><path d="M12.42 7.171a5.122 5.122 0 0 1 3.041 2.867c.323.753.445 1.543.403 2.363-.014.259-.142.438-.353.489-.307.074-.582-.173-.56-.505.06-.912-.135-1.763-.612-2.535-.635-1.03-1.538-1.676-2.705-1.926-.18-.04-.364-.052-.545-.081a.456.456 0 0 1-.38-.407c-.017-.23.103-.423.31-.492.54-.18.976-.514 1.33-.965.37-.472.585-1.016.63-1.62.064-.856-.175-1.617-.731-2.265a2.891 2.891 0 0 0-1.581-.955 3.523 3.523 0 0 0-.794-.072C9.634 1.07 9.49.95 9.44.712c-.058-.279.138-.524.435-.536a3.557 3.557 0 0 1 1.637.304c1.177.533 1.952 1.436 2.244 2.722.309 1.355-.026 2.56-.94 3.59-.059.067-.123.129-.187.19s-.131.12-.208.19zM6.182 8.707l.633 1.103c.287.5.573 1 .861 1.498-.477.478-.966 1.077-1.44 1.559-.476-.483-1.062-.963-1.54-1.444.491-.853.996-1.863 1.486-2.716zm6.025 3.727a6.07 6.07 0 0 0-.28-1.117c-.615-1.688-1.72-2.91-3.318-3.662a5.76 5.76 0 0 0-.501-.203c1.039-.68 1.686-1.623 1.86-2.874.173-1.25-.167-2.354-1-3.282a3.906 3.906 0 0 0-1.306-.96 3.8 3.8 0 0 0-3.844.426 3.91 3.91 0 0 0-.6.554c-.792.894-1.127 1.96-.987 3.159.152 1.294.807 2.27 1.87 2.97a7.3 7.3 0 0 0-.537.229A6.216 6.216 0 0 0 .766 10.26a6.289 6.289 0 0 0-.757 2.15c-.04.238.051.446.246.537.231.107.467.05.615-.141.077-.1.097-.219.12-.337.214-1.13.713-2.107 1.54-2.888 1.374-1.3 2.994-1.746 4.813-1.309 1.469.353 2.568 1.248 3.316 2.591.304.546.484 1.136.595 1.75a.48.48 0 0 0 .569.375.491.491 0 0 0 .383-.554zM6.108 7.095a2.974 2.974 0 0 1-2.134-.904 3.117 3.117 0 0 1-.879-2.189C3.098 2.292 4.45.912 6.107.917c1.66.004 3.01 1.39 3.01 3.09-.002 1.702-1.35 3.092-3.01 3.088z" fill-rule="evenodd" fill="url(#a)"/><defs><linearGradient id="a" x1="0" y1="6.5" x2="15.872" y2="6.5" gradientUnits="userSpaceOnUse"><stop stop-color="#E8A833"/><stop offset="1" stop-color="#B48A52"/></linearGradient></defs></svg>