<svg width="16" height="16" viewBox="0 0 16 16" fill="none" xmlns="http://www.w3.org/2000/svg"><path d="M14.874 7.436a.445.445 0 0 0-.615-.006l-.285.281A5.963 5.963 0 0 0 7.994 2C4.688 2 2 4.691 2 8s2.689 6 5.993 6c1.762 0 3.428-.78 4.567-2.133a.482.482 0 0 0 .123-.138.183.183 0 0 1 .013-.015l.03-.047-.01-.005a.453.453 0 0 0-.424-.606c-.15 0-.29.08-.372.21a5.095 5.095 0 0 1-3.927 1.847A5.116 5.116 0 0 1 2.886 8a5.117 5.117 0 0 1 5.107-5.113A5.115 5.115 0 0 1 13.1 7.944l-.508-.51a.444.444 0 0 0-.615-.002.436.436 0 0 0 0 .617l1.072 1.077a.43.43 0 0 0 .308.128l.016.003c.025.006.052.013.081.013a.434.434 0 0 0 .305-.125l1.11-1.093a.435.435 0 0 0 .005-.616z" fill="#20A53A"/></svg>