<svg width="8.684" height="9.842" viewBox="0 0 8.684 9.842" fill="none" xmlns="http://www.w3.org/2000/svg"><path d="M2.363 9.842H1.182C.532 9.842 0 9.288 0 8.612V1.23C0 .554.532 0 1.182 0h5.907c.65 0 1.182.554 1.182 1.23v2.768c0 .185-.118.308-.296.308-.177 0-.295-.123-.295-.308V1.23c0-.369-.236-.615-.59-.615H1.181C.827.615.59.861.59 1.23v7.382c0 .369.236.615.59.615h1.477c.178 0 .296.123.296.308 0 .184-.118.307-.296.307h-.295zm-.295-7.381h4.135c.177 0 .295.123.295.307 0 .185-.118.308-.295.308H2.068c-.178 0-.296-.123-.296-.308 0-.184.118-.307.296-.307zm0 1.845H5.02c.178 0 .296.123.296.307 0 .185-.118.308-.296.308H2.068c-.178 0-.296-.123-.296-.308 0-.184.118-.307.296-.307zm0 1.845H3.84c.177 0 .295.123.295.308 0 .184-.118.307-.295.307H2.068c-.178 0-.296-.123-.296-.307 0-.185.118-.308.296-.308zm3.19 3.014 2.836-2.952-.414-.43-2.836 2.952-.059.492.473-.062zm2.836-3.813.413.43a.612.612 0 0 1 0 .861L5.671 9.596c-.118.123-.236.185-.354.185l-.827.061c-.178 0-.296-.123-.296-.246v-.061l.06-.862c0-.123.059-.246.177-.369l2.835-2.952a.556.556 0 0 1 .828 0z" fill="#FFF"/></svg>