<svg width="50" height="50" viewBox="0 0 50 50" fill="none" xmlns="http://www.w3.org/2000/svg"><path d="M19.077 46.2c-.595 0-1.19-.188-1.696-.563l-6.931-5.123C3.906 35.678 0 27.894 0 19.688v-8.95a2.848 2.848 0 0 1 2.85-2.84h3.635c1.96 0 3.906-.502 5.629-1.453l5.593-3.087a2.843 2.843 0 0 1 2.726-.02l5.971 3.187a11.693 11.693 0 0 0 5.483 1.374h3.418a2.847 2.847 0 0 1 2.848 2.84v7.167c0 .796-.658 1.441-1.47 1.441-.813 0-1.471-.645-1.471-1.44V10.78h-3.326c-2.391 0-4.773-.597-6.889-1.725l-5.909-3.153-5.531 3.052a14.672 14.672 0 0 1-7.072 1.826H2.94v8.908c0 7.305 3.469 14.231 9.28 18.526l6.856 5.067 3.312-2.448a1.49 1.49 0 0 1 2.06.282c.49.636.36 1.539-.288 2.018l-3.386 2.504a2.857 2.857 0 0 1-1.697.562z" fill="rgba(122, 227, 142, 0.2)"/><path d="M17.604 28.905c-.376 0-.752-.141-1.04-.422l-4.712-4.618a1.42 1.42 0 0 1 0-2.037 1.491 1.491 0 0 1 2.079 0l4.713 4.618a1.42 1.42 0 0 1 0 2.037 1.481 1.481 0 0 1-1.04.422z" fill="rgba(122, 227, 142, 0.2)"/><path d="M17.604 28.905c-.376 0-.752-.141-1.04-.422a1.42 1.42 0 0 1 0-2.037l9.893-9.692a1.49 1.49 0 0 1 2.08 0 1.42 1.42 0 0 1 0 2.037l-9.893 9.692a1.481 1.481 0 0 1-1.04.422z" fill="rgba(122, 227, 142, 0.2)"/><path d="M34.182 23a1 1 0 0 1 1-1h2.25a1 1 0 0 1 1 1v2.544a1 1 0 0 0 1 1h4.182a1 1 0 0 1 1 1v1.717a1 1 0 0 1-1 1H29a1 1 0 0 1-1-1v-1.717a1 1 0 0 1 1-1h4.182a1 1 0 0 0 1-1V23z" stroke="rgba(122, 227, 142, 0.2)" stroke-width="2.1"/><path d="m31.09 30.26-2.739 9.886a1 1 0 0 0 .964 1.267H43.64a1 1 0 0 0 .954-1.298l-3.072-9.854" stroke="rgba(122, 227, 142, 0.2)" stroke-width="2.1"/><path d="m33.023 41.413 1.545-3.717" stroke="rgba(122, 227, 142, 0.2)" stroke-width="2.1" stroke-linecap="round"/></svg>