<svg width="16" height="16" viewBox="0 0 16 16" fill="none" xmlns="http://www.w3.org/2000/svg"><rect rx="4" width="16" height="16" fill="#999"/><path d="M11.5 5.326c-.066-.492-.378-.768-.935-.826-.329.03-.575.145-.74.348l-1.82 2.304-1.823-2.304a1.155 1.155 0 0 0-.738-.348c-.591.058-.903.334-.936.826a.453.453 0 0 0 .197.478l1.576 1.957H5.247c-.362.058-.559.217-.591.478 0 .32.197.478.591.478h1.822v.74H5.247c-.362.058-.559.217-.591.478 0 .319.197.478.591.478h1.822v1.348c0 .493.311.739.935.739.591 0 .903-.246.936-.74v-1.347h1.822c.36 0 .557-.159.59-.478-.066-.261-.263-.42-.59-.478H8.94v-.74h1.822c.36 0 .557-.159.59-.478-.066-.26-.263-.42-.59-.478H9.726l1.576-1.957a.606.606 0 0 0 .197-.478z" fill-rule="evenodd" fill="#FFF"/></svg>