<?xml version="1.0" standalone="no"?><!DOCTYPE svg PUBLIC "-//W3C//DTD SVG 1.1//EN" "http://www.w3.org/Graphics/SVG/1.1/DTD/svg11.dtd"><svg t="1718692535082" class="icon" viewBox="0 0 1024 1024" version="1.1" xmlns="http://www.w3.org/2000/svg" p-id="1480" xmlns:xlink="http://www.w3.org/1999/xlink" width="16" height="16"><path d="M897.3 594.1c0 16.9 13.7 30.6 30.6 30.6 16.9 0 30.6-13.7 30.6-30.6 0-16.9-13.7-30.6-30.6-30.6-16.9 0-30.6 13.7-30.6 30.6zM911.9 662.6c-11.4 0-21.9 5.9-28.8 15.1-5.5 7.8-11.9 15.5-18.7 22.4-30.2 30.2-70.4 46.6-113.3 46.6h-44.8c-19.6 0-35.6 16-35.6 35.6 0 18.3 14.6 32.9 32.9 32.9h42.5c61.7 0 119.2-24.2 163.1-67.2 11-11 21-23.3 29.2-36.1 14.2-21.4-0.9-49.3-26.5-49.3z m39.3-182.3c-10.1-20.1-23.3-38.8-39.3-55.3-38.4-39.7-88.6-64-143.5-69.4-45.6-97.3-143.4-158.5-251.6-158.5-67.2 0-132 24.2-182.7 67.6-45.2 40.2-77.2 93.2-90.5 152.1-46.1 4.6-89.1 24.7-122.4 58.5-37.5 37.4-57.7 87.7-57.7 140.2 0 52.5 20.1 101.9 56.7 139.3 35.6 37 83.6 58 134.3 59.8 0.9 0 2.7 0.5 3.7 0.5H313c18.7 0 33.8-15.1 33.8-33.8 0-19.2-15.5-34.3-34.3-34.3h-61.2c-32.9-1.8-64-15.1-87.3-38.8-23.8-24.2-36.5-55.7-36.5-89.5 0-34.3 13.2-66.7 37-90.9 21.9-21.9 49.3-35.2 79.5-37.9l54.4-5.5 12.8-53.9c9.6-43.9 33.8-85 68.1-114.7 38.4-32.9 87.3-51.2 137.5-51.2 81.8 0 154.9 45.7 190.1 119.2l18.3 37.9 42 4.1c37.5 3.7 73.1 21 100.1 48.4 10.1 10.5 18.7 21.9 25.6 34.7 5.5 10.5 16.4 16.9 27.9 16.9h1.8c23.6 1.1 39.6-24 28.6-45.5z" fill="#20a53a" p-id="1481"></path><path d="M684.4 575.3L541 431.9c-11.4-11.4-29.2-11.4-40.7 0L356.9 575.3c-11.4 11.4-11.4 29.2 0 40.7 11.4 11.4 29.2 11.4 40.7 0l94.6-94.6v275c0 16 12.8 28.8 28.8 28.8s28.8-12.8 28.8-28.8v-275l94.6 94.6c5.5 5.5 12.8 8.2 20.1 8.2s14.6-2.7 20.1-8.2c11.3-11.4 11.3-29.2-0.2-40.7z" fill="#20a53a" p-id="1482"></path></svg>