<svg viewBox="0 0 200 200" xmlns="http://www.w3.org/2000/svg" xmlns:xlink="http://www.w3.org/1999/xlink" width="200.000000" height="200.000000" fill="none">
	<rect id="推荐2 1" width="200.000000" height="200.000000" x="0.000000" y="0.000000" />
	<rect id="矩形 2" width="120.625565" height="62.124504" x="0.000000" y="0.000000" fill="rgb(255,255,255)" transform="matrix(0.674629,-0.738157,0.738157,0.674629,2.28436,91.5378)" />
	<path id="矢量 11" d="M33.7417 80.0083L41.9917 71.7583L48.1792 77.9458L39.9292 86.1958L33.7417 80.0083ZM42.6917 88.6958L50.9417 80.45L57.1292 86.6375L48.8792 94.8875L42.6917 88.6958ZM51.6125 98.0417L59.8625 89.7875L66.3459 96.2667L58.0959 104.517L51.6125 98.0417Z" fill="rgb(253,98,96)" fill-rule="nonzero" />
	<path id="矢量 12" d="M66.25 0L0 67.5L0 200L200 0L66.25 0ZM59.1667 35L62.0833 32.0833L65.8333 35.8333L77.0833 24.5833L73.3333 20.8333L76.25 17.9167L80 21.6667L90.4167 11.25L93.3333 14.1667L82.9167 24.5833L85.8333 27.5L82.9167 30.4167L80 27.5L68.75 38.75L70.8333 40.8333L67.9167 43.75L65.4167 41.6667L54.5833 52.5L51.6667 49.5833L62.5 38.75L59.1667 35L59.1667 35ZM33.75 60L42.5 61.25L41.25 65.8333C38.75 65 35.8333 64.5833 32.9167 64.1667L33.75 60ZM50 122.083C48.75 123.333 47.5 125 45.8333 126.25C44.5833 125.417 43.3333 124.167 42.0833 123.333C43.3333 122.083 44.5833 121.25 45.4167 120.417C46.25 119.583 46.25 118.333 45.4167 117.5L34.5833 106.667C33.3333 108.75 32.0833 110.833 31.25 112.917L27.5 110C28.75 107.917 30 105.833 31.25 103.333L21.6667 93.75L16.6667 98.3333L13.75 95.4167L18.75 90.4167L11.25 82.9167L14.1667 80L21.6667 87.5L26.25 82.9167L29.1667 85.8333L24.5833 90.4167L33.3333 99.1667C34.5833 97.0833 35.8333 95 36.6667 93.3333C37.9167 94.5833 39.1667 95.4167 40 96.25L36.25 102.5L48.3333 114.583C51.6667 117.5 52.0833 120 50 122.083ZM63.75 110L60.8333 112.917L35 87.0833C35.4167 88.75 35.4167 90.8333 35.8333 92.5L31.25 92.5C30.4167 85 28.75 77.0833 25.4167 68.3333L29.1667 66.6667C30.4167 70 31.25 72.9167 32.0833 76.25L52.0833 56.25L55 59.1667L45 69.1667L51.25 75.4167L60.8333 65.8333L63.75 68.75L54.1666 77.5L60.4166 83.75L70 74.1667L72.9166 77.0833L63.3333 86.6667L69.5833 92.9167L80.4166 82.0833L82.9166 84.5833L60.8333 106.667L63.75 110L63.75 110ZM94.1667 78.3333L78.3333 62.5C78.75 66.6667 78.75 70.4167 78.3333 74.1667C76.6667 73.75 75 73.75 73.75 73.3333C74.5833 65.8333 73.75 58.3333 72.0833 50.4167L62.5 60L59.5833 57.0833L70.8333 45.8333C70.4167 45 70.4167 44.1667 70 42.9167L73.3333 39.5833C73.75 40.4167 74.1667 41.25 74.1667 42.5L97.9167 18.75L100.833 21.6667L75.8333 46.6667C76.6667 49.5833 77.0833 52.0833 77.9167 55L97.9167 75L94.1667 78.3333L94.1667 78.3333ZM110.833 61.6667L103.75 68.75C102.5 67.9166 101.25 67.0833 100 65.8333C102.5 63.75 105 61.25 107.083 59.5833C108.333 58.3333 108.333 56.6667 107.083 55.4167L102.083 50L90 62.0833L87.0833 59.1667L99.1667 47.0833L97.0833 45L99.1667 35.4167L83.3333 51.25L80.4167 48.3333L101.25 27.5L104.167 30.4167L101.25 43.3333L102.083 44.1667L112.5 33.75L115.417 36.6667L105 47.0833L110.417 52.5C113.75 55.4167 113.75 58.75 110.833 61.6667L110.833 61.6667Z" fill="rgb(253,98,96)" fill-rule="nonzero" />
</svg>
