<svg width="16.036" height="12.242" viewBox="0 0 16.036 12.242" fill="none" xmlns="http://www.w3.org/2000/svg"><path d="M4.033.087.105 4.015c-.14.14-.14.28 0 .419l7.704 7.703c.14.14.28.14.42 0l7.702-7.703c.14-.14.14-.28 0-.42L12.003.088A.286.286 0 0 0 11.794 0H4.243a.286.286 0 0 0-.21.087m.609 1.025h6.753l3.07 3.008c.069.07.069.14 0 .209l-6.342 6.34c-.07.07-.14.07-.21 0l-6.34-6.34c-.07-.07-.07-.14 0-.21l3.069-3.007z" fill="#9B7E48"/><path d="M8.069 2.671c-.11.137-.26.292-.447.464a9.623 9.623 0 0 1-.625.525c-.23.179-.472.357-.727.536a13.11 13.11 0 0 1-.758.492l-.46-.727c.285-.154.562-.321.832-.502a8.73 8.73 0 0 0 .757-.564c.233-.196.446-.396.637-.599.192-.205.356-.406.492-.606h.593c.293.425.665.828 1.118 1.209.454.38.972.73 1.554 1.05l-.434.764a7.165 7.165 0 0 1-.74-.453c-.25-.175-.49-.355-.718-.542a9.707 9.707 0 0 1-.621-.555 5.421 5.421 0 0 1-.453-.492m.492 3.892h2.13v.79H5.339v-.79h.733v-2.1l.785.033v2.067h.9v-3.05l.804.033v1.142h1.568v.803H8.56v1.072z" fill-rule="evenodd" fill="#9B7E48"/></svg>