<svg width="18" height="18" viewBox="0 0 18 18" fill="none" xmlns="http://www.w3.org/2000/svg"><circle r="6.125" transform="translate(9 9)" fill="#FFF"/><circle r="6.125" transform="translate(9 9)" fill="#FFF"/><path d="M2 9a7 7 0 1 0 14 0A7 7 0 0 0 2 9zm9.87-2.856a.663.663 0 0 0-.936 0l-1.94 1.94L7.13 6.222a.642.642 0 1 0-.91.908l1.864 1.863-1.94 1.94a.661.661 0 0 0 .935.935l1.94-1.94 1.874 1.873a.641.641 0 1 0 .908-.908L9.93 9.02l1.94-1.94a.663.663 0 0 0 0-.936z" clip-rule="evenodd" fill-rule="evenodd" fill="#EF0808"/></svg>