<svg width="16" height="16" viewBox="0 0 16 16" fill="none" xmlns="http://www.w3.org/2000/svg"><rect rx="4" width="16" height="16" fill="#999"/><path d="M11.376 9.274a.58.58 0 0 1 .36.125l.017.014a.682.682 0 0 1 .245.48.69.69 0 0 1-.178.511L10.516 11.8a.612.612 0 0 1-.2.148.576.576 0 0 1-.475.004.608.608 0 0 1-.202-.144.695.695 0 0 1 .008-.938l.261-.28H4.615a.607.607 0 0 1-.435-.193.692.692 0 0 1 0-.93.609.609 0 0 1 .435-.192h6.76zM6.353 5.193a.69.69 0 0 1 0 .93l-.262.28h5.294a.606.606 0 0 1 .434.193.69.69 0 0 1 0 .93.607.607 0 0 1-.434.191h-6.76a.64.64 0 0 1-.55-.354.685.685 0 0 1-.036-.542.657.657 0 0 1 .141-.234l1.304-1.394A.608.608 0 0 1 5.918 5a.608.608 0 0 1 .435.193z" fill="#FFF"/></svg>