<svg xmlns="http://www.w3.org/2000/svg" width="16" height="16" viewBox="0 0 16 16" fill="none"><path d="m10.715 5.983 4.294-4.28-.015 2.426c-.006.2.157.378.358.372h.257c.201-.006.37-.124.373-.328l.012-3.611L16 .37a.34.34 0 0 0-.086-.258.345.345 0 0 0-.257-.103l-.184.003L11.883 0a.386.386 0 0 0-.373.376v.257c.03.24.22.379.42.373l2.36.006-4.282 4.264a.5.5 0 1 0 .707.707zm-5.412 4.034-4.297 4.265.015-2.414a.359.359 0 0 0-.358-.372H.39c-.202.006-.37.124-.373.328l-.012 3.614L0 15.63c-.003.1.021.192.086.258a.345.345 0 0 0 .257.103l.184-.003L4.132 16a.386.386 0 0 0 .372-.376v-.257a.409.409 0 0 0-.42-.373l-2.36-.005 4.28-4.265a.5.5 0 0 0 0-.707.487.487 0 0 0-.701 0zm10.69 5.421-.008-3.614c-.006-.201-.172-.322-.373-.328h-.257c-.201-.006-.36.171-.358.372l.015 2.426-4.297-4.277a.5.5 0 0 0-.707.707l4.28 4.264-2.36.006a.413.413 0 0 0-.42.373v.257a.39.39 0 0 0 .372.376l3.581-.015.193.006c.1.003.192-.035.257-.103.065-.065.089-.157.086-.258l-.003-.192zM1.728 1.012l2.36-.006a.413.413 0 0 0 .42-.373V.376A.39.39 0 0 0 4.135 0l-3.6.015L.344.009a.339.339 0 0 0-.257.103C.021.177-.003.27 0 .37l.006.192.009 3.614c.003.201.172.322.373.328H.66c.2.006.36-.171.358-.372l-.012-2.414L5.3 5.986a.5.5 0 1 0 .707-.707l-4.28-4.267z" fill="#666"/></svg>