<svg version="1.1" id="图层_1" xmlns="http://www.w3.org/2000/svg" x="0" y="0" viewBox="0 0 100 100" style="enable-background:new 0 0 100 100" xml:space="preserve"><style>.st2{fill:#e6246b}</style><path d="M84.1 86c0 4.4-3.6 8-8 8H24c-4.4 0-8-3.6-8-8V14c0-4.4 3.6-8 8-8h52c4.4 0 8 3.6 8 8v72zm0 0" style="fill:#f6b246"/><path d="M24 6c-4.4 0-8 3.6-8 8v72c0 4.4 3.6 8 8 8h52.1" style="fill:#f5a517"/><path class="st2" d="M50 35.4c16.3 0 30.1-7.8 34.1-18.4v-3c0-4.4-3.6-8-8-8H24c-4.4 0-8 3.6-8 8v3.1c4 10.6 17.7 18.3 34 18.3zm8.4 23.2H41.6c-1.5 0-2.7-1.2-2.7-2.7 0-1.5 1.2-2.7 2.7-2.7h16.8c1.5 0 2.7 1.2 2.7 2.7 0 1.5-1.2 2.7-2.7 2.7zm0 9.1H41.6c-1.5 0-2.7-1.2-2.7-2.7 0-1.5 1.2-2.7 2.7-2.7h16.8a2.732 2.732 0 0 1 2.7 2.7 2.732 2.732 0 0 1-2.7 2.7zm0 0"/><path class="st2" d="M50 82.6a2.732 2.732 0 0 1-2.7-2.7V56a2.732 2.732 0 0 1 2.7-2.7 2.732 2.732 0 0 1 2.7 2.7v23.9a2.732 2.732 0 0 1-2.7 2.7zm0 0"/><path class="st2" d="M47.9 58.1c-1 0-1.9-.5-2.4-1.3l-4.2-7.1c-.8-1.3-.4-3 .9-3.8.6-.4 1.4-.5 2.1-.3.7.2 1.3.6 1.7 1.3l4.2 7.1c.5.8.5 1.9 0 2.8s-1.3 1.3-2.3 1.3zm0 0"/><path class="st2" d="M52.1 58.1c-1 0-1.9-.5-2.4-1.4-.5-.9-.5-1.9 0-2.8l4.2-7.1c.4-.6 1-1.1 1.7-1.3.7-.2 1.5-.1 2.1.3.6.4 1.1 1 1.3 1.7.2.7.1 1.5-.3 2.1l-4.2 7.1c-.6.9-1.5 1.4-2.4 1.4zm0 0"/></svg>