<svg version="1.1" id="图层_1" xmlns="http://www.w3.org/2000/svg" x="0" y="0" viewBox="0 0 112 120" style="enable-background:new 0 0 112 120" xml:space="preserve"><style>.st0{fill:#e2e2e2}.st1{fill:#fff}</style><path class="st0" d="M55.7 37.1c.3 0 .5.3.4.5V120l-.3-.1-7.2-2.4c-8.2-3-16-6.7-22.8-12.3-3.8-3.1-7.1-6.6-9.5-10.9-.7-1.2-1-2.6-1-4 .1-13.5.1-26.9.2-40.3 0-.8.2-1.1 1-1.3 2.4-.6 4.7-1.3 7.1-2 .4.4.3.8.3 1.2v4c0 1 .1 1.1 1.1.9.4-.1.8-.1 1.1 0l4.8-1.2c.6-.1.6-.4.6-.9V45c0-.4 0-.8.5-.9 2.5-.7 5-1.4 7.5-2.2.4.4.3.9.3 1.4 0 1.7-.1 3.4.1 5.1.6.5 1.1-.1 1.6-.1.3-.1.4 0 .9 0 1.4-.4 2.9-.8 4.4-1.2.7-.2 1-.4 1-1.2-.1-2 0-3.9 0-5.8 0-.4 0-.7.5-.8 2.2-.8 4.8-1.5 7.4-2.2z"/><path class="st1" d="M56.1 119.7c-.2-.5-.3-1.1-.3-1.7V39.7c0-.8 0-1.6-.1-2.5 0-.1 0-.2.2-.3.2 0 .5 0 .8.1 2.5.7 4.9 1.4 7.4 2 .6.2.8.4.8 1v5.7c0 .8.2 1.1 1 1.2 1.6.3 3.1.9 4.7 1.1h.1c.6-.2 1 .1 1.4.3h.1c1.1 0 .2-.5.4-.7-.1-1.6 0-3.2 0-4.9 0-.4 0-.8.4-1.1h.2c2.5.7 5 1.4 7.4 2.1.5.1.5.5.5.9v5.6c0 .6.1.9.8 1 1.5.3 3 .8 4.4 1.2h.2c.7-.2 1.3.3 2 .3.1 0 .2-.1.2-.2.2-.8 0-1.7.1-2.6.1-1 0-2.1 0-3.2v-.2c0-.4.1-.2.4-.2 2.4.7 4.9 1.4 7.3 2.1.6.2.5.6.5 1 0 6.1.1 12.3.1 18.4 0 7.5 0 15.1.1 22.6 0 .9-.2 1.8-.6 2.6-2 4-4.8 7.2-8.1 10.2-6 5.4-13 9.1-20.4 12.2-3.4 1.4-7 2.4-10.5 3.8-.3.1-.4.2-.4.2h-.1c-.2.1-.5.2-.8.2m-.2-101.1c1.2.1 2 .6 2.2 1.9.2 1.1.3 2.6 1 3.2.7.7 2.1.8 3.2 1 13.6 3.8 27.1 7.6 40.7 11.4.7.2 1.2.2 1.8-.3 0 0 .1-.1.2-.1 1.9-1.9 4.1-2.5 6.7-1.4.1.2-.2.4-.4.6-2.2 2.8-4.3 5.6-6.4 8.5-.4.6-.7.7-1.4.5-15.5-4.5-31.1-9-46.6-13.5-.5-.2-1-.2-1.5-.2.4-1.2.3-2.5.3-3.7v-6.5c-.1-.5-.2-1 .2-1.4z"/><path class="st0" d="M56.1 18.5V29c0 .6 0 1-.6 1.2-4.3 1.2-8.5 2.5-12.8 3.8-11.3 3.2-22.7 6.4-34.1 9.7-.4.1-.8.4-1.2-.2C5 40.4 2.6 37.3.1 34l3.8-.4c.2 0 .4 0 .6.2.2.1.3.2.5.4 1.9 2 4 2 6.7 1.3 13.5-4 27-7.6 40.5-11.4.6-.2 1.1-.4 1.2-1.2.1-.8.5-1.6.6-2.5.1-1.4.9-1.8 2.1-1.9z"/><path class="st1" d="M56.1.1c1.8-.1 1.8-.1 2.2 1.7.4 2.3.9 4.6 1.3 6.9 0 .5.4.9.8 1l37.8 11.4c.4.2.8.1 1.1-.2 0 0 .1-.1.2-.1 2-1.8 4.3-2.8 7-1.4 0 .2-.3.3-.5.5-2.4 2.4-4.9 4.7-7.2 7.1-.6.6-1.1.7-1.9.5-13.3-3.8-26.7-7.5-40-11.2-.3-.1-.7-.2-1-.2-.1-.3-.2-.7-.1-1V1.7c0-.6-.1-1.1.3-1.6z"/><path class="st0" d="M56.1.1v14.7c0 .4 0 .8-.2 1.2-6.5 1.8-13.1 3.7-19.7 5.5-6.9 2-13.9 3.9-20.9 5.9-.9.3-1.5.1-2.1-.6-2.4-2.6-4.9-5.2-7.2-7.7.8-.1 2-.3 3.2-.4.5-.1.8.2 1.1.5 2 2 4.1 1.9 6.7 1.1 11.5-3.6 23-7 34.5-10.4.8-.2 1.1-.6 1.2-1.4.4-2.4.9-4.7 1.3-7 0-1.2.4-1.7 1.5-1.5.3.1.4.1.6.1z"/><path class="st1" d="M26 52.7c-.6.2-1.3.4-2 .6-.6.1-.4-.4-.5-.8v-5.9h.1c2.4.4 2.4.4 2.4 2.7-.1 1.1 0 2.3 0 3.4z"/><path class="st0" d="M88.7 46.6v.4c.2 2.1.2 4.2 0 6.3-.9-.1-1.6-.4-2.5-.6v-4.6c0-.8.2-1.1 1-1.2.5-.1 1-.3 1.5-.3zm-16.9 2c-.5-.1-.9-.2-1.4-.4v-5c0-.8.2-1 .9-1.1.5 0 1-.4 1.6-.3-.4.8-.2 1.8-.2 2.6v3.8c.1.6.1.7-.9.4z"/><path class="st1" d="M41.3 48.4c.3 0 .6-.1.8-.2-.6 0-.4-.4-.4-.8v-4.5c0-.3.1-.7-.4-.8-.7-.1-1.3-.5-2-.4v5.9c0 .1 0 1 .2 1.1h.4c.1 0 .2 0 .4-.1"/><path class="st0" d="M88.7 53.3V47c.3.3.2.7.2 1 .1 1.7-.1 3.4.1 5.2 0 .1-.1.2-.1.2s-.1 0-.2-.1z"/></svg>