<svg xmlns="http://www.w3.org/2000/svg" viewBox="0 0 20 20" style="enable-background:new 0 0 20 20" xml:space="preserve"><path style="fill:#20a53a" d="M20 20H0L20 0z"/><path style="fill:#fff" d="m11.56 18.215-3.189-3.189a.245.245 0 0 1 0-.347l.36-.36a.245.245 0 0 1 .347 0l3.189 3.189a.245.245 0 0 1 0 .347l-.36.36a.247.247 0 0 1-.347 0z"/><path style="fill:#fff" d="m18.274 10.787.354.354a.25.25 0 0 1 0 .354l-6.718 6.718a.25.25 0 0 1-.354 0l-.354-.354a.25.25 0 0 1 0-.354l6.718-6.718a.25.25 0 0 1 .354 0z"/></svg>