<svg width="20" height="18.899" viewBox="0 0 20 18.899" fill="none" xmlns="http://www.w3.org/2000/svg"><path d="M19.79 7.496c-.118-.628-.503-1.034-.997-1.034h-.085a2.42 2.42 0 0 1-2.418-2.418c0-.421.202-.901.21-.92a1.307 1.307 0 0 0-.44-1.58L13.558.15l-.037-.018c-.5-.217-1.185-.078-1.558.31-.27.279-1.201 1.073-1.912 1.073-.72 0-1.652-.81-1.924-1.094C7.755.031 7.077-.116 6.571.1L3.98 1.52l-.04.024a1.305 1.305 0 0 0-.442 1.577c.009.02.212.496.212.923a2.42 2.42 0 0 1-2.418 2.418h-.1c-.479 0-.864.406-.983 1.034C.2 7.541 0 8.603 0 9.456c0 .85.2 1.913.21 1.957.118.628.503 1.035.997 1.035h.085a2.42 2.42 0 0 1 2.418 2.417c0 .425-.203.903-.21.921a1.306 1.306 0 0 0 .438 1.579l2.454 1.377.038.017c.507.223 1.194.077 1.565-.328.343-.37 1.272-1.14 1.954-1.14.74 0 1.691.861 1.966 1.164.253.277.642.444 1.04.444.185 0 .361-.037.522-.107l2.545-1.402.038-.024a1.305 1.305 0 0 0 .442-1.577c-.009-.02-.212-.497-.212-.924a2.42 2.42 0 0 1 2.418-2.417h.1c.478 0 .864-.407.983-1.035.008-.044.209-1.106.209-1.957 0-.853-.2-1.915-.21-1.96zm-1.24 1.96c0 .55-.11 1.258-.16 1.553a3.867 3.867 0 0 0-3.55 3.856c0 .57.18 1.117.277 1.369l-2.171 1.198a7.056 7.056 0 0 0-.851-.749c-.754-.558-1.476-.844-2.146-.844-.665 0-1.381.279-2.131.83a6.56 6.56 0 0 0-.847.735l-2.089-1.169c.102-.264.278-.803.278-1.37a3.867 3.867 0 0 0-3.549-3.856c-.05-.295-.16-1.003-.16-1.553 0-.552.11-1.26.16-1.556 2-.163 3.55-1.835 3.55-3.856 0-.567-.182-1.115-.278-1.366l2.225-1.223c.097.097.414.408.848.717.74.527 1.444.795 2.095.795.646 0 1.345-.263 2.08-.78.437-.308.753-.614.845-.7l2.142 1.189c-.097.25-.278.796-.278 1.368A3.867 3.867 0 0 0 18.39 7.9c.05.297.16 1.007.16 1.556z" fill="#747474"/><path d="M9.956 5.884A3.562 3.562 0 0 0 6.4 9.442a3.562 3.562 0 0 0 3.557 3.557 3.562 3.562 0 0 0 3.558-3.557 3.562 3.562 0 0 0-3.558-3.558zm2.108 3.558a2.11 2.11 0 0 1-2.108 2.107A2.109 2.109 0 0 1 7.85 9.442c0-1.161.944-2.107 2.106-2.107a2.11 2.11 0 0 1 2.108 2.107z" fill="#747474"/></svg>