<svg xmlns="http://www.w3.org/2000/svg" xmlns:xlink="http://www.w3.org/1999/xlink" viewBox="0 0 40 40" style="enable-background:new 0 0 40 40" xml:space="preserve"><defs><path id="a" d="M0 5.66h40v30.67H0z"/></defs><clipPath id="b"><use xlink:href="#a" style="overflow:visible"/></clipPath><path d="M10.04 6.21.22 15.85c-.14.14-.22.32-.22.52 0 .19.08.38.22.51l19.26 18.9c.14.14.32.22.52.22s.39-.08.52-.21l19.26-18.9a.72.72 0 0 0 .22-.51c0-.19-.08-.38-.22-.51l-9.82-9.64a.698.698 0 0 0-.52-.23H10.56c-.2 0-.38.08-.52.21zm1.52 2.52h16.88c.1 0 .19.04.26.11l7.41 7.27c.14.14.14.37 0 .51L20.26 32.19c-.14.14-.38.14-.52 0L3.89 16.62a.362.362 0 0 1 0-.51l7.41-7.28a.4.4 0 0 1 .26-.1zm0 0" style="clip-path:url(#b);fill:#ffa904"/><path d="M26.39 18.5v1.97c-1.22.99-2.45 1.94-3.68 2.85l2.1.82-1.27 1.98-9.23-3.78 1.05-1.73 5.09 1.85 2.64-2.02h-8.62v-1.66l.56-1.44h-2.62v-2.03h3.43l.45-1.16h-2.95v-2.03h3.75l.66-1.66h2.44l-.66 1.66h7.2v2.03h-8.01l-.46 1.16h9.44v2.03H17.45l-.46 1.16h9.4z" style="fill:#ffa904"/></svg>