<svg width="68" height="62" viewBox="0 0 68 62" fill="none" xmlns="http://www.w3.org/2000/svg"><g filter="url(#a)"><path d="M28.924 0H64L4 54V22.304L28.924 0z" fill-rule="evenodd" fill="#D7262E"/></g><path d="m34.666 5.605.918 1.128-7.088 6.874a21.26 21.26 0 0 1 .292 3.243l4.609 5.667-1.14 1.107-3.595-4.42c-.087.862-.258 1.71-.448 2.53-.369-.106-1.187-.262-1.634-.267.647-2.082.824-4.325.58-6.563l-2.868 2.78-.918-1.127 3.504-3.399a40.285 40.285 0 0 0-.237-.891l-1.052 1.02-.84-1.032-2.803 2.72-.907-1.115 2.804-2.72-.75-.923 1.181-1.146.75.923 3.556-3.448-.764-.94 1.169-1.133.764.939 2.775-2.692.907 1.115-2.776 2.692.829 1.018-1.17 1.134-.828-1.018-3.554 3.448.585.72-.136-.426 1.394-.794c.147.438.26.863.387 1.304l6.504-6.308zm-7.234 19.048-2.557 2.48-1.304-1.603 2.1-2.037-.906-1.115-2.1 2.038-1.26-1.55 2.113-2.05-.908-1.115-2.112 2.05-1.24-1.523L21.557 18l-.94-1.154-2.61 2.532.478-1.07c-.587-.38-1.629-.806-2.492-1.037l-.686 1.442c.79.255 1.726.666 2.31 1.043l-2.205 2.138a31.017 31.017 0 0 0-.872-2.703l-1.41.81c1.03 2.55 1.634 5.466 1.498 7.835.268-.04.686-.013 1.058.019l-.814 1.395-1.968-2.418 1.388-1.346-.95-1.168-1.388 1.346-2.1-2.582L8.7 24.201l2.1 2.581-1.559 1.512.95 1.168 1.559-1.512 2.256 2.774c-.494.794-.921 1.523-1.29 2.1l1.268.96c.333-.566.677-1.167 1.04-1.809l2.585 3.179c.154.189.133.31-.035.473-.132.151-.626.63-1.155 1.096.457.186 1.054.605 1.356.893.817-.793 1.317-1.349 1.506-1.918.181-.544.013-1.01-.508-1.65l-2.907-3.573 1.024-1.794-.917-.814.275.024a16.58 16.58 0 0 0-.114-2.222l6.191 7.611 1.156-1.122-.731-.899 5.62-5.451-.938-1.155zm-8.053-1.817-1.945 1.887-1.24-1.523 1.946-1.887 1.239 1.523zm16.152-9.541 3.206-3.11.875 1.075-3.206 3.11 1.349 1.66c.475.583.617.98.328 1.574-.295.577-.905 1.193-1.827 2.087a5.298 5.298 0 0 0-1.261-.694c.683-.615 1.345-1.258 1.503-1.434.182-.2.214-.28.068-.458l-1.314-1.616-3.44 3.337-.875-1.075 3.44-3.337-.66-.813c.264-.672.515-1.45.678-2.219l-3.853 3.737-.807-.992 5.01-4.859.164-.278 1.21-.081c-.135 1.228-.47 2.67-.93 3.965l.342.421zM21.546 25.5 19.6 27.387l-1.26-1.55 1.945-1.886 1.26 1.55zm-1.039 3.002 1.946-1.887 1.303 1.603-1.945 1.887-1.304-1.603z" fill-rule="evenodd" fill="#FFF"/><defs><filter id="a" x="0" y="0" width="68" height="62" filterUnits="userSpaceOnUse" color-interpolation-filters="sRGB"><feFlood flood-opacity="0" result="BackgroundImageFix"/><feColorMatrix in="SourceAlpha" values="0 0 0 0 0 0 0 0 0 0 0 0 0 0 0 0 0 0 127 0"/><feOffset dy="4"/><feGaussianBlur stdDeviation="1.333"/><feColorMatrix values="0 0 0 0 0 0 0 0 0 0 0 0 0 0 0 0 0 0 0.25 0"/><feBlend in2="BackgroundImageFix" result="effect_dropShadow_1"/><feBlend in="SourceGraphic" in2="effect_dropShadow_1" result="shape"/></filter></defs></svg>