<svg xmlns="http://www.w3.org/2000/svg" viewBox="0 0 50 50" style="enable-background:new 0 0 50 50" xml:space="preserve"><path style="fill:red" d="M25 25 0 50V25L25 0h25z"/><path style="fill:#fff" d="m22.239 23.001-4.524 4.524.604.604-.95.95-5.227-5.227c.019.086.039.177.059.277.019.099.037.195.05.287l-1.445-.059c-.026-.211-.058-.417-.094-.619s-.084-.404-.143-.609l-.684.684 1.574 1.574a15.177 15.177 0 0 0 .427-.842l1.099.861c-.139.31-.303.647-.495 1.01l2.614 2.614c.211.211.359.399.445.564a.88.88 0 0 1 .104.5 1.208 1.208 0 0 1-.198.525 8.65 8.65 0 0 1-.47.648l-.376.474-1.259-.661.455-.535c.165-.204.253-.358.263-.46.01-.102-.071-.239-.243-.411l-2-2c-.158.303-.315.589-.47.857-.155.267-.289.496-.402.687l-1.177-.802c.131-.238.287-.508.465-.812.178-.303.359-.627.544-.97L9.031 24.88a.153.153 0 0 0-.215 0l-.932.932-.96-.96.932-.932a.153.153 0 0 0 0-.215L6.39 22.24l1-.92 1.534 1.534.891-.891.594.594a11.662 11.662 0 0 0-1.494-3.099l1.138-.782c.313.526.6 1.057.86 1.593a.148.148 0 0 0 .239.04l1.345-1.345a88.827 88.827 0 0 0-.826-.481 16.227 16.227 0 0 0-.717-.392l.772-1.029c.099.047.219.105.357.178l.445.238.48.262.46.253 1.663-1.663.891.891-1.704 1.704a.153.153 0 0 0 0 .215l.854.854a.153.153 0 0 0 .215 0l1.526-1.526.881.881-1.526 1.526a.153.153 0 0 0 0 .215l.844.844a.153.153 0 0 0 .215 0l1.526-1.526.901.901-1.526 1.526a.153.153 0 0 0 0 .215l.963.963a.153.153 0 0 0 .215 0l1.923-1.923.91.911zM13.143 20.1l-1.319 1.319a.153.153 0 0 0 0 .215l.854.854a.153.153 0 0 0 .215 0l1.319-1.319a.153.153 0 0 0 0-.215l-.854-.854a.153.153 0 0 0-.215 0zm1.95 1.95-1.319 1.319a.153.153 0 0 0 0 .215l.844.844a.153.153 0 0 0 .215 0l1.319-1.319a.153.153 0 0 0 0-.215l-.844-.844a.153.153 0 0 0-.215 0zm1.82 4.458 1.319-1.319a.153.153 0 0 0 0-.215l-.963-.963a.153.153 0 0 0-.215 0l-1.319 1.319a.153.153 0 0 0 0 .215l.963.963a.15.15 0 0 0 .215 0zm4.704-12.682c.169.668.286 1.324.35 1.969a.134.134 0 0 0 .041.086l4.281 4.281-.91.91-3.336-3.336c-.008.376-.028.758-.065 1.144-.037.386-.081.784-.133 1.193l-1.281-.53a.145.145 0 0 1-.087-.157c.12-.754.183-1.502.189-2.243a12.382 12.382 0 0 0-.187-2.277l-1.901 1.901-.861-.861 2.415-2.415a6.115 6.115 0 0 0-.228-.643l-.584.584-.534-.534-2.138 2.138-.861-.861 2.138-2.138-.713-.713.99-.912.673.673 2.148-2.148-.713-.713.98-.901.673.673 2.079-2.079.861.861-2.079 2.079.564.564-.941.941-.564-.564-2.148 2.148.188.188.93-.574.337.871 4.742-4.742.861.861-5.139 5.139a.141.141 0 0 0-.037.137zm8.72-2.129-2.391 2.391a.148.148 0 0 0 0 .208l.935.935c.218.218.383.416.495.595.113.177.167.358.164.539s-.059.376-.168.584a4.11 4.11 0 0 1-.52.727l-.524.624-1.208-.633.514-.595c.224-.263.343-.479.356-.644.014-.164-.066-.332-.238-.504l-.822-.822-2.455 2.455-.831-.831 2.455-2.455-.376-.376.604-1.97-3.228 3.228-.822-.822 4.861-4.861.762.762-.851 3.089 2.456-2.456.832.832z"/></svg>