<svg version="1.1" id="图层_1" xmlns="http://www.w3.org/2000/svg" x="0" y="0" viewBox="0 0 128 128" style="enable-background:new 0 0 128 128" xml:space="preserve"><style>.st0{fill:#ed3917}</style><path class="st0" d="M108.6 16.2 64.7 8.1c-.5-.1-1-.1-1.5 0l-44.1 8.1c-1.9.3-3.3 2-3.3 3.9v52c0 8.2 2.6 15.9 7.7 22.8 4 5.4 9.4 10.3 16.3 14.6 11.4 7.2 22.7 10.2 23.2 10.4.7.2 1.4.2 2.1 0 .5-.1 11.7-3.2 23-10.5 6.8-4.3 12.2-9.2 16.2-14.6 5.1-6.9 7.6-14.5 7.6-22.7v-52c0-1.9-1.4-3.6-3.3-3.9zm-4.7 55.9c0 11.7-6.7 21.9-19.9 30.4-8.4 5.4-17 8.4-20 9.3-6.4-2-40.1-13.6-40.1-39.7V23.5L64 16.1l39.9 7.4v48.6z"/><path class="st0" d="M64 69.4c2 0 3.7-1.7 3.7-3.7L69.2 42c0-2 0-5.2-5.2-5.2-5 0-5.2 3.2-5.2 5.2l1.5 23.7c0 1.9 1.7 3.7 3.7 3.7zm0 4.2c-2.7 0-5.2 2.2-5.2 5.2 0 2.7 2.2 5.2 5.2 5.2s5.2-2.2 5.2-5.2c0-2.7-2.5-5.2-5.2-5.2z"/></svg>