<svg width="10" height="10" viewBox="0 0 10 10" fill="none" xmlns="http://www.w3.org/2000/svg"><path d="M5.04 7.52c.05 0 .1-.01.16-.01.49-.06.91-.38 1.07-.82-.04-.02-.11-.09-.14-.05 0 0-.19.29-.96.39-.11.01-.22.02-.33.02-.54 0-.78-.19-.78-.19-.04.02-.14.05-.11.09.23.35.65.57 1.09.57zm4.13-4.39C8.72 1.34 6.98 0 4.92 0 2.81 0 1.05 1.41.66 3.28a.76.76 0 0 0-.66.74v1.49c0 .41.36.75.8.75.26 0 .48-.11.63-.28.35.87 1.08 1.58 2 1.95.02 0 .12-.09.13-.08-.22-.15-.99-.9-1.15-1.95-.08-.46.3-.92.74-.99.7-.12 1.4-.26 2.1-.38.44-.07.75-.3.94-.68.07-.16.12-.34.13-.52.03 0 .14-.06.16-.03.27.37.84 1.18.92 2.04.09.99.04 1.67-.78 2.36l.03.11-.03-.11c.83-.42 1.56-1.04 1.85-1.88.14.17.31.28.53.32-.35 1.46-1.76 2.37-3.51 2.51-.13-.28-.35-.42-.66-.41-.4 0-.72.29-.72.64 0 .36.32.65.72.65.33.01.56-.14.68-.45 2.02-.15 3.64-1.26 3.98-2.98.3-.12.51-.39.51-.71v-1.5c0-.42-.38-.76-.83-.76zm-.75.43C7.89 2.24 6.53 1.3 4.92 1.3c-1.6 0-2.96.94-3.49 2.24.3-1.59 1.7-2.89 3.49-2.89 1.79 0 3.27 1.21 3.58 2.79-.03.04-.06.08-.08.12z" fill="#20A53A" fill-rule="evenodd"/></svg>