<svg width="10" height="38.2" viewBox="0 0 10 38.2" fill="none" xmlns="http://www.w3.org/2000/svg"><path d="M8.44 17.22H1.53v1.19H.8v-1.88h3.98c-.139-.26-.3-.56-.449-.799l.718-.18c.2.29.422.668.58.978h3.56v1.88h-.75V17.22zm-1.34.91.129-.03.5.319c-.49.742-1.179 1.382-1.99 1.912 1.112.52 2.452.878 3.87 1.06-.168.17-.359.49-.468.7a10.97 10.97 0 0 1-1.392-.28v2.939h-.75v-.32H3.05v.33h-.72v-2.901c-.53.161-1.06.28-1.58.39a2.69 2.69 0 0 0-.358-.649c1.33-.23 2.73-.66 3.928-1.25a7.33 7.33 0 0 1-1.309-1.15c-.449.35-.969.679-1.56.97a2.29 2.29 0 0 0-.5-.53c1.37-.61 2.341-1.48 2.84-2.24l.8.14c-.14.2-.3.39-.46.59H7.1zm-.51.59H3.57l-.04.04c.39.45.901.85 1.49 1.21.62-.38 1.16-.79 1.57-1.25zm-1.58 2.04c-.7.381-1.45.7-2.23.95h4.59c-.849-.25-1.64-.56-2.36-.95zm-1.96 1.58v1.45H7v-1.45H3.05zM1.11 27h2.88v7.88c0 .4-.079.62-.34.75-.25.13-.65.139-1.32.139-.02-.188-.12-.52-.22-.708.46.01.88.01 1 0 .14-.012.19-.051.19-.19V32.41H1.732c-.09 1.179-.29 2.429-.752 3.369-.13-.12-.43-.288-.608-.36.689-1.398.74-3.378.74-4.85v-3.57zm7.701 3.4.13-.02.43.15c-.262 1.36-.74 2.48-1.37 3.369a5.351 5.351 0 0 0 1.67 1.311c-.171.14-.372.39-.482.569q-.9-.51-1.618-1.348a5.89 5.89 0 0 1-1.511 1.28 2.6 2.6 0 0 0-.44-.55c.55-.3 1.07-.73 1.53-1.272-.56-.808-1-1.77-1.33-2.8h-.25v4.68h-.7v-8.74h4.218v1.921c0 .381-.09.569-.388.679-.322.1-.82.1-1.572.1-.03-.2-.14-.45-.24-.63.611.01 1.131.01 1.28 0 .161 0 .2-.039.2-.159v-1.22h-2.8v2.68H8.81zm-5.51-1.069v-1.64H1.79v1.64H3.3zM1.79 30.57c0 .342-.01.73-.02 1.13H3.3v-1.68H1.79v.55zm5.77 2.76c.43-.64.77-1.39.999-2.241H6.47c.27.82.63 1.582 1.091 2.241z" fill="#FFF"/><path d="M5.047 7.52c.05 0 .102-.003.154-.009.495-.055.916-.374 1.072-.815.011-.033-.006-.068-.04-.083a.077.077 0 0 0-.094.028c-.001.002-.198.296-.965.392a2.717 2.717 0 0 1-.332.021c-.538 0-.777-.187-.78-.189a.078.078 0 0 0-.095 0 .065.065 0 0 0-.016.087c.234.35.654.568 1.096.568zM9.17 3.134h-.02C8.701 1.34 6.985 0 4.926 0 2.812 0 1.056 1.413.666 3.283c-.378.063-.666.37-.666.741V5.51c0 .417.362.755.809.755.252 0 .474-.11.622-.279.358.873 1.086 1.577 2.007 1.948a.393.393 0 0 1 .04-.06c.015-.018.031-.032.045-.032.015 0 .028.005.04.012-.214-.146-.984-.9-1.151-1.95-.073-.463.302-.917.74-.992.701-.121 1.4-.258 2.101-.377.446-.075.751-.3.938-.677a1.64 1.64 0 0 0 .135-.522.085.085 0 0 1 .085-.068.09.09 0 0 1 .07.034l.02-.011c.276.37.825 1.191.904 2.057.09.99.04 1.667-.781 2.36a.07.07 0 0 0-.022.046c0 .021.013.04.03.05l.02.009.017.003c.006 0 .01-.002.016-.003l.034-.018c.83-.422 1.466-1.127 1.76-1.974a.84.84 0 0 0 .523.321c-.348 1.459-1.757 2.372-3.503 2.51a.717.717 0 0 0-.665-.41c-.395 0-.715.29-.715.645 0 .356.32.645.715.645a.709.709 0 0 0 .678-.449c2.021-.151 3.641-1.26 3.98-2.983.298-.115.508-.386.508-.702V3.895c0-.42-.372-.761-.83-.761zm-.746.431c-.527-1.317-1.893-2.259-3.5-2.259-1.6 0-2.96.934-3.492 2.243a.836.836 0 0 0-.088-.081c.3-1.596 1.789-2.81 3.582-2.81 1.786 0 3.269 1.202 3.58 2.787a.74.74 0 0 0-.082.12z" fill-rule="evenodd" fill="#FFF"/></svg>