<svg width="16" height="16" viewBox="0 0 16 16" fill="none" xmlns="http://www.w3.org/2000/svg"><path d="M13.833 8.001a.478.478 0 0 0-.014-.126.62.62 0 0 0-.051-.196c-1-2.2-3.15-3.679-5.351-3.679S4.065 5.477 3.07 7.666a.365.365 0 0 0-.026.066.609.609 0 0 0-.007.019c-.02.057-.02.098-.018.088-.01.042-.018.126-.018.126a.317.317 0 0 0 0 .072s.009.074.013.089a.611.611 0 0 0 .05.194C4.067 10.521 6.217 12 8.418 12c2.202 0 4.352-1.478 5.34-3.656a.382.382 0 0 0 .032-.078.382.382 0 0 0 .027-.114.759.759 0 0 0 .017-.15zm-.73.027a.5.5 0 0 0-.006.021c-.888 1.93-2.765 3.224-4.68 3.224-1.91 0-3.784-1.29-4.682-3.227l-.006-.02-.002-.015-.002-.014a.364.364 0 0 0 .005-.03.77.77 0 0 0 .004-.014c.89-1.93 2.768-3.226 4.683-3.226s3.794 1.297 4.68 3.224l.003.01.003.01a.402.402 0 0 0 .005.035l-.004.022z" fill="#C2C2C2"/><path d="M8.417 6.182C7.42 6.182 6.61 6.997 6.61 8c0 1.003.81 1.818 1.806 1.818.995 0 1.805-.815 1.805-1.818 0-1.003-.81-1.818-1.805-1.818zm0 2.909a1.09 1.09 0 0 1 0-2.181C9.014 6.91 9.5 7.398 9.5 8c0 .601-.486 1.09-1.083 1.09z" fill="#C2C2C2"/></svg>