<svg version="1.1" id="图层_1" xmlns="http://www.w3.org/2000/svg" x="0" y="0" viewBox="0 0 40 40" style="enable-background:new 0 0 40 40" xml:space="preserve"><style>.st0{fill:#0082ef}</style><path class="st0" d="M37.75 29.53c-.75.15-1.46.43-2.1.84-.63.65-1.42 1.12-2.29 1.36.12-.77.5-1.47 1.09-1.99.49-.74.84-1.55 1.04-2.41 0-1.22 1-2.21 2.24-2.22 1.24 0 2.25.98 2.26 2.21 0 1.22-1 2.21-2.24 2.21z"/><path d="M33.63 24.24c-.75-.49-1.57-.84-2.45-1.04-1.24 0-2.25-.99-2.25-2.21s1.01-2.21 2.25-2.21 2.25.99 2.25 2.21c.15.74.43 1.44.84 2.07.65.62 1.13 1.4 1.37 2.27-.77-.13-1.48-.51-2.01-1.09z" style="fill:#2dbc00"/><path class="st0" d="M29.93 16.44c-.68-5.59-6.56-9.96-13.68-9.96C8.67 6.47 2.5 11.44 2.5 17.54c.12 3.43 1.96 6.57 4.91 8.4.48.35.98.66 1.5.95l-.61 2.39c.22.1.43.21.66.3l3.08-1.51c.45.11.92.19 1.39.27.3.05.6.11.91.14 1.92.24 3.87.13 5.75-.32.06.82.21 1.63.45 2.42a19.4 19.4 0 0 1-4.29.49c-1.3-.01-2.59-.15-3.86-.42L6.8 33.39c-.43.22-.96.16-1.34-.14-.38-.3-.55-.79-.43-1.26l1-3.96C2.37 25.74.11 21.81 0 17.54 0 10.07 7.27 4.01 16.25 4.01c8.52 0 15.5 5.46 16.18 12.41-.39-.06-.79-.1-1.18-.11-.44.02-.89.06-1.32.13z"/><path d="M24.74 25.16c.75-.15 1.46-.43 2.1-.84.63-.65 1.42-1.12 2.3-1.36-.12.77-.51 1.47-1.09 1.99-.49.74-.84 1.56-1.04 2.42 0 1.22-1 2.21-2.24 2.22-1.24 0-2.25-.98-2.25-2.21-.03-1.22.97-2.21 2.22-2.22z" style="fill:#fc0"/><path d="M28.79 30.49c.74.49 1.57.84 2.44 1.05.91 0 1.73.54 2.08 1.37.35.83.16 1.78-.49 2.41-.64.63-1.61.82-2.45.48a2.212 2.212 0 0 1-1.39-2.04c-.14-.74-.43-1.44-.83-2.07a5.055 5.055 0 0 1-1.36-2.27c.78.13 1.49.51 2.01 1.1v-.03z" style="fill:#fb6500"/><path style="fill:none" d="M0 4h40v32H0z"/></svg>