<svg xmlns="http://www.w3.org/2000/svg" viewBox="0 0 30 30" style="enable-background:new 0 0 30 30" xml:space="preserve"><path style="fill:#09bb07" d="M10.916 18.378a.977.977 0 0 1-.45.101.99.99 0 0 1-.871-.506l-.07-.133-2.746-5.806c-.034-.068-.034-.134-.034-.202 0-.271.208-.473.487-.473a.57.57 0 0 1 .313.101l3.233 2.228c.242.134.521.235.833.235.175 0 .346-.033.521-.101l15.161-6.547c-2.712-3.105-7.196-5.131-12.274-5.131C6.745 2.143 0 7.577 0 14.291c0 3.644 2.017 6.951 5.179 9.179.242.17.417.473.417.776a.903.903 0 0 1-.071.303c-.242.91-.662 2.398-.662 2.463a1.195 1.195 0 0 0-.071.372c0 .271.209.473.487.473a.404.404 0 0 0 .279-.101L8.826 25.9c.242-.134.521-.235.8-.235.138 0 .312.033.45.069 1.529.437 3.2.675 4.904.675 8.275 0 15.02-5.435 15.02-12.148 0-2.026-.625-3.947-1.704-5.637l-17.275 9.685-.105.069zm0 0"/></svg>