<svg t="1740130058540" class="icon" viewBox="0 0 1024 1024" version="1.1" xmlns="http://www.w3.org/2000/svg" p-id="39035" width="32" height="32"><path d="M512 42.666667c63.637333 0 116.288 50.432 120.682667 114.005333 103.125333 46.058667 175.552 149.12 175.552 269.696v203.306667C867.477333 677.952 896 741.525333 896 820.458667c0 17.557333-15.36 32.896-32.917333 32.896H640l-0.085333 4.8A128 128 0 0 1 384 853.333333L160.917333 853.333333C143.36 853.333333 128 837.973333 128 820.437333c0-76.736 28.522667-142.506667 87.765333-190.741333v-203.306667c0-120.618667 72.426667-223.658667 175.552-269.717333C395.712 93.098667 448.362667 42.666667 512 42.666667z m64 810.688L448 853.333333l0.106667 3.754667A64 64 0 0 0 576 853.354667zM512 106.666667c-29.525333 0-54.741333 23.914667-56.832 54.421333l-2.645333 38.357333-35.114667 15.68c-83.072 37.077333-137.642667 119.104-137.642667 211.242667v233.749333l-23.594666 19.2c-35.136 28.608-55.744 65.173333-62.08 110.016h635.904l-1.066667-7.082666c-7.210667-41.962667-27.2-75.306667-61.098667-102.933334l-23.594666-19.2V426.368c0-92.16-54.570667-174.165333-137.642667-211.242667l-35.114667-15.68-2.645333-38.357333C566.741333 130.581333 541.525333 106.666667 512 106.666667z" fill="#20a53a" p-id="39036"></path></svg>