<svg t="1742367787154" class="icon" viewBox="0 0 1024 1024" version="1.1" xmlns="http://www.w3.org/2000/svg" p-id="28980" width="32" height="32"><path d="M512 112c220.914 0 400 179.086 400 400S732.914 912 512 912 112 732.914 112 512s179.086-400 400-400z m0 72c-181.15 0-328 146.85-328 328s146.85 328 328 328 328-146.85 328-328-146.85-328-328-328z" p-id="28981" fill="#20a53a"></path><path d="M512 280v64c-92.784 0-168 75.216-168 168s75.216 168 168 168 168-75.216 168-168h64c0 128.13-103.87 232-232 232S280 640.13 280 512s103.87-232 232-232z" p-id="28982" fill="#20a53a"></path><path d="M476 40m8 0l56 0q8 0 8 8l0 104q0 8-8 8l-56 0q-8 0-8-8l0-104q0-8 8-8Z" p-id="28983" fill="#20a53a"></path><path d="M476 864m8 0l56 0q8 0 8 8l0 104q0 8-8 8l-56 0q-8 0-8-8l0-104q0-8 8-8Z" p-id="28984" fill="#20a53a"></path><path d="M40 476m8 0l104 0q8 0 8 8l0 56q0 8-8 8l-104 0q-8 0-8-8l0-56q0-8 8-8Z" p-id="28985" fill="#20a53a"></path><path d="M864 476m8 0l104 0q8 0 8 8l0 56q0 8-8 8l-104 0q-8 0-8-8l0-56q0-8 8-8Z" p-id="28986" fill="#20a53a"></path><path d="M560.106 210.643l-85.143 329.95c-1.283 3.917 0.824 8.13 4.74 9.48 1.514 0.46 3.192 0.493 4.706-0.034l329.16-85.933c3.917-1.349 6.023-5.561 4.706-9.445-0.526-1.645-1.678-3.06-3.192-3.982l-157.338-84.376-84.211-157.173c-2.14-3.522-6.714-4.608-10.203-2.502a7.485 7.485 0 0 0-3.225 4.015z m25.637 156.788l15.59 29.097 9.13 17.04 17.036 9.136 29.892 16.03-96.552 25.206 24.904-96.509z" p-id="28987" fill="#20a53a"></path></svg>