<svg t="1740126192535" class="icon" viewBox="0 0 1024 1024" version="1.1" xmlns="http://www.w3.org/2000/svg" p-id="4409" width="32" height="32"><path d="M494.2 132.3c5.7-0.3 11.4-0.4 17.1-0.4 210.1 0 381 170.9 381 381 0 117.9-53.9 223.5-138.3 293.4l10.8 28.1c95.1-75.1 156.3-191.3 156.3-321.6 0-225.9-183.8-409.8-409.8-409.8-9.4 0-18.7 0.4-28 1.1l10.9 28.2zM505.2 893.7C298 890.4 130.4 720.9 130.4 512.9c0-109.6 46.6-208.4 120.9-278l-11.1-28.8c-84.9 75.1-138.6 184.8-138.6 306.8 0 225.9 183.8 409.8 409.8 409.8 1.7 0 3.3-0.1 4.9-0.1l-11.1-28.9z" fill="#20a53a" p-id="4410"></path><path d="M511.3 908.6m-37.3 0a37.3 37.3 0 1 0 74.6 0 37.3 37.3 0 1 0-74.6 0Z" fill="#20a53a" p-id="4411"></path><path d="M511.3 960.2c-28.5 0-51.7-23.2-51.7-51.7s23.2-51.7 51.7-51.7c28.5 0 51.7 23.2 51.7 51.7s-23.2 51.7-51.7 51.7z m0-74.5c-12.6 0-22.9 10.3-22.9 22.9 0 12.6 10.3 22.9 22.9 22.9 12.6 0 22.9-10.3 22.9-22.9 0-12.6-10.3-22.9-22.9-22.9z" fill="#20a53a" p-id="4412"></path><path d="M655.3 367.5m-37.3 0a37.3 37.3 0 1 0 74.6 0 37.3 37.3 0 1 0-74.6 0Z" fill="#20a53a" p-id="4413"></path><path d="M655.3 419.2c-28.5 0-51.7-23.2-51.7-51.7 0-28.5 23.2-51.7 51.7-51.7 28.5 0 51.7 23.2 51.7 51.7 0 28.5-23.2 51.7-51.7 51.7z m0-74.6c-12.6 0-22.9 10.3-22.9 22.9 0 12.6 10.3 22.9 22.9 22.9 12.6 0 22.9-10.3 22.9-22.9 0-12.6-10.3-22.9-22.9-22.9z" fill="#20a53a" p-id="4414"></path><path d="M511.3 116.4m-37.3 0a37.3 37.3 0 1 0 74.6 0 37.3 37.3 0 1 0-74.6 0Z" fill="#20a53a" p-id="4415"></path><path d="M511.3 168.1c-28.5 0-51.7-23.2-51.7-51.7s23.2-51.7 51.7-51.7c28.5 0 51.7 23.2 51.7 51.7s-23.2 51.7-51.7 51.7z m0-74.5c-12.6 0-22.9 10.3-22.9 22.9s10.3 22.9 22.9 22.9c12.6 0 22.9-10.3 22.9-22.9s-10.3-22.9-22.9-22.9z" fill="#20a53a" p-id="4416"></path><path d="M525.1 741.7c122.3-19.4 192.5-90.1 211.5-211.8h91.5c0.2-5.1 0.4-10.3 0.4-15.4 0-4.9-0.2-9.8-0.4-14.7H738c-5.9-24.2-11.4-47.3-17.3-71.6-17.7 11-32.7 20.3-49.2 30.6 2.1 12 4.5 25.8 7.3 42.1-36.6 0-71.1 0.5-105.6-0.5-4.7-0.1-11-6.7-13.1-11.8-1.6-4 0.5-11.6 3.7-15.1 10.1-11.1 21.4-21.1 32.8-32.1-6.7-7.6-12-13.6-22-24.9-10.7 12.8-20.3 25.3-31 36.8-3.6 3.9-9.8 5.2-14.9 7.7-1.9-5-5.5-10-5.5-15.1-0.5-32.4-0.3-64.7-0.3-100 15.4 2.5 29 4.6 41.9 6.7 9.8-15.5 19.3-30.5 30.6-48.4C572 298.1 549 292 525 285.7v-90.2c-5.2-0.2-10.4-0.4-15.6-0.4-4.6 0-9.1 0.2-13.6 0.3 0.1 30.6 0.1 61.1 0.1 91.5-124.3 19-194.8 89.9-213.8 212.6h-91.6c-0.2 4.9-0.4 9.9-0.4 14.8 0 5.2 0.1 10.3 0.4 15.4h91.6c19 122.6 89.9 193.2 212.5 211.8v91.7c4.9 0.2 9.9 0.4 14.8 0.4 5.3 0 10.6-0.1 15.8-0.4-0.1-29.8-0.1-59.9-0.1-91.5z m-30.3-61.2c-80.1 3.2-156.5-85.2-151.3-151.7 33.6 0 67.4-0.2 101.2 0.3 4.2 0.1 9.1 3.6 12.3 6.9 11.7 12.1 22.9 24.7 37.8 41v103.5z m0.6-229.5c0 3.5-3.2 7.7-6 10.4-12.8 12-26 23.6-42.4 38.4H342.8c-2.5-74.1 75.2-152.2 152.9-152.4-0.1 34.5 0.1 69-0.3 103.6zM524 580.5c0.1-4.7 4.3-10 7.9-13.9 9.5-10.3 19.3-20.2 29.6-29.6 3.9-3.6 9.2-7.8 13.9-7.9 33.1-0.7 66.1-0.4 99-0.4 7.4 61.3-64.8 151.6-150.7 152.3-0.1-34.4-0.4-67.5 0.3-100.5z" fill="#20a53a" p-id="4417"></path></svg>