<svg t="1742366860382" class="icon" viewBox="0 0 1024 1024" version="1.1" xmlns="http://www.w3.org/2000/svg" p-id="13258" width="32" height="32"><path d="M757.888 481.664a32 32 0 0 1 20.224 0l192 64A32 32 0 0 1 992 576v187.52a160 160 0 0 1-71.232 133.12l-135.04 89.984a32 32 0 0 1-35.456 0l-135.04-89.984A160 160 0 0 1 544 763.52V576a32 32 0 0 1 21.888-30.336zM768 545.728l-160 53.312v164.48c0 28.864 12.992 56.064 35.072 74.176l7.68 5.696L768 921.472l117.248-78.08a96 96 0 0 0 42.24-70.4l0.512-9.472V599.04L768 545.728zM864 64a96 96 0 0 1 95.552 86.784L960 160v256a32 32 0 0 1-63.488 5.76L896 416V384H128v192h320a32 32 0 0 1 5.76 63.488L448 640H128v160a32 32 0 0 0 26.24 31.488L160 832H448a32 32 0 0 1 5.76 63.488L448 896H160a96 96 0 0 1-95.552-86.784L64 800v-640a96 96 0 0 1 86.784-95.552L160 64h704z m-512 640a32 32 0 0 1 5.76 63.488L352 768h-128a32 32 0 0 1-5.76-63.488L224 704h128z m0-256a32 32 0 0 1 5.76 63.488L352 512h-128a32 32 0 0 1-5.76-63.488L224 448h128z m512-320h-704a32 32 0 0 0-31.488 26.24L128 160V320h768V160a32 32 0 0 0-26.24-31.488L864 128z m-512 64a32 32 0 0 1 5.76 63.488L352 256h-128a32 32 0 0 1-5.76-63.488L224 192h128z" p-id="13259" fill="#20a53a"></path></svg>