<svg t="1742367619309" class="icon" viewBox="0 0 1024 1024" version="1.1" xmlns="http://www.w3.org/2000/svg" p-id="22855" width="32" height="32"><path d="M228.365005 182.366886c-13.197366 0-21.987582 8.790216-21.987583 21.987582s8.790216 21.987582 21.987583 21.987583 21.987582-8.790216 21.987582-21.987583c0-13.185325-8.802258-21.987582-21.987582-21.987582zM140.402634 182.366886c-13.197366 0-21.987582 8.790216-21.987582 21.987582s8.790216 21.987582 21.987582 21.987583 21.987582-8.790216 21.987582-21.987583c0-13.185325-8.790216-21.987582-21.987582-21.987582zM712.139981 182.366886H404.277705c-13.197366 0-21.987582 8.790216-21.987583 21.987582s8.790216 21.987582 21.987583 21.987583h307.862276c13.197366 0 21.987582-8.790216 21.987582-21.987583 0-13.185325-8.790216-21.987582-21.987582-21.987582zM316.327375 182.366886c-13.197366 0-21.987582 8.790216-21.987582 21.987582s8.790216 21.987582 21.987582 21.987583 21.987582-8.790216 21.987583-21.987583c0-13.185325-8.802258-21.987582-21.987583-21.987582zM993.547319 761.497648v-51.71778l-66.697272-14.822954a133.177799 133.177799 0 0 0-8.549388-20.470366l36.726246-57.714394-36.569708-36.569708-57.714394 36.726246a132.491439 132.491439 0 0 0-20.470366-8.549388l-14.810913-66.685231h-51.71778l-14.822954 66.697272a133.177799 133.177799 0 0 0-20.470367 8.549389l-57.714393-36.726247-36.569708 36.58175 36.726246 57.714393c-3.383631 6.538476-6.273565 13.365945-8.549388 20.470367l-66.685231 14.810913v51.71778l66.697272 14.822953c2.275823 7.116463 5.165757 13.931891 8.549389 20.470367l-36.726247 57.714394 36.58175 36.581749 57.714393-36.726246c6.538476 3.383631 13.365945 6.273565 20.470367 8.549388l14.810913 66.685231h51.717779l14.822954-66.697272a131.997742 131.997742 0 0 0 20.470367-8.549389L918.457197 891.063029l36.581749-36.569708-36.726246-57.714393c3.383631-6.538476 6.273565-13.365945 8.549388-20.470367l66.685231-14.810913z m-193.950706 38.785325a64.662277 64.662277 0 1 1 0-129.312512 64.662277 64.662277 0 0 1 0 129.312512z" p-id="22856" fill="#999999"></path><path d="M74.427846 798.091439V314.316463H778.11477v193.180056h43.023894l0.95127 4.310819V182.366886c0-48.382314-39.580056-87.962371-87.962371-87.96237H118.415052c-48.382314 0-87.962371 39.580056-87.962371 87.96237v615.724553c0 48.382314 39.580056 87.962371 87.962371 87.962371h483.522107l27.984196-43.975165H118.415052a44.131703 44.131703 0 0 1-43.987206-43.987206z m0-615.724553a44.10762 44.10762 0 0 1 43.975164-43.975164h615.724553a44.10762 44.10762 0 0 1 43.975165 43.975164v87.962371H74.427846v-87.962371z" p-id="22857" fill="#999999"></path></svg>