<svg t="1740129986608" class="icon" viewBox="0 0 1024 1024" version="1.1" xmlns="http://www.w3.org/2000/svg" p-id="36920" width="32" height="32"><path d="M863.2 63.2H160.7c-35.2 0-63.7 28.6-63.7 63.7v768c0 35.2 28.6 63.7 63.7 63.7h702.5c35.2 0 63.7-28.6 63.7-63.7v-768c0-35.1-28.5-63.7-63.7-63.7z m-0.3 831.5H161V127.2h702v767.5z" p-id="36921" fill="#20a53a"></path><path d="M519.2 632.5c19.7 6.8 40.1 10.2 60.3 10.2 19.9 0 39.6-3.3 58.7-9.7L695 736.1c4.6 8.3 13.1 13 21.9 13 4.1 0 8.2-1 12-3.1 12.1-6.7 16.5-21.9 9.9-34l-55.7-101.2c33.2-22.3 58.1-54.7 71.3-93.1 16.1-46.7 13-97-8.7-141.4-44.8-91.7-155.8-129.9-247.5-85.1-44.4 21.7-77.7 59.4-93.8 106.1-16.1 46.7-13 97 8.7 141.4 21.7 44.4 59.4 77.7 106.1 93.8z m-67.5-219c11.7-34.1 36-61.6 68.5-77.5 19-9.3 39.2-13.7 59-13.7 50 0 98.2 27.9 121.6 75.8 15.8 32.4 18.1 69.1 6.4 103.2-11.7 34.1-36 61.6-68.5 77.5-32.4 15.8-69.1 18.1-103.2 6.4-34.1-11.7-61.6-36-77.5-68.5-15.8-32.4-18.1-69.1-6.3-103.2z m-167.3-67.3h69.4c13.8 0 25-11.2 25-25s-11.2-25-25-25h-69.4c-13.8 0-25 11.2-25 25s11.2 25 25 25z m0 189.5h69.4c13.8 0 25-11.2 25-25s-11.2-25-25-25h-69.4c-13.8 0-25 11.2-25 25s11.2 25 25 25z m0 189.4h69.4c13.8 0 25-11.2 25-25s-11.2-25-25-25h-69.4c-13.8 0-25 11.2-25 25s11.2 25 25 25z" p-id="36922" fill="#20a53a"></path></svg>