<svg t="1740129808606" class="icon" viewBox="0 0 1024 1024" version="1.1" xmlns="http://www.w3.org/2000/svg" p-id="29041" width="32" height="32"><path d="M822.272 159.744c17.408 0 32.768 7.168 45.056 18.432s18.432 28.672 18.432 45.056v415.744c0 17.408-7.168 32.768-18.432 45.056s-28.672 18.432-45.056 18.432H182.272c-17.408 0-32.768-7.168-45.056-18.432-12.288-12.288-18.432-28.672-18.432-45.056V224.256c0-17.408 7.168-32.768 18.432-45.056 12.288-12.288 28.672-18.432 45.056-18.432l640-1.024m0-63.488H182.272C111.616 96.256 54.272 153.6 54.272 224.256v415.744c0 70.656 57.344 128 128 128h640c70.656 0 128-57.344 128-128V224.256c0-70.656-57.344-128-128-128z m-96.256 831.488H278.528c-17.408 0-31.744-14.336-31.744-31.744s14.336-31.744 31.744-31.744H727.04c17.408 0 31.744 14.336 31.744 31.744s-14.336 31.744-32.768 31.744z" p-id="29042" fill="#20a53a"></path><path d="M613.376 571.392c-9.216 0-18.432-4.096-23.552-11.264L420.864 353.28 290.816 539.648c-9.216 14.336-28.672 17.408-43.008 7.168-14.336-9.216-17.408-28.672-7.168-43.008l153.6-220.16c5.12-8.192 14.336-12.288 23.552-13.312 10.24 0 18.432 4.096 24.576 11.264l166.912 203.776L712.704 307.2c8.192-14.336 27.648-19.456 41.984-11.264 14.336 8.192 19.456 27.648 11.264 41.984L640 556.032c-5.12 9.216-14.336 14.336-24.576 15.36h-2.048z" p-id="29043" fill="#20a53a"></path></svg>