<?xml version="1.0" encoding="utf-8"?>
<!-- Generator: Adobe Illustrator 25.2.0, SVG Export Plug-In . SVG Version: 6.00 Build 0)  -->
<svg version="1.1" id="图层_1" xmlns="http://www.w3.org/2000/svg" xmlns:xlink="http://www.w3.org/1999/xlink" x="0px" y="0px"
	 viewBox="0 0 1024 1024" style="enable-background:new 0 0 1024 1024;" xml:space="preserve">
<style type="text/css">
	.st0{fill:#20A53A;}
	.st1{fill:#999999;}
</style>
<path class="st0" d="M605.1,216.4h-328c-16.5,0-29.8,14.3-29.8,30.8l0,0c0,16.5,13.3,30.8,29.8,30.8h328c16.5,0,29.8-14.3,29.8-30.8
	l0,0C634.9,230.8,621.5,216.4,605.1,216.4z M441.1,366.5h-164c-16.5,0-29.8,13.3-29.8,29.8l0,0c0,16.5,14.3,30.8,30.8,30.8h164
	c16.5,0,28.8-14.3,28.8-30.8l0,0C470.9,379.8,457.5,366.5,441.1,366.5z M787.4,611.5h42.4c11,0,20.1,8.4,21.2,19.1l0.1,2.2v264.1
	c0,11.7-9.5,21.3-21.3,21.3H498c-11.8,0-21.3-9.5-21.3-21.3l0,0V632.8c0-11.8,9.5-21.3,21.3-21.3h42.4v-46.8
	c0-68.2,55.3-123.5,123.6-123.5c67.1,0,122,53.7,123.5,120.8L787.4,611.5L787.4,611.5z M727.8,611.5v-48.9
	c-0.4-16.9-6.7-31.4-19.1-43.6c-12.4-12.2-27.3-18.2-44.7-18.2c-17.7,0-32.7,6.2-45.2,18.7s-18.7,27.5-18.7,45.2v46.8H727.8z
	 M791.5,671.2H536.3v187.4h255.2V671.2z M667.4,807.6c24.7,0,44.7-20,44.7-44.7s-20-44.7-44.7-44.7s-44.7,20-44.7,44.7
	S642.7,807.6,667.4,807.6z"/>
<path class="st1" d="M154.2,157v712.7c0,16.4,5.8,30.4,17.4,42s25.6,17.4,42,17.4h141.1c16.4,0,29.7-13.3,29.7-29.7l0,0
	c0-23.1-14.9-33.7-29.7-33.7H243.3c-16.4,0-29.7-13.3-29.7-29.7V186.7c0-16.4,13.3-29.7,29.7-29.7h534.5c16.4,0,28.7,13.3,28.7,29.7
	v221.5c0,16.4,14.3,29.7,30.7,29.7l0,0c16.4,0,29.7-13.3,29.7-29.7V157c0-16.4-5.8-30.4-17.4-42c-11.6-11.6-25.6-17.4-42-17.4H213.6
	c-16.4,0-30.4,5.8-42,17.4S154.2,140.6,154.2,157z"/>
</svg>
