<?xml version="1.0" encoding="utf-8"?>
<!-- Generator: Adobe Illustrator 25.2.0, SVG Export Plug-In . SVG Version: 6.00 Build 0)  -->
<svg version="1.1" id="图层_1" xmlns="http://www.w3.org/2000/svg" xmlns:xlink="http://www.w3.org/1999/xlink" x="0px" y="0px"
	 viewBox="0 0 1024 1024" style="enable-background:new 0 0 1024 1024;" xml:space="preserve">
<style type="text/css">
	.st0{fill:#999999;}
	.st1{fill:#20A53A;}
</style>
<path class="st0" d="M174.8,871.8V154.7c0-31.1,29.6-56.5,66-56.5h358.6c14.7,0,28.9,5.5,39.8,15.4l190.5,172.8
	c12.4,11.2,19.5,27.1,19.5,43.9v541.6c0,31.1-29.6,56.4-66,56.4H240.8C204.4,928.3,174.8,903,174.8,871.8z M787,875.2V329.5H597
	c-27.8,0-50.4-22.6-50.4-50.4V151.4H235.3v723.8L787,875.2L787,875.2z M654.5,276.1h73.7L606.6,167.4l-2.4,56.1
	c-1.2,27.8,20.4,51.3,48.1,52.5C653.1,276.1,653.8,276.1,654.5,276.1L654.5,276.1z"/>
<g>
	<path class="st1" d="M415.6,750.5c-68-1.1-110.7-72.4-74.2-130c15.8-24.9,87.2-92,113.4-106.1c21.7-11.6,59.2-13.2,87-4.5
		c32.7,10.3,43.8,32.4,17.5,59.7c-11.7,1.9-19.5-0.3-32.8-7.1l-1-0.5c-12.8-6.4-18.8-8.1-28.8-6.1c-7.1,1.3-16.7,7.6-29.2,18.5
		c-4,3.6-8,7.2-11.9,10.9c-1.6,1.5-13.6,13.1-16.9,16.2c-2.3,2.2-15.3,14-19,17.6c-16.1,15.2-26,26.8-31,37.8
		c-7.3,16-2.7,28.7,15.3,39.4c21.7,3,31.3-1.2,49.1-16.6c4.6-3.9,6.6-5.7,9.3-7.8l7.2-0.1c10.3,7.2,30.2,11.2,42.8,7l7.6,4
		c1.4,6.3-2.8,12.3-11.9,21l-4.7,4.2l-6.1,5.4C468.1,739.9,448.1,751,415.6,750.5L415.6,750.5z"/>
	<path class="st1" d="M658.2,563.9c-5.9,5.3-27.7,23.7-31.2,26.8c-3.6,3.1-6.9,6.1-10,9c-5.7,5.4-22.2,21.8-23.8,23.4
		c-25.9,25.1-46.2,35.5-79,35.2c-37.8-0.5-74.8-22.5-68.5-49.9c2.8-12.3,9.9-18.6,20.4-18.5c6.8,0.1,11.1,1.5,27.1,7.8
		c5.3,2.1,8.8,3.4,12.2,4.4c5.8,2.1,12,2.9,18.2,2.1c2.2-0.4,4.4-1.1,6.5-1.9c10.7-4.2,22-12.8,36.8-27.1
		c2.6-2.6,17.1-17.1,20.8-20.5c4.5-4.2,0.4-0.6,18.3-16c30.4-26.1,40.6-41.2,34.8-61.3c-5-17.5-18.7-23.6-37.5-19.4
		c-17.3,3.9-34.4,16.1-39.5,28l-8.4,2.6c-14.4-7.9-33.9-11.8-47.6-7.4l-6.5-8.5c6.6-8.6,13.6-16.9,21-24.9
		c24.6-26.4,49.9-42,79.7-44c70.6-4.8,121,69.1,78.1,132.6C674.3,546.6,666.9,555.9,658.2,563.9z"/>
</g>
</svg>
