<?xml version="1.0" encoding="utf-8"?>
<!-- Generator: Adobe Illustrator 25.2.0, SVG Export Plug-In . SVG Version: 6.00 Build 0)  -->
<svg version="1.1" id="图层_1" xmlns="http://www.w3.org/2000/svg" xmlns:xlink="http://www.w3.org/1999/xlink" x="0px" y="0px"
	 viewBox="0 0 1024 1024" style="enable-background:new 0 0 1024 1024;" xml:space="preserve">
<style type="text/css">
	.st0{fill:#999999;}
	.st1{fill:#20A53A;}
</style>
<path class="st0" d="M512,928.2c-124.4,0-355.8-186.1-355.8-362V230.4c0-8.1,6.8-14.8,15.2-14.9l20.2-0.4c0.7,0,79.7-1.6,161.2-34
	c83.6-33.2,137.4-71.2,138-71.7l11.9-8.4c5.5-3.9,12.9-3.9,18.4,0l12,8.5c0.6,0.4,54.5,38.5,138,71.7c51.6,19.9,106,31.4,161.3,33.9
	l20,0.4c8.2,0,15,6.6,15.2,14.8l0.2,335.9C867.8,742.2,636.4,928.2,512,928.2z M649.3,239.2c-47.9-18.7-93.9-41.8-137.4-69.2
	c-20.6,13.3-68.4,42.1-136.6,69.2c-51,20-104.6,32.4-159.2,36.9v290.1c0,138,196.4,302.8,295.9,302.8c38.5,0,110.3-29.6,184.2-98.6
	c71.2-66.4,113-141.4,113-204.1V276.1C754.3,271.7,700.5,259.3,649.3,239.2z"/>
<path class="st1" d="M512,630.6c16.4,0,29.6,13.3,29.6,29.6s-13.3,29.6-29.6,29.6l0,0c-16.4,0-29.6-13.3-29.6-29.6
	S495.6,630.6,512,630.6z M512,334.1c16.4,0,29.6,13.3,29.6,29.6l0,0v177.9c0,16.4-13.3,29.6-29.6,29.6s-29.6-13.3-29.6-29.6V363.8
	C482.4,347.4,495.6,334.1,512,334.1L512,334.1z"/>
</svg>
