<?xml version="1.0" encoding="utf-8"?>
<!-- Generator: Adobe Illustrator 25.2.0, SVG Export Plug-In . SVG Version: 6.00 Build 0)  -->
<svg version="1.1" id="图层_1" xmlns="http://www.w3.org/2000/svg" xmlns:xlink="http://www.w3.org/1999/xlink" x="0px" y="0px"
	 viewBox="0 0 1024 1024" style="enable-background:new 0 0 1024 1024;" xml:space="preserve">
<style type="text/css">
	.st0{fill:#999999;}
	.st1{fill:#20A53A;}
</style>
<path class="st0" d="M137.2,431.7h67.5v144.8h-67.5V431.7z M204.7,857V743.7h-67.5V857c0,39.2,30.4,71.3,67.7,71.3h198.7v-67.5
	H205.9C205.4,860.2,204.7,859,204.7,857z M204.7,170.2c0-1.9,0.7-3.2,1.1-3.8h597.7c0.5,0.6,1.1,1.7,1.1,3.8v145.7H872V170.2
	c0-39.2-30.4-71.3-67.7-71.3H204.9c-37.3,0-67.7,31.9-67.7,71.3v94.4h67.5V170.2z M96.4,314.3h149.3v67.5H96.4V314.3z M96.4,626.4
	h149.3v67.5H96.4V626.4z"/>
<path class="st1" d="M862.1,720.1c-19.3-19.3-41.5-34.6-65.6-45.5c18.5-21.4,29.8-49.4,29.8-79.8c0-67.4-54.8-122.2-122.2-122.2
	S582,527.4,582,594.8c0,30.5,11.3,58.4,29.8,79.8c-24.1,11-46.3,26.2-65.6,45.5c-42.2,42.2-65.5,98.3-65.5,157.9
	c0,5.9,0.2,11.8,0.7,17.5l67.3-5.3c-0.3-4-0.5-8.2-0.5-12.2c0-85.9,69.9-155.8,155.8-155.8s156,70,156,155.9c0,4.1-0.2,8.3-0.5,12.2
	l67.3,5.3c0.5-5.8,0.7-11.7,0.7-17.5C927.5,818.4,904.3,762.4,862.1,720.1z M704.2,649.5c-30.2,0-54.7-24.5-54.7-54.7
	s24.5-54.7,54.7-54.7s54.7,24.5,54.7,54.7S734.4,649.5,704.2,649.5z"/>
</svg>
