<?xml version="1.0" encoding="utf-8"?>
<!-- Generator: Adobe Illustrator 25.2.0, SVG Export Plug-In . SVG Version: 6.00 Build 0)  -->
<svg version="1.1" id="图层_1" xmlns="http://www.w3.org/2000/svg" xmlns:xlink="http://www.w3.org/1999/xlink" x="0px" y="0px"
	 viewBox="0 0 1024 1024" style="enable-background:new 0 0 1024 1024;" xml:space="preserve">
<style type="text/css">
	.st0{fill:none;stroke:#888888;stroke-width:4;stroke-miterlimit:10;}
	.st1{fill:#02A9F1;}
	.st2{fill:#989798;}
	.st3{fill:#20A53A;}
</style>
<path class="st0" d="M359.9,443.9"/>
<path class="st0" d="M359.9,443.9"/>
<path class="st0" d="M359.9,443.9"/>
<path class="st1" d="M544.9,295.5c-0.2,0-0.4-0.1-0.6-0.1c0,0-0.1,0-0.1,0c-0.1,0-0.1,0-0.2,0C547.8,296.1,546.3,295.8,544.9,295.5z
	"/>
<path class="st1" d="M519.4,527.8C520,528.3,519.8,528.1,519.4,527.8L519.4,527.8z"/>
<g>
	<path class="st2" d="M742.1,655.5C742.1,655.5,742.1,655.5,742.1,655.5C742.1,655.5,742.1,655.5,742.1,655.5
		C742.1,655.5,742.1,655.5,742.1,655.5z"/>
	<path class="st2" d="M742.1,655.6C742.1,655.6,742.1,655.6,742.1,655.6c0.1-0.1,0.1-0.1,0.1-0.2
		C742.2,655.5,742.2,655.5,742.1,655.6z"/>
	<path class="st2" d="M180.3,770.5c0.2,0.2,0.3,0.4,0.5,0.6c0.1,0.2,0.3,0.4,0.4,0.6c5.8,7.5,11.8,14.7,18.1,21.8
		c5.6,6.3,11.4,14.3,18.7,18.7c13.1,8,29.8,1.6,34.7-12.6c6.2-17.9-11.4-30-21.7-41.7c-11.8-13.5-22.8-27.6-32.3-42.8
		c-11.5-18.3-22.6-37.3-30.5-57.5c-0.1-0.2-0.1-0.3-0.2-0.5c-9.6-23.8-16.9-48.2-22-73.3c76.7,0,153.3,0,229.9,0
		c0,26.2,0,52.4,0,78.7c0,13.5,0,27,0,40.5c0,6.8,0,13.6,0,20.5c0,6.3-0.6,13.1,0.4,19.4c1.6,10.2,10.2,19,20.6,20
		c9.5,1,19.5-4.2,23.9-12.8c2.4-4.6,2.6-9.3,2.6-14.4c0-7.1,0-14.2,0-21.3c0-13.8,0-27.6,0-41.4c0-29.8,0-59.5,0-89.2
		c59.4,0,118.9,0,178.3,0c0,26.2,0,52.4,0,78.7c0,13.5,0,27,0,40.5c0,6.8,0,13.6,0,20.5c0,6.3-0.6,13.1,0.4,19.4
		c1.6,10.2,10.2,19,20.6,20c9.5,1,19.5-4.2,23.9-12.8c2.4-4.6,2.7-9.3,2.7-14.4c0-7.1,0-14.2,0-21.3c0-13.8,0-27.6,0-41.3
		c0-29.8,0-59.5,0-89.2c76.4,0,152.9,0.4,229.3,0.1c-11.4,56.8-35.1,111.3-70.9,157c0,0,0,0,0,0c-9.7,11.6-19.3,23.1-30,33.9
		c-5.2,5.2-8.9,10.5-9.4,18.1c-0.5,6.6,1.9,13.5,6.8,18.1c4.8,4.5,11.5,7.1,18.2,6.8c7.7-0.4,13.2-4.5,18.3-9.8
		c11.3-11.5,21.9-23.6,31.8-36.3c40-51.3,68.3-111.4,81.1-175.2c14-69.5,10.4-142.8-10.9-210.5c-19.8-62.9-54.7-120.2-100.7-167.3
		c-46.6-47.8-104.2-84-167.5-105c-67.2-22.3-139.8-27.4-209.4-14.7c-65.6,12-128,40.4-180.8,81.1c-25.9,20-49.4,42.9-69.9,68.5
		c-10.6,13.2-20.5,27-29.5,41.4c-8.6,13.7-17.1,28.1-23.6,42.9c-14.6,33.2-26.6,67-33.1,102.8c-6.3,35.1-8.3,70.9-5.8,106.4
		c4.7,66.8,25.2,131.5,60.1,188.8C161.4,744.7,170.6,757.9,180.3,770.5z M561.1,142.8c0.2,0.1,0.5,0.1,0.7,0.1
		c13.4,1.4,26.8,4.4,39.9,7.7c0,56,0,112,0,168c-59.4,0-118.9,0-178.3,0c0-56-0.4-112.1,0-168.2c12.5-3.1,25.2-5.5,38-7.4
		c0,0,0,0,0,0c0.5-0.1,1-0.2,1.5-0.2c0.3,0,0.5-0.1,0.8-0.1C494.2,138.3,529,139.3,561.1,142.8z M528.1,536.5
		c-34.9,0-69.7,0-104.6,0c0-56.8,0-113.6,0-170.5c59.4,0,118.9,0,178.3,0c0,56.8,0,113.6,0,170.5
		C577.2,536.5,552.7,536.5,528.1,536.5z M167,370.3c0.2-0.2,0.4-0.5,0.5-0.8c0.6-1.1,1.1-2.3,1.6-3.5c69,0,137.9,0,206.9,0
		c0,56.8,0,113.6,0,170.5c-39.6,0-79.2,0-118.8,0c-20.8,0-41.6,0-62.4,0c-10.4,0-20.8,0-31.2,0c-7.8,0-15.8-0.5-23.7-0.2
		c-1.4-21.8-0.6-43.8,1.6-65.5c0.3-2.9,0.6-5.4,1-8c0,0,0-0.1,0-0.2c2.5-16.1,5.5-31.9,9.8-47.6c2.2-8.1,4.7-16.2,7.4-24.1
		C161.9,384.1,164,376.8,167,370.3z M217.2,284.2c0.1-0.1,0.1-0.1,0.2-0.2c21.2-25.7,45.1-50.6,71.1-69.9
		c26.9-19.9,56.3-36.6,87.6-48.8c0,39.5,0,79,0,118.5c-0.2,0.3-0.3,0.7-0.4,1.1c-0.1,0.5-0.1,1.1-0.2,1.6c0,0.8,0.1,1.6,0.5,2.3
		c0,0.1,0.1,0.2,0.1,0.3c0,9.8,0,19.6,0,29.5c-60.8,0-121.5,0-182.2,0C200.9,306.7,208.7,295.1,217.2,284.2z M686.6,318.2
		C686.6,318.2,686.6,318.2,686.6,318.2c-0.2,0.1-0.3,0.2-0.5,0.3c-12.3,0-24.6,0-36.9,0c0-51,0-102,0-152.9
		c8,3.1,15.3,6.3,23.5,10.2c14.3,7,28.3,14.7,41.7,23.3c6.6,4.2,13.1,8.7,19.5,13.4c1.6,1.1,3.1,2.3,4.6,3.4c0.4,0.3,2.6,2,2.5,1.9
		c2.6,2.1,5.2,4.2,7.8,6.3c12.2,10.1,23.8,20.9,34.6,32.4c8.1,8.5,15.4,17.7,23.1,26.6c0.2,0.3,0.4,0.6,0.7,1
		c8.9,10.3,16.5,22.4,23.6,34.4c-45.9,0-91.9,0-137.8,0c-0.5-0.5-1.2-0.8-1.9-0.9c-0.1,0-0.2,0-0.3,0c-0.3-0.1-0.6-0.1-1-0.1
		 M855.5,366.1c20.8,48.6,30.6,101.2,29.7,154.1c-0.1,5.5-0.3,10.9-0.7,16.3c-78.5,0-156.9,0-235.3,0c0-56.8,0-113.6,0-170.5
		C718,366,786.8,366,855.5,366.1z"/>
	<path class="st3" d="M934,877.2c0-0.4,0-0.8-0.1-1.2c-1.7-14.9-12.8-24.6-27.8-24.8c-19.9-0.2-39.8,0-59.7,0c-39,0-78,0-116.9,0
		c-5.4-10.7-14.5-19-25.3-24.2c-12.8-6.2-26-5.7-40-5.7c-31.5,0-63.1,0-94.6,0c-64.3,0-128.6,0-192.9,0c-15.6,0-32.9-2.2-47.9,3.3
		c-13.5,4.9-24.2,14.2-30.9,26.7c-30.5,0-61,0-91.5,0c-15.8,0-31.5,0-47.3,0c-7.1,0-14.2,0-21.4-0.1c-7.5,0-15.5-0.8-22.9,0.5
		c-11.1,1.9-20.5,11.4-21.6,22.8c-0.9,10.3,4.8,21,13.9,25.8c5.7,3,11.5,3,17.7,3c7.8,0,15.5,0,23.3,0c15.8,0,31.6,0,47.4,0
		c34,0,68.1,0,102.1,0c5.4,10.7,14.5,19,25.3,24.2c12.9,6.2,26,5.7,40,5.7c31.5,0,63.1,0,94.6,0c64.3,0,128.6,0,192.9,0
		c15.7,0,32.9,2.2,47.9-3.3c13.5-4.9,24.2-14.2,30.9-26.7c39,0,78.1,0,117.1,0c19.5,0,39,0.2,58.4,0c7.5-0.1,14.1-1.5,20-6.4
		c5.5-4.6,8.8-11.2,9.1-18.3C934,878.1,934,877.7,934,877.2z"/>
</g>
</svg>
