<?xml version="1.0" encoding="utf-8"?>
<!-- Generator: Adobe Illustrator 25.2.0, SVG Export Plug-In . SVG Version: 6.00 Build 0)  -->
<svg version="1.1" id="图层_1" xmlns="http://www.w3.org/2000/svg" xmlns:xlink="http://www.w3.org/1999/xlink" x="0px" y="0px"
	 viewBox="0 0 1024 1024" style="enable-background:new 0 0 1024 1024;" xml:space="preserve">
<style type="text/css">
	.st0{fill:#999999;}
	.st1{fill:#20A53A;}
</style>
<g>
	<path class="st0" d="M837.7,759.8H186.3c-49.3,0-89.2-40-89.2-89.2V201c0-49.3,40-89.2,89.2-89.2l0,0h651.4
		c49.3,0,89.2,40,89.2,89.2v469.5C927,719.8,887,759.8,837.7,759.8z M851.5,674.6V197c0-5-4.1-9-9-9h-661c-5,0-9,4-9,9v477.6
		c0,5,4.1,9,9,9h661C847.5,683.5,851.5,679.5,851.5,674.6z"/>
	<path class="st0" d="M323.6,836h376.8c25.3,0,37.9,12.6,37.9,37.9v0.4c0,25.3-12.6,37.9-37.9,37.9H323.6
		c-25.3,0-37.9-12.6-37.9-37.9v-0.4C285.7,848.6,298.3,836,323.6,836z"/>
	<path class="st1" d="M279.7,340.5h12c21.2,0,31.7,10.6,31.7,31.7v203.4c0,21.2-10.6,31.7-31.7,31.7h-12
		c-21.2,0-31.7-10.6-31.7-31.7V372.2C247.9,351.1,258.5,340.5,279.7,340.5z"/>
	<path class="st1" d="M436.6,454.8L436.6,454.8c25.1,0,37.7,12.6,37.7,37.7v77c0,25.2-12.6,37.7-37.7,37.7l0,0
		c-25.2,0-37.7-12.6-37.7-37.7v-77C398.8,467.4,411.4,454.8,436.6,454.8z"/>
	<path class="st1" d="M587.5,264.3L587.5,264.3c25.1,0,37.7,12.6,37.7,37.7v267.6c0,25.2-12.6,37.7-37.7,37.7l0,0
		c-25.2,0-37.7-12.6-37.7-37.7V302C549.7,276.8,562.3,264.3,587.5,264.3z"/>
	<path class="st1" d="M738.3,416.7L738.3,416.7c25.1,0,37.7,12.6,37.7,37.7v115.1c0,25.2-12.6,37.7-37.7,37.7l0,0
		c-25.2,0-37.7-12.6-37.7-37.7V454.4C700.6,429.3,713.2,416.7,738.3,416.7z"/>
</g>
</svg>
