<?xml version="1.0" encoding="utf-8"?>
<!-- Generator: Adobe Illustrator 25.2.0, SVG Export Plug-In . SVG Version: 6.00 Build 0)  -->
<svg version="1.1" xmlns="http://www.w3.org/2000/svg" xmlns:xlink="http://www.w3.org/1999/xlink" x="0px" y="0px"
	 viewBox="0 0 1024 1024" style="enable-background:new 0 0 1024 1024;" xml:space="preserve">
<style type="text/css">
	.st0{fill:none;stroke:#888888;stroke-width:4;stroke-miterlimit:10;}
	.st1{fill:#02A9F1;}
	.st2{fill:#20A53A;}
	.st3{fill:#999999;}
</style>
<g id="图层_1">
	<path class="st0" d="M501.7,501.7"/>
	<path class="st0" d="M501.7,501.7"/>
	<path class="st0" d="M501.7,501.7"/>
	<path class="st1" d="M501.4,501.6c-0.2,0-0.4-0.1-0.6-0.1c0,0-0.1,0-0.1,0c-0.1,0-0.1,0-0.2,0C504.4,502.2,502.8,501.9,501.4,501.6
		z"/>
	<path class="st1" d="M501.5,501.6C502.1,502.1,502,501.9,501.5,501.6L501.5,501.6z"/>
	<g>
		<path class="st2" d="M275.1,351.1C275.1,351.1,275,351.1,275.1,351.1C275,351.1,275,351.1,275.1,351.1
			C275.1,351.1,275.1,351.1,275.1,351.1z"/>
		<path class="st2" d="M915.7,497.6c-1.3-85.7-28.4-170.8-79.6-239.9C787.5,192.3,721,142,644.7,113.3
			c-162.2-61-353.5-8.7-462.7,125.5c-52.7,64.8-85.3,144.1-92.8,227.3c-7.7,85.1,12.3,172.8,56,246.3
			c41.6,70,104.5,127.3,177.8,162.5c80.9,38.8,172.8,49.8,260.7,32.5C750.1,874.6,884.8,735,910.3,567.1c1.6-10.7,3-21.4,3.9-32.2
			c0.8-9.9,0.3-20.2,1.2-30.1c0.2-1,0.3-2.1,0.3-3.2C915.9,500.2,915.9,498.8,915.7,497.6z M642.3,824.2
			c-33.6,16-72.1,24.6-109.4,27.7c0-43.6,0-87.2,0-130.9c44.4,0,88.8,0,133.2,0c0,30.5-0.1,60.9,0,91.4
			C658.3,816.6,650.3,820.5,642.3,824.2z M637.1,177c0.5,0.2,3.6,1.5,4.6,2c8.3,3.7,16.4,7.7,24.3,12c0,31.3,0,62.5,0,93.8
			c-44.4,0-88.8,0-133.3,0c0-44.4-0.1-88.8,0-133.3c5,0.4,10,0.9,15,1.4c0,0,0,0,0,0c23.4,3.6,46.4,8.8,68.8,16.4
			c5.8,2,11.5,4.1,17.2,6.3C635,176.2,636.1,176.6,637.1,177z M666.1,347.3c0,41.5,0,82.9,0,124.4c-44.4,0-88.8,0-133.2,0
			c0-41.5,0-82.9,0-124.4C577.3,347.3,621.7,347.3,666.1,347.3z M666.1,534.2c0,41.5,0,82.9,0,124.4c-44.4,0-88.8,0-133.2,0
			c0-41.5,0-82.9,0-124.4C577.3,534.2,621.7,534.2,666.1,534.2z M817.6,347.3c16.2,32.9,26.6,68.1,32.3,104.3c0,0.2,0,0.3,0.1,0.5
			c0,1,0.2,2.1,0.5,3.3c1.3,5.1,1.7,10.7,2,16.3c-41.3,0-82.6,0-123.8,0c0-41.5,0-82.9,0-124.4C758.3,347.3,787.9,347.3,817.6,347.3
			z M728.6,534.2c41.1,0,82.1-0.1,123.2,0c-0.3,3.8-0.6,7.5-1,11.3c-4.6,39.2-16.6,77.8-34.3,113.1c-29.3,0-58.6,0-87.8,0
			C728.6,617.1,728.6,575.6,728.6,534.2z M728.6,284.8c0-17.7,0-35.3,0-53c12.4,10.1,23.8,23,34,34.2c5.6,6.1,10.9,12.4,16,18.8
			C761.9,284.8,745.3,284.8,728.6,284.8z M728.6,770.7c0-16.6,0-33.1,0-49.7c16.1,0,32.3,0,48.4,0
			C763.1,739,746.4,755.9,728.6,770.7z M337.7,190.9c5.7-3,11.5-6,17.3-8.8c3.1-1.4,6.3-2.9,9.4-4.3c0.4-0.1,0.8-0.3,1.3-0.5
			c20.8-9.7,44.3-15.6,66.8-20.3c5.1-1,10.1-2,15.2-2.8c1.1-0.2,8.5-1.2,8.3-1.2c4.8-0.6,9.6-1,14.4-1.4v133.2
			c-44.2,0-88.4,0-132.7,0C337.7,253.5,337.8,222.2,337.7,190.9z M337.7,471.7c0-41.5,0-82.9,0-124.4c44.2,0,88.4,0,132.7,0
			c0,41.5,0,82.9,0,124.4C426.1,471.7,381.9,471.7,337.7,471.7z M470.4,658.5c-44.2,0-88.4,0-132.7,0c0-41.5,0-82.9,0-124.4
			c44.2,0,88.5,0,132.7,0C470.4,575.6,470.4,617.1,470.4,658.5z M337.7,721c44.2,0,88.4,0,132.7,0c0,43.6-0.2,87.2,0,130.9
			c-4.1-0.3-8.2-0.7-12.3-1.2c-0.9-0.1-1.6-0.1-2.2-0.2c0,0,0,0-0.1,0c0,0-0.1,0-0.2-0.1c-0.8-0.2-1.5-0.3-2.2-0.4
			c-40.7-7.7-78.9-18.3-115.5-37.4C337.7,782.1,337.7,751.6,337.7,721z M286.8,780.2C287.5,780.8,287.4,780.7,286.8,780.2
			L286.8,780.2z M275.2,721c0,16.6,0,33.1,0,49.7c-0.6-0.5-1.2-1-1.8-1.5c-8.4-7.3-16.6-15-24.4-23c-7.8-8.1-15.4-16.5-22.4-25.2
			C242.8,721,259,721,275.2,721z M275.2,284.8c-16.8,0-33.5,0-50.3,0c11.4-14.1,23.5-27.4,36.7-39.8c4.4-4.1,9-8.2,13.6-12.1
			C275.2,250.2,275.2,267.5,275.2,284.8z M186.9,658.5c-16.4-32.9-27.1-68-33.1-104.3c-1-6.7-1.7-13.3-2.3-20c41.2,0,82.5,0,123.7,0
			c0,41.5,0,82.9,0,124.4C245.8,658.5,216.3,658.4,186.9,658.5z M275.2,471.7c-41.3,0-82.6,0.1-123.9,0c0.4-5.4,0.9-10.7,1.6-16.1
			c0.1-0.5,1-7.1,1.2-8.1c0.7-4.2,1.5-8.4,2.3-12.6c1.6-7.9,3.4-15.8,5.3-23.5c4-15.7,8.9-31.2,15.5-45.9c0.1-0.3,0.2-0.5,0.3-0.8
			c2.6-5.8,5.2-11.6,8.1-17.4c29.9,0,59.7,0,89.6,0C275.2,388.8,275.2,430.2,275.2,471.7z"/>
	</g>
</g>
<g id="图层_2">
	<path class="st3" d="M501.7,87.7c-228.6,0-414,185.4-414,414s185.4,414,414,414s414-185.4,414-414S730.4,87.7,501.7,87.7z
		 M501.7,852.7c-193.9,0-351-157.2-351-351s157.2-351,351-351s351,157.2,351,351S695.6,852.7,501.7,852.7z"/>
</g>
</svg>
