<?xml version="1.0" encoding="utf-8"?>
<!-- Generator: Adobe Illustrator 25.2.0, SVG Export Plug-In . SVG Version: 6.00 Build 0)  -->
<svg version="1.1" id="图层_1" xmlns="http://www.w3.org/2000/svg" xmlns:xlink="http://www.w3.org/1999/xlink" x="0px" y="0px"
	 viewBox="0 0 1024 1024" style="enable-background:new 0 0 1024 1024;" xml:space="preserve">
<style type="text/css">
	.st0{fill:#999999;}
	.st1{fill:#20A53A;}
</style>
<path class="st0" d="M841.3,122.6H612.4c-12.2,0-23.7,4.5-32.3,12.7l-59.6,58c-6,5.9-14.1,9.2-22.5,9.2H184.7
	c-47.8,0-86.6,37.9-86.6,84.4v444.6c0,46.6,38.9,84.4,86.6,84.4h656.7c47.8,0,86.6-37.9,86.6-84.4V207
	C928.1,160.4,889.1,122.6,841.3,122.6z M161.9,286.8c0-9.8,12.5-18.2,22.8-18.2h341.1c8.6,0,16.8-3.4,22.8-9.5l63.2-63.2
	c6.1-6.1,14.3-9.5,22.8-9.5h206.8c10.6,0,23.2,11.1,23.2,20.5v524.5c0,10-13.1,22.8-23.2,22.8H217c-30.3,0-55.1-24.8-55.1-55.1
	V286.8z"/>
<path class="st1" d="M399.4,573L399.4,573c13.2,12.7,28.9,23.1,44.4,29.2c14.9,5.7,31.7,8.9,47.2,8.9c17.7,0,36.6-4.1,54.8-11.8
	l0.2-0.1c5.2-2.6,10-5.4,14.4-8.2l91.6,91.2c3.3,3.3,8,5.3,12.7,5.3s9.4-2,12.7-5.3l14.3-14.3c3.3-3.3,5.3-8,5.3-12.7
	s-2-9.4-5.3-12.7l-91.3-91.6c2.9-4.4,5.6-9.3,8.2-14.4l0.1-0.2c7.7-18.1,11.8-37,11.8-54.8c0-15.5-3.2-32.4-8.9-47.3
	c-6.1-15.4-16.4-31.2-29-44.3l-0.1-0.1c-11.7-11.3-26.3-21-41.3-27.4c-15.7-6.6-33.5-10.1-50.2-10.1s-34.5,3.6-50.3,10.1
	c-15,6.4-29.6,16.2-41.3,27.4l-0.1,0.1c-11.3,11.7-21,26.4-27.4,41.3c-6.6,15.7-10.1,33.5-10.1,50.2s3.6,34.6,10.1,50.3
	C378.4,546.6,388.1,561.3,399.4,573L399.4,573z M517.4,550.3c-9.6,3.5-17.7,5.1-26,5.1c-10,0-19.8-2-29.9-6.2
	c-9.1-4-15.9-8.6-22.8-15.4c-7.8-8.2-12.9-16.4-16.3-25.9l-0.1-0.2c-3.5-8.5-5-16.4-5-25.8c0-11,2-20.7,6.1-29.8l0.1-0.2
	c3.2-8.3,8-15.3,15.4-22.7c7.1-7.1,14-11.8,22.3-15l0.2-0.1c9-4.1,18.8-6.1,29.8-6.1c9.4,0,17.3,1.6,25.9,5l0.2,0.1
	c9.5,3.2,17.7,8.4,25.9,16.2c6.5,6.5,11.2,13.5,15.4,22.8c4.1,10,6.2,19.8,6.2,29.9c0,8.3-1.6,16.3-5.1,26.1
	c-3.2,9-8.3,17-16.6,25.8C534.4,542,526.5,547.2,517.4,550.3z"/>
</svg>
