<?xml version="1.0" encoding="utf-8"?>
<!-- Generator: Adobe Illustrator 25.2.0, SVG Export Plug-In . SVG Version: 6.00 Build 0)  -->
<svg version="1.1" id="图层_1" xmlns="http://www.w3.org/2000/svg" xmlns:xlink="http://www.w3.org/1999/xlink" x="0px" y="0px"
	 viewBox="0 0 1024 1024" style="enable-background:new 0 0 1024 1024;" xml:space="preserve">
<style type="text/css">
	.st0{fill:#999999;}
	.st1{fill:#20A53A;}
</style>
<g>
	<path class="st0" d="M842.2,159.1L518.3,99c-3.5-0.7-7.2-0.7-10.7,0l-325.7,60.1c-14,2.6-24.2,14.8-24.2,29v384
		c0.1,60.7,19.9,119.8,56.6,168.2c32.9,43.1,73.6,79.6,120,107.7c53.3,33.2,110.8,59,171,76.6c5,1.4,10.3,1.4,15.4,0
		c59.9-17.9,117.1-43.9,170-77.3c46.1-28.2,86.5-64.8,119.3-107.7c36.5-48.2,56.3-106.9,56.4-167.3V188.1
		C866.3,173.9,856.2,161.7,842.2,159.1z M807.3,572.1c0,86.4-49.5,162-147.1,224.5c-46.1,28.9-95.6,52-147.4,68.5
		C465.5,850.6,216.7,764.8,216.7,572V212.7l296.2-54.5l294.4,54.5L807.3,572.1L807.3,572.1z"/>
	<path class="st1" d="M271,566.6l-22.3-208h38.1l12.7,173.6h4.1l15.5-120.8h34.3l-12.3,40h-5.9l-11.7,115.3L271,566.6L271,566.6z
		 M348.8,566.6l-11.7-115.3h-5.9l-12-40h34.3l15.2,120.8h4.1l12.7-173.6h38.1l-22.3,208L348.8,566.6L348.8,566.6z"/>
	<path class="st1" d="M435.2,566.6l60.1-208h47.5l60.1,208H561l-40.7-157.2h-2.6L477,566.6H435.2z M465.5,527.2v-35.7H571v35.7
		H465.5z"/>
	<path class="st1" d="M631.8,566.6v-208h38.7v208H631.8z M631.8,394.2v-35.6h142.7v35.6H631.8z M631.8,489.1v-35.9h113.8v35.9H631.8
		z"/>
</g>
</svg>
