<?xml version="1.0" encoding="utf-8"?>
<!-- Generator: Adobe Illustrator 25.2.0, SVG Export Plug-In . SVG Version: 6.00 Build 0)  -->
<svg version="1.1" id="图层_1" xmlns="http://www.w3.org/2000/svg" xmlns:xlink="http://www.w3.org/1999/xlink" x="0px" y="0px"
	 viewBox="0 0 1024 1024" style="enable-background:new 0 0 1024 1024;" xml:space="preserve">
<style type="text/css">
	.st0{fill:#999999;}
	.st1{fill:#20A53A;}
</style>
<g>
	<path class="st0" d="M638.1,900.9H186.3c-15.6,0-28.2-12.6-28.2-28.2V128.2c0-15.7,12.8-28.5,28.5-28.5h626
		c15.6,0,28.2,12.6,28.2,28.2v100.3c0,15.6-12.6,28.2-28.2,28.2h0c-15.6,0-28.2-12.6-28.2-28.2v-50.7c0-15.6-12.6-28.2-28.2-28.2
		H243.3c-15.6,0-28.2,12.6-28.2,28.2v645.7c0,15.6,12.6,28.2,28.2,28.2h369.4c15.6,0,28.2,12.6,28.2,28.2v18.7
		C640.8,899.7,639.6,900.9,638.1,900.9z"/>
	<path class="st1" d="M693.3,900.9c-4.4,0-8-3.6-8-8V346.8c0-2.4,1.1-4.6,2.9-6.2l67.8-56.1c3-2.4,7.2-2.4,10.2,0l67.8,56.1
		c1.8,1.5,2.9,3.8,2.9,6.2l-0.1,554 M730.9,851.9h59.8c4.4,0,8-3.6,8-8V370.4c0-2.8-1.5-5.5-3.9-6.9L765.1,346
		c-2.5-1.5-5.6-1.5-8.1,0l-29.6,17.5c-2.4,1.4-3.9,4.1-3.9,6.9l-0.6,473.5C722.9,848.3,726.5,851.9,730.9,851.9z M304,303.3h285.5
		c4.4,0,8,3.6,8,8v33c0,4.4-3.6,8-8,8H304c-4.4,0-8-3.6-8-8v-33C296,306.9,299.6,303.3,304,303.3z M305.7,410.4h285.5
		c4.4,0,8,3.6,8,8v33c0,4.4-3.6,8-8,8H305.7c-4.4,0-8-3.6-8-8v-33C297.7,414,301.3,410.4,305.7,410.4z M302.9,520.4h198.3
		c4.4,0,8,3.6,8,8v33c0,4.4-3.6,8-8,8H302.9c-4.4,0-8-3.6-8-8v-33C294.9,524,298.4,520.4,302.9,520.4z"/>
</g>
</svg>
