<?xml version="1.0" encoding="utf-8"?>
<!-- Generator: Adobe Illustrator 25.2.0, SVG Export Plug-In . SVG Version: 6.00 Build 0)  -->
<svg version="1.1" id="图层_1" xmlns="http://www.w3.org/2000/svg" xmlns:xlink="http://www.w3.org/1999/xlink" x="0px" y="0px"
	 viewBox="0 0 1024 1024" style="enable-background:new 0 0 1024 1024;" xml:space="preserve">
<style type="text/css">
	.st0{fill:none;stroke:#888888;stroke-width:4;stroke-miterlimit:10;}
	.st1{fill:#02A9F1;}
	.st2{fill:#999899;}
	.st3{fill:#20A53A;}
</style>
<path class="st0" d="M359.9,443.9"/>
<path class="st0" d="M359.9,443.9"/>
<path class="st0" d="M359.9,443.9"/>
<path class="st1" d="M544.9,295.5c-0.2,0-0.4-0.1-0.6-0.1c0,0-0.1,0-0.1,0c-0.1,0-0.1,0-0.2,0C547.8,296.1,546.3,295.8,544.9,295.5z
	"/>
<path class="st1" d="M519.4,527.8C520,528.3,519.8,528.1,519.4,527.8L519.4,527.8z"/>
<g>
	<path class="st2" d="M651.2,349.5c0.1,0,0.1,0,0.2,0c-0.2,0-0.5,0.1-0.8,0.1C650.7,349.6,651,349.6,651.2,349.5z"/>
	<path class="st2" d="M858.8,247.5c-0.2-0.3-0.4-0.6-0.5-0.9c-0.4-0.4-0.7-0.8-1.1-1.1C857.1,245.8,857.5,246.6,858.8,247.5z"/>
	<path class="st2" d="M900.5,200.4c-19-21.1-44.7-35.5-70.3-47c-33.1-14.8-67.8-25.4-103.2-33c-74.5-16.1-151.6-22.6-227.8-21.6
		c-74.8,0.9-151.4,8-224,26.5c-34.1,8.7-68,20.4-99.2,36.7c-29.2,15.2-59.1,36.8-71.8,68.3c-4.8,11.8-6.5,23-5.8,33.7
		c0,172.3-0.9,344.7-0.2,517c0,8.6-0.3,17.4,3.7,25.3c3.9,7.8,10.4,12.7,17.9,16.8c18,10.1,36.9,18.9,55.9,27.1
		c39.6,17.2,80.2,31.8,121.8,43.2c83.2,23,170.2,34.5,256.6,31.2c84-3.2,167.3-20,245.5-50.9c37.2-14.7,75.2-31.4,108.8-53.1
		c15.8-10.2,17.1-24,17.1-41.3c-0.1-22.7,0-45.3,0-68c0-87.6,0-175.2,0-262.7c0-43.8,0-87.6,0-131.4c0-10.6,0-21.2,0-31.8
		c0-7.7,0.8-16,0.3-23.9C928.3,240,913.5,214.8,900.5,200.4z M796,808.5c-56.3,23.5-114.8,39.1-175,48.4
		c-66.2,7.4-132,7.8-198.1-0.7c-75-11.2-147.6-31.5-217.6-60.5c-15.1-6.6-30.4-13.5-45.1-21.2c0-25.1,0-50.3,0-75.4
		c49.5,15.1,100.3,26.6,151,36.2c64.8,12.3,130.5,20.8,196.4,24c120.3,5.8,244.7-6.6,356.4-53.9c0,8,0,16.1,0,24.1
		c0,15.1,0,30.2,0,45.3C841.7,787.1,819.2,798.4,796,808.5z M225.3,207.1c47.2-19.7,98.2-29.9,148.6-37.2
		c92.6-12.4,187.3-11.6,279.8,0.5c0,0,0,0,0,0c26.8,3.3,53.6,9,79.7,15.6c12.7,3.2,25.2,6.9,37.7,11c9.6,3.2,19.1,8,28.8,10.9
		c7.3,4,15.4,6.9,22.6,10.9c7.7,4.2,14.5,9.7,22,14.3c4.1,4.2,8.5,8.2,12.7,12.4c0-0.1,0.1-0.2,0.2-0.2c0.3,0.4,0.6,0.9,0.8,1.3
		c0.4,0.4,0.9,0.9,1.3,1.3c-0.3-0.1-0.5-0.3-0.7-0.4c1.4,2.4,2.7,4.8,4,7.2c0,0.1,0,0.1,0.1,0.2c0.2,0.5,0.6,5.2,0.8,3.2
		c0,0.3,0.1,0.7,0.1,1c0,0.3-0.1,0.5-0.1,0.8c0,1-0.2,2.1-0.2,3.3c-0.1,0.4-0.2,0.7-0.3,1c-0.4,0.7-0.8,1.5-1.1,2.3
		c-0.1,0.2-0.2,0.4-0.2,0.6c-1.2,2.2-2.5,4.3-3.9,6.5c-4.4,4.9-9.1,9.2-13.9,13.6c-6.8,4.8-13.7,9.3-20.9,13.4
		c-5.8,3.2-12.4,7.3-18.9,9.9c-0.5,0.1-1.1,0.2-1.6,0.4c-1.9,0.7-3.8,1.4-5.7,2.3c-0.3,0.1-0.5,0.3-0.8,0.4
		c-45.6,18.8-95.7,29.7-144.5,36c-0.2,0-0.3,0.1-0.5,0.1c0.3,0,0.4-0.1,0.5-0.1l0,0c-0.1,0-0.3,0-0.6,0.1c-0.3,0-0.6,0.1-0.8,0.2
		c0,0,0,0,0,0c0.1,0,0.1,0,0.2,0c-0.4,0-0.8,0.1-1,0.1c-2.6,0.1-5.3,0.7-7.9,1c-6.2,0.8-12.4,1.5-18.7,2.1
		c-12.5,1.3-25,2.4-37.5,3.2c-25,1.7-50.1,2.5-75.2,2.5c-24.5,0-48.9-0.9-73.3-2.6c-12.2-0.8-24.5-1.9-36.6-3.1
		c-5.7-0.6-11.4-1.2-17.1-1.9c-2.7-0.3-5.5-0.7-8.2-1c-0.5-0.1-2.2-0.3-2.7-0.4c0,0-0.1,0-0.2,0c-48.7-6.3-98.8-17.2-144.4-36
		c-0.2-0.1-0.5-0.3-0.8-0.4c-1.9-0.9-3.8-1.6-5.7-2.3c-0.6-0.2-1.1-0.3-1.7-0.4c-7.5-2.9-15-7.7-21.6-11.5
		c-6.6-3.8-13.1-9.8-20-13.4c-2.9-2.5-5.8-5.1-8.5-7.9c-1.1-1.1-2.1-2.5-3.2-4c-1.4-2.5-3.1-5-4.6-7.4c-0.3-0.7-0.6-1.4-1-2.1
		c-0.1-0.2-0.1-0.5-0.2-0.7c0.1-2-0.1-4-0.1-6c0.3-0.9,0.8-2.6,1.3-4.1c1.5-2.7,3.2-5.2,4.8-7.9c0.4-0.4,0.7-0.8,1.1-1.2
		c3.6-4.1,7.6-7.5,11.6-11C193.9,223,208.9,214.4,225.3,207.1z M651.8,170.1c-0.5-0.1-0.9-0.1-1.1-0.2c0,0,0,0,0,0
		C651,170,651.4,170.1,651.8,170.1z M840.4,648.1c-51,20.8-103.8,34.1-158.2,42.4c-47.2,4.8-93.9,8.4-141.5,7.5
		c-47.9-0.9-95.1-5.7-142.6-11.3c-64.8-9-129.1-22.4-192.2-39.7c-15.4-4.2-30.6-9-45.8-13.8c0-33.9,0-67.9,0-101.8
		c0-1.1,0-2.2,0-3.3c49.5,15.1,100.3,26.6,151,36.2c64.8,12.3,130.5,20.8,196.4,24c120.3,5.8,244.7-6.6,356.4-53.9c0,34,0,68,0,102
		C856.1,640.4,848.3,644.5,840.4,648.1z M373.6,349.7c-0.2,0-0.5-0.1-0.7-0.1C373.1,349.6,373.3,349.6,373.6,349.7
		C373.6,349.7,373.6,349.7,373.6,349.7z M159.9,260.4c0.1,0.1,0.2,0.5,0.2,1C160,261.1,159.9,260.8,159.9,260.4z M191,365.1
		c64.5,30,136.3,42.1,206.5,49.6c77.3,8.2,155.4,7.8,232.8-0.3c72.8-7.6,147.9-21.6,213.8-54.8c6.5-3.3,13.2-6.9,19.7-10.9
		c0,38,0,76,0,114.1c0,0.9,0,1.9,0,2.8c-7.8,4-15.5,8.1-23.4,11.6c-51,20.8-103.8,34.1-158.2,42.4c-47.2,4.8-93.9,8.4-141.5,7.5
		c-47.9-0.9-95.1-5.7-142.6-11.3c-64.8-9-129.1-22.4-192.2-39.7c-15.3-4.2-30.5-8.9-45.6-13.7c0.2-38,0.4-76,0.4-114
		C170.8,355,181.1,360.5,191,365.1z"/>
</g>
<g>
	<path class="st3" d="M651.1,350.7c0.1,0,0.1,0,0.2,0c-0.2,0-0.5,0.1-0.8,0.1C650.7,350.7,650.9,350.7,651.1,350.7z"/>
	<path class="st3" d="M858.8,248.6c-0.2-0.3-0.4-0.6-0.5-0.9c-0.4-0.4-0.7-0.8-1.1-1.1C857.1,246.9,857.5,247.8,858.8,248.6z"/>
	<path class="st3" d="M925.4,506.9c0-43.8,0-144.7,0-188.5c0-10.6,0-21.2,0-31.8c0-7.7,0.8-16,0.3-23.9
		c2.5-21.6-12.3-46.7-25.2-61.1c-19-21.1-44.7-35.5-70.3-47c-33.1-14.8-67.8-25.4-103.2-33C652.5,105.5,575.4,99,499.2,99.9
		c-74.8,0.9-151.4,8-224,26.5c-34.1,8.7-68,20.4-99.2,36.7c-29.2,15.2-59.1,36.8-71.8,68.3c-4.8,11.8-6.5,23-5.8,33.7
		c0,172.3-0.9,69.6-0.2,241.9l62,21.2c0,0,50.5,15.5,122.6,30.8c21.3,4.5,44.4,8.9,68.7,12.8c11.8,1.9,28.8,4.5,41.1,6.1
		c104.5,13.8,194.3,14.7,266.6,7c128.9-13.6,204.8-50.5,204.8-50.5L925.4,506.9z M225.2,208.2c47.2-19.7,98.2-29.9,148.6-37.2
		c92.6-12.4,187.3-11.6,279.8,0.5c0,0,0,0,0,0c26.8,3.3,53.6,9,79.7,15.6c12.7,3.2,25.2,6.9,37.7,11c9.6,3.2,19.1,8,28.8,10.9
		c7.3,4,15.4,6.9,22.6,10.9c7.7,4.2,14.5,9.7,22,14.3c4.1,4.2,8.5,8.2,12.7,12.4c0-0.1,0.1-0.2,0.2-0.2c0.3,0.4,0.6,0.9,0.8,1.3
		c0.4,0.4,0.9,0.9,1.3,1.3c-0.3-0.1-0.5-0.3-0.7-0.4c1.4,2.4,2.7,4.8,4,7.2c0,0.1,0,0.1,0.1,0.2c0.2,0.5,0.6,5.2,0.8,3.2
		c0,0.3,0.1,0.7,0.1,1c0,0.3-0.1,0.5-0.1,0.8c0,1-0.2,2.1-0.2,3.3c-0.1,0.4-0.2,0.7-0.3,1c-0.4,0.7-0.8,1.5-1.1,2.3
		c-0.1,0.2-0.2,0.4-0.2,0.6c-1.2,2.2-2.5,4.3-3.9,6.5c-4.4,4.9-9.1,9.2-13.9,13.6c-6.8,4.8-13.7,9.3-20.9,13.4
		c-5.8,3.2-12.4,7.3-18.9,9.9c-0.5,0.1-1.1,0.2-1.6,0.4c-1.9,0.7-3.8,1.4-5.7,2.3c-0.3,0.1-0.5,0.3-0.8,0.4
		c-45.6,18.8-95.7,29.7-144.5,36c-0.2,0-0.3,0.1-0.5,0.1c0.3,0,0.4-0.1,0.5-0.1l0,0c-0.1,0-0.3,0-0.6,0.1c-0.3,0-0.6,0.1-0.8,0.2
		c0,0,0,0,0,0c0.1,0,0.1,0,0.2,0c-0.4,0-0.8,0.1-1,0.1c-2.6,0.1-5.3,0.7-7.9,1c-6.2,0.8-12.4,1.5-18.7,2.1
		c-12.5,1.3-25,2.4-37.5,3.2c-25,1.7-50.1,2.5-75.2,2.5c-24.5,0-48.9-0.9-73.3-2.6c-12.2-0.8-24.5-1.9-36.6-3.1
		c-5.7-0.6-11.4-1.2-17.1-1.9c-2.7-0.3-5.5-0.7-8.2-1c-0.5-0.1-2.2-0.3-2.7-0.4c0,0-0.1,0-0.2,0c-48.7-6.3-98.8-17.2-144.4-36
		c-0.2-0.1-0.5-0.3-0.8-0.4c-1.9-0.9-3.8-1.6-5.7-2.3c-0.6-0.2-1.1-0.3-1.7-0.4c-7.5-2.9-15-7.7-21.6-11.5
		c-6.6-3.8-13.1-9.8-20-13.4c-2.9-2.5-5.8-5.1-8.5-7.9c-1.1-1.1-2.1-2.5-3.2-4c-1.4-2.5-3.1-5-4.6-7.4c-0.3-0.7-0.6-1.4-1-2.1
		c-0.1-0.2-0.1-0.5-0.2-0.7c0.1-2-0.1-4-0.1-6c0.3-0.9,0.8-2.6,1.3-4.1c1.5-2.7,3.2-5.2,4.8-7.9c0.4-0.4,0.7-0.8,1.1-1.2
		c3.6-4.1,7.6-7.5,11.6-11C193.8,224.2,208.8,215.5,225.2,208.2z M651.7,171.2c-0.5-0.1-0.9-0.1-1.1-0.2c0,0,0,0,0,0
		C651,171.1,651.3,171.2,651.7,171.2z M373.5,350.8c-0.2,0-0.5-0.1-0.7-0.1C373,350.7,373.3,350.7,373.5,350.8
		C373.6,350.8,373.6,350.8,373.5,350.8z M159.8,261.6c0.1,0.1,0.2,0.5,0.2,1C159.9,262.3,159.9,261.9,159.8,261.6z M191,366.3
		c64.5,30,136.3,42.1,206.5,49.6c77.3,8.2,155.4,7.8,232.8-0.3c72.8-7.6,147.9-21.6,213.8-54.8c6.5-3.3,13.2-6.9,19.7-10.9
		c0,38,0,76,0,114.1c0,0.9,0,1.9,0,2.8c-7.8,4-15.5,8.1-23.4,11.6c-51,20.8-103.8,34.1-158.2,42.4c-47.2,4.8-93.9,8.4-141.5,7.5
		c-47.9-0.9-95.1-5.7-142.6-11.3c-64.8-9-129.1-22.4-192.2-39.7c-15.3-4.2-30.4-10-45.5-14.8c0.2-38,0.4-74.9,0.4-112.9
		C170.7,356.1,181.1,361.7,191,366.3z M925.4,506.9"/>
</g>
</svg>
