<svg width="40.000000" height="40.000000" viewBox="0 0 40 40" fill="none" xmlns="http://www.w3.org/2000/svg" xmlns:xlink="http://www.w3.org/1999/xlink">
	<desc>
			Created with Pixso.
	</desc>
	<defs/>
	<path id="mysql" d="M13.9986 12.1048C13.7412 12.1048 13.5666 12.1396 13.3853 12.1869L13.3853 12.2192L13.4166 12.2192C13.5375 12.4779 13.7434 12.667 13.8956 12.8984C14.0165 13.1646 14.1195 13.4308 14.2404 13.6945L14.2717 13.6572C14.4821 13.493 14.5851 13.2292 14.5851 12.8287C14.4956 12.7118 14.4821 12.5948 14.406 12.4804C14.3165 12.3138 14.1195 12.2366 13.9986 12.1048ZM29.2629 26.5591C28.0653 26.5243 27.1363 26.6586 26.3596 27.0268C26.1357 27.1263 25.7776 27.1263 25.7462 27.4423C25.8694 27.5741 25.8873 27.7906 25.9925 27.9747C26.1716 28.308 26.4805 28.7534 26.767 28.9872C27.0804 29.2609 27.3938 29.5246 27.7228 29.7585C28.3048 30.1565 28.9652 30.3929 29.536 30.7934C29.8606 31.0273 30.1919 31.3233 30.521 31.5721C30.6844 31.6965 30.7896 31.9204 31 32L31 31.9503C30.897 31.801 30.8657 31.5845 30.765 31.4178C30.615 31.2512 30.465 31.1019 30.3173 30.9377C29.8752 30.2903 29.3567 29.7306 28.7615 29.2584C28.2825 28.8952 27.2348 28.3877 27.0379 27.7781L27.0088 27.7433C27.3356 27.711 27.7251 27.5791 28.0385 27.4796C28.5466 27.3303 29.0122 27.3627 29.5383 27.2159C29.7755 27.1487 30.0151 27.0666 30.2546 26.982L30.2546 26.8328C29.986 26.5342 29.7845 26.1287 29.5069 25.8501C28.731 25.0963 27.9072 24.4138 27.0356 23.8026C26.5655 23.4692 25.9701 23.2552 25.4754 22.9716C25.2963 22.8721 24.9964 22.8224 24.8934 22.6557C24.6248 22.2924 24.4681 21.8098 24.2778 21.3769C23.8381 20.429 23.4299 19.4645 23.0533 18.4836C22.7847 17.8318 22.6213 17.1824 22.2922 16.5854C20.7477 13.7567 19.0755 12.0426 16.5035 10.3658C15.9506 10.0175 15.288 9.86819 14.5873 9.68408C14.2135 9.66418 13.8397 9.63434 13.4681 9.61691C13.2219 9.5 12.9846 9.18405 12.7742 9.03229C11.9235 8.43521 9.72085 7.14154 9.09407 8.85315C8.69114 9.93289 9.69175 10.9977 10.0387 11.545C10.2961 11.9256 10.6207 12.361 10.7998 12.7889C10.905 13.0775 10.9341 13.3736 11.0393 13.6746C11.2766 14.406 11.5027 15.222 11.8161 15.9062C11.9795 16.2545 12.1586 16.6202 12.369 16.9337C12.4899 17.1153 12.6958 17.1999 12.7428 17.4984C12.5324 17.8367 12.519 18.3293 12.3981 18.7423C11.8609 20.6256 12.0713 22.9542 12.8324 24.34C13.0719 24.7529 13.6427 25.6685 14.406 25.3177C15.0776 25.0191 14.9298 24.0738 15.1223 23.2403C15.1671 23.0413 15.138 22.9095 15.2298 22.7751L15.2298 22.8124C15.4402 23.2801 15.6506 23.7255 15.8431 24.1932C16.3043 25.0092 17.1101 25.855 17.7839 26.4198C18.1421 26.7183 18.4264 27.2358 18.8741 27.4199L18.8741 27.3701L18.8405 27.3701C18.7442 27.2258 18.6166 27.1562 18.4958 27.0392C18.2115 26.73 17.9503 26.3983 17.7123 26.0441C17.0805 25.0847 16.5231 24.0747 16.0401 23.0139C15.7939 22.4915 15.5879 21.9292 15.391 21.4142C15.3014 21.2152 15.3014 20.9167 15.1514 20.8172C14.9276 21.1804 14.5985 21.4964 14.4351 21.9442C14.1508 22.6607 14.1217 23.5414 14.0143 24.4569C13.9538 24.4743 13.9829 24.4569 13.9538 24.4917C13.4748 24.3623 13.3114 23.8101 13.1323 23.3473C12.6846 22.1656 12.6107 20.2674 12.998 18.9065C13.1032 18.5582 13.5509 17.4586 13.3718 17.1252C13.2778 16.8093 12.9823 16.6277 12.8189 16.3714C12.6082 16.0371 12.4291 15.683 12.2817 15.3091C11.9235 14.3787 11.7444 13.3487 11.3549 12.4182C11.1759 11.9878 10.8625 11.5375 10.6073 11.142C10.323 10.6942 10.0096 10.3782 9.78352 9.8483C9.70965 9.66669 9.60444 9.36566 9.72308 9.16663C9.75442 9.03229 9.8171 8.98004 9.9335 8.94272C10.1305 8.76361 10.6834 8.99747 10.8781 9.09695C11.4311 9.34576 11.8967 9.57962 12.36 9.92792C12.5705 10.0921 12.7965 10.4081 13.0652 10.4901L13.3785 10.4901C13.8576 10.6071 14.3971 10.525 14.8448 10.6718C15.6394 10.9554 16.3557 11.3684 16.9982 11.8162C19.013 13.2466 20.5688 15.1423 21.6655 17.5034C21.8445 17.8865 21.9229 18.2373 22.0863 18.6353C22.3997 19.4563 22.787 20.2848 23.1048 21.0784C23.4182 21.8621 23.7204 22.6606 24.1703 23.31C24.3942 23.6583 25.2941 23.8399 25.697 24.0215C25.9947 24.1708 26.4581 24.3076 26.7267 24.4892C27.2416 24.8375 27.743 25.2356 28.2265 25.6187C28.4727 25.8078 29.2182 26.2232 29.2629 26.5591Z" fill-rule="nonzero" fill="#1683C6"/>
</svg>
