<svg width="40.000000" height="40.000000" viewBox="0 0 40 40" fill="none" xmlns="http://www.w3.org/2000/svg" xmlns:xlink="http://www.w3.org/1999/xlink">
	<desc>
			Created with Pixso.
	</desc>
	<defs/>
	<path id="nginx" d="M29.7778 12.4662L21.2222 7.27264C20.4888 6.81824 19.5723 6.81824 18.7778 7.27264L10.2222 12.4662C9.48877 12.9206 9 13.7645 9 14.7383L9 25.1254C9 26.0342 9.48877 26.9431 10.2222 27.3975L18.7778 32.591C19.5112 33.0455 20.4277 33.0455 21.2222 32.591L29.7778 27.3975C30.5112 26.9431 31 26.0991 31 25.1254L31 14.7383C31 13.8295 30.5112 12.9855 29.7778 12.4662ZM24.0334 25.5798C23.4834 25.5798 22.811 25.3201 22.3833 24.8008L16.9443 17.9194L16.9443 24.3463C16.9443 25.0604 16.4556 25.5798 15.7834 25.5798L15.7222 25.5798C15.05 25.5798 14.561 24.9955 14.561 24.3463L14.561 15.5173C14.561 14.8682 15.1111 14.2839 15.9055 14.2839C16.5166 14.2839 17.1277 14.5436 17.5557 15.0629L22.9944 21.9443L22.9944 15.5173C22.9944 14.8032 23.5444 14.2839 24.1555 14.2839L24.2166 14.2839C24.8889 14.2839 25.3777 14.8682 25.3777 15.5173L25.3777 24.3463C25.439 25.0604 24.8279 25.5798 24.0334 25.5798Z" fill-rule="nonzero" fill="#20A53A"/>
</svg>
