<svg width="26.000000" height="30.000000" viewBox="0 0 26 30" fill="none" xmlns="http://www.w3.org/2000/svg" xmlns:xlink="http://www.w3.org/1999/xlink">
	<desc>
			Created with Pixso.
	</desc>
	<path id="椭圆 496 (边框)" d="M7.33869 14.161C7.34184 11.1267 9.80443 8.66959 12.839 8.67273C15.8736 8.67587 18.3311 11.1382 18.328 14.1724C18.3248 17.2066 15.8622 19.6638 12.8276 19.6606C9.79301 19.6575 7.33554 17.1952 7.33869 14.161ZM11.8725 10.0017C12.186 9.92972 12.5077 9.89386 12.8378 9.89423C13.1677 9.89456 13.4893 9.93106 13.8025 10.0037C14.0398 10.0587 14.2726 10.1346 14.5003 10.2312C14.7354 10.3309 14.9582 10.4496 15.1687 10.5871C15.4154 10.7483 15.6452 10.9355 15.8579 11.1487C16.0707 11.3619 16.2574 11.592 16.4182 11.8391C16.5553 12.0497 16.6735 12.2728 16.7728 12.5081C16.8688 12.7359 16.9442 12.9685 16.9987 13.2058C17.0708 13.5192 17.1067 13.8411 17.1063 14.1711C17.106 14.5011 17.0695 14.8228 16.9968 15.136C16.9417 15.3733 16.8659 15.6058 16.7693 15.8334C16.6695 16.0685 16.5509 16.2913 16.4134 16.5017C16.2521 16.7484 16.0649 16.9781 15.8516 17.1909C15.6384 17.4036 15.4083 17.5904 15.1612 17.7511C14.9505 17.8882 14.7274 18.0064 14.4921 18.1056C14.2642 18.2017 14.0316 18.277 13.7941 18.3316C13.4807 18.4036 13.159 18.4395 12.8289 18.4391C12.4988 18.4388 12.1772 18.4023 11.8639 18.3296C11.6266 18.2745 11.394 18.1987 11.1664 18.1021C10.9312 18.0024 10.7084 17.8838 10.498 17.7462C10.2512 17.585 10.0215 17.3978 9.80872 17.1846C9.59597 16.9714 9.40922 16.7414 9.24848 16.4943C9.11137 16.2836 8.99316 16.0606 8.8939 15.8252C8.79781 15.5974 8.72248 15.3648 8.66791 15.1275C8.59587 14.8141 8.55999 14.4922 8.56033 14.1622C8.56068 13.8322 8.59719 13.5106 8.66988 13.1974C8.72495 12.9601 8.80077 12.7276 8.89735 12.4999C8.99711 12.2648 9.11576 12.042 9.25332 11.8316C9.41457 11.5849 9.6018 11.3552 9.815 11.1425C10.0282 10.9297 10.2583 10.743 10.5053 10.5823C10.716 10.4452 10.9392 10.327 11.1745 10.2278C11.4024 10.1317 11.6351 10.0563 11.8725 10.0017Z" fill-rule="evenodd" fill="#20A53A"/>
	<path id="矢量 1074 (边框)" d="M11.6937 13.0494L10.1008 15.4338L11.1945 16.1614L12.2305 14.6107L14.1753 15.2576L15.639 13.0381L14.5875 12.251L13.6922 13.7142L11.6937 13.0494Z" fill-rule="evenodd" fill="#20A53A"/>
	<path id="矢量 1083 (边框)" d="M18.8198 20.5116L16.6251 17.5853C16.3793 17.2575 15.9252 17.1957 15.5931 17.4448C15.2609 17.6939 15.1931 18.1471 15.4389 18.4749L17.6337 21.4012C17.8795 21.7289 18.3336 21.7907 18.6657 21.5417C18.9978 21.2926 19.0657 20.8393 18.8198 20.5116Z" fill-rule="evenodd" fill="#20A53A"/>
	<path id="矢量 1084" d="M12.6763 2.11847L3.1783 5.67358C3.00089 5.74002 2.8409 5.82809 2.69836 5.93787C2.55582 6.04761 2.43071 6.17905 2.32304 6.33212C2.21535 6.48526 2.1346 6.64655 2.08076 6.81604C2.02692 6.98553 2 7.16318 2 7.34906L2 16.3389C2 16.5191 2.02619 16.6914 2.07857 16.8556C2.09694 16.9132 2.11854 16.9698 2.14336 17.0255C2.44158 17.6942 2.8474 18.4252 3.3608 19.2185C3.9679 20.1566 4.66158 21.0781 5.44186 21.9828C5.8316 22.4347 6.23543 22.8734 6.65332 23.2988C7.21927 23.875 7.81104 24.4269 8.42862 24.9545C9.63487 25.9849 10.9129 26.8992 12.2627 27.6972C12.4183 27.7883 12.6773 27.9112 12.8456 27.9517C13.0134 27.992 13.1876 28.0071 13.3681 27.997C13.5461 27.9871 13.7153 27.9535 13.8756 27.8962C14.0399 27.8374 14.1949 27.7539 14.3406 27.6454C15.1154 27.0689 15.9029 26.4353 16.7029 25.7445C17.6622 24.9163 18.5554 24.0768 19.3824 23.2262C21.5023 21.046 22.992 19.0024 23.8517 17.0957C23.8827 17.0269 23.9088 16.9567 23.9301 16.8852C23.9767 16.7285 24 16.5653 24 16.3954L24 7.3291C24 7.14697 23.9741 6.97256 23.9222 6.80594C23.8703 6.63925 23.7925 6.48032 23.6887 6.32913C23.585 6.17792 23.4641 6.04727 23.326 5.93719C23.188 5.82715 23.0329 5.73764 22.8606 5.6687L14.0252 2.13351C13.9174 2.09036 13.8074 2.05768 13.6952 2.03543C13.583 2.01321 13.4687 2.00146 13.3522 2.00015C13.2357 1.99887 13.1211 2.00806 13.0085 2.02777C12.8958 2.04749 12.7851 2.0777 12.6763 2.11847ZM3.45501 6.87866C3.50253 6.84207 3.55585 6.81271 3.61499 6.79056L13.113 3.23544C13.1882 3.20721 13.2634 3.19357 13.3383 3.1944C13.4132 3.19525 13.488 3.21057 13.5626 3.24042L22.398 6.77563C22.4554 6.79861 22.5071 6.82846 22.5531 6.86517C22.5991 6.90186 22.6394 6.94537 22.674 6.99579C22.7086 7.04617 22.7345 7.09915 22.7518 7.15472C22.7691 7.21027 22.7778 7.2684 22.7778 7.3291L22.7778 16.3954C22.7778 16.4748 22.763 16.5474 22.7334 16.613C22.3111 17.5497 21.7111 18.538 20.9335 19.5778C20.2467 20.4962 19.4345 21.4376 18.4969 22.4019C17.6944 23.2273 16.8269 24.0426 15.8943 24.8478C15.1165 25.5193 14.352 26.1346 13.6008 26.6935C13.5542 26.7282 13.5045 26.7548 13.4519 26.7731C13.4033 26.7901 13.3521 26.8 13.2984 26.8031C13.243 26.8062 13.1894 26.8015 13.1378 26.7892C13.0858 26.7767 13.0357 26.7564 12.9875 26.7282C11.667 25.9544 10.4106 25.0601 9.23246 24.0536C8.63889 23.5465 8.07027 23.016 7.5266 22.462C7.12976 22.0577 6.74621 21.6409 6.37595 21.2115C5.63158 20.3484 4.97073 19.4708 4.39342 18.5787C3.91342 17.837 3.5368 17.1599 3.26356 16.5472C3.236 16.4854 3.22222 16.416 3.22222 16.3389L3.22222 7.34906C3.22222 7.28711 3.23119 7.22787 3.24914 7.17139C3.26709 7.1149 3.29401 7.0611 3.3299 7.0101C3.36579 6.95908 3.40749 6.91522 3.45501 6.87866Z" fill-rule="evenodd" fill="#999999"/>
	<defs/>
</svg>
