<svg width="30.000000" height="29.000000" viewBox="0 0 30 29" fill="none" xmlns="http://www.w3.org/2000/svg" xmlns:xlink="http://www.w3.org/1999/xlink">
	<desc>
			Created with Pixso.
	</desc>
	<defs>
		<linearGradient id="paint_linear_2_133_0" x1="21.701332" y1="3.625000" x2="6.749997" y2="25.375008" gradientUnits="userSpaceOnUse">
			<stop stop-color="#EB8F1D"/>
			<stop offset="0.288083" stop-color="#D14C28"/>
			<stop offset="0.498078" stop-color="#C42033"/>
			<stop offset="0.751642" stop-color="#792272"/>
		</linearGradient>
	</defs>
	<path id="path" d="M21.3682 3.625C21.1681 3.62515 20.9827 3.65959 20.812 3.72832C20.2943 3.92951 19.4325 4.49957 18.4054 5.3261L18.1907 5.50011C17.9181 5.72306 17.6359 5.96413 17.3453 6.2188C16.3569 7.0881 15.4318 7.98562 14.5698 8.91138L14.5396 8.944L14.479 9.00925C13.6338 9.91777 12.8495 10.8485 12.1261 11.8015C11.5575 12.5559 11.0526 13.3284 10.6117 14.1189C10.4865 14.3464 10.3722 14.5657 10.2676 14.7769C10.1823 14.9572 10.0996 15.1376 10.0225 15.317C9.83936 15.7403 9.68103 16.1635 9.55164 16.584L9.53516 16.6411C9.38074 17.1479 9.2738 17.6591 9.21436 18.1745L9.20752 18.228C8.82202 17.8211 7.79077 17.425 7.79224 17.4287C8.53149 18.1338 9.0918 18.8334 9.17444 19.5204C8.7793 19.5739 8.23682 19.4968 7.61047 19.3446C8.26306 19.7397 8.75317 19.8485 8.94446 19.8775C8.34424 19.9019 7.72058 20.1738 7.09143 20.4856C8.01111 20.2382 8.75452 20.1412 9.28735 20.22C8.38232 21.9257 7.53662 23.6441 6.75 25.375C7.00464 25.3273 7.17163 25.2204 7.2511 25.0542C7.40259 24.7198 8.40344 22.5293 9.9729 19.6491L10.1079 19.4017L10.1464 19.3328C10.3116 19.031 10.4836 18.7228 10.6613 18.4084L10.7838 18.1936L9.95508 17.1078L10.7838 18.1936C10.9476 17.9063 11.1169 17.6099 11.2891 17.3154L11.3607 17.1921L11.4336 17.068L11.4901 16.9737L11.4336 17.068L11.3607 17.1921L11.2891 17.3154C11.1169 17.6099 10.9476 17.9063 10.7838 18.1936L10.9325 18.3766L11.0619 18.3676L11.0757 18.3422C11.2864 17.9643 11.4943 17.5954 11.7007 17.2365L11.7076 17.2238C11.4939 17.5958 11.2822 17.9685 11.0757 18.3422L11.0619 18.3676L10.9711 18.5334C10.8086 18.828 10.6448 19.1271 10.481 19.4334L10.4741 19.447L10.4038 19.5766C10.2937 19.7832 10.1974 19.969 9.97839 20.3913C10.3406 20.5001 10.631 20.7865 10.9064 21.1109C10.8788 20.7544 10.6649 20.4556 10.2648 20.2146C12.0491 20.2672 13.5869 19.9708 14.3826 19.1116C14.4542 19.0346 14.5189 18.9549 14.5768 18.8688C14.2161 19.1706 13.7672 19.2983 12.9247 19.2666C14.1665 18.9005 14.7887 18.5497 15.3395 17.9679C15.4783 17.8196 15.6073 17.6676 15.7263 17.512C14.64 18.2461 13.3831 18.4546 12.0574 18.296L11.9982 18.2896C13.1863 18.1927 14.7654 17.6081 15.7869 16.8867C16.2577 16.5541 16.6846 16.1617 17.0796 15.7031C17.3743 15.3614 17.6497 14.9826 17.9126 14.563C18.1425 14.1968 18.3628 13.7999 18.5762 13.3694C18.2239 13.4881 17.8522 13.5669 17.4609 13.6059C17.3978 13.6132 17.3345 13.6198 17.271 13.6259C17.333 13.6195 17.4004 13.6132 17.4609 13.6059C17.5229 13.5987 17.585 13.5905 17.6455 13.5815L17.4609 13.6059L17.271 13.6259C18.3751 13.3449 19.0814 12.8021 19.588 12.1405C19.1802 12.3232 18.736 12.4513 18.2554 12.5247C18.1772 12.5355 18.0988 12.5449 18.0199 12.5528L17.9607 12.5583L18.0199 12.5528C18.0924 12.5454 18.1631 12.5357 18.2347 12.5257L18.2554 12.5247L18.2347 12.5257L17.9607 12.5583C18.3435 12.4522 18.6711 12.3317 18.952 12.1921C19.1584 12.0864 19.3472 11.9683 19.5178 11.8378C19.6279 11.7517 19.7312 11.6583 19.8276 11.5568L19.9156 11.4626L20.0217 11.3248C20.2107 11.0735 20.3795 10.8164 20.5283 10.5536L20.571 10.4738C20.6096 10.3968 20.6426 10.3279 20.6674 10.2681C20.7046 10.1784 20.728 10.1068 20.7404 10.0542C20.6996 10.0758 20.6564 10.0951 20.611 10.1122C20.2764 10.2436 19.7023 10.3632 19.2397 10.4194L19.1034 10.4294L15.981 10.656L15.9645 10.6777L15.8585 10.8209L15.5349 11.2632L15.4744 11.3475L15.5349 11.2632C15.6437 11.1127 15.7511 10.965 15.8585 10.8209L15.9645 10.6777C15.97 10.6696 15.9769 10.6641 15.981 10.656L15.8654 10.6623L15.7731 10.5427C15.5969 10.7723 15.4235 11.0028 15.2527 11.2342L14.9718 11.6185C14.4504 12.3392 13.9493 13.0661 13.4685 13.799C12.9559 14.5808 12.4598 15.3672 11.9802 16.1581L12.0986 15.9623C12.541 15.2373 12.9977 14.5162 13.4685 13.799C13.9496 13.0659 14.4508 12.3396 14.9718 11.6185L15.2527 11.2342C15.4152 11.0131 15.579 10.7937 15.7456 10.5771L15.7731 10.5427C16.0361 10.2001 16.3018 9.86298 16.5702 9.53127C16.8566 9.17782 17.1484 8.83253 17.4418 8.4972C17.74 8.15515 18.0483 7.81711 18.3669 7.48306L18.422 7.42506C18.7303 7.10424 19.0415 6.79519 19.354 6.49974C19.9889 5.89254 20.6874 5.31886 21.4493 4.7787L21.3695 4.83489C21.1493 4.9944 20.4829 5.50645 19.4766 6.5233C20.4458 6.49158 21.934 6.36108 23.1483 6.22423C23.509 4.89199 22.7944 4.28296 22.7944 4.28296C22.7944 4.28296 22.1777 3.63044 21.3682 3.625ZM19.1034 10.4294C20.0121 10.1539 20.4154 9.90376 20.8092 9.54396C20.9138 9.44427 21.0199 9.34096 21.1245 9.23311C21.4453 8.90413 21.7592 8.54071 22.04 8.18C22.3113 7.83199 22.5508 7.48669 22.7339 7.17493C22.8408 6.99699 22.9326 6.81573 23.0093 6.63116C23.0657 6.48887 23.1139 6.35292 23.1483 6.22423C21.9326 6.36017 20.4458 6.49249 19.4766 6.5233C19.1458 6.85761 18.8223 7.19566 18.5142 7.53926C18.2334 7.85192 17.9332 8.1945 17.6193 8.56971C17.0447 9.25493 16.5012 9.95217 15.981 10.656L19.1034 10.4294ZM19.2136 10.4213L19.0731 10.4358L19.2136 10.4213ZM19.1034 10.4294L19.0731 10.4358L19.1034 10.4294ZM15.3174 11.5577L15.1715 11.7635L14.9884 12.0236C14.5516 12.6494 14.129 13.2792 13.7205 13.9132C13.2461 14.6479 12.7877 15.3868 12.3451 16.13C12.1412 16.4725 11.9348 16.8233 11.7269 17.184L11.72 17.1967C12.7051 15.4434 13.7946 13.7197 14.9884 12.0236L15.1715 11.7635L15.3174 11.5577Z" fill-rule="nonzero" fill="url(#paint_linear_2_133_0)"/>
</svg>
