<svg width="26.000000" height="26.000000" viewBox="0 0 26 26" fill="none" xmlns="http://www.w3.org/2000/svg" xmlns:xlink="http://www.w3.org/1999/xlink">
	<desc>
			Created with Pixso.
	</desc>
	<path id="矢量 1072" d="M13.3418 16.4052L14.159 16.4052L14.159 13.3713L16.6781 13.3713C16.5742 14.3816 16.4591 14.8064 16.3215 14.9586C16.2316 15.0418 16.1389 15.0648 15.9761 15.0648C15.7935 15.0648 15.3779 15.0533 14.9426 15.0045C15.0577 15.2169 15.1251 15.5125 15.1364 15.7336C15.6194 15.7594 16.0687 15.7709 16.3102 15.7336C16.5995 15.7221 16.782 15.6532 16.9449 15.4752C17.2201 15.2054 17.3465 14.5366 17.4954 12.935C17.5066 12.8202 17.5178 12.5963 17.5178 12.5963L14.159 12.5963L14.159 11.2444L16.9197 11.2444L16.9197 10.478L14.159 10.478L14.159 9.23224L17.428 9.23224L17.428 8.46872L14.159 8.46872L14.159 7.2804L13.3418 7.2804L13.3418 8.46872L10.2948 8.46872L10.2948 9.23224L13.3418 9.23224L13.3418 10.478L10.7666 10.478L10.7666 11.2444L13.3418 11.2444L13.3418 12.5963L10.2386 12.5963L10.2386 13.3713L13.3418 13.3713L13.3418 16.4052ZM9.96056 9.57379C9.59267 9.03418 8.80072 8.23334 8.14356 7.66788L7.50045 8.13864C8.1548 8.72705 8.93833 9.55084 9.28375 10.0905L9.96056 9.57379ZM9.61514 11.5486L7.3151 11.5486L7.3151 12.3724L8.78667 12.3724L8.78667 15.946C8.31768 16.1469 7.76443 16.5803 7.23647 17.097L7.77567 17.8404C8.34015 17.1802 8.89058 16.5803 9.28375 16.5803C9.54774 16.5803 9.89317 16.8989 10.365 17.1687C11.1345 17.605 12.1005 17.7084 13.4345 17.7084C14.5747 17.7084 16.563 17.6509 17.4729 17.5935C17.4841 17.3323 17.6105 16.9334 17.7144 16.7209C16.5518 16.8501 14.7797 16.9334 13.457 16.9334C12.2269 16.9334 11.2496 16.8501 10.525 16.4626C10.1122 16.2387 9.85666 16.0177 9.61514 15.923L9.61514 11.5486Z" fill-rule="nonzero" fill="#999999"/>
	<path id="矢量 1071 (边框)" d="M6.51212 4.49347L18.5278 22.9311L17.4216 22.9312L5.82887 5.2674L6.51212 4.49347Z" fill-rule="evenodd" fill="#20A53A"/>
	<path id="减去顶层" d="M18.5057 22.9C16.7603 23.78 15.029 24 12.7074 24C6.79388 24 2.00001 19.0751 2.00001 13C2.00001 6.92487 6.79388 2 12.7074 2C17.7703 2 22.0124 5.60986 23.1281 10.4608C22.8161 10.6235 22.5107 10.8018 22.2135 10.9944C22.0953 10.3649 21.9192 9.75995 21.6852 9.17966C21.2124 8.00681 20.503 6.9346 19.5573 5.96298C18.6115 4.99136 17.5678 4.26266 16.4262 3.77686C15.2845 3.29108 14.0449 3.04816 12.7074 3.04816C11.3699 3.04816 10.1303 3.29105 8.98868 3.77686C7.84705 4.26266 6.80333 4.99136 5.85757 5.96298C4.91181 6.93457 4.20248 8.00681 3.7296 9.17966C3.25673 10.3525 3.02028 11.6259 3.02028 13C3.02028 14.3741 3.25671 15.6475 3.72958 16.8203C4.20246 17.9931 4.91181 19.0654 5.85757 20.037C6.80334 21.0086 7.84704 21.7373 8.98868 22.2231C10.1303 22.709 11.3699 22.9518 12.7074 22.9518C14.0449 22.9518 15.7138 22.8358 16.8554 22.35C17.5442 22.0569 16.7375 22.2231 17.4057 22.2231C17.6142 22.5052 18.5021 22.9 18.5057 22.9Z" fill-rule="evenodd" fill="#20A53A"/>
	<path id="椭圆 496 (边框)" d="M16.8563 16.0806C16.8583 14.1366 18.4236 12.5623 20.3526 12.5643C22.2815 12.5663 23.8436 14.1439 23.8416 16.0879C23.8396 18.0319 22.2742 19.6063 20.3453 19.6043C18.4163 19.6023 16.8543 18.0247 16.8563 16.0806ZM19.7382 13.4158C19.9375 13.3696 20.142 13.3466 20.3518 13.3469C20.5615 13.3471 20.7659 13.3705 20.965 13.417C21.1159 13.4523 21.2638 13.5009 21.4085 13.5628C21.558 13.6267 21.6996 13.7027 21.8334 13.7908C21.9902 13.8941 22.1363 14.0141 22.2715 14.1506C22.4068 14.2872 22.5255 14.4347 22.6277 14.5929C22.7148 14.7279 22.7899 14.8708 22.853 15.0216C22.9141 15.1675 22.962 15.3166 22.9967 15.4686C23.0425 15.6694 23.0653 15.8756 23.065 16.0871C23.0648 16.2985 23.0416 16.5046 22.9954 16.7053C22.9604 16.8573 22.9122 17.0063 22.8508 17.1521C22.7874 17.3028 22.712 17.4455 22.6246 17.5803C22.5221 17.7384 22.403 17.8856 22.2675 18.0219C22.132 18.1582 21.9857 18.2778 21.8286 18.3808C21.6947 18.4686 21.5529 18.5444 21.4033 18.6079C21.2585 18.6695 21.1106 18.7178 20.9596 18.7527C20.7604 18.7989 20.5559 18.8219 20.3461 18.8217C20.1363 18.8214 19.9318 18.798 19.7327 18.7515C19.5819 18.7162 19.434 18.6676 19.2893 18.6058C19.1398 18.5419 18.9982 18.4659 18.8644 18.3777C18.7076 18.2744 18.5616 18.1545 18.4263 18.0179C18.2911 17.8813 18.1724 17.7339 18.0702 17.5756C17.9831 17.4406 17.9079 17.2977 17.8448 17.1469C17.7838 17.001 17.7359 16.852 17.7012 16.6999C17.6554 16.4991 17.6326 16.2929 17.6328 16.0815C17.633 15.87 17.6562 15.6639 17.7024 15.4632C17.7374 15.3112 17.7857 15.1623 17.847 15.0164C17.9105 14.8657 17.9859 14.723 18.0733 14.5882C18.1758 14.4301 18.2948 14.283 18.4304 14.1466C18.5659 14.0104 18.7121 13.8907 18.8691 13.7878C19.0031 13.6999 19.1449 13.6242 19.2946 13.5606C19.4394 13.499 19.5873 13.4507 19.7382 13.4158Z" fill-rule="evenodd" fill="#20A53A"/>
	<path id="矢量 1074 (边框)" d="M19.6027 15.5193L18.5981 17.1291L19.2879 17.6203L19.9412 16.5733L21.1677 17.0101L22.0908 15.5116L21.4276 14.9803L20.863 15.9681L19.6027 15.5193Z" fill-rule="evenodd" fill="#20A53A"/>
	<path id="矢量 1083 (边框)" d="M23.848 20.2689L22.4162 18.3599C22.2559 18.1461 21.962 18.1039 21.7484 18.2642C21.5348 18.4244 21.4929 18.7183 21.6533 18.9321L23.0851 20.8411C23.2454 21.0549 23.5393 21.097 23.7529 20.9368C23.9665 20.7766 24.0084 20.4827 23.848 20.2689Z" fill-rule="evenodd" fill="#20A53A"/>
	<defs/>
</svg>
