<svg width="24.000000" height="24.000000" viewBox="0 0 24 24" fill="none" xmlns="http://www.w3.org/2000/svg" xmlns:xlink="http://www.w3.org/1999/xlink">
    <desc>
        Created with Pixso.
    </desc>
    <defs/>
    <path id="矢量 1084" d="M3.47855 7.20755C3.18129 7.38922 3 7.71246 3 8.06082L3 16.4116C3 16.7747 3.1969 17.1094 3.51436 17.2858L11.5144 21.7302C11.8164 21.898 12.1836 21.898 12.4856 21.7302L20.4856 17.2858C20.8031 17.1094 21 16.7747 21 16.4116L21 8.06082C21 7.71246 20.8187 7.38922 20.5215 7.20755L12.5215 2.31866C12.2013 2.12305 11.7987 2.12305 11.4785 2.31866L3.47855 7.20755Z" stroke="#999999"/>
    <path id="矢量 1085" d="M5.36842 8L12 12M18.6316 8L12 12L12 19.5" stroke="#999999"/>
</svg>
