<svg width="44" height="43" viewBox="0 0 44 43" fill="none" xmlns="http://www.w3.org/2000/svg"><path d="M2.047 0H44L0 43V2.047C0 .917.916 0 2.047 0z" fill-rule="evenodd" fill="#FFAC0A"/><path d="M11.488 10.04v8.367h1.494V11.28h4.082v7.11h1.552v-8.35H15.21c.202-.523.435-1.156.668-1.731h3.186V6.832h-8.011v1.477h3.278a18.236 18.236 0 0 1-.593 1.731h-2.25zm-.36 1.077c-.704-.99-2.163-2.536-3.384-3.744.158-.36.32-.721.465-1.077L6.75 5.86c-.79 2.11-2.337 4.465-4.157 5.959.36.25.901.773 1.152 1.063 1.278-1.151 2.43-2.61 3.33-4.196 1.152 1.19 2.396 2.645 3.024 3.62l1.028-1.19zm-5.437.145c.629.65 1.402 1.564 1.78 2.162l1.099-.796c-.378-.558-1.134-1.384-1.837-2.012l-1.042.646zm3.617 2.54-.25.088H3.925v1.441h4.412a29.992 29.992 0 0 1-1.89 3.256c-.435-.378-.848-.773-1.243-1.098l-1.117.848c1.314 1.169 2.936 2.843 3.674 3.907l1.204-.994a21.084 21.084 0 0 0-1.459-1.617c.954-1.424 2.18-3.476 2.883-5.185l-1.08-.646zm5.04-1.784c-.035 5.994-.197 8.116-4.32 9.325.269.268.682.808.81 1.169 4.517-1.424 4.842-4.052 4.895-10.494h-1.384zm.594 7.325c1.134.936 2.593 2.25 3.313 3.059l1.06-1.024c-.717-.791-2.211-2.052-3.367-2.918l-1.006.883z" fill-rule="evenodd" fill="#FFF"/></svg>