<svg width="32.5" height="27" viewBox="0 0 32.5 27" fill="none" preserveAspectRatio="none meet" xmlns="http://www.w3.org/2000/svg"><path d="M14.5 0h18L0 27V11.5L14.5 0z" fill-rule="evenodd" fill="#D7262E"/><path d="m16.874 3.149.522.623-4.358 3.61c.088.588.118 1.172.107 1.756l2.624 3.13-.701.582-2.047-2.442c-.07.465-.19.92-.319 1.36a5.347 5.347 0 0 0-.966-.168 8.02 8.02 0 0 0 .48-3.537l-1.763 1.46-.522-.624 2.154-1.784c-.038-.16-.078-.317-.123-.485l-.646.536-.478-.57-1.724 1.427-.516-.616 1.724-1.428-.427-.509.726-.602.427.51 2.186-1.81-.435-.52.72-.595.434.519 1.707-1.413.516.616-1.707 1.413.472.563-.719.595-.472-.563-2.185 1.81.333.398-.072-.232.845-.408c.079.239.137.47.203.71l4-3.312zm-4.698 10.186-1.572 1.301-.742-.885 1.292-1.07-.517-.615-1.291 1.07-.718-.857 1.3-1.076-.517-.616-1.3 1.077-.704-.842 1.412-1.17-.535-.637-1.605 1.33.307-.572c-.341-.214-.953-.459-1.461-.597l-.438.77c.465.149 1.013.384 1.353.597l-1.356 1.123c-.126-.505-.29-.993-.463-1.474l-.856.417c.56 1.393.86 2.977.73 4.256.16-.018.408.003.628.025l-.513.742-1.12-1.336.853-.706-.54-.646-.854.707-1.195-1.426-.71.587 1.196 1.426-.959.794.541.646.959-.795 1.284 1.533c-.31.421-.58.809-.81 1.116l.734.537c.21-.3.427-.62.655-.962l1.472 1.756c.088.104.073.17-.03.255-.082.08-.386.332-.71.575.268.107.614.342.788.503.503-.417.812-.71.936-1.014.119-.292.028-.545-.268-.9L5.177 16.31l.646-.955-.53-.453.164.018c.024-.378.015-.79-.021-1.203L8.96 17.92l.711-.589-.416-.496 3.456-2.863-.535-.637zm-4.752-1.102-1.196.99-.705-.84 1.196-.991.705.841zm9.805-4.916 1.972-1.633.497.594-1.97 1.633.767.917c.27.322.347.539.163.855-.188.308-.563.632-1.13 1.101a3.195 3.195 0 0 0-.736-.393c.42-.323.826-.66.924-.753.112-.106.133-.148.05-.247l-.748-.892-2.116 1.752-.498-.594 2.116-1.752-.376-.45c.17-.359.336-.775.449-1.188l-2.37 1.962-.459-.548 3.08-2.551.104-.148.721-.026a9.265 9.265 0 0 1-.635 2.128l.195.233zm-8.57 6.388-1.197.99-.718-.855 1.197-.991.717.856zm-.68 1.607 1.195-.991.742.885-1.196.99-.742-.885z" fill-rule="evenodd" fill="#FFF"/></svg>