<svg width="92" height="32.5" viewBox="0 0 92 32.5" fill="none" xmlns="http://www.w3.org/2000/svg"><rect x="4" rx="4" width="88" height="29" fill="#20A53A"/><path d="M34.144 8.724c.228.6.504 1.391.635 1.895l-1.163.337c-.096-.53-.36-1.345-.577-1.957l1.105-.275zM68.81 11.82a25.676 25.676 0 0 1-2.291 3.323l2.065-.575c-.011.3.024.718.059.958-3.12.914-3.563 1.081-3.841 1.284a10.799 10.799 0 0 0-.346-.994c.276-.061.563-.337.935-.782.217-.24.647-.79 1.14-1.511-1.33.17-1.609.24-1.8.336a9.598 9.598 0 0 0-.348-1.02c.217-.06.434-.336.709-.732.264-.395 1.14-1.907 1.62-3.348l1.02.504c-.516 1.163-1.202 2.41-1.922 3.419l1.356-.144c.264-.407.504-.864.733-1.295l.91.577zm-7.92 1.738h2.51v1.069h-2.508v5.183h-1.14v-5.183h-3.395c-.097 1.945-.66 3.864-3.05 5.209-.155-.252-.54-.662-.791-.853 2.089-1.151 2.616-2.748 2.724-4.356h-2.616v-1.07h2.64v-2.422c-.72.205-1.453.384-2.148.539a3.466 3.466 0 0 0-.395-.911c1.872-.431 3.923-1.105 5.136-1.823l.814.912c-.67.348-1.45.659-2.29.946v2.76h3.371V9.022h1.14v4.536zM44.369 17.22c-.217-.396-.419-.78-.636-1.128l.947-.469c.612.973 1.344 2.268 1.658 3.073l-1.02.551c-.12-.299-.278-.697-.48-1.116-2.93.984-3.36 1.163-3.648 1.38-.073-.337-.266-.876-.456-1.14.228-.12.527-.348.527-.79V9.417h4.764v5.725H42.4v2.677l1.968-.6zm2.555-7.717h4.058v6.84c0 .552-.097.877-.446 1.044-.372.193-.91.205-1.728.205a3.465 3.465 0 0 0-.323-1.058 14.11 14.11 0 0 0 1.187.012c.17-.012.217-.059.217-.214v-5.81H48.04v9.302h-1.116V9.503zm27.36 3.228.194-.05.682.279c-.348 1.725-.958 3.167-1.775 4.318a7.107 7.107 0 0 0 2.209 1.609 4.15 4.15 0 0 0-.732.91 7.94 7.94 0 0 1-2.16-1.666 8.156 8.156 0 0 1-2.197 1.717c-.143-.264-.539-.686-.767-.853a7.248 7.248 0 0 0 2.279-1.705 11.8 11.8 0 0 1-1.283-2.206c-.349 1.919-.911 3.539-1.872 4.775-.182-.181-.71-.539-.973-.685 1.585-1.822 2.039-4.858 2.197-8.567h-1.26V9.564h5.327c-.264.994-.575 2.183-.876 3.167h1.008zm-29.376-.984v-1.333H42.4v1.333h2.507zm26.989 1.945c.263-.805.612-1.992.876-3.085h-1.585c-.047.865-.106 1.69-.19 2.473.395 1.21.96 2.364 1.678 3.346.542-.768.95-1.69 1.225-2.734h-2.004zm-42.721-2.69h9.685v1.129h-9.685v-1.128zm2.701 1.633c.469 1.561.934 3.527 1.14 4.86l-1.187.299c-.17-1.318-.65-3.346-1.081-4.884l1.128-.275zm5.52.263c-.47 1.752-1.14 3.853-1.729 5.318h3.685v1.128H28.66v-1.128h5.81c.624-1.489 1.306-3.841 1.667-5.558l1.26.24zm5.004-.155v1.403h2.507v-1.403H42.4zm22.151 5.33c1.008-.338 2.558-.915 4.07-1.477l.205.958c-1.38.565-2.869 1.154-3.997 1.62l-.278-1.102z" fill="#FFFFFFFF"/><g filter="url(#a)"><path d="M15.5 0H32L4 24.5V9.91L15.5 0z" fill-rule="evenodd" fill="#D7262E"/></g><path d="m18.515 2.889.456.548-3.807 3.172c.077.517.104 1.03.093 1.543l2.292 2.751-.612.51-1.788-2.145c-.06.409-.165.81-.278 1.196a4.648 4.648 0 0 0-.844-.148 7.11 7.11 0 0 0 .42-3.11l-1.54 1.284-.457-.548 1.882-1.568a17.09 17.09 0 0 0-.107-.426l-.565.47-.418-.5-1.506 1.255-.45-.542 1.505-1.254-.373-.448.635-.53.373.449 1.91-1.591-.38-.456.628-.523.38.456 1.49-1.243.451.542-1.49 1.242.411.494-.628.523-.412-.494-1.909 1.59.291.35-.063-.204.739-.359c.069.21.12.414.177.625l3.494-2.911zm-4.104 8.95-1.373 1.145-.648-.778 1.128-.94-.45-.541-1.129.94-.627-.752 1.135-.946-.45-.541-1.136.945-.616-.739 1.234-1.028-.467-.56L9.61 9.212l.268-.502c-.298-.188-.832-.403-1.276-.525l-.383.677c.406.13.885.338 1.181.524l-1.184.987c-.11-.443-.254-.872-.404-1.295l-.748.366c.49 1.225.75 2.617.637 3.74.14-.015.357.003.55.023l-.449.652-.978-1.174.745-.621-.472-.567-.746.621-1.044-1.253-.62.516 1.045 1.253-.837.698.472.567.837-.698 1.122 1.347c-.27.37-.506.71-.708.98l.642.473c.183-.265.372-.546.572-.846l1.286 1.543c.076.092.064.149-.027.224-.07.07-.336.292-.62.506.235.094.537.3.689.441.439-.365.709-.623.817-.89.104-.256.025-.48-.234-.79l-1.446-1.735.564-.839-.461-.398.142.015a7.113 7.113 0 0 0-.019-1.057l3.08 3.695.62-.518-.363-.436 3.018-2.516-.467-.56zm-4.15-.967-1.045.87-.616-.739 1.045-.87.616.74zm8.564-4.32 1.722-1.435.435.522-1.722 1.435.671.805c.236.284.302.474.142.752-.164.27-.492.555-.987.968a2.795 2.795 0 0 0-.643-.346c.367-.284.722-.58.807-.662.098-.093.117-.13.044-.217l-.653-.784-1.848 1.54-.435-.522 1.848-1.54-.329-.394a6.38 6.38 0 0 0 .392-1.045L16.2 7.353l-.401-.482 2.69-2.241.09-.13.63-.023a8.177 8.177 0 0 1-.554 1.87l.17.205zm-7.487 5.614-1.045.87-.626-.752 1.044-.87.627.752zm-.594 1.411 1.045-.87.648.778-1.044.87-.649-.778z" fill-rule="evenodd" fill="#FFF"/><defs><filter id="a" x="0" y="0" width="36" height="32.5" filterUnits="userSpaceOnUse" color-interpolation-filters="sRGB"><feFlood flood-opacity="0" result="BackgroundImageFix"/><feColorMatrix in="SourceAlpha" values="0 0 0 0 0 0 0 0 0 0 0 0 0 0 0 0 0 0 127 0"/><feOffset dy="4"/><feGaussianBlur stdDeviation="1.333"/><feColorMatrix values="0 0 0 0 0 0 0 0 0 0 0 0 0 0 0 0 0 0 0.25 0"/><feBlend in2="BackgroundImageFix" result="effect_dropShadow_1"/><feBlend in="SourceGraphic" in2="effect_dropShadow_1" result="shape"/></filter></defs></svg>