<svg width="36" height="32.5" viewBox="0 0 36 32.5" fill="none" xmlns="http://www.w3.org/2000/svg"><g filter="url(#a)"><path d="M15.5 0H32L4 24.5V9.91L15.5 0z" fill-rule="evenodd" fill="#D7262E"/></g><path d="m18.515 2.889.456.548-3.807 3.172c.077.517.104 1.03.093 1.543l2.292 2.751-.612.51-1.788-2.145c-.06.409-.165.81-.278 1.196a4.648 4.648 0 0 0-.844-.148 7.11 7.11 0 0 0 .42-3.11l-1.54 1.284-.457-.548 1.882-1.568a17.09 17.09 0 0 0-.107-.426l-.565.47-.418-.5-1.506 1.255-.45-.542 1.505-1.254-.373-.448.635-.53.373.449 1.91-1.591-.38-.456.628-.523.38.456 1.49-1.243.451.542-1.49 1.242.411.494-.628.523-.412-.494-1.909 1.59.291.35-.063-.204.739-.359c.069.21.12.414.177.625l3.494-2.911zm-4.104 8.95-1.373 1.145-.648-.778 1.128-.94-.45-.541-1.129.94-.627-.752 1.135-.946-.45-.541-1.136.945-.616-.739 1.234-1.028-.467-.56L9.61 9.212l.268-.502c-.298-.188-.832-.403-1.276-.525l-.383.677c.406.13.885.338 1.181.524l-1.184.987c-.11-.443-.254-.872-.404-1.295l-.748.366c.49 1.225.75 2.617.637 3.74.14-.015.357.003.55.023l-.449.652-.978-1.174.745-.621-.472-.567-.746.621-1.044-1.253-.62.516 1.045 1.253-.837.698.472.567.837-.698 1.122 1.347c-.27.37-.506.71-.708.98l.642.473c.183-.265.372-.546.572-.846l1.286 1.543c.076.092.064.149-.027.224-.07.07-.336.292-.62.506.235.094.537.3.689.441.439-.365.709-.623.817-.89.104-.256.025-.48-.234-.79l-1.446-1.735.564-.839-.461-.398.142.015a7.113 7.113 0 0 0-.019-1.057l3.08 3.695.62-.518-.363-.436 3.018-2.516-.467-.56zm-4.15-.967-1.045.87-.616-.739 1.045-.87.616.74zm8.564-4.32 1.722-1.435.435.522-1.722 1.435.671.805c.236.284.302.474.142.752-.164.27-.492.555-.987.968a2.795 2.795 0 0 0-.643-.346c.367-.284.722-.58.807-.662.098-.093.117-.13.044-.217l-.653-.784-1.848 1.54-.435-.522 1.848-1.54-.329-.394a6.38 6.38 0 0 0 .392-1.045L16.2 7.353l-.401-.482 2.69-2.241.09-.13.63-.023a8.177 8.177 0 0 1-.554 1.87l.17.205zm-7.487 5.614-1.045.87-.626-.752 1.044-.87.627.752zm-.594 1.411 1.045-.87.648.778-1.044.87-.649-.778z" fill-rule="evenodd" fill="#FFF"/><defs><filter id="a" x="0" y="0" width="36" height="32.5" filterUnits="userSpaceOnUse" color-interpolation-filters="sRGB"><feFlood flood-opacity="0" result="BackgroundImageFix"/><feColorMatrix in="SourceAlpha" values="0 0 0 0 0 0 0 0 0 0 0 0 0 0 0 0 0 0 127 0"/><feOffset dy="4"/><feGaussianBlur stdDeviation="1.333"/><feColorMatrix values="0 0 0 0 0 0 0 0 0 0 0 0 0 0 0 0 0 0 0.25 0"/><feBlend in2="BackgroundImageFix" result="effect_dropShadow_1"/><feBlend in="SourceGraphic" in2="effect_dropShadow_1" result="shape"/></filter></defs></svg>