<svg width="18" height="20" viewBox="0 0 18 20" fill="none" xmlns="http://www.w3.org/2000/svg"><path d="M6.984 10.725c0 .702-.633 1.274-1.674 1.274a2.484 2.484 0 0 1-1.693-.643l.44-.477c.343.316.808.52 1.267.52.575 0 .898-.251.898-.62 0-.4-.323-.525-.762-.704l-.66-.262c-.458-.18-.97-.512-.97-1.15 0-.692.66-1.21 1.565-1.21.556 0 1.08.215 1.44.555l-.394.44c-.296-.244-.626-.392-1.046-.392-.484 0-.801.214-.801.566 0 .375.38.517.768.66l.653.257c.562.22.969.541.969 1.186zm2.145 1.274c1.041 0 1.674-.572 1.674-1.274 0-.645-.407-.966-.969-1.186l-.653-.257c-.388-.143-.768-.285-.768-.66 0-.352.317-.566.801-.566.42 0 .75.148 1.046.393l.394-.441a2.12 2.12 0 0 0-1.44-.554c-.905 0-1.565.518-1.565 1.208 0 .639.511.972.97 1.15l.66.263c.438.179.762.304.762.704 0 .369-.324.62-.898.62-.459 0-.924-.204-1.267-.52l-.44.477a2.484 2.484 0 0 0 1.693.643zm5.331-.077H11.7V7.537h.75v3.801h2.01v.584z" fill-rule="evenodd" fill="#F08900"/><path d="M9 2c1.4 1.333 5.133 2.222 7 2.222v7.446c-.155 1.518-1.773 4.91-7 6.332-1.71-.221-7-3.556-7-6.332V4.222C3.867 4.074 7.6 3.333 9 2z" stroke="#F08900" stroke-width=".8"/></svg>