<svg width="69.733" height="69.642" viewBox="0 0 69.734 69.642" fill="none" xmlns="http://www.w3.org/2000/svg"><path d="M7.711 27.728c0-2.172 1.749-3.938 3.906-3.945 2.157-.008 3.906 1.746 3.906 3.918 0 .773-.22 1.494-.603 2.104l9.374 6.092 7.99-16.118a3.92 3.92 0 0 1-1.84-3.332c0-2.171 1.748-3.938 3.905-3.945 2.157-.008 3.906 1.746 3.906 3.918a3.95 3.95 0 0 1-1.908 3.386l8.542 16.02 8.071-6.291a3.925 3.925 0 0 1-.512-1.948c0-2.171 1.748-3.938 3.906-3.945 2.157-.007 3.906 1.747 3.906 3.919 0 2.171-1.75 3.937-3.906 3.945a3.881 3.881 0 0 1-.98-.121L51.045 53.2l-33.14.115-5.884-21.69a3.953 3.953 0 0 1-.402.021c-2.157.008-3.906-1.746-3.907-3.918z" fill-rule="evenodd" fill="#FF9100" fill-opacity=".06"/></svg>