<svg width="20" height="18" viewBox="0 0 20 18" fill="none" xmlns="http://www.w3.org/2000/svg"><path d="M16.757 4.13a4.373 4.373 0 0 0-.645-.58 4.126 4.126 0 0 0-.735-.433 3.958 3.958 0 0 0-1.627-.355 3.877 3.877 0 0 0-1.627.355 4.126 4.126 0 0 0-.736.432c-.232.17-.447.364-.645.58l-.74.816-.742-.815a4.186 4.186 0 0 0-1.379-1.016 3.855 3.855 0 0 0-1.628-.354 3.853 3.853 0 0 0-1.628.354c-.52.237-.98.576-1.378 1.016C2.442 5.015 2 6.19 2 7.44s.442 2.425 1.246 3.308l1.099 1.21 4.32 4.752c.356.393.83.61 1.335.61.504 0 .98-.216 1.336-.61l5.42-5.962a4.64 4.64 0 0 0 .528-.71 5.03 5.03 0 0 0 .716-2.6 5.125 5.125 0 0 0-.323-1.79 4.855 4.855 0 0 0-.392-.808 4.612 4.612 0 0 0-.528-.71M3.963 9.959a3.548 3.548 0 0 1-.704-1.156 3.817 3.817 0 0 1-.245-1.364c0-.952.338-1.847.949-2.52a3.103 3.103 0 0 1 4.58 0l.7.769-1.679 1.866c-.147.163-.27.346-.369.55a2.545 2.545 0 0 0-.088 1.988c.08.211.187.407.32.585.132.178.285.33.459.459a1.95 1.95 0 0 0 1.174.394 2.02 2.02 0 0 0 1.5-.682l1.677-1.864 2.345 2.58-3.96 4.359c-.014.013-.03.018-.043.03a.837.837 0 0 1-1.197-.03L3.963 9.959m12.077 0-.742.817-2.348-2.585-.297-.327-.463-.502-2.39 2.654a1.04 1.04 0 0 1-.34.249.957.957 0 0 1-.8 0 1.04 1.04 0 0 1-.34-.25 1.158 1.158 0 0 1-.227-.374 1.243 1.243 0 0 1 .002-.882c.053-.141.129-.266.227-.374l1.868-2.074 1.27-1.39c.15-.165.313-.313.49-.442a3.141 3.141 0 0 1 1.168-.532 2.945 2.945 0 0 1 1.264 0 3.029 3.029 0 0 1 1.167.532 3.327 3.327 0 0 1 .893.982 3.826 3.826 0 0 1 .545 1.979 3.905 3.905 0 0 1-.246 1.363c-.081.217-.18.422-.299.616a3.516 3.516 0 0 1-.402.54z" fill-rule="evenodd" fill="#966000"/></svg>