<svg width="20" height="16" viewBox="0 0 20 16" fill="none" xmlns="http://www.w3.org/2000/svg"><path d="m14.004 3.115 3.78 3.968a.805.805 0 0 1 .163.25.703.703 0 0 1-.012.563.812.812 0 0 1-.174.246l-7.003 6.846a1.06 1.06 0 0 1-.545.273 1.175 1.175 0 0 1-.816-.15.936.936 0 0 1-.156-.123L2.239 8.142a.811.811 0 0 1-.174-.246.708.708 0 0 1-.012-.563.797.797 0 0 1 .164-.25l3.78-3.969c.094-.1.21-.176.347-.231a1.15 1.15 0 0 1 .434-.083h6.444c.152 0 .297.028.434.083a.979.979 0 0 1 .348.232m-.782.518H6.778L2.998 7.6 10 14.447 17.003 7.6l-3.78-3.968z" fill-rule="evenodd" fill="#966000"/><path d="M10 10.99a.847.847 0 0 1-.702-.385L7.407 8.537a.445.445 0 0 1 .086-.587.365.365 0 0 1 .538.094l1.89 2.068a.098.098 0 0 0 .078.04c.016 0 .056-.004.079-.04l1.891-2.068a.365.365 0 0 1 .538-.094.445.445 0 0 1 .086.587l-1.89 2.066a.847.847 0 0 1-.702.387z" fill-rule="evenodd" fill="#966000"/></svg>