<svg width="20" height="16" viewBox="0 0 20 16" fill="none" xmlns="http://www.w3.org/2000/svg"><path d="M16.737 2.8H3.263C2.547 2.8 2 3.34 2 4.048v9.984c0 .707.547 1.248 1.263 1.248h13.474c.716 0 1.263-.54 1.263-1.248V4.048c0-.707-.547-1.248-1.263-1.248m0 .832c.084 0 .126.042.21.042L9.79 8.666 3.053 3.674c.084 0 .126-.042.21-.042h13.474m0 10.816H3.263c-.252 0-.42-.166-.42-.416V4.506l6.694 4.95a.595.595 0 0 0 .252.083.594.594 0 0 0 .253-.083L17.2 4.464v9.568c-.042.25-.21.416-.463.416z" fill-rule="evenodd" fill="#966000"/></svg>