<svg width="105" height="52" viewBox="0 0 105 52" fill="none" preserveAspectRatio="none meet" xmlns="http://www.w3.org/2000/svg"><path d="M105 50V2.011a2 2 0 0 0-2-2H49.808c-4.787-.203-14.36 2.356-14.36 14.219 0 11.862-9.572 17.807-14.358 19.297C14.583 35.152 1.256 41.437 0 52h103a2 2 0 0 0 2-2z" fill-rule="evenodd" fill="#FFCE07" fill-opacity=".16"/><path d="M105 49.797V2a2 2 0 0 0-2-2H82.34c-2.992.61-10.455 1.828-16.38 1.828-7.401 0-13.46-1.016-13.46 8.938 0 9.953 2.468 30.468-15.032 24.375-4.487-1.22-13.058.406-11.442 16.656H103a2 2 0 0 0 2-2z" fill-rule="evenodd" fill="#FDB320" fill-opacity=".16"/><path d="M105 50V2a2 2 0 0 0-2-2H91.314c-3.066.068-9.199 2.397-9.199 11.172 0 10.969-6.057 16.047-14.807 12.594-7-2.763-9.648 1.828-10.097 4.469-1.121 7.244-6.55 20.84-19.294 17.265-12.744-3.575-21.8 2.911-24.792 6.5H103a2 2 0 0 0 2-2z" fill-rule="evenodd" fill="#F8982A" fill-opacity=".16"/><path d="M105 50V18.331c-6.207-1.38-20.462.828-27.82 20.703-.45.898-2.693 2.693-8.077 2.693C62.372 41.727 47.872 36.678 38 52h65a2 2 0 0 0 2-2z" fill-rule="evenodd" fill="#F58030" fill-opacity=".16"/><path d="M53 52h50a2 2 0 0 0 2-2V36c-4.936.552-15.391 1.49-17.724.828-2.917-.828-11.443-2.691-16.827 6.625C66.14 50.906 56.814 51.793 53 52z" fill-rule="evenodd" fill="#F05E34" fill-opacity=".16"/><path d="M105 28c-1.571.621-4.846 3.934-5.385 12.215-.538 8.281-7.104 8.005-10.32 6.832-5.086-1.38-16-1.672-17.795 4.953H103a2 2 0 0 0 2-2V28z" fill-rule="evenodd" fill="#EE4038" fill-opacity=".16"/></svg>