<svg width="105" height="52" viewBox="0 0 105 52" fill="none" xmlns="http://www.w3.org/2000/svg"><path d="M0 50V2.011a2 2 0 0 1 2-2h53.192c4.787-.203 14.36 2.356 14.36 14.219 0 11.862 9.572 17.807 14.358 19.297C90.417 35.152 103.744 41.437 105 52H2a2 2 0 0 1-2-2z" fill-rule="evenodd" fill="#FFCE07" fill-opacity=".16"/><path d="M0 49.797V2a2 2 0 0 1 2-2h20.66c2.992.61 10.455 1.828 16.378 1.828 7.404 0 13.462-1.016 13.462 8.938 0 9.953-2.468 30.468 15.032 24.375 4.487-1.22 13.058.406 11.442 16.656H2a2 2 0 0 1-2-2z" fill-rule="evenodd" fill="#FDB320" fill-opacity=".16"/><path d="M0 50V2a2 2 0 0 1 2-2h11.686c3.066.068 9.199 2.397 9.199 11.172 0 10.969 6.057 16.047 14.807 12.594 7-2.763 9.648 1.828 10.096 4.469 1.122 7.244 6.552 20.84 19.295 17.265 12.744-3.575 21.8 2.911 24.792 6.5H2a2 2 0 0 1-2-2z" fill-rule="evenodd" fill="#F8982A" fill-opacity=".16"/><path d="M0 50V18.331c6.207-1.38 20.462.828 27.82 20.703.45.898 2.693 2.693 8.078 2.693 6.73 0 21.23-5.049 31.102 10.273H2a2 2 0 0 1-2-2z" fill-rule="evenodd" fill="#F58030" fill-opacity=".16"/><path d="M52 52H2a2 2 0 0 1-2-2V36c4.936.552 15.391 1.49 17.724.828 2.917-.828 11.443-2.691 16.827 6.625C38.86 50.906 48.186 51.793 52 52z" fill-rule="evenodd" fill="#F05E34" fill-opacity=".16"/><path d="M0 28c1.57.621 4.846 3.934 5.385 12.215.538 8.281 7.104 8.005 10.32 6.832 5.086-1.38 16-1.672 17.795 4.953H2a2 2 0 0 1-2-2V28z" fill-rule="evenodd" fill="#EE4038" fill-opacity=".16"/></svg>