<svg xmlns="http://www.w3.org/2000/svg" width="12" height="12" viewBox="0 0 12 12" fill="none"><path d="M6 .667A5.34 5.34 0 0 1 11.333 6 5.34 5.34 0 0 1 6 11.333 5.34 5.34 0 0 1 .667 6 5.34 5.34 0 0 1 6 .667zM6 0C2.691 0 0 2.692 0 6s2.691 6 6 6c3.308 0 6-2.692 6-6S9.308 0 6 0z" fill="#966000"/><path d="M2.92 6a.6.6 0 0 0 .178.428.633.633 0 0 0 .197.132.603.603 0 0 0 .791-.328.614.614 0 0 0-.056-.569.613.613 0 0 0-.385-.257.606.606 0 0 0-.724.594zm2.474 0a.6.6 0 0 0 .27.504.617.617 0 0 0 .454.09A.61.61 0 0 0 6.605 6a.6.6 0 0 0-.269-.504.598.598 0 0 0-.454-.09.602.602 0 0 0-.476.476.6.6 0 0 0-.012.118zm2.474 0a.6.6 0 0 0 .269.504.617.617 0 0 0 .455.09A.61.61 0 0 0 9.079 6a.6.6 0 0 0-.177-.428A.606.606 0 0 0 7.868 6z" fill="#966000"/></svg>