<svg width="20" height="16" viewBox="0 0 20 16" fill="none" xmlns="http://www.w3.org/2000/svg"><path d="m14.004 2.302 3.78 3.816a.763.763 0 0 1 .163.24.653.653 0 0 1-.012.542.78.78 0 0 1-.174.236l-7.003 6.583a1.064 1.064 0 0 1-.545.262 1.23 1.23 0 0 1-.631-.055 1.059 1.059 0 0 1-.341-.207L2.239 7.136a.78.78 0 0 1-.174-.236.66.66 0 0 1-.012-.541.763.763 0 0 1 .164-.241l3.78-3.816a.979.979 0 0 1 .347-.223A1.19 1.19 0 0 1 6.778 2h6.444c.152 0 .297.026.434.08a.981.981 0 0 1 .348.222m-.782.499H6.778l-3.78 3.815L10 13.2l7.003-6.583-3.78-3.815z" fill-rule="evenodd" fill="#F08900"/><path d="M10 9.875a.856.856 0 0 1-.702-.37L7.406 7.516a.417.417 0 0 1 .087-.564.373.373 0 0 1 .538.09l1.89 1.989c.023.032.063.037.078.037s.056-.003.079-.037l1.891-1.989a.373.373 0 0 1 .538-.09c.173.13.211.383.086.564l-1.89 1.987a.856.856 0 0 1-.702.372z" fill-rule="evenodd" fill="#F08900"/></svg>