<svg width="20" height="18" viewBox="0 0 20 18" fill="none" xmlns="http://www.w3.org/2000/svg"><path d="M16.757 3.317a4.308 4.308 0 0 0-1.38-.973 4.086 4.086 0 0 0-1.627-.342 4.026 4.026 0 0 0-1.627.342 4.302 4.302 0 0 0-1.38.974l-.74.783-.743-.784a4.178 4.178 0 0 0-1.379-.977A3.986 3.986 0 0 0 6.253 2a3.984 3.984 0 0 0-1.628.34c-.52.228-.98.554-1.378.977A4.602 4.602 0 0 0 2 6.5c0 1.202.442 2.332 1.246 3.181l1.1 1.163 4.318 4.57c.357.378.831.586 1.336.586.504 0 .98-.207 1.336-.586l5.42-5.734a4.584 4.584 0 0 0 1.163-2.304A4.735 4.735 0 0 0 17.284 4a4.46 4.46 0 0 0-.528-.683M3.963 8.922a3.373 3.373 0 0 1-.704-1.111 3.546 3.546 0 0 1-.245-1.312c0-.915.338-1.776.949-2.423 1.223-1.294 3.356-1.294 4.58 0l.7.74L7.564 6.61a2.313 2.313 0 0 0-.577 1.146 2.358 2.358 0 0 0 .12 1.293 2.252 2.252 0 0 0 .779 1.005 2.057 2.057 0 0 0 1.174.379c.543 0 1.086-.22 1.5-.656l1.677-1.793 2.345 2.481-3.96 4.191c-.014.013-.03.018-.043.03a.86.86 0 0 1-1.197-.03L3.963 8.922m12.077 0-.742.786-2.348-2.485-.297-.315-.463-.483L9.8 8.977a1.036 1.036 0 0 1-.34.24.99.99 0 0 1-.8 0 1.037 1.037 0 0 1-.34-.24 1.156 1.156 0 0 1 .002-1.568l1.868-1.995 1.27-1.336a3.28 3.28 0 0 1 1.05-.742 3.108 3.108 0 0 1 1.24-.26 3.063 3.063 0 0 1 1.239.26 3.187 3.187 0 0 1 1.051.742 3.401 3.401 0 0 1 .701 1.112 3.58 3.58 0 0 1 .246 1.31 3.614 3.614 0 0 1-.246 1.311 3.5 3.5 0 0 1-.7 1.112z" fill-rule="evenodd" fill="#F08900"/></svg>