<svg width="84" height="50" viewBox="0 0 84 50" fill="none" xmlns="http://www.w3.org/2000/svg"><path d="M0 49.99V10.875l8.426 14.032L0 49.99z" fill-rule="evenodd" fill="#FF9812" fill-opacity=".6"/><path d="m0 49.991 8.427-25.083 12.64 8.42L0 49.99z" fill-rule="evenodd" fill="#FFAB3D" fill-opacity=".6"/><path d="m0 49.99 21.066-16.663 19.486 8.595L0 49.991z" fill-rule="evenodd" fill="#FFBA62" fill-opacity=".6"/><path d="m0 49.991 40.552-8.068-8.69 8.068H.001z" fill-rule="evenodd" fill="#FFAB3D" fill-opacity=".6"/><path d="m31.073 50 17.38-.01-7.9-8.068L31.073 50z" fill-rule="evenodd" fill="#FFC579" fill-opacity=".6"/><path d="M17.644 23.154 38.446 0H8.164L.001 5.964v4.911l8.427 14.033 9.216-1.754z" fill-rule="evenodd" fill="#FFB657" fill-opacity=".6"/><path d="m8.427 24.907 9.216-1.753 6.843 3.386-3.42 6.787-12.64-8.42z" fill-rule="evenodd" fill="#FFC983" fill-opacity=".6"/><path d="M17.643 23.154 38.445 0l9.217 22.979-30.019.175z" fill-rule="evenodd" fill="#FCC071" fill-opacity=".6"/><path d="m17.643 23.154 30.019-.175-26.595 10.349 3.16-6.666-6.584-3.508z" fill-rule="evenodd" fill="#FFC983" fill-opacity=".6"/><path d="m21.067 33.328 26.595-10.35 9.75 12.09-16.86 6.855-19.485-8.595z" fill-rule="evenodd" fill="#FFD196" fill-opacity=".6"/><path d="M.001 5.964V2a2 2 0 0 1 2-2h23.762L0 5.964z" fill-rule="evenodd" fill="#FF9812" fill-opacity=".6"/><path d="m40.553 41.923 7.9 8.068H84l-43.447-8.068z" fill-rule="evenodd" fill="#FFCD8C" fill-opacity=".6"/><path d="M40.553 41.922 84 49.99 57.405 35.08l-16.852 6.84z" fill-rule="evenodd" fill="#FFD8A6" fill-opacity=".6"/></svg>