<svg version="1.1" id="图层_1" xmlns="http://www.w3.org/2000/svg" x="0" y="0" viewBox="0 0 110.5 21.8" style="enable-background:new 0 0 110.5 21.8" xml:space="preserve"><style>.st0{fill-rule:evenodd;clip-rule:evenodd;fill:#9e6700}</style><path id="path" class="st0" d="m10.2 9 3.1 9.8L16.4 9h-6.2z"/><path id="path_1_" class="st0" d="M10.5 3.1H6.4L3.3 7.8h5.2l2-4.7z"/><path id="path_2_" class="st0" d="m16.8 7.8-2.1-4.7h-2.8L9.8 7.8h7z"/><path id="path_3_" class="st0" d="M3.5 9 7 13l4.6 5.2L8.4 9H3.5z"/><path id="path_4_" class="st0" d="m16.1 3.1 2.1 4.7h5.2l-3.2-4.7h-4.1z"/><path id="path_5_" class="st0" d="m15 18.1 6.1-6.9 2-2.2h-4.9L15 18.1z"/><path id="矢量_977" class="st0" d="M27.3 8.4c2.9-1.1 5.8-3 7.4-5.4l1.7.8c-.1.1-.2.3-.3.4 2.1 2.2 4.3 3.3 6.6 4.1-.5.4-1 1.1-1.2 1.6-2.2-1-4.3-2.1-6.5-4.4-1.8 2-4 3.5-6.4 4.5-.2-.5-.8-1.2-1.3-1.6zm34.9 1.3v1.1h3.1V18h-1.7v-5.6h-1.5c-.1 2.1-.5 4.2-1.4 5.7-.3-.4-.9-.9-1.3-1.2.9-1.9 1-5 1-7.2V3.5h1.7v3.8h1.1V3.1H65v4.2h1.1V9h-3.9v.7zm3.1 7.5c1.2-2.1 1.3-5.5 1.3-7.7V4.1c2.3-.2 4.9-.5 6.7-.9l1.1 1.7c-1.7.4-3.9.6-5.9.8v1.9h4.2l.3-.1 1.1.3c-.3 2.8-1 5-2 6.8.7.9 1.5 1.6 2.4 2.1-.4.3-1 1-1.3 1.5-.8-.5-1.6-1.2-2.2-2.1-.7.8-1.6 1.5-2.5 2.1-.2-.4-.6-1-1-1.4-.2.6-.4 1.1-.7 1.5-.3-.4-1-.9-1.5-1.1zm25.1-7.8V7.6h-3.5V6.3h2.8V4.5h-2.8V3.1h-1.8v1.4h-2.8v1.7h2.8v1.4h-3.7v1.8h5.5v1.4h-5.2v1.8h1.9l-1.3.8c.7.8 1.4 1.8 1.8 2.5l1.5-1c-.4-.7-1.2-1.7-1.8-2.4H87v3.3c0 .2-.1.3-.3.3h-1.9c.2.5.5 1.3.5 1.9 1.2 0 2 0 2.7-.3.6-.3.8-.8.8-1.8v-3.3h1.6v-1.8h-1.6V9.4h1.6zm5.5-.6c.6.5 2.3 2.1 2.7 2.5L97.5 13c-.4-.6-1-1.4-1.6-2.2V18H94v-6.4c-.5 1.5-1.1 2.9-1.8 3.8-.2-.5-.7-1.5-1.1-2 1.1-1.3 2-3.5 2.5-5.5h-2V6.3H94V3.1h1.9v3.2h1.8V8h-1.8v.8zm-14.6 1.8L80 11V8h1.2V6.2H80V3.1h-1.8v3.1h-.6c.1-.5.1-1.1.1-1.6l-1.5-.3c-.1 1.9-.4 4-.8 5.3.4.2 1.1.5 1.4.7.2-.5.4-1.4.5-2.3h.9v3.4c-1 .3-1.9.5-2.6.6l.4 1.9 2.2-.7v4.7H80v-5.3l1.4-.4-.1-1.6zM54 15.4v-3l1.5.7c.8-1.5 1.8-3.8 2.5-5.8l-1.7-.8c-.5 1.8-1.5 4.1-2.3 5.6V3.3h-2v12.1h-2V3.3h-2v12.1h-4.1v1.9h14.3v-1.9H54zm50.6-10.9.3-.1 1.2.4c-.5 3.8-1.5 6.7-3 9 .9 1.1 2 2 3.5 2.8-.5.4-1.1 1.1-1.4 1.6-1.4-.9-2.4-1.8-3.3-2.9-1.1 1.2-2.3 2-3.7 2.7-.3-.5-.8-1.2-1.2-1.6 1.4-.6 2.7-1.5 3.8-2.8-1.1-1.9-1.8-4.2-2.4-7.3l.5-.1H98V4.5h6.6zm-2.7 7.5c1-1.6 1.7-3.5 2.1-5.7h-3.9c.4 2.3 1 4.2 1.8 5.7zm-54 .4c-.4-1.5-1.3-4-2.1-5.9l-1.7.5c.7 2 1.6 4.5 1.9 6.1l1.9-.7zm-7.5.3h-4.3v3.2h5.7v1.7H28.2v-1.7H30v-5.6h1.9v5.6h2.2V7.7h2V11h4.3v1.7zm30.6 0c.5-1 .9-2.2 1.1-3.5h-2.4c.3 1.3.8 2.5 1.3 3.5zM68.4 10c0 2-.2 4.4-.8 6.4.9-.5 1.7-1.2 2.4-2.1-.7-1.2-1.2-2.7-1.6-4.3z"/></svg>