<svg width="44" height="14" viewBox="0 0 44 14" fill="none" xmlns="http://www.w3.org/2000/svg"><path d="M5.59 0h36.377a1.623 1.623 0 0 1 .59.11 1.795 1.795 0 0 1 .368.19 1.923 1.923 0 0 1 .332.278 2.277 2.277 0 0 1 .282.353 2.54 2.54 0 0 1 .221.415 2.914 2.914 0 0 1 .2.703 2.952 2.952 0 0 1 .04.496v8.91a3.007 3.007 0 0 1-.04.496 3.298 3.298 0 0 1-.115.478 2.916 2.916 0 0 1-.188.44 2.556 2.556 0 0 1-.253.386 2.29 2.29 0 0 1-.307.316 1.927 1.927 0 0 1-.54.32 1.723 1.723 0 0 1-.59.109H5.59a1.624 1.624 0 0 1-.59-.11 1.765 1.765 0 0 1-.368-.19 1.997 1.997 0 0 1-.332-.278 2.42 2.42 0 0 1-.503-.768 2.71 2.71 0 0 1-.152-.46 3.324 3.324 0 0 1-.078-.49 3.271 3.271 0 0 1-.01-.25V9.521L0 7.038l3.557-2.667V2.545a3.273 3.273 0 0 1 .088-.738 3.122 3.122 0 0 1 .152-.461 2.647 2.647 0 0 1 .355-.6A2.407 2.407 0 0 1 4.46.429a1.994 1.994 0 0 1 .352-.235 1.763 1.763 0 0 1 .579-.182A1.63 1.63 0 0 1 5.59 0z" fill="#F0AD4E"/><path d="M25.607 4.448h5.482V5.47h.595V3.849H28.86A8.452 8.452 0 0 0 28.4 3l-.57.157c.118.207.246.467.357.692h-3.158v1.62h.579v-1.02zm-9.744 1.231v.623H11.61c-.102.338-.205.66-.3.954h3.435l.104-.025.444.285a93.22 93.22 0 0 1-2.104 2.263c.51.224.96.45 1.294.666l-.356.555c-.771-.518-2.332-1.213-3.547-1.61l.333-.47c.523.156 1.11.374 1.69.607a61.495 61.495 0 0 0 1.57-1.664h-3.68c.158-.433.333-.98.515-1.561H9v-.623h2.189c.104-.338.2-.685.302-1.024H9.633v-.616h2.017c.095-.336.182-.675.262-.988l.594.097c-.08.277-.159.589-.238.891H15.3v.616h-3.206c-.103.339-.198.686-.3 1.024h4.07zM33.21 3.39h2.283v6.832c0 .347-.062.538-.269.65-.198.112-.515.12-1.056.12a1.958 1.958 0 0 0-.166-.613c.366.008.7.008.794 0 .11-.01.15-.045.15-.165V8.079H33.7c-.071 1.023-.238 2.106-.596 2.921a1.965 1.965 0 0 0-.482-.311c.545-1.213.587-2.93.587-4.205V3.389zm6.11 2.949.102-.017.34.129c-.206 1.179-.586 2.15-1.086 2.92.38.479.825.868 1.325 1.137a2.21 2.21 0 0 0-.382.493 4.922 4.922 0 0 1-1.284-1.168 4.783 4.783 0 0 1-1.2 1.109 2.208 2.208 0 0 0-.348-.476c.436-.26.849-.633 1.215-1.103-.446-.7-.794-1.534-1.056-2.428h-.2v4.058h-.554V3.415h3.348V5.08c0 .33-.072.494-.308.589-.256.087-.65.087-1.248.087a1.914 1.914 0 0 0-.19-.546c.485.008.897.008 1.016 0 .128 0 .158-.034.158-.138V4.014h-2.221v2.324h2.572zM23.464 3.45v1.803h-5.293v.72c0 1.456-.112 3.553-.92 4.958a1.988 1.988 0 0 0-.51-.313c.78-1.36.851-3.276.851-4.645V3.45h5.872zm-.58 1.282v-.77h-4.713v.77h4.713zm12.06.678V3.988h-1.198v1.423h1.199zm-4.817-.201-.102.027H27.67c.126-.174.254-.339.364-.512l-.635-.12c-.395.657-1.166 1.41-2.253 1.94a1.9 1.9 0 0 1 .397.46 7.114 7.114 0 0 0 1.238-.841c.292.364.643.694 1.038.997-.95.512-2.06.885-3.116 1.083.102.138.23.398.284.563.413-.095.833-.199 1.254-.338v2.514h.571v-.286h3.134v.278h.595V8.426c.358.104.73.19 1.104.244.087-.182.238-.46.372-.608-1.125-.156-2.189-.467-3.07-.918.643-.46 1.19-1.014 1.578-1.657l-.397-.277zm-8.87 3.337h2.332v1.865c0 .277-.046.406-.253.484-.182.087-.5.087-1 .087a1.954 1.954 0 0 0-.159-.46c.349.018.651.018.738.01.103-.01.128-.035.128-.121V9.006h-1.786v.67l.723-.026c-.08-.14-.16-.269-.231-.383l.35-.121c.26.373.563.885.706 1.187l-.366.157a7.954 7.954 0 0 0-.213-.409c-1.048.053-2.096.115-2.865.149l-.031-.485c.38-.01.864-.028 1.379-.044v-.695h-1.697V11h-.548V8.547h2.245v-.493h-1.927v-1.44h1.927v-.467c-.659.042-1.34.068-1.966.068a2.115 2.115 0 0 0-.12-.423c1.437-.026 3.198-.14 4.141-.33l.358.389a16.68 16.68 0 0 1-1.865.252v.512h1.984v1.439h-1.984v.493zm5.967-2.8h2.396c-.326.4-.754.756-1.246 1.084-.467-.311-.872-.659-1.182-1.048l.032-.036zm6.522.737c0 .296-.008.632-.016.98h1.215V6.006h-1.199v.477zm4.58 2.393a6.82 6.82 0 0 0 .792-1.943H37.46c.215.712.5 1.372.866 1.943zM19.322 7.021v.625h1.387V7.02h-1.387zm3.363.625V7.02h-1.428v.625h1.428zm3.913.694a10.43 10.43 0 0 0 1.769-.824 9.097 9.097 0 0 0 1.873.824h-3.642zm.213 1.803V8.886h3.134v1.257h-3.134z" fill-rule="evenodd" fill="#FFF"/></svg>