<svg width="22.471" height="20.528" viewBox="0 0 22.471 20.528" fill="none" xmlns="http://www.w3.org/2000/svg"><path d="m7.26 7.051 3.943 13.477 3.945-13.477H7.26z" fill-rule="evenodd" fill="url(#a)"/><path d="M8.091 0H3.548L0 5.642h5.78L8.092 0z" fill-rule="evenodd" fill="url(#b)"/><path d="M15.069 5.64 12.758 0H9.645l-2.31 5.642 7.734-.001z" fill-rule="evenodd" fill="url(#c)"/><path d="m.327 7.052 3.913 4.85c.01-.004 5.094 6.313 5.094 6.313L5.74 7.052H.327z" fill-rule="evenodd" fill="url(#d)"/><path d="m14.313 0 2.31 5.64 5.848.002L18.856 0h-4.544z" fill-rule="evenodd" fill="url(#e)"/><path d="m13.156 18.122 6.8-8.373c-.014-.006 2.179-2.697 2.179-2.697h-5.472l-3.507 11.07z" fill-rule="evenodd" fill="url(#f)"/><defs><linearGradient id="a" x1="11.204" y1="7.051" x2="11.204" y2="20.528" gradientUnits="userSpaceOnUse"><stop stop-color="#E8A936"/><stop offset=".496" stop-color="#E9C571"/><stop offset="1" stop-color="#B17726"/></linearGradient><linearGradient id="b" x1="4.046" y1="0" x2="4.046" y2="5.642" gradientUnits="userSpaceOnUse"><stop stop-color="#E8A936"/><stop offset=".496" stop-color="#E9C571"/><stop offset="1" stop-color="#B17726"/></linearGradient><linearGradient id="c" x1="11.202" y1="0" x2="11.202" y2="5.642" gradientUnits="userSpaceOnUse"><stop stop-color="#E8A936"/><stop offset=".496" stop-color="#E9C571"/><stop offset="1" stop-color="#B17726"/></linearGradient><linearGradient id="d" x1="4.831" y1="7.052" x2="4.831" y2="18.215" gradientUnits="userSpaceOnUse"><stop stop-color="#E8A936"/><stop offset=".496" stop-color="#E9C571"/><stop offset="1" stop-color="#B17726"/></linearGradient><linearGradient id="e" x1="18.392" y1="0" x2="18.392" y2="5.642" gradientUnits="userSpaceOnUse"><stop stop-color="#E8A936"/><stop offset=".496" stop-color="#E9C571"/><stop offset="1" stop-color="#B17726"/></linearGradient><linearGradient id="f" x1="17.645" y1="7.052" x2="17.645" y2="18.122" gradientUnits="userSpaceOnUse"><stop stop-color="#E8A936"/><stop offset=".496" stop-color="#E9C571"/><stop offset="1" stop-color="#B17726"/></linearGradient></defs></svg>