<svg width="1596" height="52.001" viewBox="0 0 1596 52.001" fill="none" preserveAspectRatio="none meet" xmlns="http://www.w3.org/2000/svg"><rect rx="2" width="1596" height="52" fill="#FFFBF1"/><path d="M1144.6 0h40.8c.39 1.603.6 3.277.6 5 0 11.598-9.4 21-21 21s-21-9.402-21-21c0-1.723.21-3.397.6-5zM817.015 0h38.971c.009.261.014.523.014.786C856 11.95 847.27 21 836.5 21 825.731 21 817 11.95 817 .786c0-.263.005-.525.015-.786zM575.014 0h38.972c.009.261.014.523.014.786C614 11.95 605.27 21 594.5 21S575 11.95 575 .786c0-.263.005-.525.014-.786zm757.136 52.001h-27.3a15.598 15.598 0 0 1-1.85-7.393c0-8.62 6.94-15.607 15.5-15.607 8.56 0 15.5 6.988 15.5 15.607 0 2.675-.67 5.193-1.85 7.393zM1448.26 0h33.48a18.954 18.954 0 0 1 2.26 9c0 10.494-8.51 19-19 19s-19-8.506-19-19c0-3.256.82-6.32 2.26-9zM993.683 52h-24.057A13.45 13.45 0 0 1 968 45.573c0-7.495 6.113-13.571 13.654-13.571 7.541 0 13.655 6.076 13.655 13.571A13.45 13.45 0 0 1 993.683 52zm-276.868 0h-24.056a13.45 13.45 0 0 1-1.626-6.428c0-7.495 6.113-13.571 13.654-13.571 7.541 0 13.654 6.076 13.654 13.571 0 2.326-.588 4.515-1.626 6.428zm-257.133 0h-24.056A13.45 13.45 0 0 1 434 45.573c0-7.495 6.113-13.571 13.654-13.571 7.541 0 13.654 6.076 13.654 13.571 0 2.326-.588 4.515-1.626 6.428z" clip-rule="evenodd" fill-rule="evenodd" fill="#FFF4D2" fill-opacity=".5"/></svg>