<svg width="68" height="62" viewBox="0 0 68 62" fill="none" xmlns="http://www.w3.org/2000/svg"><g filter="url(#a)"><path d="M28.924 0H64L4 54V22.304L28.924 0z" fill-rule="evenodd" fill="#D7262E"/></g><path d="m34.333 5.431.959 1.18-7.527 7.3a22.26 22.26 0 0 1 .283 3.411l4.818 5.924-1.212 1.175-3.757-4.62c-.098.908-.285 1.803-.491 2.667-.389-.107-1.25-.264-1.722-.266.699-2.198.902-4.56.661-6.914L23.3 18.241l-.96-1.179 3.722-3.61a38.535 38.535 0 0 0-.244-.935L24.701 13.6l-.877-1.079-2.978 2.889-.948-1.166 2.978-2.888-.784-.964 1.255-1.217.784.964 3.776-3.662-.799-.981L28.35 4.29l.798.982 2.948-2.859.947 1.166-2.947 2.858.866 1.065-1.242 1.204-.866-1.064-3.775 3.661.612.753-.14-.447 1.476-.849c.152.46.268.907.398 1.37l6.908-6.7zm-7.775 20.117-2.715 2.634-1.363-1.675 2.231-2.164-.948-1.165-2.23 2.163-1.318-1.62 2.244-2.176-.947-1.166-2.245 2.177-1.295-1.592 2.44-2.366-.982-1.207-2.772 2.69.513-1.131c-.617-.395-1.713-.833-2.621-1.07l-.734 1.526c.832.26 1.814.684 2.428 1.076l-2.342 2.271c-.25-.973-.568-1.912-.9-2.838l-1.493.866c1.068 2.674 1.682 5.739 1.521 8.234.283-.044.724-.02 1.116.01l-.87 1.477-2.056-2.529 1.473-1.43-.993-1.22-1.473 1.43-2.195-2.7-1.225 1.189 2.195 2.698-1.656 1.606.994 1.22 1.655-1.605 2.358 2.9c-.527.84-.983 1.61-1.376 2.222l1.33.999c.355-.6.723-1.235 1.11-1.914l2.702 3.323c.161.197.138.325-.04.498-.14.16-.665.67-1.226 1.164.48.192 1.106.627 1.423.928.868-.842 1.4-1.432 1.603-2.032.195-.574.02-1.063-.524-1.732l-3.038-3.736 1.093-1.897-.961-.849.29.023a17.207 17.207 0 0 0-.103-2.339l6.471 7.957 1.228-1.191-.764-.94 5.969-5.79-.982-1.207zm-8.478-1.84-2.066 2.004-1.295-1.592 2.066-2.004 1.295 1.592zm17.107-10.19 3.405-3.302.914 1.124-3.405 3.303 1.41 1.734c.497.61.643 1.027.335 1.655-.316.61-.965 1.264-1.944 2.213a5.474 5.474 0 0 0-1.325-.719c.726-.654 1.43-1.336 1.596-1.523.194-.213.229-.296.076-.483l-1.373-1.69-3.654 3.545-.914-1.124 3.654-3.544-.691-.85c.283-.71.554-1.53.731-2.342l-4.091 3.969-.843-1.037 5.32-5.16.175-.294 1.276-.096c-.151 1.294-.516 2.814-1.01 4.181l.358.44zM20.345 26.494l-2.066 2.004-1.318-1.62 2.066-2.003 1.318 1.62zm-1.118 3.17 2.066-2.004 1.362 1.675-2.066 2.004-1.362-1.675z" fill-rule="evenodd" fill="#FFF"/><defs><filter id="a" x="0" y="0" width="68" height="62" filterUnits="userSpaceOnUse" color-interpolation-filters="sRGB"><feFlood flood-opacity="0" result="BackgroundImageFix"/><feColorMatrix in="SourceAlpha" values="0 0 0 0 0 0 0 0 0 0 0 0 0 0 0 0 0 0 127 0"/><feOffset dy="4"/><feGaussianBlur stdDeviation="1.333"/><feColorMatrix values="0 0 0 0 0 0 0 0 0 0 0 0 0 0 0 0 0 0 0.25 0"/><feBlend in2="BackgroundImageFix" result="effect_dropShadow_1"/><feBlend in="SourceGraphic" in2="effect_dropShadow_1" result="shape"/></filter></defs></svg>