<svg width="20" height="18" viewBox="0 0 20 18" fill="none" xmlns="http://www.w3.org/2000/svg"><path d="m7.333 6.375 1.778 2.188m0 4.313V8.563l1.778-2.188" stroke="#F08900" stroke-linejoin="round"/><path d="M6.349 9h5.333m-5.333 1.75h5.333" stroke="#F08900" stroke-linecap="round"/><path d="M16.123 6.078c.4.93.6 1.904.6 2.922 0 .28-.22.5-.5.5s-.5-.22-.5-.5c0-.88-.174-1.723-.519-2.527a6.445 6.445 0 0 0-1.415-2.066A6.635 6.635 0 0 0 9.11 2.5a6.635 6.635 0 0 0-4.677 1.907 6.445 6.445 0 0 0-1.416 2.066A6.336 6.336 0 0 0 2.5 9c0 .88.173 1.723.518 2.527a6.444 6.444 0 0 0 1.416 2.066A6.634 6.634 0 0 0 9.112 15.5a6.65 6.65 0 0 0 2.533-.494.495.495 0 0 1 .651.274.495.495 0 0 1-.273.652 7.63 7.63 0 0 1-2.912.568 7.627 7.627 0 0 1-2.96-.588 7.559 7.559 0 0 1-2.419-1.606A7.436 7.436 0 0 1 1.5 9a7.436 7.436 0 0 1 2.232-5.306 7.558 7.558 0 0 1 2.419-1.606A7.626 7.626 0 0 1 9.11 1.5a7.63 7.63 0 0 1 5.38 2.194 7.437 7.437 0 0 1 1.632 2.384z" fill-rule="evenodd" fill="#F08900"/><path d="m14.444 8.125 1.778 1.75L18 8.125" stroke="#F08900" stroke-linecap="round"/></svg>