<svg width="71" height="50" viewBox="0 0 71 50" fill="none" xmlns="http://www.w3.org/2000/svg"><path d="M71 47.85V2a2 2 0 0 0-2-2h-6.626v15.76L71 47.85z" fill-rule="evenodd" fill="#A25B00" fill-opacity=".6"/><path d="m55.739 0 6.636 9.14L59.72 0h-3.98z" fill-rule="evenodd" fill="#CA7100" fill-opacity=".6"/><path d="m59.72 0 2.653 9.14V0H59.72z" fill-rule="evenodd" fill="#B06300" fill-opacity=".6"/><path d="M71 50v-5.72L62.372 9.139l-3.981 27.957-16.589 5.914-12.607 3.226L35.83 50H71z" fill-rule="evenodd" fill="#ED8600" fill-opacity=".6"/><path d="m22.56 50 6.636-3.764 7.3 3.764H22.56z" fill-rule="evenodd" fill="#FF9D06" fill-opacity=".6"/><path d="M9.29 50h13.673l6.234-3.764-13.935-11.828L5.31 48.387 9.29 50z" fill-rule="evenodd" fill="#FFBC66" fill-opacity=".6"/><path d="m5.308 48.387 9.954-13.978-2.655-12.366L0 32.796l5.308 15.591z" fill-rule="evenodd" fill="#FFDBAC" fill-opacity=".6"/><path d="m15.262 34.408 15.262-8.064-17.916-4.301 2.654 12.365z" fill-rule="evenodd" fill="#FFC985" fill-opacity=".6"/><path d="m15.261 34.408 13.935 11.828 12.607-3.225-11.28-16.667-15.262 8.064z" fill-rule="evenodd" fill="#FFAD41" fill-opacity=".6"/><path d="m30.524 26.344 11.28 16.667 16.589-5.914-27.87-10.753z" fill-rule="evenodd" fill="#FFA42D" fill-opacity=".6"/><path d="m30.524 26.344 27.868 10.753L62.374 9.14l-31.85 17.204z" fill-rule="evenodd" fill="#FF9812" fill-opacity=".6"/><path d="M30.523 26.344 62.373 9.14l-42.467-.538 10.617 17.742z" fill-rule="evenodd" fill="#FCAA3F" fill-opacity=".6"/><path d="m30.523 26.344-17.915-4.3-.664-5.377 7.963-8.065 10.616 17.742z" fill-rule="evenodd" fill="#FFC275" fill-opacity=".6"/><path d="M11.944 5.914v10.753l7.963-8.065-7.963-2.688z" fill-rule="evenodd" fill="#FFD39D" fill-opacity=".6"/><path d="m11.944 5.914 7.963 2.688L23.224 0h-3.981l-7.299 5.914z" fill-rule="evenodd" fill="#FFC884" fill-opacity=".6"/><path d="M19.906 8.602 23.224 0h12.607l26.542 9.14-42.467-.538z" fill-rule="evenodd" fill="#FDB352" fill-opacity=".6"/><path d="m35.831 0 26.542 9.14L55.737 0H35.831z" fill-rule="evenodd" fill="#E78F20" fill-opacity=".6"/><path d="M9.29 50H1.173l4.134-1.613L9.29 50z" fill-rule="evenodd" fill="#FFC884" fill-opacity=".6"/></svg>