<svg width="22" height="22" viewBox="0 0 22 22" fill="none" xmlns="http://www.w3.org/2000/svg"><path d="M8.654 8.627 2 15.061l3.676.492L3.238 20l6.408-6.334-3.058-.618 2.066-4.42z" fill-rule="evenodd" fill="#F08900"/><path d="M5.707 6.12A7.376 7.376 0 0 0 5.1 9.049v.52h1v-.5c0-.89.175-1.741.525-2.554A6.513 6.513 0 0 1 8.06 4.427 6.74 6.74 0 0 1 12.8 2.5a6.741 6.741 0 0 1 4.742 1.927 6.514 6.514 0 0 1 1.434 2.088c.35.813.525 1.664.525 2.554 0 .89-.175 1.741-.525 2.554a6.514 6.514 0 0 1-1.434 2.088 6.742 6.742 0 0 1-4.74 1.927c-.895 0-1.75-.166-2.569-.5l-.463-.188-.377.926.463.189.019.007a7.735 7.735 0 0 0 2.926.566 7.73 7.73 0 0 0 2.994-.594 7.646 7.646 0 0 0 2.447-1.62 7.504 7.504 0 0 0 1.652-2.406A7.378 7.378 0 0 0 20.5 9.07c0-1.028-.202-2.01-.607-2.95a7.505 7.505 0 0 0-1.652-2.405 7.648 7.648 0 0 0-2.447-1.62A7.732 7.732 0 0 0 12.8 1.5a7.732 7.732 0 0 0-2.994.594 7.647 7.647 0 0 0-2.447 1.62A7.502 7.502 0 0 0 5.707 6.12z" fill-rule="evenodd" fill="#F08900"/><path d="M11.9 5.976v3.918a.5.5 0 0 0 .5.5h3.1" stroke="#F08900" stroke-linecap="round"/></svg>