<svg width="40.000000" height="40.000000" viewBox="0 0 40 40" fill="none" xmlns="http://www.w3.org/2000/svg" xmlns:xlink="http://www.w3.org/1999/xlink">
	<desc>
			Created with Pixso.
	</desc>
	<defs/>
	<path id="docker" d="M21.07 19.17L18.8 19.17L18.8 16.81L21.07 16.81L21.07 19.17ZM21.07 11L18.8 11L18.8 13.44L21.07 13.44L21.07 11ZM23.76 16.81L21.49 16.81L21.49 19.17L23.76 19.17L23.76 16.81ZM18.38 13.92L16.11 13.92L16.11 16.33L18.38 16.33L18.38 13.92ZM21.07 13.92L18.8 13.92L18.8 16.33L21.07 16.33L21.07 13.92ZM30.62 17.93C30.13 17.53 28.96 17.41 28.1 17.61C28 16.65 27.52 15.81 26.69 15.04L26.21 14.68L25.9 15.24C25.28 16.37 25.1 18.21 25.76 19.41C25.45 19.61 24.86 19.85 24.1 19.85L9.08 19.85C8.77 21.9 9.29 24.55 10.6 26.35C11.87 28.11 13.8 29 16.28 29C21.69 29 25.72 26.11 27.58 20.82C28.31 20.82 29.93 20.82 30.72 19.01C30.75 18.93 30.96 18.49 31 18.33L30.62 17.93ZM13.01 16.81L10.74 16.81L10.74 19.17L13.01 19.17L13.01 16.81ZM15.7 16.81L13.42 16.81L13.42 19.17L15.7 19.17L15.7 16.81ZM18.38 16.81L16.11 16.81L16.11 19.17L18.38 19.17L18.38 16.81ZM15.7 13.92L13.42 13.92L13.42 16.33L15.7 16.33L15.7 13.92Z" fill="#2A97EA" fill-opacity="1.000000" fill-rule="nonzero"/>
</svg>
