<svg width="40" height="40" viewBox="0 0 40 40" fill="none" xmlns="http://www.w3.org/2000/svg"><path d="M30.99 20.11c-.02 1.42-.33 2.83-.95 4.23-.6 1.38-1.39 2.55-2.39 3.52-1.01.99-2.23 1.76-3.65 2.33-1.43.56-2.85.83-4.26.8-1.38-.02-2.76-.33-4.13-.93-1.41-.6-2.6-1.42-3.57-2.44-.96-.99-1.71-2.19-2.25-3.58-.55-1.39-.81-2.78-.79-4.16.02-1.42.33-2.83.95-4.23.6-1.38 1.39-2.55 2.39-3.52 1.01-.99 2.23-1.76 3.65-2.33 1.43-.56 2.84-.83 4.25-.8 1.38.02 2.76.33 4.13.92.38.16.55.59.38.97a.73.73 0 0 1-.97.4c-1.18-.51-2.37-.78-3.56-.8-1.22-.03-2.45.21-3.68.7-1.24.49-2.3 1.16-3.17 2.02-.86.83-1.55 1.85-2.07 3.03-.53 1.22-.8 2.44-.82 3.66-.02 1.2.21 2.39.68 3.6.47 1.2 1.12 2.23 1.94 3.09.85.88 1.88 1.58 3.09 2.11 1.19.51 2.38.78 3.57.8 1.23.03 2.46-.21 3.69-.7 1.24-.49 2.3-1.16 3.18-2.02.85-.83 1.54-1.85 2.06-3.03.53-1.22.8-2.44.82-3.66.02-1.2-.21-2.4-.68-3.6-.15-.38.03-.81.42-.96.38-.15.8.03.96.42.54 1.39.8 2.78.78 4.16z" fill="#B4EFF0" fill-rule="evenodd"/><path d="M13.02 29.3c-.05-.03-.09-.07-.1-.11-.15-.16-.16-.3-.02-.43l5.17-6.64-5.33-2.94c-.01-.01-.02-.01-.02-.02-.21-.12-.22-.47-.01-.6.02-.01.04-.02.07-.03l14.73-6.36c.06-.03.11-.05.15-.05.21-.02.38.26.33.46-.03.1-.09.17-.16.25l-5.71 6.54 4.7 2.59c.08.05.14.11.17.18.03.08.02.19-.03.27-.07.16-.23.27-.38.34l-13.22 6.58c-.12.03-.24.02-.34-.03z" fill="#FFDF4F"/><path d="M12.59 29.41c.05.09.14.18.24.23.09.05.18.08.28.1.12.02.24.01.36-.03l13.28-6.6c.28-.14.46-.31.57-.52.03-.06.05-.12.06-.19.01-.08.02-.24 0-.31 0-.04-.02-.07-.03-.11-.02-.04-.04-.09-.07-.13a.868.868 0 0 0-.27-.23l-4.27-2.36 5.39-6.17c.05-.06.09-.11.12-.16.06-.08.1-.16.12-.25.01-.09.03-.25.01-.34-.02-.05-.03-.1-.05-.15a.638.638 0 0 0-.08-.14.77.77 0 0 0-.19-.21.904.904 0 0 0-.27-.11c-.05-.01-.11-.01-.17-.01-.09.01-.19.04-.28.09l-14.71 6.35c-.05.02-.09.04-.13.06-.05.03-.09.07-.13.11-.06.05-.1.12-.13.19-.02.04-.04.08-.05.11-.02.08-.03.16-.03.24.01.07.02.15.04.21.01.05.03.09.05.13.04.07.08.14.13.19.04.04.09.07.13.1l4.96 2.74-4.87 6.26c-.09.09-.15.19-.18.3-.01.06-.02.12-.02.19.03.12.09.31.19.42zm.68-.48 5.4-6.93L13 18.87l14.5-6.26-6 6.87 5.08 2.8c-.04.04-.1.08-.18.12l-13.13 6.53z" fill="#B0D4D8" fill-rule="evenodd"/></svg>