<svg width="22" height="24" viewBox="0 0 22 24" fill="none" xmlns="http://www.w3.org/2000/svg"><path d="M10.806 12.483c-.595-1.432-2.577-2.702 0-4.917C14.003 4.783 12.367 3 12.367 3c.67 2.864-2.329 3.728-3.42 5.484-.743 1.216.348 2.513 1.86 3.999zm3.543-5.944s-5.426 1.486-2.824 4.728c.768.946-.199 1.81-.199 1.81s1.933-1.08 1.041-2.458c-.842-1.27-1.462-1.892 1.982-4.08z" fill="#F79927"/><path d="M13.322 14.331c.297-.215.717-.43.717-.43s-1.187.242-2.373.35c-1.459.134-3.016.161-3.807.053-1.854-.269 1.013-1.022 1.013-1.022s-1.112-.08-2.496.646c-1.632.86 4.004 1.237 6.946.403zm.692 2.099c3.955-1.13 2.447-3.928.569-3.202-.1.054-.198.108-.248.216.1-.054.223-.081.347-.108.939-.215 2.323 1.399-.668 3.094zm1.459 2.098s.445.404-.495.7c-1.78.591-7.44.753-8.998.026-.568-.269.495-.645.816-.726.346-.08.544-.054.544-.054-.618-.484-4.054.942-1.73 1.346 6.303 1.13 11.519-.485 9.863-1.292zM8.576 17.13c-2.423.727 1.483 2.26 4.573.834a9.042 9.042 0 0 1-.865-.457c-1.385.296-2.027.296-3.263.161-1.063-.161-.445-.538-.445-.538zm5.562 3.255c-2.423.485-5.439.43-7.218.108 0 0 .37.323 2.224.457 2.843.189 7.219-.107 7.317-1.587.025.027-.173.592-2.323 1.023zm-1.36-4.707c-1.83.376-2.892.376-4.227.215-1.038-.108-.346-.673-.346-.673-2.67.969 1.483 2.072 5.24.861-.247-.054-.469-.215-.667-.403z" fill="#248CC6"/></svg>