<svg width="40" height="40" viewBox="0 0 40 40" fill="none" xmlns="http://www.w3.org/2000/svg"><defs><linearGradient id="a" x1="28.935" y1="5" x2="9" y2="35" gradientUnits="userSpaceOnUse"><stop stop-color="#EB8F1D"/><stop offset=".288" stop-color="#D14C28"/><stop offset=".498" stop-color="#C42033"/><stop offset=".752" stop-color="#792272"/></linearGradient></defs><path d="M28.49 5c-.266 0-.513.048-.74.143-.69.277-1.84 1.063-3.21 2.203l-.286.24a52.568 52.568 0 0 0-4.828 4.705l-.04.045-.08.09a49.968 49.968 0 0 0-3.138 3.852 27.931 27.931 0 0 0-2.019 3.196c-.167.314-.32.617-.459.908-.114.249-.224.497-.327.745a17.424 17.424 0 0 0-.627 1.748l-.023.078a12.31 12.31 0 0 0-.427 2.115l-.01.074c-.513-.561-1.888-1.107-1.886-1.102.985.972 1.732 1.937 1.843 2.885-.527.073-1.25-.033-2.086-.243.87.545 1.524.695 1.779.735-.8.034-1.632.409-2.47.839 1.226-.341 2.217-.475 2.927-.366A131.295 131.295 0 0 0 9 35c.34-.066.562-.213.668-.443.202-.46 1.537-3.482 3.63-7.455l.18-.341.05-.095c.22-.416.45-.841.687-1.275l.163-.296-1.105-1.498 1.105 1.498c.219-.397.445-.805.674-1.212l.096-.17.097-.171.075-.13-.075.13-.097.171-.096.17c-.23.407-.455.815-.674 1.212l.199.252.172-.012.019-.035c.28-.522.558-1.03.833-1.526l.01-.017a92.91 92.91 0 0 0-.843 1.543l-.019.035-.12.228c-.217.407-.436.82-.654 1.242l-.01.018-.093.18c-.147.284-.275.54-.567 1.123.482.15.87.545 1.237.992-.037-.491-.322-.903-.856-1.236 2.38.073 4.43-.336 5.49-1.521.096-.106.183-.216.26-.335-.481.416-1.08.592-2.203.549 1.656-.505 2.485-.99 3.22-1.792.185-.204.357-.414.515-.629-1.448 1.013-3.124 1.3-4.892 1.082l-.079-.009c1.585-.134 3.69-.94 5.052-1.935.628-.459 1.197-1 1.724-1.633.393-.47.76-.993 1.11-1.572.307-.505.6-1.053.885-1.646a6.59 6.59 0 0 1-1.487.326c-.084.01-.168.019-.253.027a7.552 7.552 0 0 0 .5-.061l-.247.034-.253.027c1.472-.387 2.414-1.136 3.09-2.049a6.688 6.688 0 0 1-2.091.57l-.08.007.08-.008c.096-.01.19-.023.286-.037l.027-.002-.027.002-.365.045c.51-.146.947-.313 1.321-.505.276-.146.527-.309.755-.489.147-.119.284-.248.413-.387l.117-.13.142-.19c.252-.347.477-.702.675-1.064l.057-.11c.051-.107.095-.202.128-.284.05-.124.081-.223.098-.295-.055.03-.112.056-.173.08-.446.181-1.211.346-1.828.424l-.182.013-4.163.313-.022.03-.141.197-.432.61-.08.117.08-.117c.145-.207.288-.41.432-.61l.141-.197c.007-.011.016-.019.022-.03l-.154.009-.123-.165a62.4 62.4 0 0 0-.694.953l-.375.53a80.234 80.234 0 0 0-2.004 3.008 109.867 109.867 0 0 0-1.984 3.254l.157-.27c.59-1 1.2-1.995 1.827-2.984a81.398 81.398 0 0 1 2.005-3.008l.374-.53c.217-.305.435-.607.657-.906l.037-.047c.35-.473.705-.938 1.063-1.395a46.429 46.429 0 0 1 2.395-2.826l.074-.08c.41-.442.826-.868 1.242-1.276A24.901 24.901 0 0 1 28.6 6.591l-.106.078c-.294.22-1.182.926-2.524 2.329 1.292-.044 3.276-.224 4.895-.413.481-1.837-.471-2.677-.471-2.677s-.823-.9-1.902-.908zm-3.019 9.385c1.212-.38 1.75-.725 2.275-1.22a17.427 17.427 0 0 0 1.641-1.881c.361-.481.68-.957.925-1.388a5.306 5.306 0 0 0 .553-1.311c-1.621.188-3.604.37-4.896.413a38.81 38.81 0 0 0-1.283 1.401 52.61 52.61 0 0 0-1.194 1.421 59.379 59.379 0 0 0-2.184 2.878l4.163-.313zm.147-.01-.187.02.187-.02zm-.147.01-.04.01.04-.01zm-5.048 1.557-.194.284-.244.358a85.669 85.669 0 0 0-1.691 2.607 100.275 100.275 0 0 0-1.834 3.057c-.272.473-.547.956-.824 1.454l-.01.017a83.68 83.68 0 0 1 4.359-7.135l.244-.358.194-.284z" fill="url(#a)"/></svg>