<svg width="40" height="40" viewBox="0 0 40 40" fill="none" xmlns="http://www.w3.org/2000/svg"><path d="M9.853 24.286H9v-7.33h3.876v.78H9.853v2.48h2.565v.779H9.853v3.29zm5.608 0h.853v-6.55h2.037v-.78h-4.924v.78h2.034v6.55zm4.943 0h-.853v-7.33h1.916c1.513 0 2.52.55 2.52 2.15 0 1.55-1.007 2.27-2.475 2.27h-1.108v2.91zm0-6.58v2.92h.998c1.182 0 1.741-.471 1.741-1.52 0-1.06-.595-1.4-1.777-1.4h-.962z" fill-rule="evenodd" fill="#555"/><path d="M28.326 20.755c-.927 0-1.656.15-2.188.45a1.782 1.782 0 0 0-.718.706c-.177.33-.25.739-.22 1.228a1.44 1.44 0 0 0 .287.712.833.833 0 0 0 .306.24.694.694 0 0 0 .287.06.865.865 0 0 0 .52-.203c.256-.197.48-.514.671-.952l.663.38c-.25.572-.556.998-.921 1.278a1.702 1.702 0 0 1-.55.288 1.373 1.373 0 0 1-.56.047 1.346 1.346 0 0 1-.521-.18 1.68 1.68 0 0 1-.434-.375 2.626 2.626 0 0 1-.314-.533 2.567 2.567 0 0 1-.17-.654c-.04-.623.045-1.196.263-1.66a2.65 2.65 0 0 1 .116-.218 2.57 2.57 0 0 1 .968-.927c.634-.358 1.473-.537 2.515-.537v.85z" fill-rule="evenodd" fill="#E32523"/><path d="M30.873 15.614c-1.781 3.381-5.601 10.992.127 7.01-.98 1.474-4.044 3.541-3.676 0 .231-2.223 1.55-4.445 2.932-7.408.12-.258.433-.292.592-.063a.453.453 0 0 1 .025.46z" fill-rule="evenodd" fill="#E32523"/></svg>