<svg width="40.000000" height="40.000000" viewBox="0 0 40 40" fill="none" xmlns="http://www.w3.org/2000/svg" xmlns:xlink="http://www.w3.org/1999/xlink">
	<desc>
			Created with Pixso.
	</desc>
	<defs/>
	<path id="path" d="M30.36 19.8L30.35 21.86L21.37 27.14L21.37 25.09L30.36 19.8ZM18.63 25.09L18.62 27.14L9.58 21.86L9.59 19.8C12.57 21.53 15.59 23.29 18.63 25.09ZM21.37 25.09L21.37 27.14C20.61 27.59 19.38 27.59 18.62 27.14L18.63 25.09C19.39 25.53 20.62 25.53 21.37 25.09Z" fill="#000000" fill-opacity="1.000000" fill-rule="nonzero"/>
	<path id="path" d="M30.36 19.8L30.35 21.86L21.37 27.14L21.37 25.09L30.36 19.8ZM18.63 25.09L18.62 27.14L9.58 21.86L9.59 19.8C12.57 21.53 15.59 23.29 18.63 25.09ZM21.37 25.09L21.37 27.14C20.61 27.59 19.38 27.59 18.62 27.14L18.63 25.09C19.39 25.53 20.62 25.53 21.37 25.09Z" fill="#000000" fill-opacity="1.000000" fill-rule="nonzero"/>
	<path id="path" d="M30.92 19.01C30.92 19.69 30.92 20.38 30.91 21.06C30.91 21.35 30.73 21.64 30.35 21.86L30.36 19.8C30.73 19.58 30.92 19.3 30.92 19.01ZM9.01 21.05L9.01 19C9.01 19.29 9.2 19.58 9.59 19.8L9.58 21.86C9.2 21.64 9.01 21.35 9.01 21.05Z" fill="#910D06" fill-opacity="1.000000" fill-rule="nonzero"/>
	<path id="path" d="M30.36 19.8L30.35 21.86L21.37 27.14L21.37 25.09L30.36 19.8ZM18.63 25.09L18.62 27.14L9.58 21.86L9.59 19.8C12.57 21.53 15.59 23.29 18.63 25.09ZM21.37 25.09L21.37 27.14C20.61 27.59 19.38 27.59 18.62 27.14L18.63 25.09C19.39 25.53 20.62 25.53 21.37 25.09Z" fill="#910D06" fill-opacity="1.000000" fill-rule="nonzero"/>
	<path id="path" d="M30.36 16.23L30.35 18.28L21.37 23.57L21.37 21.51L30.36 16.23ZM18.63 21.51L18.62 23.57L9.58 18.28L9.59 16.23C12.57 17.96 15.59 19.72 18.63 21.51ZM21.37 21.51L21.37 23.57C20.61 24.01 19.38 24.01 18.62 23.57L18.63 21.51C19.39 21.95 20.62 21.95 21.37 21.51Z" fill="#000000" fill-opacity="1.000000" fill-rule="nonzero"/>
	<path id="path" d="M30.36 16.23L30.35 18.28L21.37 23.57L21.37 21.51L30.36 16.23ZM18.63 21.51L18.62 23.57L9.58 18.28L9.59 16.23C12.57 17.96 15.59 19.72 18.63 21.51ZM21.37 21.51L21.37 23.57C20.61 24.01 19.38 24.01 18.62 23.57L18.63 21.51C19.39 21.95 20.62 21.95 21.37 21.51Z" fill="#000000" fill-opacity="1.000000" fill-rule="nonzero"/>
	<path id="path" d="M30.92 15.43C30.92 16.11 30.92 16.8 30.91 17.49C30.91 17.78 30.73 18.06 30.35 18.28L30.36 16.23C30.73 16.01 30.92 15.72 30.92 15.43ZM9.01 17.47L9.01 15.42C9.01 15.71 9.2 16 9.59 16.23L9.58 18.28C9.2 18.06 9.01 17.77 9.01 17.47Z" fill="#910D06" fill-opacity="1.000000" fill-rule="nonzero"/>
	<path id="path" d="M30.36 16.23L30.35 18.28L21.37 23.57L21.37 21.51L30.36 16.23ZM18.63 21.51L18.62 23.57L9.58 18.28L9.59 16.23C12.57 17.96 15.59 19.72 18.63 21.51ZM21.37 21.51L21.37 23.57C20.61 24.01 19.38 24.01 18.62 23.57L18.63 21.51C19.39 21.95 20.62 21.95 21.37 21.51Z" fill="#910D06" fill-opacity="1.000000" fill-rule="nonzero"/>
	<path id="path" d="M30.92 22.58C30.92 23.26 30.92 23.95 30.91 24.63C30.91 24.92 30.73 25.21 30.35 25.43L30.36 23.37C30.73 23.15 30.92 22.87 30.92 22.58ZM9.01 24.62L9.01 22.56C9.01 22.86 9.2 23.15 9.59 23.37L9.58 25.43C9.2 25.21 9.01 24.91 9.01 24.62Z" fill="#910D06" fill-opacity="1.000000" fill-rule="nonzero"/>
	<path id="path" d="M30.92 22.58C30.92 23.26 30.92 23.95 30.91 24.63C30.91 24.92 30.73 25.21 30.35 25.43L30.36 23.37C30.73 23.15 30.92 22.87 30.92 22.58ZM9.01 24.62L9.01 22.56C9.01 22.86 9.2 23.15 9.59 23.37L9.58 25.43C9.2 25.21 9.01 24.91 9.01 24.62Z" fill="#910D06" fill-opacity="1.000000" fill-rule="nonzero"/>
	<path id="path" d="M30.92 22.58C30.92 23.26 30.92 23.95 30.91 24.63C30.91 24.92 30.73 25.21 30.35 25.43L30.36 23.37C30.73 23.15 30.92 22.87 30.92 22.58ZM9.01 24.62L9.01 22.56C9.01 22.86 9.2 23.15 9.59 23.37L9.58 25.43C9.2 25.21 9.01 24.91 9.01 24.62Z" fill="#910D06" fill-opacity="1.000000" fill-rule="nonzero"/>
	<path id="path" d="M30.36 23.37L30.35 25.43L21.37 30.71L21.37 28.66L30.36 23.37ZM18.63 28.66L18.62 30.71L9.58 25.43L9.59 23.37L18.63 28.66ZM21.37 28.66L21.37 30.71C20.61 31.16 19.38 31.16 18.62 30.71L18.63 28.66C19.39 29.1 20.62 29.1 21.37 28.66Z" fill="#910D06" fill-opacity="1.000000" fill-rule="nonzero"/>
	<path id="path" d="M30.36 23.37L30.35 25.43L21.37 30.71L21.37 28.66L30.36 23.37ZM18.63 28.66L18.62 30.71L9.58 25.43L9.59 23.37L18.63 28.66ZM21.37 28.66L21.37 30.71C20.61 31.16 19.38 31.16 18.62 30.71L18.63 28.66C19.39 29.1 20.62 29.1 21.37 28.66Z" fill="#910D06" fill-opacity="1.000000" fill-rule="nonzero"/>
	<path id="path" d="M30.36 23.37L30.35 25.43L21.37 30.71L21.37 28.66L30.36 23.37ZM18.63 28.66L18.62 30.71L9.58 25.43L9.59 23.37L18.63 28.66ZM21.37 28.66L21.37 30.71C20.61 31.16 19.38 31.16 18.62 30.71L18.63 28.66C19.39 29.1 20.62 29.1 21.37 28.66Z" fill="#910D06" fill-opacity="1.000000" fill-rule="nonzero"/>
	<path id="path" d="M30.36 16.22L30.35 18.28L21.37 23.56L21.37 21.5L30.36 16.22ZM18.63 21.5L18.62 23.56L9.58 18.28L9.59 16.22L18.63 21.5ZM21.37 21.5L21.37 23.56C20.61 24 19.38 24 18.62 23.56L18.63 21.5C19.39 21.95 20.62 21.95 21.37 21.5Z" fill="#910D06" fill-opacity="1.000000" fill-rule="nonzero"/>
	<path id="path" d="M30.92 15.42C30.92 16.11 30.92 16.79 30.91 17.48C30.91 17.77 30.73 18.06 30.35 18.28L30.36 16.22C30.73 16 30.92 15.71 30.92 15.42ZM9.01 17.47L9.01 15.41C9.01 15.7 9.2 16 9.59 16.22L9.58 18.28C9.2 18.05 9.01 17.76 9.01 17.47Z" fill="#910D06" fill-opacity="1.000000" fill-rule="nonzero"/>
	<path id="path" d="M30.47 14.81L21.23 9.31C20.52 8.89 19.39 8.89 18.7 9.31L9.51 14.81C8.82 15.22 8.82 15.9 9.52 16.31L18.67 21.79C19.37 22.2 20.74 22.23 21.43 21.81C24.49 19.98 27.41 18.55 30.48 16.72C31.17 16.3 31.17 15.22 30.47 14.81ZM18.16 11.12L19.72 11.63L21.27 10.69L20.77 12.02L22.25 12.63L20.38 12.94L19.74 14.26L19.08 13.12L17.21 13.33L18.67 12.31L18.16 11.12ZM13.58 15.79C13.25 15.59 13.03 15.32 12.98 15.02C12.86 14.33 13.7 13.72 14.86 13.66C15.51 13.62 16.12 13.76 16.55 14.02C16.88 14.22 17.1 14.48 17.15 14.78C17.27 15.47 16.43 16.08 15.27 16.15C14.62 16.19 14.01 16.04 13.58 15.79ZM20.29 20.21L16.21 17.79L21.76 16.9L20.29 20.21ZM24.37 17.38L21 15.38L24.35 13.38L27.72 15.38L24.37 17.38Z" fill="#CB1715" fill-opacity="1.000000" fill-rule="nonzero"/>
</svg>
