<svg width="40" height="40" viewBox="0 0 40 40" fill="none" xmlns="http://www.w3.org/2000/svg"><path d="M14.054 12.92v12.314H9l5.054-12.314zm7.73-3.723v15.465l-6.838.572 6.838-16.037zm1.486 7.16v8.018h5.054l-5.054-8.018z" fill-rule="evenodd" fill="#F19E25"/><path d="m24.757 12.06-.595 7.16 6.243 2.864-5.648-10.023z" fill-rule="evenodd" fill="#F19E25"/><path d="M18.81 9h-3.27v.967h3.27V9zM20 10.718h-3.27v.967H20v-.967zm-4.121 18.749-5.163.53a.487.487 0 0 0-.448.532c.028.27.268.46.547.43l5.163-.53a.487.487 0 0 0 .447-.532.487.487 0 0 0-.546-.43z" fill-rule="evenodd" fill="#A2A2AD"/><path d="m9 26.093 22-2.004-5.351 4.296-14.568.859L9 26.094z" fill-rule="evenodd" fill="#65689B"/><path d="m26.457 27.991-4.5.987a.487.487 0 0 0-.385.58.487.487 0 0 0 .592.366l4.5-.987a.487.487 0 0 0 .384-.58.487.487 0 0 0-.59-.366z" fill-rule="evenodd" fill="#A2A2AD"/></svg>