<svg width="40" height="40" viewBox="0 0 40 40" fill="none" xmlns="http://www.w3.org/2000/svg"><path d="M17.13 23.462h1.934l.848-4.498c.455-.393.759-.604 1.194-.604.493 0 .67.271.497 1.194l-.737 3.909h1.944l.786-4.17c.317-1.68-.063-2.734-1.418-2.734-.842 0-1.54.462-2.072.91l.313-1.194.429-2.275h-1.933l-1.784 9.462zM10.955 26H9l1.66-8.81h2.85c1.793 0 3.138.686 2.727 2.866-.395 2.096-2.065 3.018-3.78 3.018h-.951L10.954 26zm14.69 0H23.69l1.66-8.81h2.85c1.792 0 3.138.686 2.727 2.866-.395 2.096-2.065 3.018-3.78 3.018h-.951L25.643 26zM12.3 18.86l-.48 2.546h.854c.949 0 1.499-.486 1.662-1.35.167-.888-.297-1.197-1.238-1.197H12.3zm14.69 0-.48 2.546h.852c.95 0 1.5-.486 1.663-1.35.167-.888-.297-1.197-1.239-1.197h-.797z" fill-rule="evenodd" fill="#7A9ACE"/></svg>