<svg width="40" height="40" viewBox="0 0 40 40" fill="none" xmlns="http://www.w3.org/2000/svg"><path d="M13.999 12.105c-.258 0-.432.035-.614.082v.032h.032c.12.259.326.448.479.68.12.266.223.532.344.796l.032-.038c.21-.164.313-.428.313-.828-.09-.117-.103-.234-.179-.349-.09-.166-.287-.243-.407-.375zm15.264 14.454c-1.198-.035-2.127.1-2.903.468-.224.1-.582.1-.614.415.123.132.141.349.247.533.179.333.488.778.774 1.012.313.274.627.538.956.772.582.398 1.242.634 1.813 1.034.325.234.656.53.985.78.163.123.269.347.479.427v-.05c-.103-.149-.134-.366-.235-.532-.15-.167-.3-.316-.448-.48a7.593 7.593 0 0 0-1.555-1.68c-.48-.363-1.527-.87-1.724-1.48l-.03-.035c.328-.032.717-.164 1.03-.263.509-.15.974-.117 1.5-.264.238-.067.477-.15.717-.234v-.15c-.269-.298-.47-.703-.748-.982a20.125 20.125 0 0 0-2.471-2.047c-.47-.334-1.066-.548-1.56-.831-.18-.1-.48-.15-.583-.316-.268-.364-.425-.846-.615-1.28a46.372 46.372 0 0 1-1.225-2.892c-.268-.652-.432-1.302-.76-1.899-1.545-2.828-3.217-4.542-5.79-6.22-.552-.348-1.215-.497-1.916-.68-.373-.02-.747-.05-1.119-.068-.246-.117-.483-.433-.694-.585-.85-.597-3.053-1.89-3.68-.179-.403 1.08.598 2.145.945 2.692.257.38.582.816.76 1.244.106.289.135.585.24.886.238.731.464 1.547.777 2.231.163.348.343.714.553 1.028.12.181.327.266.374.564-.21.339-.224.831-.345 1.244-.537 1.884-.327 4.212.434 5.598.24.413.81 1.329 1.574.978.672-.299.524-1.244.716-2.078.045-.199.016-.33.108-.465v.037c.21.468.42.913.613 1.381.461.816 1.267 1.662 1.94 2.227.36.298.643.816 1.091 1v-.05h-.034c-.096-.144-.223-.214-.344-.33a8.339 8.339 0 0 1-.784-.996 22.474 22.474 0 0 1-1.672-3.03c-.246-.523-.452-1.085-.649-1.6-.09-.199-.09-.497-.24-.597-.223.363-.553.68-.716 1.127-.284.717-.313 1.597-.42 2.513-.061.017-.032 0-.061.035-.48-.13-.643-.682-.822-1.145-.447-1.181-.521-3.08-.134-4.44.105-.349.553-1.448.374-1.782-.094-.316-.39-.497-.553-.754a6.366 6.366 0 0 1-.537-1.062c-.358-.93-.538-1.96-.927-2.89-.18-.431-.492-.882-.748-1.277-.284-.448-.597-.764-.823-1.294-.074-.181-.18-.482-.06-.681.03-.135.093-.187.21-.224.197-.18.75.054.944.154.553.249 1.019.483 1.482.83.21.165.437.481.705.563h.314c.479.117 1.018.035 1.466.182.794.283 1.51.696 2.153 1.144 2.015 1.43 3.57 3.326 4.668 5.687.178.384.257.734.42 1.132.314.821.701 1.65 1.019 2.443.313.784.615 1.583 1.065 2.232.224.348 1.124.53 1.527.712.298.149.761.286 1.03.467.515.348 1.016.747 1.5 1.13.246.189.991.604 1.036.94z" fill="#1683C6"/></svg>