<?xml version="1.0" encoding="utf-8"?>
<!-- Generator: Adobe Illustrator 25.2.0, SVG Export Plug-In . SVG Version: 6.00 Build 0)  -->
<svg version="1.1" id="图层_1" xmlns="http://www.w3.org/2000/svg" xmlns:xlink="http://www.w3.org/1999/xlink" x="0px" y="0px"
	 viewBox="0 0 112 120" style="enable-background:new 0 0 112 120;" xml:space="preserve">
<style type="text/css">
	.st0{fill:#E2E2E2;}
	.st1{fill:#FFFFFF;}
</style>
<g>
	<path class="st0" d="M55.7,37.1c0.3,0,0.5,0.3,0.4,0.5v0c0,0.3,0,0.6,0,0.9V120l-0.3-0.1c0,0-4.8-1.6-7.2-2.4
		c-8.2-3-16-6.7-22.8-12.3c-3.8-3.1-7.1-6.6-9.5-10.9c-0.7-1.2-1-2.6-1-4c0.1-13.5,0.1-26.9,0.2-40.3c0-0.8,0.2-1.1,1-1.3
		c2.4-0.6,4.7-1.3,7.1-2l0,0c0.4,0.4,0.3,0.8,0.3,1.2c0,1.3,0,2.6,0,4c0,1,0.1,1.1,1.1,0.9c0.4-0.1,0.8-0.1,1.1,0l0,0
		c1.6-0.4,3.2-0.8,4.8-1.2c0.6-0.1,0.6-0.4,0.6-0.9c0-1.9,0-3.8,0-5.7c0-0.4,0-0.8,0.5-0.9c2.5-0.7,5-1.4,7.5-2.2l0,0
		c0.4,0.4,0.3,0.9,0.3,1.4c0,1.7-0.1,3.4,0.1,5.1l0,0c0.6,0.5,1.1-0.1,1.6-0.1c0.3-0.1,0.4,0,0.9,0c1.4-0.4,2.9-0.8,4.4-1.2
		c0.7-0.2,1-0.4,1-1.2c-0.1-2,0-3.9,0-5.8c0-0.4,0-0.7,0.5-0.8C50.5,38.5,53.1,37.8,55.7,37.1z"/>
	<path class="st1" d="M56.1,119.7c-0.2-0.5-0.3-1.1-0.3-1.7c0-4.2,0-8.4,0-12.6c0-21.9,0-43.8,0-65.7c0-0.8,0-1.6-0.1-2.5
		c0-0.1,0-0.2,0.2-0.3c0.2,0,0.5,0,0.8,0.1c2.5,0.7,4.9,1.4,7.4,2c0.6,0.2,0.8,0.4,0.8,1c0,1.9,0,3.8,0,5.7c0,0.8,0.2,1.1,1,1.2
		c1.6,0.3,3.1,0.9,4.7,1.1c0,0,0.1,0,0.1,0c0.6-0.2,1,0.1,1.4,0.3c0,0,0.1,0,0.1,0c1.1,0,0.2-0.5,0.4-0.7c-0.1-1.6,0-3.2,0-4.9
		c0-0.4,0-0.8,0.4-1.1c0.1,0,0.2,0,0.2,0c2.5,0.7,5,1.4,7.4,2.1c0.5,0.1,0.5,0.5,0.5,0.9c0,1.9,0,3.8,0,5.6c0,0.6,0.1,0.9,0.8,1
		c1.5,0.3,3,0.8,4.4,1.2c0,0,0.1,0,0.2,0c0.7-0.2,1.3,0.3,2,0.3c0.1,0,0.2-0.1,0.2-0.2c0.2-0.8,0-1.7,0.1-2.6c0.1-1,0-2.1,0-3.2
		c0-0.1,0-0.1,0-0.2c0-0.4,0.1-0.2,0.4-0.2c2.4,0.7,4.9,1.4,7.3,2.1c0.6,0.2,0.5,0.6,0.5,1c0,6.1,0.1,12.3,0.1,18.4
		c0,7.5,0,15.1,0.1,22.6c0,0.9-0.2,1.8-0.6,2.6c-2,4-4.8,7.2-8.1,10.2c-6,5.4-13,9.1-20.4,12.2c-3.4,1.4-7,2.4-10.5,3.8
		c-0.3,0.1-0.4,0.2-0.4,0.2l-0.1,0c-0.2,0.1-0.5,0.2-0.8,0.2"/>
	<path class="st1" d="M56.1,18.5c1.2,0.1,2,0.6,2.2,1.9c0.2,1.1,0.3,2.6,1,3.2c0.7,0.7,2.1,0.8,3.2,1c13.6,3.8,27.1,7.6,40.7,11.4
		c0.7,0.2,1.2,0.2,1.8-0.3c0,0,0.1-0.1,0.2-0.1c1.9-1.9,4.1-2.5,6.7-1.4c0.1,0.2-0.2,0.4-0.4,0.6c-2.2,2.8-4.3,5.6-6.4,8.5
		c-0.4,0.6-0.7,0.7-1.4,0.5c-15.5-4.5-31.1-9-46.6-13.5c-0.5-0.2-1-0.2-1.5-0.2c0.4-1.2,0.3-2.5,0.3-3.7c0-2.2,0-4.4,0-6.5
		C55.8,19.4,55.7,18.9,56.1,18.5z"/>
	<path class="st0" d="M56.1,18.5c0,3.5,0,7,0,10.5c0,0.6,0,1-0.6,1.2c-4.3,1.2-8.5,2.5-12.8,3.8C31.4,37.2,20,40.4,8.6,43.7
		c-0.4,0.1-0.8,0.4-1.2-0.2c-2.4-3.1-4.8-6.2-7.3-9.5l3.8-0.4c0.2,0,0.4,0,0.6,0.2c0.2,0.1,0.3,0.2,0.5,0.4c1.9,2,4,2,6.7,1.3
		c13.5-4,27-7.6,40.5-11.4c0.6-0.2,1.1-0.4,1.2-1.2c0.1-0.8,0.5-1.6,0.6-2.5C54.1,19,54.9,18.6,56.1,18.5z"/>
	<path class="st1" d="M56.1,0.1C57.9,0,57.9,0,58.3,1.8c0.4,2.3,0.9,4.6,1.3,6.9c0,0.5,0.4,0.9,0.8,1c12.6,3.8,25.2,7.6,37.8,11.4
		c0.4,0.2,0.8,0.1,1.1-0.2c0,0,0.1-0.1,0.2-0.1c2-1.8,4.3-2.8,7-1.4c0,0.2-0.3,0.3-0.5,0.5c-2.4,2.4-4.9,4.7-7.2,7.1
		c-0.6,0.6-1.1,0.7-1.9,0.5C83.6,23.7,70.2,20,56.9,16.3c-0.3-0.1-0.7-0.2-1-0.2c-0.1-0.3-0.2-0.7-0.1-1c0-4.5,0-8.9,0-13.4
		C55.8,1.1,55.7,0.6,56.1,0.1z"/>
	<path class="st0" d="M56.1,0.1c0,4.9,0,9.8,0,14.7c0,0.4,0,0.8-0.2,1.2c-6.5,1.8-13.1,3.7-19.7,5.5c-6.9,2-13.9,3.9-20.9,5.9
		c-0.9,0.3-1.5,0.1-2.1-0.6c-2.4-2.6-4.9-5.2-7.2-7.7c0.8-0.1,2-0.3,3.2-0.4c0.5-0.1,0.8,0.2,1.1,0.5c2,2,4.1,1.9,6.7,1.1
		c11.5-3.6,23-7,34.5-10.4c0.8-0.2,1.1-0.6,1.2-1.4c0.4-2.4,0.9-4.7,1.3-7C54,0.3,54.4-0.2,55.5,0C55.8,0.1,55.9,0.1,56.1,0.1z"/>
	<path class="st1" d="M26,52.7c-0.6,0.2-1.3,0.4-2,0.6c-0.6,0.1-0.4-0.4-0.5-0.8c0-2,0-3.9,0-5.9c0,0,0.1,0,0.1,0
		C26,47,26,47,26,49.3C25.9,50.4,26,51.6,26,52.7z"/>
	<path class="st0" d="M88.7,46.6V47c0.2,2.1,0.2,4.2,0,6.3c-0.9-0.1-1.6-0.4-2.5-0.6c0-1.5,0-3.1,0-4.6c0-0.8,0.2-1.1,1-1.2
		C87.7,46.8,88.2,46.6,88.7,46.6z"/>
	<path class="st0" d="M71.8,48.6c-0.5-0.1-0.9-0.2-1.4-0.4c0-1.7,0-3.3,0-5c0-0.8,0.2-1,0.9-1.1c0.5,0,1-0.4,1.6-0.3
		c-0.4,0.8-0.2,1.8-0.2,2.6c0,1.2,0,2.5,0,3.8C72.8,48.8,72.8,48.9,71.8,48.6z"/>
	<path class="st1" d="M41.3,48.4c0.3,0,0.6-0.1,0.8-0.2c-0.6,0-0.4-0.4-0.4-0.8c0-1.5,0-3,0-4.5c0-0.3,0.1-0.7-0.4-0.8
		c-0.7-0.1-1.3-0.5-2-0.4c0,2,0,4,0,5.9c0,0.1,0,1,0.2,1.1c0.1,0,0.2,0,0.4,0c0.1,0,0.2,0,0.4-0.1"/>
	<path class="st0" d="M88.7,53.3c0-2.1,0-4.2,0-6.3c0.3,0.3,0.2,0.7,0.2,1c0.1,1.7-0.1,3.4,0.1,5.2c0,0.1-0.1,0.2-0.1,0.2
		C88.9,53.4,88.8,53.4,88.7,53.3z"/>
</g>
</svg>
