<svg width="14" height="14" viewBox="0 0 14 14" fill="none" xmlns="http://www.w3.org/2000/svg"><path d="M1.735 11.21a2.491 2.491 0 0 1 0-3.533L2.8 6.617a2.482 2.482 0 0 1 1.13-.637c.04.33.126.653.26.962a1.487 1.487 0 0 0-.679.382l-1.066 1.06a1.495 1.495 0 0 0 0 2.12 1.512 1.512 0 0 0 2.13 0l1.065-1.06c.463-.46.556-1.145.29-1.701l-1 .994a.503.503 0 0 1-.71 0 .497.497 0 0 1 0-.706l1.1-1.095a2.493 2.493 0 0 1 .32-3.144l1.065-1.06a2.519 2.519 0 0 1 3.55 0 2.49 2.49 0 0 1 .438 2.946A2.419 2.419 0 0 0 9.65 5.44a1.495 1.495 0 0 0-.107-2.002 1.512 1.512 0 0 0-2.13 0l-1.065 1.06a1.49 1.49 0 0 0-.29 1.701l1-.994a.504.504 0 0 1 .71 0 .497.497 0 0 1 0 .706l-1.1 1.095c.645.97.54 2.29-.32 3.144l-1.064 1.06c-.98.976-2.57.976-3.55 0z" clip-rule="evenodd" fill="#999" fill-rule="evenodd"/><path d="M7.66 8.628a2.491 2.491 0 0 1 2.496-2.486 2.491 2.491 0 0 1 2.498 2.486c0 .796-.377 1.505-.962 1.96L13 12.54l-.693.46-1.35-2.017c-.252.084-.52.13-.8.13a2.491 2.491 0 0 1-2.498-2.485zm.832 0a1.66 1.66 0 0 1 1.664-1.657c.92 0 1.665.742 1.665 1.657a1.66 1.66 0 0 1-1.665 1.657 1.66 1.66 0 0 1-1.664-1.657z" clip-rule="evenodd" fill="#999" fill-rule="evenodd"/></svg>