<svg xmlns="http://www.w3.org/2000/svg" viewBox="0 0 128 128" style="enable-background:new 0 0 128 128" xml:space="preserve"><path d="M108.1 81.3c2.2 0 4 1.8 3.9 4V98c0 7.3-6.4 14-13.2 14H29.2c-6.9 0-13.2-6.8-13.2-14V85.5c0-2.1 2-4.2 3.9-4.2 2 0 3.9 2.1 3.9 4.2V98c0 3.1 2.4 5.7 5.4 5.7h69.6c2.9 0 5.4-2.6 5.4-5.7V85.5c-.1-2.1 1.9-4.2 3.9-4.2zM69.2 41l.8.1c2.4 1.1 3.6 3.3 3 5.6L63 85.8c-1.2 2.8-3.6 3.9-5.9 2.8-2.4-1.1-3.6-3.3-3-5.6L64 44c1.1-2.2 3.5-3.3 5.9-2.8l-.7-.2zm-25 7.5c2-1 4.4-.5 5.4 1.6s.5 4.7-1.5 5.8l-12.7 7.8 12.7 7.8c2 1 2.4 3.7 1.5 5.8-1 2.1-3.4 2.6-5.4 1.6L25.6 67.3c-1-1-2-2.1-2-3.7s1-3.1 2-3.7l18.6-11.4zM79 50c1-2.1 3.4-2.6 5.4-1.6L102.9 60c1 1 2 2.1 2 3.7s-1 3.1-2 3.7L84.3 78.8c-2 1-4.4.5-5.4-1.6s-.5-4.7 1.5-5.8l12.7-7.8-12.7-7.8C78.5 54.7 78 52.1 79 50zm19.8-34.1c6.9 0 13.2 6.2 13.2 14v12.5c0 2.1-2 4.2-3.9 4.2-2 0-3.9-2.1-3.9-4.2V30c0-3.1-2.4-5.7-5.4-5.7H29.2c-2.9 0-5.4 2.6-5.4 5.7v12c0 2.1-2 4.2-3.9 4.2S16 44.1 16 42V30c0-7.3 6.4-14 13.2-14h69.6z" style="fill:#888"/></svg>