<svg version="1.1" id="图层_1" xmlns="http://www.w3.org/2000/svg" x="0" y="0" viewBox="0 0 128 128" style="enable-background:new 0 0 128 128" xml:space="preserve"><style>.st0{fill:#888}</style><path class="st0" d="M36.8 46.8h20.6c1.9 0 3.4-1.5 3.4-3.4S59.3 40 57.4 40H36.8c-1.9 0-3.4 1.5-3.4 3.4s1.5 3.4 3.4 3.4z"/><path class="st0" d="M88.4 105.2H30.1c-1.9 0-3.4-1.5-3.4-3.4V26.3c0-1.9 1.5-3.4 3.4-3.4h41.2V40c0 3.8 3.1 6.9 6.9 6.9h17.2V64c0 1.9 1.5 3.4 3.4 3.4s3.4-1.5 3.4-3.4V38.1c0-.9-.4-1.8-1-2.4L82.6 17c-.6-.6-1.5-1-2.4-1H26.6c-3.8 0-6.9 3.1-6.9 6.9v82.3c0 3.8 3.1 6.9 6.9 6.9h61.8c1.9 0 3.4-1.5 3.4-3.4s-1.5-3.5-3.4-3.5zM78.1 22.8 95.3 40H81.5c-1.9 0-3.4-1.5-3.4-3.4V22.8z"/><path class="st0" d="M36.8 81.2c-1.9 0-3.4 1.5-3.4 3.4s1.5 3.4 3.4 3.4h34.4c1.9 0 3.4-1.5 3.4-3.4s-1.5-3.4-3.4-3.4H36.8zM81.4 64c0-1.9-1.5-3.4-3.4-3.4H36.8c-1.9 0-3.4 1.5-3.4 3.4s1.5 3.4 3.4 3.4H78c1.9 0 3.4-1.5 3.4-3.4zm20.8 37.8c-2 0-3.6-1.5-3.9-3.4l-2.2-17.2c-.5-3.6 2.4-6.8 6-6.8s6.5 3.2 6 6.8L106 98.4c-.2 2-1.9 3.4-3.8 3.4zm-3.5 6.7c0 1.9 1.5 3.4 3.4 3.4s3.4-1.5 3.4-3.4-1.5-3.4-3.4-3.4c-1.8 0-3.4 1.5-3.4 3.4z"/></svg>