<svg width="14" height="14" viewBox="0 0 14 14" fill="none" xmlns="http://www.w3.org/2000/svg"><path d="M8.518 10.297a2.1 2.1 0 0 1 2.096-2.105 2.1 2.1 0 0 1 2.095 2.105c0 .675-.315 1.275-.806 1.66L13 13.611l-.581.389-1.134-1.708a2.1 2.1 0 0 1-2.767-1.995zm.699 0a1.4 1.4 0 0 1 1.397-1.403 1.4 1.4 0 0 1 1.397 1.403 1.4 1.4 0 0 1-1.397 1.403 1.4 1.4 0 0 1-1.397-1.403z" clip-rule="evenodd" fill="#999" fill-rule="evenodd"/><path d="M5.927 3.43a.226.226 0 0 0 .227-.224.228.228 0 0 0-.234-.218.226.226 0 0 0-.23.222c0 .058.026.115.07.156a.236.236 0 0 0 .163.064h.004zM4.438 9.014a.317.317 0 0 0 .074.356.353.353 0 0 0 .373.07.325.325 0 0 0 .21-.302.317.317 0 0 0-.098-.23.338.338 0 0 0-.242-.094.34.34 0 0 0-.317.2zm2.724-1.021h.007-.007zm-.244-2.12c-.001-.845-.716-1.528-1.599-1.53-.882 0-1.598.684-1.598 1.53 0 .843.715 1.528 1.598 1.528.884 0 1.599-.685 1.599-1.529z" fill="#999"/><path d="M7.323 10.503a4.28 4.28 0 0 1-.497.03c-1.409-.004-2.72-.697-3.471-1.839a3.789 3.789 0 0 1-.236-3.789l.313-.52c1.102-1.546 3.19-2.135 4.992-1.408 1.695.684 2.696 2.355 2.485 4.076.255.07.497.172.72.3.017-.1.03-.201.04-.303h.5a.48.48 0 0 0 .433-.22.438.438 0 0 0 0-.467.48.48 0 0 0-.433-.22h-.506a4.475 4.475 0 0 0-.377-1.396l.607-.336.012-.007a.44.44 0 0 0 .17-.615.483.483 0 0 0-.643-.162.02.02 0 0 0-.011 0l-.596.327a4.744 4.744 0 0 0-1.184-1.15l.315-.523c.093-.14.1-.317.016-.463a.474.474 0 0 0-.417-.233.477.477 0 0 0-.413.241.02.02 0 0 0 0 .012l-.31.52a4.948 4.948 0 0 0-1.58-.399v-.505A.465.465 0 0 0 6.778 1a.465.465 0 0 0-.475.454v.512a4.993 4.993 0 0 0-1.476.39l-.316-.523a.476.476 0 0 0-.413-.242.473.473 0 0 0-.417.233.434.434 0 0 0 .016.463l.316.518A4.74 4.74 0 0 0 2.846 3.92l-.516-.292a.492.492 0 0 0-.484-.016.447.447 0 0 0-.243.4.451.451 0 0 0 .252.394l.523.292a4.41 4.41 0 0 0-.401 1.435h-.528A.463.463 0 0 0 1 6.587c0 .241.197.44.449.454h.534c.042.45.155.895.335 1.313l-.577.32a.45.45 0 0 0-.252.396.445.445 0 0 0 .243.399.49.49 0 0 0 .484-.016l.546-.31c.274.4.61.757.997 1.06l-.37.618a.443.443 0 0 0 .171.62.486.486 0 0 0 .649-.164l.34-.564c.55.28 1.15.455 1.769.518v.483h-.009a.46.46 0 0 0 .469.424.46.46 0 0 0 .468-.424v-.476a4.73 4.73 0 0 0 .395-.048 2.716 2.716 0 0 1-.318-.687z" fill="#999"/><path d="M7.219 9.957a2.683 2.683 0 0 1 .504-1.806 1.055 1.055 0 0 0-.558-.158 1.029 1.029 0 0 0-.951.603.953.953 0 0 0 .218 1.073c.21.203.498.304.787.288zm.977-5.748a.28.28 0 0 0-.288.27.278.278 0 0 0 .28.277.28.28 0 0 0 .286-.274h.005a.278.278 0 0 0-.283-.273zm1.012 1.593c-.458.004-.828.361-.826.8.002.28.154.524.383.665a3 3 0 0 1 1.195-.314.77.77 0 0 0 .088-.355c-.005-.441-.379-.795-.84-.796z" fill="#999"/></svg>