<svg width="14" height="14" viewBox="0 0 14 14" fill="none" xmlns="http://www.w3.org/2000/svg"><path d="M2.082 9.897c.23.356.502.687.814.992.168.164.43.164.598 0a.404.404 0 0 0 0-.585 4.887 4.887 0 0 1-1.197-1.856h1.662V9.69c0 .231.186.414.423.414a.414.414 0 0 0 .423-.414V8.448h1.69V9.69c0 .231.187.414.424.414a.414.414 0 0 0 .422-.414V8.448h1.691V9.69c0 .231.186.414.423.414a.414.414 0 0 0 .423-.414V8.448h1.988a5.078 5.078 0 0 1-.49.992c-.2.31-.436.598-.707.864a.404.404 0 0 0 0 .585c.167.164.43.164.597 0A5.713 5.713 0 0 0 13 6.793a5.701 5.701 0 0 0-1.734-4.096 5.896 5.896 0 0 0-2.985-1.578A6.046 6.046 0 0 0 7.08 1a6.046 6.046 0 0 0-2.227.424A5.9 5.9 0 0 0 2.08 3.688a5.706 5.706 0 0 0 0 6.21zm10.003-2.276a4.89 4.89 0 0 0-.093-2.082v.427H9.878V7.62h2.207zm-3.053 0V5.966h-1.69V7.62h1.69zm-2.536 0V5.966H4.805V7.62h1.69zm-2.537 0V5.966H2.078a4.896 4.896 0 0 0 0 1.655h1.881zM2.297 5.138h1.662v-2.26a5.13 5.13 0 0 0-1.172 1.268 4.887 4.887 0 0 0-.49.992zm2.508-2.784v2.784h1.69V1.86a5.096 5.096 0 0 0-1.69.494zm2.536-.52v3.304h1.691V2.242c-.284-.113-.617-.25-.913-.311a5.143 5.143 0 0 0-.778-.097zm2.537.814c.282.183.546.394.79.634a4.904 4.904 0 0 1 1.198 1.856H9.878v-2.49z" fill="#999" fill-rule="evenodd"/><path d="M9.455 11.345H5.228a.841.841 0 0 0-.736.414H1v.827h3.492a.841.841 0 0 0 .736.414h4.227a.841.841 0 0 0 .736-.414h2.646v-.827h-2.646a.841.841 0 0 0-.736-.414z" clip-rule="evenodd" fill="#999" fill-rule="evenodd"/></svg>