<svg width="14" height="14" viewBox="0 0 14 14" fill="none" xmlns="http://www.w3.org/2000/svg"><path d="M6.82 3.283c.35.262.727.456 1.131.583.527.168.961.22 1.262.23-.026.378-.081.97-.196 1.74-.097.646-.29 1.209-.572 1.676-.293.48-.592.709-.745.802-.483.294-.852.314-.88.315-.029.001-.397-.02-.88-.315-.153-.093-.453-.321-.745-.802-.283-.466-.476-1.03-.572-1.675a22.466 22.466 0 0 1-.197-1.74 4.768 4.768 0 0 0 1.262-.23 3.769 3.769 0 0 0 1.132-.584zm0-.569s-.44.46-1.24.714a4.248 4.248 0 0 1-1.277.215c-.195 0-.303-.019-.303-.019s.008.828.226 2.288c.232 1.56.958 2.458 1.523 2.802.601.367 1.057.37 1.07.37.015 0 .47-.003 1.072-.37.564-.344 1.29-1.242 1.523-2.802.218-1.46.226-2.288.226-2.288s-.108.02-.304.02c-.272 0-.716-.038-1.275-.216-.801-.254-1.241-.714-1.241-.714z" fill="#999"/><path d="M6.82 3.17V5.9H4.403l-.197-1.98 2.614-.75zm0 2.73v2.944l.805-.215.856-.839.464-.9.292-.99H6.82z" fill="#999"/><rect x="1.5" y="1.5" rx="2" width="11" height="9.286" stroke="#999"/><path stroke="#999" d="M7 11.286V13"/><path d="M3.25 13h7.5" stroke="#999" stroke-linecap="round"/></svg>