<svg version="1.1" id="图层_1" xmlns="http://www.w3.org/2000/svg" x="0" y="0" viewBox="0 0 128 128" style="enable-background:new 0 0 128 128" xml:space="preserve"><style>.st0{fill:#888}</style><path class="st0" d="M76.6 112H25.4c-5.2 0-9.4-4.2-9.4-9.4V40.2c0-5.2 4.2-9.4 9.4-9.4h51.2c5.2 0 9.4 4.2 9.4 9.4v2.9c0 2.1-1.7 3.7-3.7 3.7s-3.7-1.7-3.7-3.7v-2.9c0-1-.8-1.9-1.9-1.9H25.4c-1 0-1.9.8-1.9 1.9v62.4c0 1 .8 1.9 1.9 1.9h51.2c1 0 1.9-.8 1.9-1.9V82.8c0-2.1 1.7-3.7 3.7-3.7s3.7 1.7 3.7 3.7v19.8c0 5.2-4.2 9.4-9.3 9.4z"/><path class="st0" d="M102.6 97.2h-11c-2.1 0-3.7-1.7-3.7-3.7 0-2.1 1.7-3.7 3.7-3.7h11.1c1 0 1.9-.8 1.9-1.9V25.4c0-1-.8-1.9-1.9-1.9H51.4c-1 0-1.9.8-1.9 1.9v.7c0 2.1-1.7 3.7-3.7 3.7s-3.7-1.7-3.7-3.7v-.7c0-5.2 4.2-9.4 9.4-9.4h51.2c5.2 0 9.4 4.2 9.4 9.4v62.4c-.1 5.2-4.3 9.4-9.5 9.4z"/><path class="st0" d="M60 99.1c-.9 0-1.8-.3-2.5-.9L30.3 73.9c-1.5-1.4-1.6-3.8-.2-5.3l.3-.3 27.2-23.2c1.6-1.3 3.9-1.2 5.3.4.6.7.9 1.5.9 2.4v12c8.8-.9 16.9-5.2 22.6-12l8.8-10.4c1.3-1.6 3.6-1.9 5.3-.6 1.2.9 1.7 2.4 1.3 3.9L99.3 51c-3.9 17-18.2 29.5-35.5 31.1v13.3c-.1 2.1-1.8 3.7-3.8 3.7zM38.5 71.2 56.2 87v-8.5c0-2.1 1.7-3.7 3.7-3.7 13.5 0 25.2-8 30.3-20.1-7.9 8.2-18.8 12.9-30.2 12.9-2.1 0-3.7-1.7-3.7-3.7V56L38.5 71.2z"/></svg>