<svg width="14" height="14" viewBox="0 0 14 14" fill="none" xmlns="http://www.w3.org/2000/svg"><path d="M12.147 4.828C11.107 5.578 9.19 6.081 7 6.081c-2.19 0-4.108-.503-5.147-1.253v1.635c.568.192 1.179.363 1.834.512a19.21 19.21 0 0 0 2.797.433 13.79 13.79 0 0 0 3.032-.077c.982-.141 1.859-.402 2.63-.782V4.83zm.825-1.287C12.972 2.139 10.295 1 7 1 3.705 1 1.028 2.139 1.028 3.54l-.027 7.617c0 .137.066.265.18.343.261.18.582.351.961.514.374.16.787.306 1.24.435.973.278 1.99.45 3.055.52 1.195.077 2.31.01 3.346-.201 1.195-.244 2.21-.67 3.046-1.275a.414.414 0 0 0 .17-.335l-.027-7.617zm-.854 0c0 .945-2.294 1.712-5.118 1.712-2.824 0-5.118-.767-5.118-1.713 0-.945 2.294-1.712 5.118-1.712 2.824 0 5.118.767 5.118 1.712zM1.853 8.916v-1.58c.515.164 1.06.312 1.638.444.995.227 1.97.378 2.926.452 1.152.089 2.227.061 3.225-.083a9.91 9.91 0 0 0 2.505-.685v1.624c-.77.379-1.646.635-2.628.769a13.6 13.6 0 0 1-3.03.047c-.908-.08-1.84-.234-2.799-.462a20.597 20.597 0 0 1-1.837-.526zm0 .874v1.148c.181.108.393.214.635.318.34.146.718.279 1.135.398.912.26 1.869.423 2.87.488 1.118.073 2.156.01 3.114-.185.99-.202 1.837-.539 2.54-1.008v-.945a9.694 9.694 0 0 1-2.509.672 14.48 14.48 0 0 1-3.226.052 20.333 20.333 0 0 1-2.925-.482 21.385 21.385 0 0 1-1.634-.456z" fill="#9A9A9A" fill-rule="evenodd"/></svg>