<svg width="10" height="12" viewBox="0 0 10 12" fill="none" xmlns="http://www.w3.org/2000/svg"><path d="M8.889 4.8h.555c.15.002.292.067.397.179A.61.61 0 0 1 10 5.4v6a.608.608 0 0 1-.16.421.532.532 0 0 1-.396.179H.556a.532.532 0 0 1-.396-.179A.585.585 0 0 1 0 11.4v-6a.608.608 0 0 1 .16-.421.55.55 0 0 1 .396-.179h.554v-.6C1.08 1.913 2.821.033 5 0c2.178.033 3.919 1.913 3.889 4.2v.6zM1.11 6v4.8h7.78V6H1.11zm6.668-1.2v-.6C7.8 2.566 6.556 1.223 5 1.2c-1.556.023-2.8 1.366-2.778 3v.6h5.557z" fill="#1D9534"/></svg>