<svg width="17.143" height="20" viewBox="0 0 17.143 20" fill="none" xmlns="http://www.w3.org/2000/svg"><path d="m9.286.107 7.143 3.41c.428.284.714.71.714 1.279v4.12c0 1.28-.286 2.416-.714 3.695-.429 1.137-1 2.273-1.715 3.268A12.197 12.197 0 0 1 12 18.58c-1 .71-2.143 1.137-3.429 1.421-1.285-.284-2.428-.71-3.428-1.421-1-.71-2-1.705-2.714-2.7-.715-.995-1.286-1.99-1.715-3.268C.286 11.332 0 10.053 0 8.774V4.796c0-.569.286-.995.714-1.28L7.857.107a2.45 2.45 0 0 1 1.429 0zM8.57 1.67 1.43 4.938v3.836c0 1.137.142 2.132.571 3.269.429.994.857 1.989 1.571 2.841C4.43 16.021 5.143 16.732 6 17.3c.714.427 1.571.853 2.571 1.137 1-.284 1.858-.71 2.572-1.137.714-.568 1.571-1.279 2.428-2.416.715-.852 1.143-1.705 1.572-2.841.428-1.137.571-2.132.571-3.269V4.938L8.571 1.67z" fill-rule="evenodd" fill="#CBCBCB" fill-opacity=".8"/><path d="m5.714 6.112 5.621 7.143m.094-7.143-5.715 7.03" stroke="#CBCBCB" stroke-opacity=".8" stroke-linecap="round"/></svg>