<svg width="12.3" height="11.3" viewBox="0 0 12.3 11.3" fill="none" xmlns="http://www.w3.org/2000/svg"><path d="M4.277 11.15h6.856a.995.995 0 0 0 .691-.273c.205-.192.324-.466.326-.75v-5.01a1.047 1.047 0 0 0-.326-.75.96.96 0 0 0-.684-.273H4.278a.958.958 0 0 0-.685.273 1.044 1.044 0 0 0-.325.751v5.008c.002.285.12.558.325.75a.96.96 0 0 0 .684.273zm6.859-.681H4.277a.258.258 0 0 1-.183-.077.373.373 0 0 1-.113-.269v-5a.37.37 0 0 1 .113-.27.259.259 0 0 1 .184-.076h6.862a.259.259 0 0 1 .183.076.378.378 0 0 1 .114.27v4.999a.375.375 0 0 1-.114.27.267.267 0 0 1-.187.077zM.15 4.385h.713v-1.61C.863 1.702 1.775.83 2.897.83c1.122 0 2.035.872 2.035 1.943v1.61h.713v-1.61C5.645 1.328 4.412.15 2.897.15 1.382.15.15 1.328.15 2.774v1.61z" fill="#666"/><path d="M11.133 11.15a.995.995 0 0 0 .691-.273c.205-.192.324-.466.326-.75v-5.01a1.047 1.047 0 0 0-.326-.75.96.96 0 0 0-.684-.273H4.278a.958.958 0 0 0-.685.273 1.044 1.044 0 0 0-.325.751v5.008c.002.285.12.558.325.75a.96.96 0 0 0 .684.273h6.856zm-6.856-.681a.258.258 0 0 1-.183-.077.373.373 0 0 1-.113-.269v-5a.37.37 0 0 1 .113-.27.259.259 0 0 1 .184-.076h6.862a.259.259 0 0 1 .183.076.378.378 0 0 1 .114.27v4.999a.375.375 0 0 1-.114.27.267.267 0 0 1-.187.077H4.277zM.863 4.385v-1.61C.863 1.702 1.775.83 2.897.83c1.122 0 2.035.872 2.035 1.943v1.61h.713v-1.61C5.645 1.328 4.412.15 2.897.15 1.382.15.15 1.328.15 2.774v1.61h.713z" stroke="#666" stroke-width=".3"/></svg>