<svg class="icon" viewBox="0 0 1024 1024" xmlns="http://www.w3.org/2000/svg" width="16" height="16"><path d="M890.88 989.867H546.133c-13.653 0-25.6-11.947-25.6-25.6s10.24-25.6 25.6-25.6H890.88c22.187 0 40.96-18.774 40.96-40.96V126.293c0-22.186-18.773-40.96-40.96-40.96H133.12c-22.187 0-40.96 18.774-40.96 40.96v373.76c0 13.654-11.947 25.6-25.6 25.6s-25.6-11.946-25.6-25.6v-373.76c0-51.2 40.96-92.16 92.16-92.16h757.76c51.2 0 92.16 40.96 92.16 92.16V896c0 52.907-40.96 93.867-92.16 93.867z" fill="#2e2d3c"/><path d="M322.56 989.867H134.827c-51.2 0-93.867-42.667-93.867-93.867V703.147c0-51.2 42.667-93.867 93.867-93.867H322.56c51.2 0 93.867 42.667 93.867 93.867V896c0 51.2-42.667 93.867-93.867 93.867zM134.827 660.48c-23.894 0-42.667 18.773-42.667 42.667V896c0 23.893 18.773 42.667 42.667 42.667H322.56c23.893 0 42.667-18.774 42.667-42.667V703.147c0-23.894-18.774-42.667-42.667-42.667H134.827zM593.92 459.093c-6.827 0-13.653-1.706-18.773-6.826-10.24-10.24-10.24-25.6 0-35.84l250.88-249.174c10.24-10.24 25.6-10.24 35.84 0s10.24 25.6 0 35.84L612.693 452.267c-5.12 5.12-11.946 6.826-18.773 6.826z" fill="#2e2d3c"/><path d="M843.093 435.2c-13.653 0-25.6-11.947-25.6-25.6V208.213h-199.68c-13.653 0-25.6-11.946-25.6-25.6s11.947-25.6 25.6-25.6H844.8c13.653 0 25.6 11.947 25.6 25.6V409.6c-1.707 13.653-13.653 25.6-27.307 25.6z" fill="#2e2d3c"/></svg>