<svg class="icon" viewBox="0 0 1024 1024" xmlns="http://www.w3.org/2000/svg" width="16" height="16"><path d="M256 85.333h682.667V768h-85.334v85.333h85.334c46.933 0 85.333-38.4 85.333-85.333V85.333C1024 38.4 985.6 0 938.667 0H256c-46.933 0-85.333 38.4-85.333 85.333v85.334H256V85.333z" fill="#2e2d3c"/><path d="M768 170.667H85.333C38.4 170.667 0 209.067 0 256v682.667C0 985.6 38.4 1024 85.333 1024H768c46.933 0 85.333-38.4 85.333-85.333V256c0-46.933-38.4-85.333-85.333-85.333zm0 768H85.333V256H768v682.667z" fill="#2e2d3c"/></svg>