<svg width="14" height="14" viewBox="0 0 14 14" fill="none" xmlns="http://www.w3.org/2000/svg"><path d="M3.61 12h.738c.642 0 1.337-.105 1.722-.617.27-.358.47-.872.47-1.626h-.536a.5.5 0 0 1-.412-.783l1.058-1.54a.5.5 0 0 1 .832.012l.992 1.54a.5.5 0 0 1-.42.771H7.35c0 .415-.089 1.2-.398 1.76-.095.172.032.483.228.483h1.214c1.252 0 2.527-.354 3.307-1.334 1.008-1.267 1.802-3.115.914-5.113C11.801 3.45 8.291 2.31 6 3.45c-.585.374-1.755 1.458-1.755 2.804-1.08.046-3.24.7-3.24 2.943-.037.533.147 1.612 1.035 2.357.429.36 1.009.446 1.57.446z" fill-rule="evenodd" fill="#20A53A"/></svg>