<svg width="14" height="14" viewBox="0 0 14 14" fill="none" xmlns="http://www.w3.org/2000/svg"><path d="M6.393 13.25h1.464a.728.728 0 0 0 .717-.6l.187-1.043c.127-.047.252-.1.375-.156l.869.606a.73.73 0 0 0 .933-.083l1.035-1.035a.728.728 0 0 0 .083-.933l-.606-.87c.058-.122.109-.247.155-.374l1.044-.187a.726.726 0 0 0 .601-.717V6.394a.728.728 0 0 0-.6-.718l-1.045-.186a4.951 4.951 0 0 0-.155-.375l.606-.87a.73.73 0 0 0-.083-.932l-1.035-1.036a.728.728 0 0 0-.934-.083l-.868.607a4.446 4.446 0 0 0-.375-.156L8.574 1.6a.726.726 0 0 0-.717-.6H6.393a.729.729 0 0 0-.717.6l-.187 1.045a4.705 4.705 0 0 0-.375.156l-.869-.607a.73.73 0 0 0-.933.083L2.277 3.313a.728.728 0 0 0-.083.933l.607.869c-.059.122-.11.248-.156.375L1.6 5.676a.726.726 0 0 0-.6.718v1.462a.73.73 0 0 0 .6.718l1.045.186c.046.127.099.253.156.375l-.607.87a.73.73 0 0 0 .083.932l1.035 1.036a.73.73 0 0 0 .933.083l.87-.607c.122.059.247.11.374.156l.187 1.044a.726.726 0 0 0 .717.601zm1.341-.875H6.516l-.196-1.092a.582.582 0 0 0-.395-.452 3.907 3.907 0 0 1-.571-.238.583.583 0 0 0-.6.041l-.91.634-.861-.861.634-.91a.58.58 0 0 0 .041-.6 3.733 3.733 0 0 1-.238-.571.58.58 0 0 0-.452-.395l-1.092-.196V6.516l1.092-.195a.583.583 0 0 0 .452-.395 3.89 3.89 0 0 1 .238-.572.584.584 0 0 0-.04-.6l-.635-.91.861-.86.91.633a.58.58 0 0 0 .6.041c.183-.095.376-.175.571-.237a.58.58 0 0 0 .395-.452l.196-1.093h1.218L7.93 2.97c.038.212.19.384.395.452.195.064.388.142.571.237a.583.583 0 0 0 .6-.04l.91-.635.861.862-.634.91a.58.58 0 0 0-.04.6c.094.183.174.375.237.57a.58.58 0 0 0 .452.396l1.092.195v1.22l-1.092.195a.582.582 0 0 0-.452.395 3.922 3.922 0 0 1-.238.571.583.583 0 0 0 .041.6l.634.91-.861.861-.91-.634a.58.58 0 0 0-.6-.04 3.739 3.739 0 0 1-.571.237.58.58 0 0 0-.395.452l-.196 1.092zm-2.753-5.25a2.145 2.145 0 1 0 2.143-2.143 2.145 2.145 0 0 0-2.143 2.144zm.875 0a1.27 1.27 0 1 1 2.539.002 1.27 1.27 0 0 1-2.539-.001z" fill-rule="evenodd" fill="#999"/></svg>