<svg width="14" height="14" viewBox="0 0 14 14" fill="none" xmlns="http://www.w3.org/2000/svg"><path d="M13 12.047c0 .527-.447.953-1 .953H2c-.553 0-1-.426-1-.953v-1.906c0-.527.447-.953 1-.953h10c.553 0 1 .426 1 .953v1.906zM2 8.555a2.08 2.08 0 0 0-.642.121l2.01-6.393c.162-.234.536-.426.83-.426h5.594c.297 0 .668.189.834.426l2.01 6.393a2.08 2.08 0 0 0-.64-.121H2zm6.332 2.54c0 .35.297.635.668.635.367 0 .668-.283.668-.636 0-.35-.3-.636-.668-.636-.367.003-.668.286-.668.636zm2 0c0 .35.297.635.668.635.367 0 .668-.283.668-.636 0-.35-.3-.636-.668-.636-.367.003-.668.286-.668.636z" fill="#20A53A"/></svg>