<svg width="14" height="14" viewBox="0 0 14 14" fill="none" xmlns="http://www.w3.org/2000/svg"><path d="M11.833 8.843v2.913c0 .114-.105.207-.233.207H2.4c-.128 0-.233-.093-.233-.207V8.843c0-.082-.075-.149-.167-.149h-.833c-.092 0-.167.067-.167.149v3.268c0 .49.448.889 1 .889h10c.552 0 1-.399 1-.889V8.843c0-.082-.075-.149-.167-.149H12c-.092 0-.167.067-.167.149z" fill="#999"/><path d="M7.595 9.792V2.844l2.95 2.683a.636.636 0 0 0 .84 0 .506.506 0 0 0 0-.765L7.421 1.156a.24.24 0 0 0-.032-.027.077.077 0 0 0-.012-.009l-.013-.01c-.004 0-.007-.004-.009-.005l-.015-.01-.009-.004a.166.166 0 0 0-.017-.01l-.008-.004a.057.057 0 0 0-.017-.008.036.036 0 0 1-.009-.004c-.005-.004-.01-.005-.015-.008l-.01-.005c-.005-.001-.01-.004-.014-.006l-.012-.005-.013-.004-.016-.005a.026.026 0 0 0-.011-.003l-.017-.005c-.004-.001-.007-.001-.01-.003l-.02-.004-.01-.002c-.006-.001-.011-.003-.018-.003l-.01-.002-.02-.003-.011-.001-.017-.002-.015-.001c-.005 0-.009 0-.014-.002a.387.387 0 0 0-.088.003l-.017.002-.012.001-.019.003-.01.002a.063.063 0 0 1-.019.003l-.01.002-.019.004c-.003.002-.006.002-.01.003l-.017.005c-.003.002-.008.002-.012.003l-.015.005-.013.004-.012.005-.014.006-.01.005-.016.008-.008.004a.143.143 0 0 1-.017.01l-.008.004a.153.153 0 0 1-.017.01c-.004 0-.006.002-.009.004l-.015.01-.009.007-.013.01-.012.009-.01.007-.02.019-3.961 3.603a.506.506 0 0 0 0 .765.636.636 0 0 0 .84 0l2.95-2.683v6.948c0 .299.267.541.595.541.328 0 .595-.242.595-.54z" fill="#999"/></svg>