<svg width="14" height="14" viewBox="0 0 14 14" fill="none" xmlns="http://www.w3.org/2000/svg"><defs><linearGradient id="a" x1="1" y1="8.114" x2="13" y2="8.114" gradientUnits="userSpaceOnUse"><stop stop-color="#FFE8A4"/><stop offset=".996" stop-color="#FFD96F"/></linearGradient></defs><path d="M12.173 2.758H5.534a.78.78 0 0 0-.216-.536A.741.741 0 0 0 4.797 2h-2.95a.717.717 0 0 0-.522.222.751.751 0 0 0-.202.388.78.78 0 0 0-.014.148V5.03c0 .419.33.757.738.757h10.327a.716.716 0 0 0 .521-.222.746.746 0 0 0 .202-.388.779.779 0 0 0 .014-.147V3.515a.773.773 0 0 0-.328-.63.735.735 0 0 0-.41-.127z" fill="#FDCA48"/><path d="M11.436 3.515H2.584a.716.716 0 0 0-.522.222.752.752 0 0 0-.202.388.78.78 0 0 0-.014.148v.758c0 .419.33.757.737.757h8.852a.717.717 0 0 0 .522-.222.753.753 0 0 0 .202-.388.78.78 0 0 0 .014-.147v-.758a.779.779 0 0 0-.216-.535.73.73 0 0 0-.521-.223z" fill="#FFF"/><path d="M12.249 4.228H1.75a.862.862 0 0 0-.417.11.73.73 0 0 0-.207.178.614.614 0 0 0-.112.233.56.56 0 0 0-.014.127v6.476c0 .358.335.648.75.648h10.5a.86.86 0 0 0 .417-.11.743.743 0 0 0 .207-.178.614.614 0 0 0 .112-.233.561.561 0 0 0 .014-.127V4.876a.563.563 0 0 0-.057-.248.624.624 0 0 0-.163-.21.728.728 0 0 0-.244-.14.84.84 0 0 0-.287-.05z" fill="url(#a)"/></svg>