<svg width="14" height="14" viewBox="0 0 14 14" fill="none" xmlns="http://www.w3.org/2000/svg"><path d="M4.047 3.298a.253.253 0 0 0-.256.255c0 .143.112.255.256.255h5.627a.253.253 0 0 0 .256-.255.253.253 0 0 0-.256-.255H4.047zm0 2.042h5.158c.144 0 .256.113.256.256a.253.253 0 0 1-.256.255H4.047a.253.253 0 0 1-.256-.255c0-.143.112-.256.256-.256zm0 2.043h4.22c.144 0 .256.112.256.255a.253.253 0 0 1-.256.256h-4.22a.253.253 0 0 1-.256-.256c0-.143.112-.255.256-.255z" fill-rule="evenodd" fill="#999"/><path d="M9.91 3.453a.253.253 0 0 0-.236-.155H4.047a.253.253 0 0 0-.256.255c0 .143.112.255.256.255h5.627a.253.253 0 0 0 .256-.255.26.26 0 0 0-.02-.1zM5.772 5.34H4.047a.253.253 0 0 0-.256.255.253.253 0 0 0 .256.256h5.158a.257.257 0 0 0 .231-.143.257.257 0 0 0-.23-.368H5.771zm0 2.043H4.047a.253.253 0 0 0-.256.255.253.253 0 0 0 .256.256h4.22a.253.253 0 0 0 .256-.255.253.253 0 0 0-.256-.256H5.772z" fill-rule="evenodd" fill="#999"/><mask id="a" fill="#fff"><path d="M11.21 1c.564 0 1.022.457 1.022 1.021V8.15h-.511V2.02c0-.282-.23-.51-.512-.51H3.023a.511.511 0 0 0-.511.51v9.192c0 .282.229.51.511.51h4.605v.511H3.023A1.022 1.022 0 0 1 2 11.213V2.02C2 1.457 2.458 1 3.023 1h8.186z" clip-rule="evenodd" fill-rule="evenodd"/></mask><path d="M11.21 1c.564 0 1.022.457 1.022 1.021V8.15h-.511V2.02c0-.282-.23-.51-.512-.51H3.023a.511.511 0 0 0-.511.51v9.192c0 .282.229.51.511.51h4.605v.511H3.023A1.022 1.022 0 0 1 2 11.213V2.02C2 1.457 2.458 1 3.023 1h8.186z" clip-rule="evenodd" fill-rule="evenodd" fill="#999" mask="url(#a)"/><path d="M11.72 8.149h.512V2.02c0-.564-.458-1.021-1.023-1.021H3.023A1.023 1.023 0 0 0 2 2.021v9.192c0 .564.458 1.021 1.023 1.021h4.605v-.51H3.023a.511.511 0 0 1-.511-.511V2.02a.51.51 0 0 1 .511-.51h8.186a.51.51 0 0 1 .512.51v6.13z" clip-rule="evenodd" fill-rule="evenodd" fill="#999"/><path d="M10.202 12.947a2.303 2.303 0 0 0 1.392-.128 2.29 2.29 0 0 0 1.029-.856 2.297 2.297 0 0 0 0-2.522 2.299 2.299 0 0 0-1.03-.856 2.286 2.286 0 0 0-1.39-.128 2.293 2.293 0 0 0-1.133.62 2.3 2.3 0 0 0-.621 1.13 2.286 2.286 0 0 0 .128 1.39 2.297 2.297 0 0 0 1.625 1.35zm.89-.5A1.791 1.791 0 0 1 9.72 12.2a1.805 1.805 0 0 1-.77-1.105 1.778 1.778 0 0 1 .097-1.088A1.783 1.783 0 0 1 10 9.055a1.785 1.785 0 0 1 1.963.384 1.796 1.796 0 0 1 .481.87 1.785 1.785 0 0 1-.77 1.891 1.794 1.794 0 0 1-.584.246zm-.325-1.903v-.77h-.511v1.086l.886.442.228-.457-.602-.3z" fill-rule="evenodd" fill="#999"/></svg>