<svg width="12" height="12" viewBox="0 0 12 12" fill="none" xmlns="http://www.w3.org/2000/svg"><path d="M3.374.375V3a.375.375 0 0 1-.375.375H.375A.375.375 0 0 1 0 3V.375C0 .168.167 0 .375 0h2.624c.207 0 .375.168.375.375zm4.315 0V3a.375.375 0 0 1-.375.375H4.69A.374.374 0 0 1 4.316 3V.375c0-.207.167-.375.374-.375h2.624c.208 0 .375.168.375.375zm4.311 0V3a.375.375 0 0 1-.375.375H9.001A.375.375 0 0 1 8.626 3V.375c0-.207.168-.375.375-.375h2.624c.207 0 .375.168.375.375zM3.374 4.688v2.625a.375.375 0 0 1-.375.375H.375A.375.375 0 0 1 0 7.313V4.688c0-.208.167-.375.375-.375h2.624c.207 0 .375.167.375.375zm4.315 0v2.625a.375.375 0 0 1-.375.375H4.69a.374.374 0 0 1-.374-.375V4.688c0-.208.167-.375.374-.375h2.624c.208 0 .375.167.375.375zm4.311 0v2.625a.375.375 0 0 1-.375.375H9.001a.375.375 0 0 1-.375-.375V4.688c0-.208.168-.375.375-.375h2.624c.207 0 .375.167.375.375zM3.374 9v2.625a.375.375 0 0 1-.375.375H.375A.375.375 0 0 1 0 11.625V9c0-.207.167-.375.375-.375h2.624c.207 0 .375.168.375.375zm4.315 0v2.625a.375.375 0 0 1-.375.375H4.69a.374.374 0 0 1-.374-.375V9c0-.207.167-.375.374-.375h2.624c.208 0 .375.168.375.375zM12 9v2.625a.375.375 0 0 1-.375.375H9.001a.375.375 0 0 1-.375-.375V9c0-.207.168-.375.375-.375h2.624c.207 0 .375.168.375.375z" fill="#999"/></svg>