<svg width="14" height="14" viewBox="0 0 14 14" fill="none" xmlns="http://www.w3.org/2000/svg"><path d="M4.374 1.375V4a.375.375 0 0 1-.375.375H1.375A.375.375 0 0 1 1 4V1.375C1 1.168 1.167 1 1.375 1h2.624c.207 0 .375.168.375.375zm4.315 0V4a.375.375 0 0 1-.375.375H5.69A.374.374 0 0 1 5.316 4V1.375c0-.207.167-.375.374-.375h2.624c.208 0 .375.168.375.375zm4.311 0V4a.375.375 0 0 1-.375.375h-2.624A.375.375 0 0 1 9.626 4V1.375c0-.207.168-.375.375-.375h2.624c.207 0 .375.168.375.375zM4.374 5.688v2.625a.375.375 0 0 1-.375.374H1.375A.375.375 0 0 1 1 8.313V5.687c0-.207.167-.375.375-.375h2.624c.207 0 .375.168.375.375zm4.315 0v2.625a.375.375 0 0 1-.375.374H5.69a.374.374 0 0 1-.374-.374V5.687c0-.207.167-.375.374-.375h2.624c.208 0 .375.168.375.375zm4.311 0v2.625a.375.375 0 0 1-.375.374h-2.624a.375.375 0 0 1-.375-.374V5.687c0-.207.168-.375.375-.375h2.624c.207 0 .375.168.375.375zM4.374 10v2.625a.375.375 0 0 1-.375.375H1.375A.375.375 0 0 1 1 12.625V10c0-.207.167-.375.375-.375h2.624c.207 0 .375.168.375.375zm4.315 0v2.625a.375.375 0 0 1-.375.375H5.69a.374.374 0 0 1-.374-.375V10c0-.207.167-.375.374-.375h2.624c.208 0 .375.168.375.375zM13 10v2.625a.375.375 0 0 1-.375.375h-2.624a.375.375 0 0 1-.375-.375V10c0-.207.168-.375.375-.375h2.624c.207 0 .375.168.375.375z" fill="#20A53A"/></svg>