<svg width="14" height="14" viewBox="0 0 14 14" fill="none" xmlns="http://www.w3.org/2000/svg"><path d="M5.386 1.16c.236-.088.48-.14.731-.16.257.38.342.838.476 1.273.092.477.165.955.177 1.438.06.337.024.674.036 1.016.019.306-.024.612-.012.924.012.429-.048.857-.042 1.292-.06.275-.013.563-.098.832-.104-.055-.152-.165-.22-.257a29.05 29.05 0 0 1-1.341-2.203c-.397-.796-.818-1.622-.854-2.528-.03-.716.476-1.402 1.147-1.628zm2.506-.123c.06-.037.129.006.196.012.329.073.683.122.963.336.263.22.507.484.604.82.14.404.086.845 0 1.255-.122.52-.354 1.01-.585 1.493-.073.147-.177.282-.244.435-.135.3-.311.581-.482.857-.269.465-.568.905-.86 1.352-.043.049-.098.172-.171.092a24.554 24.554 0 0 1-.104-1.48c-.067-.631-.03-1.268-.036-1.904.043-.423.048-.845.098-1.261.097-.496.164-.998.317-1.48.11-.166.128-.411.304-.527zM2.8 2.628c.067-.03.097.055.14.092a27.924 27.924 0 0 1 3.037 4.884c.067.14.153.281.165.44-.153-.036-.28-.116-.421-.183a25.561 25.561 0 0 1-2.281-1.31c-.275-.196-.555-.385-.8-.618-.487-.343-.823-.924-.78-1.53.048-.698.482-1.285.94-1.775zm8.32-.006h.097c.22.288.476.557.635.887.17.3.255.643.28.986-.019.38-.14.771-.39 1.065-.166.147-.294.324-.464.453-.91.722-1.934 1.285-2.965 1.824-.152.08-.299.19-.47.208.031-.215.16-.386.245-.582a27.154 27.154 0 0 1 2.433-4.021c.19-.275.41-.539.599-.82zM1.043 5.842c.025-.05.019-.135.086-.148.122.025.225.104.335.166 1.458.795 2.91 1.61 4.307 2.509.048.024.073.073.091.129-.921.012-1.842.012-2.757.006-.555.006-1.086-.251-1.476-.637-.336-.367-.593-.832-.623-1.34 0-.227-.023-.46.037-.686zm11.584-.044c.09-.055.182-.11.292-.097.018.214.06.428.067.642-.036.263-.03.539-.146.784-.098.214-.195.434-.366.6-.183.17-.335.379-.567.489-.257.196-.586.257-.903.275-.964.007-1.934.007-2.897 0 .024-.048.048-.091.097-.116 1.434-.924 2.928-1.756 4.422-2.577zM3.104 8.895c.519-.055 1.043-.006 1.562-.067.372-.012.744-.03 1.11 0-.098.16-.275.233-.415.337a8.697 8.697 0 0 1-1.238.74c-.427.214-.964.135-1.33-.165-.299-.208-.506-.508-.701-.808.335-.043.677-.012 1.012-.037zm5.093-.067a9.684 9.684 0 0 1 1.11.006c.5.055 1.013.006 1.513.06.354.031.708 0 1.062.044a2.316 2.316 0 0 1-.519.673c-.317.33-.805.496-1.25.398-.39-.122-.732-.367-1.08-.569-.19-.116-.366-.245-.555-.367-.104-.073-.213-.14-.28-.245z" fill="#E7081A"/><path d="M1 11.062c.146.006.287.006.433 0 0 .257-.012.52.006.783.323.013.653.013.982 0 .018-.257.006-.52.006-.776.147.006.287.006.433 0-.006.636-.006 1.273 0 1.91h-.433c0-.264.012-.521-.006-.784a13.288 13.288 0 0 0-.982 0c-.012.263-.006.52-.006.783H1c.006-.643.006-1.28 0-1.916zm2.208 0c.146.006.287.006.433 0 .012.41-.006.82.006 1.236 0 .202.159.41.372.41.214.037.519-.024.568-.275.018-.453.006-.912.006-1.371.146.006.286.006.433 0 .006.41.006.82.006 1.23-.006.159 0 .349-.128.465-.232.226-.574.257-.879.239-.189-.019-.402-.025-.555-.153a.562.562 0 0 1-.25-.508c-.012-.423 0-.845-.012-1.273zm2.806 0h.47c.055.208.183.38.25.582.17.275.238.6.415.869.073.146.14.293.183.459-.146 0-.293.012-.44-.006-.097-.129-.121-.3-.207-.435a4.037 4.037 0 0 0-.902.006c-.074.14-.122.3-.214.435-.134.012-.268.006-.402.006.012-.184.103-.337.195-.484.091-.232.207-.453.293-.685.164-.227.213-.508.36-.747zm-.091 1.102c.205.05.41.05.616 0-.105-.233-.177-.471-.312-.686-.14.208-.2.46-.304.686zm1.189-1.102h.475c.037.184.08.367.153.539.116.3.158.618.286.912.049-.398.293-.784.342-1.175.02-.092.046-.182.08-.27h.518c.116.38.256.747.348 1.133.036.116.048.257.158.324.098-.49.3-.955.421-1.438.146-.037.305-.007.464-.019-.22.637-.446 1.267-.654 1.91-.17 0-.341.012-.512 0-.055-.03-.055-.104-.073-.153-.134-.404-.226-.826-.396-1.212-.061.11-.08.232-.11.349-.092.336-.19.673-.275 1.01a7.52 7.52 0 0 1-.524 0c-.147-.245-.171-.539-.311-.784-.128-.324-.202-.68-.366-.985a.377.377 0 0 1-.024-.14zm3.562.251a.536.536 0 0 1 .47-.244c.335-.007.665 0 1-.007v.343a13.478 13.478 0 0 0-.86 0c-.214.025-.348.227-.36.435.402.024.811.006 1.22.006v.343c-.397-.006-.8-.012-1.196 0a.37.37 0 0 0 .263.453c.31.055.622.012.933.03v.3c-.336 0-.665.006-1 0-.364-.042-.585-.242-.666-.6-.06-.36-.048-.77.196-1.059zm1.866-.214a1.2 1.2 0 0 1 .446-.006c.024.355.006.71.012 1.065-.006.276.018.55-.019.82h-.439c.006-.63.006-1.254 0-1.879z" fill="#000"/></svg>