<svg width="14" height="14" viewBox="0 0 14 14" fill="none" xmlns="http://www.w3.org/2000/svg"><path d="m8.435 9.582.554-.472-.241-.405-1.614 1.375h5.223v-.498H8.435zm2.427 2.654-.46.34.218.424 1.708-1.262H7.022v.498h3.84z" fill-rule="evenodd" fill="#20A53A"/><path d="m6.18 12.386-4.355.078a.78.78 0 0 1-.238-.036h-.003a.78.78 0 0 1-.228-.118.848.848 0 0 1-.228-.251.942.942 0 0 1-.115-.295.982.982 0 0 1-.02-.2V1.87a.935.935 0 0 1 .136-.497.883.883 0 0 1 .23-.253.806.806 0 0 1 .278-.13.745.745 0 0 1 .174-.02h3.683a.747.747 0 0 1 .451.15.84.84 0 0 1 .231.253.927.927 0 0 1 .117.306.996.996 0 0 1 .019.191v.452a.298.298 0 0 0 .168.278.25.25 0 0 0 .105.022h3.963a.762.762 0 0 1 .452.15.84.84 0 0 1 .23.254.956.956 0 0 1 .117.304.996.996 0 0 1 .019.192v1.383h-.545V3.522a.297.297 0 0 0-.168-.278.25.25 0 0 0-.105-.022H6.585a.762.762 0 0 1-.452-.15v.001a.84.84 0 0 1-.23-.254.952.952 0 0 1-.118-.305.996.996 0 0 1-.018-.192V1.87a.304.304 0 0 0-.168-.278.248.248 0 0 0-.105-.022H1.81a.25.25 0 0 0-.104.022.303.303 0 0 0-.148.163.322.322 0 0 0-.02.115v8.392l1.307-4.066a.857.857 0 0 1 .523-.559.746.746 0 0 1 .248-.04h8.548c.075 0 .147.01.216.03a.768.768 0 0 1 .312.18.877.877 0 0 1 .232.353.977.977 0 0 1 .058.382.981.981 0 0 1-.04.235l-.586 1.963v-.035h-.564l.632-2.115a.332.332 0 0 0-.003-.197.317.317 0 0 0-.087-.132.273.273 0 0 0-.085-.05.25.25 0 0 0-.085-.015H3.617a.248.248 0 0 0-.082.014.288.288 0 0 0-.135.105.306.306 0 0 0-.04.081L1.78 11.31a.344.344 0 0 0-.001.199h.001a.312.312 0 0 0 .086.135.265.265 0 0 0 .086.05v.001a.25.25 0 0 0 .086.015H6.18v.677z" clip-rule="evenodd" fill-rule="evenodd" fill="#999"/></svg>