<svg width="14" height="14" viewBox="0 0 14 14" fill="none" xmlns="http://www.w3.org/2000/svg"><path d="M2.333 2.44h.445v.48h-.445v-.48zm1.334 0h.444v.48h-.444v-.48zM5 2.44h.444v.48H5v-.48zm1.552 0h4.452c.12 0 .218.107.218.24s-.098.24-.218.24H6.552c-.121 0-.219-.107-.219-.24s.098-.24.219-.24zM1.218 3.88h11.564c.12 0 .218.107.218.24s-.098.24-.218.24H1.218c-.12 0-.218-.107-.218-.24s.098-.24.218-.24z" fill-rule="evenodd" fill="#999"/><path d="M12.454 10.205c.302 0 .546.268.546.6V12.4c0 .331-.244.6-.546.6H9.99c-.302 0-.546-.269-.546-.6v-1.595c0-.332.244-.6.546-.6h2.464zm0 .6V12.4H9.99v-1.595h2.464zm-2.571-1.06v.46h.545v-.46a.85.85 0 0 1 .067-.348.477.477 0 0 1 .139-.188c.197-.12.429-.214.617-.227a.838.838 0 0 1 .592.187.408.408 0 0 1 .127.189.889.889 0 0 1 .046.3v.547h.546v-.547c0-.19-.029-.364-.085-.521-.05-.14-.12-.259-.21-.356a.903.903 0 0 0-.108-.1 1.332 1.332 0 0 0-.942-.297c-.27.017-.538.108-.808.272a.956.956 0 0 0-.173.134 1.1 1.1 0 0 0-.233.348c-.068.171-.12.403-.12.607z" fill-rule="evenodd" fill="#20A53A"/><path d="M11.737 12.668v-.798c0-.168-.12-.3-.272-.3-.153 0-.273.132-.273.3v.798c0 .168.12.3.273.3.152 0 .272-.132.272-.3z" fill-rule="evenodd" fill="#20A53A"/><path d="M12.455 1c.3 0 .545.269.545.6v6.12h-.545V1.6H1.545v10.8h7.01v.6h-7.01c-.3 0-.545-.269-.545-.6V1.6c0-.331.244-.6.545-.6h10.91z" fill-rule="evenodd" fill="#999"/></svg>