<svg width="12" height="12" viewBox="0 0 12 12" fill="none" xmlns="http://www.w3.org/2000/svg"><defs><clipPath id="a"><path fill="#fff" d="M0 0h12v12H0z"/></clipPath></defs><g clip-path="url(#a)" fill="#20A53A"><path d="M1.963 3.958a.054.054 0 0 0-.003.005l-.007.017-.003.009c-.004.012-.004.015.013-.031zm1.795-1.777-.01.004-.017.007-.005.002c.046-.016.043-.017.032-.013zm.826-.221H4.58h.003z"/><path d="m10.777 10.15-.98-.898L8.242 7.83l-.168-.154A3.853 3.853 0 0 0 8.85 5.97a3.892 3.892 0 0 0-.595-2.88A3.957 3.957 0 0 0 6.5 1.662a3.886 3.886 0 0 0-5.03 5.166 3.89 3.89 0 0 0 3.615 2.32 3.926 3.926 0 0 0 2.61-1.059l.772.708 1.553 1.422.36.33c.108.098.29.114.397 0 .099-.109.115-.292 0-.398zM7.059 7.897l-.003.003c-.028.022-.01.008.003-.003zm.08-.064-.056.045-.016.013c-.044.03-.084.063-.127.093a3.582 3.582 0 0 1-.607.339c-.047.018-.092.037-.139.054a3.572 3.572 0 0 1-.666.174l-.037.006h-.017l.008.001.007.001h-.016l-.037.005a3.943 3.943 0 0 1-.408.022 3.626 3.626 0 0 1-.4-.021l-.05-.006-.026-.004a3.594 3.594 0 0 1-.768-.207l-.05-.02-.012-.005a3.41 3.41 0 0 1-.566-.312 3.788 3.788 0 0 1-.15-.107l-.012-.009a3.651 3.651 0 0 1-.594-.592l-.076-.102a3.532 3.532 0 0 1-.376-.677l-.023-.058a3.62 3.62 0 0 1-.196-.758l-.002-.01A3.617 3.617 0 0 1 1.73 4.8l.01-.063.026-.14a3.61 3.61 0 0 1 .19-.62c0-.005.003-.008.004-.012l.005-.013a3.615 3.615 0 0 1 .425-.723l-.009.011c.014-.015.026-.032.038-.048a3.46 3.46 0 0 1 .257-.284 3.605 3.605 0 0 1 .284-.256l.048-.038c-.069.059-.002.002.016-.012a3.63 3.63 0 0 1 .663-.39l.04-.017-.007.003.011-.005.013-.006a3.5 3.5 0 0 1 .824-.225l.013-.001h.003l.016-.003-.016.002a3.61 3.61 0 0 1 .883 0h.01l.129.022a3.57 3.57 0 0 1 .687.198l.021.009a3.858 3.858 0 0 1 .668.377l.09.066c.003.004.008.007.012.01l.053.044a3.651 3.651 0 0 1 .529.543l.006.01c.013.015.025.032.037.048l.074.107a3.628 3.628 0 0 1 .308.56l.005.012.023.058a3.64 3.64 0 0 1 .205.768l.003.018.006.051a3.767 3.767 0 0 1 .007.731 3.986 3.986 0 0 1-.008.077l-.005.038v.017c-.002.015-.007.03-.008.042l-.015.084a3.58 3.58 0 0 1-.17.607l-.026.07c-.008.019-.043.087-.008.018-.025.05-.045.102-.07.152a3.616 3.616 0 0 1-.365.596 3.61 3.61 0 0 1-.526.541z"/></g></svg>