<svg width="14" height="14" viewBox="0 0 14 14" fill="none" xmlns="http://www.w3.org/2000/svg"><path d="M5.628 8.742a2.619 2.619 0 0 1-.842.591 2.72 2.72 0 0 1-1.013.235 2.77 2.77 0 0 1-1.5-.377 2.677 2.677 0 0 1-.765-.682 2.58 2.58 0 0 1-.362-.67 2.486 2.486 0 0 1 .25-2.188 2.567 2.567 0 0 1 .71-.736 2.69 2.69 0 0 1 1.206-.463 2.767 2.767 0 0 1 1.76.362 2.66 2.66 0 0 1 .415.306l2.327-1.462a1.868 1.868 0 0 1 .33-1.981 1.954 1.954 0 0 1 .672-.494 2.054 2.054 0 0 1 1.538-.066 2.063 2.063 0 0 1 .624.356 1.967 1.967 0 0 1 .506.652 1.942 1.942 0 0 1 .148.445 1.888 1.888 0 0 1-.022.814 1.928 1.928 0 0 1-.297.638 1.906 1.906 0 0 1-.415.425 1.968 1.968 0 0 1-.528.286 2.064 2.064 0 0 1-2.044-.374L6.028 5.803a2.486 2.486 0 0 1 .086 2.22l3.348 1.816a1.975 1.975 0 0 1 .89-.591 2.046 2.046 0 0 1 .96-.08 2.09 2.09 0 0 1 .684.231 2.033 2.033 0 0 1 .553.453 1.975 1.975 0 0 1 .307.502 1.925 1.925 0 0 1 .138.569 1.9 1.9 0 0 1-.045.582 1.862 1.862 0 0 1-.36.737 1.842 1.842 0 0 1-.246.258 2.042 2.042 0 0 1-.617.368 2.143 2.143 0 0 1-.47.116 2.045 2.045 0 0 1-.724-.037 2.039 2.039 0 0 1-1.105-.683 1.95 1.95 0 0 1-.337-.62 1.93 1.93 0 0 1-.087-.46 1.829 1.829 0 0 1 .056-.58L5.628 8.741z" fill="#999"/></svg>