<svg width="14" height="14" viewBox="0 0 14 14" fill="none" xmlns="http://www.w3.org/2000/svg"><path d="M6.454 2a3.615 3.615 0 0 0-1.488.67l-.114.082a4.268 4.268 0 0 0-1.26 1.776c-.106.282-.19.575-.252.877-.035.154-.084.22-.155.22-.347.108-.675.27-.984.487-.214.18-.415.382-.6.604C1.186 7.31.986 7.998 1 8.78c-.011.905.257 1.662.804 2.27.32.383.697.651 1.128.803.473.154.336.147 4.05.147 3.125 0 3.443 0 3.653-.044.231-.047.457-.118.678-.214l.114-.066a3.09 3.09 0 0 0 .558-.42c.663-.628 1-1.456 1.014-2.484a4.519 4.519 0 0 0-.156-1.054.448.448 0 0 1-.036-.117 3.108 3.108 0 0 0-.234-.538l-.114-.177a2.228 2.228 0 0 0-.45-.553 2.038 2.038 0 0 0-.504-.405l-.108-.06a5.094 5.094 0 0 0-.6-.25 3.43 3.43 0 0 0-.444-.044 2.073 2.073 0 0 0-.9.11l-.246.104a2.64 2.64 0 0 0-.6.376 17.63 17.63 0 0 0-1.272 1.333c-.748.85-1.5 1.695-2.256 2.535l-.438.502-.198.235h-.402c-.222 0-.498 0-.6-.059-.68-.124-1.117-.59-1.313-1.4a3.24 3.24 0 0 1 0-.965c.102-.412.288-.756.558-1.032a1.721 1.721 0 0 1 1.097-.479c.52.042.967.288 1.338.737l.264.273.264.272c.053.066.113.12.18.163.042 0 .138-.096.48-.48a2.67 2.67 0 0 0 .294-.375 1.505 1.505 0 0 0-.204-.28l-.276-.28c-.042-.06-.474-.465-.696-.664a2.807 2.807 0 0 0-.75-.456.763.763 0 0 1-.222-.126c.047-.256.117-.501.21-.737a3.4 3.4 0 0 1 .6-.92 2.39 2.39 0 0 1 .984-.635l.234-.029c.17-.047.342-.067.516-.059a1.64 1.64 0 0 1 .6.059c.42.108.796.329 1.128.663.218.235.402.506.552.81.037.078.076.151.12.222a.615.615 0 0 0 .174 0c.175-.033.351-.053.528-.06.42 0 .432 0 .342-.22-.03-.07-.056-.14-.078-.214a1.2 1.2 0 0 0-.084-.214 1.27 1.27 0 0 1-.066-.14 5.225 5.225 0 0 0-.474-.736 3.841 3.841 0 0 0-1.056-.922l-.27-.154a3.163 3.163 0 0 0-.438-.17C7.474 2.005 6.97 1.922 6.454 2zm4.104 4.878c.379.082.695.301.948.656.27.338.397.744.384 1.216.022.2.004.394-.054.582-.056.243-.15.462-.282.656-.24.343-.537.569-.894.678a3.905 3.905 0 0 1-.492.066H6.094c.18-.24.37-.466.57-.677l.732-.863a106.13 106.13 0 0 1 1.398-1.555l.15-.17a3.02 3.02 0 0 1 .504-.42c.099-.058.201-.107.306-.147l.204-.073c.2-.032.4.02.6.051z" fill="#00A2FE"/><path d="M3.01 5.685a3.604 3.604 0 0 0-.81.427l-.068.06a4.901 4.901 0 0 0-.531.544 3.26 3.26 0 0 0-.422.837c-.127.38-.186.788-.178 1.227a3.51 3.51 0 0 0 .243 1.378c.132.326.32.623.56.891.198.237.417.43.656.577.15.093.307.168.473.227.068.022.123.04.18.057.166.047.337.07.858.08l.398-1.22h-.326c-.222 0-.498 0-.6-.06a1.495 1.495 0 0 1-.766-.371c-.257-.238-.44-.581-.548-1.029a3.24 3.24 0 0 1 0-.965 2.35 2.35 0 0 1 .28-.678 2.06 2.06 0 0 1 .278-.354 1.85 1.85 0 0 1 .593-.374 1.65 1.65 0 0 1 .505-.105c.225.019.437.075.634.17.258.124.493.313.703.567l.264.273.265.272c.052.066.112.12.18.163.041 0 .138-.096.48-.48.107-.114.205-.239.293-.375a1.506 1.506 0 0 0-.204-.28l-.276-.28c-.042-.06-.473-.465-.696-.663a2.81 2.81 0 0 0-.75-.457.74.74 0 0 1-.126-.06H3.011z" clip-rule="evenodd" fill-rule="evenodd" fill="#03C6D9"/></svg>