<svg width="14" height="14" viewBox="0 0 14 14" fill="none" xmlns="http://www.w3.org/2000/svg"><path d="M13.125 1c.483 0 .875.358.875.8v10.4c0 .442-.392.8-.875.8H.875C.392 13 0 12.642 0 12.2V1.8c0-.442.392-.8.875-.8h12.25zM1.312 2c-.241 0-.437.224-.437.5s.196.5.438.5c.241 0 .437-.224.437-.5S1.554 2 1.312 2zm1.75 0c-.241 0-.437.224-.437.5s.196.5.438.5c.241 0 .437-.224.437-.5S3.304 2 3.062 2zm1.75 0c-.241 0-.437.224-.437.5s.196.5.438.5c.241 0 .437-.224.437-.5S5.054 2 4.812 2zM.876 12.2V4h12.25v8.2H.875zm5.403-4.37L3.454 5.504l-.586.594 2.144 1.768L2.85 9.871l.623.562L6.278 7.83zM9.71 9.24H7v.8h2.71v-.8z" clip-rule="evenodd" fill-rule="evenodd" fill="#20A53A"/></svg>