<svg width="14" height="14" viewBox="0 0 14 14" fill="none" xmlns="http://www.w3.org/2000/svg"><path d="M11.897 14H2a1 1 0 0 1-1-1V1a1 1 0 0 1 1-1h6.684l4.213 3.75V13a1 1 0 0 1-1 1z" fill-rule="evenodd" fill="#519FF1"/><path d="M6.422 8.404a.243.243 0 0 0 .35 0 .252.252 0 0 0 0-.355.898.898 0 0 1-.258-.635c0-.24.091-.466.259-.635L7.78 5.763a.883.883 0 0 1 .63-.261.88.88 0 0 1 .63.261.905.905 0 0 1-.001 1.271L8.034 8.049a.252.252 0 0 0 0 .355.247.247 0 0 0 .351 0l1.006-1.016c.261-.263.406-.615.406-.99a1.4 1.4 0 0 0-.406-.99A1.373 1.373 0 0 0 8.41 5c-.371 0-.72.145-.981.409L6.422 6.424a1.397 1.397 0 0 0-.406.99c0 .375.145.726.406.99zm-2.042 2.06c.261.263.61.408.981.408.372 0 .72-.145.98-.409L7.35 9.447c.261-.263.406-.615.406-.99a1.4 1.4 0 0 0-.406-.99.247.247 0 0 0-.351 0 .252.252 0 0 0 0 .355.9.9 0 0 1 .259.636c0 .24-.092.466-.26.635L5.99 10.109a.883.883 0 0 1-1.26 0 .905.905 0 0 1 0-1.27l1.008-1.016a.252.252 0 0 0 0-.354.247.247 0 0 0-.351 0L4.38 8.484a1.397 1.397 0 0 0-.406.99c0 .374.145.726.406.99z" fill-rule="evenodd" fill="#FFF"/><path d="M6.422 8.404a1.392 1.392 0 0 1-.406-.99 1.389 1.389 0 0 1 .405-.99L7.43 5.41a1.37 1.37 0 0 1 .98-.409c.372 0 .72.145.982.409.261.263.406.615.406.99a1.4 1.4 0 0 1-.406.99l-.504.508-.164.166-.338.34a.247.247 0 0 1-.351 0 .252.252 0 0 1 0-.354l.142-.143.354-.357.51-.515a.896.896 0 0 0 .26-.635.898.898 0 0 0-.26-.636.88.88 0 0 0-.63-.261.883.883 0 0 0-.63.261l-.626.631-.381.385a.891.891 0 0 0-.26.635c.015.205.1.463.239.613.07.072.11.196.079.285-.006.006-.071.104-.078.11a.244.244 0 0 1-.156.056c-.03 0-.147-.063-.175-.074zm-1.537-.43.163-.164.339-.341a.247.247 0 0 1 .351 0 .252.252 0 0 1 0 .354l-.143.145-.353.355-.511.516a.905.905 0 0 0 0 1.27.883.883 0 0 0 1.26 0l.625-.632.382-.384a.892.892 0 0 0 .259-.635c-.015-.205-.1-.463-.237-.612-.07-.072-.112-.198-.08-.286.006-.007.07-.105.078-.11a.246.246 0 0 1 .245-.039c.19.191.404.486.46.746a1.424 1.424 0 0 1-.218 1.103 1.41 1.41 0 0 1-.156.187l-1.007 1.017a1.37 1.37 0 0 1-.98.408c-.372 0-.72-.145-.982-.409a1.397 1.397 0 0 1-.406-.99c0-.374.145-.725.406-.989l.505-.51z" fill-rule="evenodd" fill="#FFF"/><path d="M8.684 3.75h4.213L8.684 0v3.75z" fill-rule="evenodd" fill="#B5D9FF"/></svg>