<svg width="354" height="22.676" viewBox="0 0 354 22.676" fill="none" xmlns="http://www.w3.org/2000/svg"><path d="M106.441 0v3.21h8.303v14.21h-2.976v-1.15h-5.327v6.141h-3v-6.14h-5.209v1.271H95.38V3.211h8.062V0h3zm27.645 7.605v-1.03h4.611V4.651h-4.611v-.96h5.355v-2.04h-5.355V.023h-2.83v1.63h-5.209V3.69h5.209v.961h-4.559v1.922h4.559v1.031h-5.93v2.04h14.836v-2.04h-6.076zm59.736 2.303c0 .504 0 1.055-.023 1.612h4.681v10.845h-2.589V14.04h-2.186c-.193 3.117-.744 6.264-2.062 8.52-.457-.528-1.418-1.395-1.993-1.776 1.389-2.906 1.559-7.488 1.559-10.875V.645h2.613v5.689h1.635V.024h2.566v6.31h1.659v2.52h-5.86v1.054zm4.658 11.186c1.752-3.17 1.969-8.186 1.969-11.59V1.459c3.504-.24 7.389-.715 10.008-1.318l1.582 2.496c-2.59.574-5.83.937-8.877 1.13v2.854h6.334l.457-.094 1.705.428c-.457 4.201-1.465 7.565-2.976 10.178 1.007 1.295 2.209 2.379 3.574 3.123-.621.504-1.465 1.535-1.922 2.28-1.248-.821-2.35-1.876-3.287-3.1a13.88 13.88 0 0 1-3.768 3.1 13.19 13.19 0 0 0-1.488-2.14c-.287.844-.621 1.588-1.055 2.28-.504-.48-1.582-1.248-2.256-1.582zm50.737-11.59v2.684h-4.131c-.047.34-.094.673-.164.984 1.248 1.224 3.838 4.224 4.512 5.015l-1.922 2.403c-.791-1.248-2.162-3.047-3.334-4.512-.821 2.35-2.233 4.606-4.535 6.287-.387-.597-1.442-1.728-2.045-2.162 3.123-2.232 4.224-5.232 4.611-8.015h-4.248V9.503h4.441v-3.82h-.961c-.48 1.224-1.031 2.332-1.634 3.216-.528-.48-1.653-1.295-2.303-1.652 1.295-1.728 2.209-4.488 2.689-7.225l2.737.551a29.42 29.42 0 0 1-.604 2.473h6.34v2.637h-3.387v3.82h3.938zM144.334.21c1.248.627 3.076 1.658 3.984 2.355L146.59 4.87c-.838-.72-2.637-1.846-3.932-2.566L144.334.21zm43.775 7.13V4.63h-1.798l1.775-1.149c-.428-.89-1.436-2.232-2.326-3.193l-1.922 1.172c.797.96 1.682 2.232 2.115 3.17h-2.232c-.047-1.441-.047-2.93-.047-4.418h-2.906c.023 1.54.046 3 .093 4.418h-7.435v2.713h7.535c.404 9.31 1.488 14.906 4.512 14.93.984.023 2.326-.915 2.929-5.52-.457-.264-1.752-1.06-2.232-1.658-.1 2.162-.287 3.357-.604 3.334-.814-.024-1.488-4.752-1.775-11.086h4.318zm-15.093-3.41c-.791-1.03-2.52-2.542-3.791-3.574l-1.846 1.729c1.271 1.125 2.947 2.736 3.668 3.814l1.969-1.968zm-48.334.053c-.844-1.037-2.573-2.548-3.868-3.603l-1.822 1.728c1.272 1.155 2.977 2.807 3.721 3.868l1.969-1.993zM218.977.381c-1.055 1.728-3.17 3.504-4.922 4.512.697.527 1.511 1.347 1.992 1.921 2.015-1.294 4.131-3.216 5.596-5.355L218.977.381zm-57.698 19.178V.404h2.233V19.56c0 1.294-.241 1.945-1.008 2.326-.744.386-1.922.48-3.65.457-.094-.627-.428-1.658-.715-2.326.929.038 1.847.03 2.353.025l.283-.002c.364 0 .504-.123.504-.48zm61.799-14.403v11.596h2.86V7.775h5.923v8.877h3V5.156h-5.203c.188-.504.381-1.008.574-1.558h5.637V.932h-13.916v2.666h5.063c-.071.527-.17 1.054-.264 1.558h-3.674zm-68.443-1.845h-4.155v13.652h-2.138V1.295h8.519v15.527h-2.226V3.311zm95.226 18.433V2.086h9.147V21.38h-2.906v-1.365h-3.481v1.728h-2.76zM157.992 2.232h2.162v14.684h-2.162V2.232zm-4.441 11.59c0 1.465-.141 3.024-.768 4.489l1.512-.915c1.107 1.155 2.426 2.69 3.07 3.721l-1.822 1.131c-.574-.984-1.799-2.572-2.854-3.72-.697 1.535-1.968 2.923-4.13 3.908-.217-.48-.862-1.39-1.225-1.729 3.768-1.7 4.154-4.271 4.154-6.932V4.63h2.063v9.193zm99.07-9.047v12.551h3.481V4.776h-3.481zm-149.18 3.598V5.947h-5.209v2.426h5.209zm8.327 0V5.947h-5.327v2.426h5.327zm31.582-1.752c1.248.598 3.076 1.582 3.984 2.256l-1.676 2.28c-.867-.698-2.642-1.776-3.914-2.473l1.606-2.063zm76.154.264c-1.201 1.822-3.574 3.674-5.496 4.752.721.527 1.512 1.418 1.969 2.015 2.185-1.388 4.535-3.433 6.117-5.66l-2.59-1.107zm-95.977 9.814V7.39h-5.666v2.736h2.93v7.418c0 1.102-.697 1.916-1.201 2.28.457.503 1.154 1.728 1.394 2.396.411-.575 1.178-1.248 5.543-4.63-.31-.573-.744-1.704-.937-2.472l-2.063 1.582zm55.178-4.008h1.799v-2.613h-6.358v2.613h1.94v5.162c-.527.147-1.031.264-1.488.387l.023-.03c-.264-.573-.598-1.698-.738-2.442l-2.139 1.341V7.39h-5.519v2.736h2.806v7.271c0 1.032-.744 1.823-1.248 2.163.434.574 1.108 1.798 1.319 2.496.41-.48 1.154-.961 4.728-3.31l.65 2.325a291.59 291.59 0 0 0 7.008-2.062l-.386-2.473c-.815.217-1.606.428-2.397.645V12.69zm51.744-3.62h-2.883v4.388c0 2.309-.404 5.162-6.504 6.984.604.504 1.465 1.489 1.852 2.092 6.07-2.332 7.535-6 7.535-9.023V9.07zM207 14.466c.744-1.535 1.318-3.31 1.705-5.256h-3.603A25.726 25.726 0 0 0 207 14.467zm-3.838-4.055c-.053 3.023-.293 6.627-1.248 9.604 1.389-.721 2.566-1.776 3.598-3.076-1.008-1.917-1.752-4.126-2.35-6.528zm-64.635.147h-11.589v11.9h2.66v-3.504h6.216v.697c0 .287-.117.387-.427.387-.049 0-.116 0-.2.002-.464.003-1.416.01-2.249-.049.333.692.667 1.723.791 2.42 1.658.024 2.83 0 3.673-.404.885-.387 1.125-1.06 1.125-2.309v-9.14zm-40.295.433v2.543h5.209v-2.543h-5.209zm8.209 0v2.543h5.327v-2.543h-5.327zm29.373 1.652v1.225h-6.216v-1.224h6.216zm6.34 8.063c.885-1.87 2.133-4.893 3.071-7.7l2.302 1.49c-.791 2.566-1.822 5.325-2.783 7.675l-2.59-1.465zm77.737-7.342c-1.248 2.543-3.721 4.776-6.194 6.047.721.604 1.512 1.559 1.969 2.28 2.807-1.73 5.279-4.249 6.885-7.366l-2.66-.96zm-90.293 3.697v-1.37h6.216v1.37h-6.216zm99.697 1.56c1.875 1.13 4.348 2.806 5.519 3.937l1.489-2.256c-1.201-1.108-3.768-2.666-5.567-3.674l-1.441 1.992z" fill-rule="evenodd" fill="#555"/><path d="M354 11.35h-62.25L287 6.6l-5.75 5.75L287 18.1l4.75-4.75H354v-2z" fill-rule="evenodd" fill="url(#a)"/><path d="M0 9.35h62.25L67 4.6l5.75 5.75L67 16.1l-4.75-4.75H0v-2z" fill-rule="evenodd" fill="url(#b)"/><defs><linearGradient id="a" x1="284" y1="12.35" x2="356" y2="12.35" gradientUnits="userSpaceOnUse"><stop stop-color="#666"/><stop offset="1" stop-opacity="0"/></linearGradient><linearGradient id="b" x1="70" y1="10.35" x2="-2" y2="10.35" gradientUnits="userSpaceOnUse"><stop stop-color="#666" stop-opacity=".996"/><stop offset="1" stop-opacity="0"/></linearGradient></defs></svg>