<svg width="369" height="17.543" viewBox="0 0 369 17.543" fill="none" xmlns="http://www.w3.org/2000/svg"><path d="M228.755 3.568h2.408V1.6h-2.953q-.272-.914-.527-1.6l-2.426.44q.22.518.457 1.16h-3.129v1.968h5.871q-.325.712-1.195 2.18h-.774q-.474-.976-1.177-2.144l-1.916.773q.395.65.764 1.371h-1.889v1.969h3.585v1.142h-3.304v1.97h3.304v3.233q-.01.464-.244.656-.165.136-.441.136-.431 0-.861-.036.65-1.485 1.125-3.076l-1.969-.598q-.651 2.215-1.529 3.868 1.195.457 1.88.879l.37-.783q.272.932.351 1.978 1.67 0 2.29-.127.396-.082.681-.305l.004-.004q.158-.125.282-.294.347-.474.347-1.292v-4.236h3.093V8.86h-3.093V7.717h3.41V5.748h-1.811q.607-.905.897-1.353-1.398-.607-1.881-.827zm-57.27-.105h-6.398v2.32h6.486q.255 5.687.721 7.963.466 2.277 1.155 2.993.242.25.532.413l.002.001.002.002q.538.3 1.244.3.441 0 .805-.166h.001q.493-.226.847-.757.615-.923.984-3.893-.861-.264-2.056-.739-.238 2.699-.545 2.778-.05 0-.093-.017h-.001q-.085-.035-.144-.137-.088-.154-.325-1.151-.237-.998-.448-2.9-.211-1.904-.325-4.69h3.674v-2.32h-1.609l1.362-1.055q-.791-.984-1.951-2.197l-1.476 1.16q.553.607 1.652 2.092h-1.731l-.044-3.358h-2.391l.07 3.358zm-24.662 8.525V2.452l-1.582 1.714q-1.142-1.143-2.549-2.373l1.442-1.617q1.239.896 2.689 2.17V.933h6.768V11.9h-1.828V2.865h-3.112v9.123h-1.828zM182.735.193h2.092v5.291h.914v1.97h-4.236v1.634h3.322v8.05h-2.092v-6.081h-1.221q0 3.832-1.345 6.416-.861-.721-1.863-1.46 1.23-2.144 1.142-7.1V.58h2.057v4.904h1.23V.194zm82.899 6.82h-5.819V9.23h14.098V7.014h-5.818V4.605h7.224v-2.25h-7.224V.193h-2.461v2.162h-7.225v2.25h7.225v2.409zm-27.369 1.038h1.336V5.748h-5.204V3.41q2.831-.264 5.204-.896L238.599.21q-2.514.879-6.522 1.283v7.91q0 2.444-.729 4.158-.827-1.574-1.451-2.417l-1.687.843q.721 1.213 1.336 2.602l1.793-1.01q-.477 1.115-1.268 1.923h-.001l-.001.002q-.142.145-.295.28 1.02.72 2.215 1.758 2.408-2.927 2.408-8.49V8.05h1.547v9.14h2.321V8.05zm-73.389-4.588q-1.037-1.635-2.232-3.217l-1.899 1.125q1.143 1.635 2.074 3.34l2.057-1.248zM194.952.299l.633 2.303q-2.689.51-7.137.914v1.687h6.557V7.26q-.504 3.1-2.021 5.583h-.001q-.069.114-.14.226.607.645 1.316 1.145.76.535 1.637.903l-1.442 2.25q-.991-.618-1.836-1.394l-.002-.002-.01-.009q-.543-.5-1.026-1.064-1.195 1.344-2.751 2.47-.351-.616-1.265-1.952 1.522-.984 2.62-2.317l.061-.074Q189.107 11.25 188.501 9l1.564-1.424q.501 1.995 1.345 3.507.844-1.617 1.239-3.612h-4.201v.949q0 6.205-2.127 8.965-.668-1.02-1.459-2.057 1.512-2.215 1.389-7.365V1.336q5.73-.299 8.701-1.037zm-37.898.017h2.039v14.555q0 .932-.4 1.477-.204.277-.473.448h-.001q-.261.166-.585.233-.659.136-2.672.11-.141-1.178-.545-2.461.967.105 1.846.105.324 0 .515-.16.276-.229.276-.789V.316zM103.88 2.18q0-.377.155-.673.112-.215.307-.386.093-.083.197-.149.409-.26.984-.26.606 0 1.022.28.092.062.174.137.213.195.327.436.13.277.13.615 0 .336-.128.613-.116.252-.338.455-.119.108-.255.19-.394.236-.932.236-.506 0-.888-.218-.156-.089-.289-.213-.235-.217-.352-.485-.114-.264-.114-.578zm101.971 1.652h5.871V2.777h-7.225V.791h16.77v1.986h-7.12v1.055h5.872v8.754h-2.356v-.984h-3.551q-.123 1.415-.659 2.381 3.138.73 8.112.818l-1.353 2.408q-5.713-.255-8.692-1.433-1.881 1.002-5.705 1.697-.597-.932-1.669-2.32 3.19-.3 4.86-.792-1.257-.87-2.206-1.863l1.292-.896h-2.241v-7.77zm36.14 13.395V1.055h13.887v16.172h-2.707v-1.23h-8.473v1.23h-2.707zM94.572 15.038h7.99v-2.373h-5.09V1.424h-2.9v13.614zm59.845-13.42h1.793v11.759h-1.793V1.617zm98.754 1.933h-8.473v3.691h8.473V3.551zm-103.781.51h1.617v4.517q0 2.918-.677 4.746l1.169-.914q1.494 1.547 2.76 3.006l-1.74 1.371q-.172-.247-.348-.492-.951-1.333-1.99-2.602-.809 1.934-2.813 3.71-.808-1.16-1.494-1.9 2.004-1.397 2.76-3.053.756-1.657.756-4.241V4.061zm-5.678.79q1.371 1.003 2.777 2.215l-1.582 1.899q-1.037-1.002-2.636-2.444l1.441-1.67zm-27.835 10.187h2.821v-5.95q0-2.427-1.186-3.384-.773-.624-2.048-.624-1.021 0-1.797.436-.794.446-1.332 1.348h-.035V5.317h-2.839v9.721h2.839V9.492q0-.81.369-1.38l.001-.002q.075-.116.166-.222.284-.333.645-.49.32-.138.7-.138.579 0 .961.275.735.529.735 2.08v5.423zm-11.786 0v-9.72h2.83v9.72h-2.83zm26.121 0h-2.821v-1.485h-.044q-.633 1-1.536 1.42-.652.302-1.444.302-1.381 0-2.199-.678-1.193-.988-1.193-3.417V5.317h2.838v5.599q0 1.352.657 1.866.401.314 1.049.314.524 0 .919-.227.248-.142.443-.371l.017-.02q.493-.596.493-1.597V5.317h2.821v9.721zm8.49-4.983 3.217-4.738h-3.094l-1.485 2.787q-.317.606-.404.905h-.036q-.184-.492-.395-.897l-1.442-2.795h-3.287l3.094 4.887-3.287 4.834h3.261l1.476-2.707q.238-.422.396-.844h.035q.114.317.413.87l1.45 2.681h3.279l-3.191-4.983zm32.432-2.444h-5.783v2.285h1.74v4.008l-1.064.15q-.228-1.705-.255-2.171-.949.65-1.652 1.178V5.642h-3.814v2.285h1.494v6.17q0 .822-.385 1.379-.035.05-.072.097l1.265 1.723q.95-.94 2.584-2.145l.334 1.512q4.834-.809 5.959-.967-.035-.773.036-2.443l-2.11.316V9.896h1.723V7.611zm37.072-.756h3.516V5.713h-3.516v1.142zm9.457-1.142h-3.516v1.142h3.516V5.713zm-9.457 4.008h3.516V8.578h-3.516v1.143zm9.457 0V8.578h-3.516v1.143h3.516zm-20.285 1.107h5.194V8.824h-5.194v2.004zm72.123 1.143q-1.125-1.23-2.619-2.602l-1.635 1.371q1.283 1.336 2.426 2.778l1.828-1.547zM244.698 13.5h8.473V9.668h-8.473V13.5zM144.31 9.879q1.248.527 2.197.826l-1.67 6.645q-1.248-.457-2.25-.721.914-2.9 1.723-6.75zm131.378 4.94q-.509-1.46-1.705-4.29l-2.197.826q1.002 2.356 1.635 4.325l2.267-.862zm-13.834-3.551-2.197-.668q-.844 2.777-1.652 4.588l2.144.949q.704-1.793 1.705-4.87zm10.407 2.214q-1.125-.457-2.461-1.072-.246 1.547-.361 1.868-.023.066-.056.126-.13.234-.409.384-.352.189-.985.189h-2.25q-.527 0-.796-.264-.276-.273-.276-.826v-3.252h-2.355v3.85q0 1.292.645 1.95.673.686 2.044.686h3.727q.722 0 1.375-.215.306-.101.598-.25.909-.466 1.56-3.174zm-60.601-1.88h-3.041q1.011.94 2.426 1.582.475-.607.615-1.582z" fill-rule="evenodd" fill="#555"/><path d="M369 9.038h-62.25L302 4.288l-5.75 5.75 5.75 5.75 4.75-4.75H369v-2z" fill-rule="evenodd" fill="url(#a)"/><path d="M0 7.038h62.25L67 2.288l5.75 5.75-5.75 5.75-4.75-4.75H0v-2z" fill-rule="evenodd" fill="url(#b)"/><defs><linearGradient id="a" x1="299" y1="10.038" x2="371" y2="10.038" gradientUnits="userSpaceOnUse"><stop stop-color="#666"/><stop offset="1" stop-opacity="0"/></linearGradient><linearGradient id="b" x1="70" y1="8.038" x2="-2" y2="8.038" gradientUnits="userSpaceOnUse"><stop stop-color="#666" stop-opacity=".996"/><stop offset="1" stop-opacity="0"/></linearGradient></defs></svg>