<svg width="40" height="40" viewBox="0 0 40 40" fill="none" xmlns="http://www.w3.org/2000/svg"><g filter="url(#a)"><path d="M20 0a15.988 15.988 0 0 1 10.15 3.632A15.993 15.993 0 0 1 36 16a15.98 15.98 0 0 1-1.89 7.542 15.956 15.956 0 0 1-3.96 4.826 16.015 16.015 0 0 1-8.582 3.555 16.007 16.007 0 0 1-12.882-4.61 15.98 15.98 0 0 1-3.997-6.668 15.98 15.98 0 0 1-.381-7.766A15.971 15.971 0 0 1 6.697 7.11 16 16 0 0 1 20 0z" fill="#D7FFDB"/></g><path d="M20 3.2a12.789 12.789 0 0 1 8.12 2.905 12.798 12.798 0 0 1-1.009 20.538 12.764 12.764 0 0 1-4.614 1.911 12.789 12.789 0 0 1-8.53-1.265 12.764 12.764 0 0 1-3.862-3.169 12.796 12.796 0 0 1-.748-15.23 12.776 12.776 0 0 1 4.61-4.178A12.806 12.806 0 0 1 20 3.2z" fill="#23E249" opacity=".9"/><path d="m28.28 12-9.464 9.6-.28.264-.28-.264-5.864-5.936 1.912-1.936 4.232 4.28L26.4 10.04 28.28 12z" fill="#FFF"/><defs><filter id="a" x="0" y="0" width="40" height="40" filterUnits="userSpaceOnUse" color-interpolation-filters="sRGB"><feFlood flood-opacity="0" result="BackgroundImageFix"/><feColorMatrix in="SourceAlpha" values="0 0 0 0 0 0 0 0 0 0 0 0 0 0 0 0 0 0 127 0"/><feOffset dy="4"/><feGaussianBlur stdDeviation="1.333"/><feColorMatrix values="0 0 0 0 0.12941 0 0 0 0 0.64706 0 0 0 0 0.23137 0 0 0 0.5 0"/><feBlend in2="BackgroundImageFix" result="effect_dropShadow_1"/><feBlend in="SourceGraphic" in2="effect_dropShadow_1" result="shape"/></filter></defs></svg>