<svg width="551.394" height="750" viewBox="0 0 551.394 750" fill="none" xmlns="http://www.w3.org/2000/svg" preserveAspectRatio="none meet"><rect x="2" rx="6" width="548" height="733" fill="#20A53A"/><rect x="2" y="152" rx="6" width="548" height="598" fill="#FFF"/><path d="M2 127.609c22.361-12.401 74.099-25.422 102.17 21.702 0 0 23.736-68.206 83.593-37.204 0 0 25.8-44.436 76.369-23.768C291.308 88.683 355.348 76.698 392.5 18l13.018 7.3c-6.88 15.158-15.687 53.738 4.128 86.807 17.2-10.678 60.27-22.942 94.946 13.435 12.384-3.789 38.804-9.301 45.408-1.034V190H2v-62.391z" fill-rule="evenodd" fill="#FFF" fill-opacity=".5"/><path d="m2 161.503-.217-47.497c11.718-3.009 42.076-2.581 62.645 23.343 12.444-13.42 44.118-31.552 71.268 3.282 6.943-15.796 31.76-42.3 75.489-21.949 0 0 30.133-49.374 86.846-19.889 0 0 16.603-21.147 47.573-14.978 14.519-16.106 44.807-50.938 49.803-61.422l7.217 4.064c-7.976 15.792-22.707 52.43-17.819 72.644 5.502 2.039 17.734 9.757 22.641 24.316 16.905-9.366 57.086-17.773 82.559 23.518 11.725-5.008 39.378-12.191 59.995 0l-.718 472.348-547.286-1.78.004-456z" fill-rule="evenodd" fill="#FFF"/></svg>