<svg width="480" height="83.775" viewBox="0 0 480 83.775" fill="none" xmlns="http://www.w3.org/2000/svg"><path d="M473.085 59.79a40.017 40.017 0 0 0 5.855-5.308l.06-35.707H0v34.932c0 .433 2.29 1.823 2.661 2.105a89.968 89.968 0 0 0 3.234 2.306c8.977 6.041 19.33 11.268 30.336 11.831 12.271.635 20.295-6.243 30.729-11.368 11.548-5.69 22.574-3.565 33.198 3.02 7.421 4.623 15.143 10.07 23.88 9.799 12.924-.413 23.709-8.55 35.508-12.79 13.185-4.722 24.904-1.47 35.98 6.566 8.867 6.445 17.011 14.541 27.887 17.461 11.749 3.152 23.508-.483 32.656-7.975 16.067-12.587 19.09-19.425 33.008-19.868 15.685-.483 29.252 10.302 43.512 15.236 9.63 3.373 20.485 4.23 29.915-.242 8.375-3.957 14.611-11.076 23.096-14.852 19.311-8.429 35.207 8.72 53.222 12.536a42.693 42.693 0 0 0 17.944-.2 42.745 42.745 0 0 0 16.319-7.483z" fill-rule="evenodd" fill="#E8F6EB"/><path d="M474.11 42.73a39.778 39.778 0 0 0 5.83-5.27L480 0H0v36.69c0 .43 2.28 1.81 2.65 2.09 1.06.79 2.13 1.55 3.22 2.29 8.94 6 22.25 11.19 33.21 11.75 12.22.63 20.21-6.2 30.6-11.29 11.5-5.65 22.48-3.54 33.06 3 7.39 4.59 15.08 10 23.78 9.73 12.87-.41 23.61-8.49 35.36-12.7 13.13-4.69 24.8-1.46 35.83 6.52 8.83 6.4 16.94 14.44 27.77 17.34 11.7 3.13 23.42-1 32.53-8.44 10-8.12 19-18.77 32.86-19.21C306.49 37.29 320 48 334.2 52.9c9.59 3.35 20.4 4.2 29.79-.24 8.34-3.93 14.55-11 23-14.75 19.23-8.37 35.06 8.66 53 12.45a42.628 42.628 0 0 0 17.869-.199 42.626 42.626 0 0 0 16.251-7.431z" fill-rule="evenodd" fill="#20A53A"/></svg>