<svg xmlns="http://www.w3.org/2000/svg" xmlns:xlink="http://www.w3.org/1999/xlink" width="0" height="0" style="display:none;"><symbol viewBox="0 0 1024 1024" id="svgtofont-alarm-settings">
<style type="text/css">
	.st0{fill:none;stroke:#888888;stroke-width:4;stroke-miterlimit:10;}
	.st1{fill:#02A9F1;}
	.st2{fill:#040000;}
</style>
<path class="st0" d="M359.94,443.92"></path>
<path class="st0" d="M359.94,443.92"></path>
<path class="st0" d="M359.94,443.92"></path>
<path class="st1" d="M544.87,295.52c-0.21-0.03-0.42-0.07-0.62-0.1c-0.04-0.01-0.09-0.01-0.13-0.02c-0.07-0.01-0.14-0.01-0.21-0.02
	C547.79,296.13,546.26,295.76,544.87,295.52z"></path>
<path class="st1" d="M519.39,527.81C520.02,528.31,519.84,528.12,519.39,527.81L519.39,527.81z"></path>
<g>
	<path class="st2" d="M788.04,318.02c10.14,6.6,22.88,5.11,31.83-2.55c0.25-0.18,0.49-0.38,0.73-0.62
		c20.41-20.1,40.83-40.19,61.25-60.29c7.94-7.82,17.5-14.87,19.07-26.63c1.36-10.15-3.1-19.92-11.92-25.25
		c-8.7-5.26-20.09-5.16-28.47,0.69c-5.49,3.83-10.12,9.4-14.87,14.08c-5.22,5.14-10.44,10.28-15.67,15.42
		c-9.97,9.81-19.94,19.63-29.91,29.44c-4.73,4.66-9.46,9.32-14.2,13.98c-3.82,3.75-6.83,7.64-8.35,12.87
		C774.33,300.17,778.44,311.77,788.04,318.02z"></path>
	<path class="st2" d="M931.34,906.32c0-0.45-0.05-0.88-0.13-1.28c-0.92-8.21-4.71-15.59-11.68-20.37
		c-8.79-6.03-20.39-4.28-30.45-4.28c-22.86,0-45.73,0-68.59,0c0-57.9,0-115.8,0-173.7c0-30.17,0-60.35,0.02-90.52
		c0.02-28.24,1.29-56.83-1.36-84.98c-9.25-98.35-65.4-188.98-150.49-239.54c-41.51-24.67-88.68-39.47-136.8-43.31
		c-50.82-4.06-102.15,5.44-148.72,25.96c-89.57,39.47-157.53,120.8-178.44,216.7c-6.04,27.71-7.5,56.06-7.63,84.35
		c-0.13,29.45,0.14,58.9,0.14,88.35c0,60.26,0,120.52,0,180.78c0,11.98,0,23.95,0,35.93c-14.89,0-29.78,0-44.67,0
		c-8.33,0-16.67-0.1-25-0.08c-6.84,0.02-13.55-0.33-19.89,2.63c-11.18,5.23-17.22,17.59-14.09,29.55
		c3.15,12.05,13.75,19.6,25.96,19.74c67.91,0.76,135.86,0,203.78,0c68.74,0,137.47,0,206.21,0c68.12,0,136.23,0,204.35,0
		c34.43,0,68.85,0,103.28,0c16.56,0,33.12-0.03,49.69,0.06c13.42,0.07,28.52,2.06,38.26-9.24c3.75-4.35,5.87-9.57,6.18-15.23
		C931.36,907.37,931.39,906.87,931.34,906.32z M535.36,741.05c-7.97-17.07-31.32-19.9-43.32-5.42c-6.85,8.26-5.97,18.09-5.97,28.2
		c0,12.52,0,25.04,0,37.57c0,26.34,0,52.68,0,79.01c-79,0-158,0-237.01,0c0-92.63,0-185.27-0.01-277.9
		c0-25.97-0.13-51.71,2.14-77.58c0.24-1.48,0.35-2.99,0.55-4.47c0.03-0.16,0.07-0.41,0.12-0.75c0.18-1.12,0.37-2.23,0.57-3.35
		c0.45-2.58,0.94-5.16,1.47-7.73c1.87-9.17,4.18-18.24,6.95-27.18c1.34-4.34,2.79-8.65,4.34-12.92c0.82-2.26,1.67-4.51,2.55-6.75
		c0.3-0.77,0.62-1.54,0.92-2.31c0.08-0.21,0.13-0.34,0.16-0.43c0.08-0.17,0.17-0.39,0.3-0.69c3.68-8.48,7.82-16.88,12.34-25
		c17.77-31.93,42.26-60.77,71.69-82.46c8.79-6.48,17.98-12.43,27.47-17.84c4.84-2.76,9.77-5.39,14.77-7.86
		c3.05-1.51,6.25-3.32,9.49-4.72c0.4-0.06,0.8-0.17,1.22-0.34c21.49-8.89,44.15-15.4,67.19-18.7c22.95-3.29,46.75-2.85,69.74-0.15
		c28.08,4.61,55.51,11.92,81.05,24.77c13.32,6.7,25.93,14.52,38.12,23.09c1.23,0.87,2.48,1.68,3.73,2.52
		c0.09,0.09,0.17,0.16,0.28,0.26c2.31,2.19,4.99,4.05,7.43,6.09c5.51,4.61,10.85,9.42,16.01,14.43c9.36,9.1,18.77,18.83,26.33,29.45
		c8.37,11.74,16.26,23.67,23.03,36.42c13.57,25.54,22.39,53.34,26.96,81.89c5.24,32.74,2.75,66.73,2.72,99.75
		c0,69.72,0,139.43,0,209.15c0,17.1,0,34.2,0,51.3c-76.92,0-153.83,0.02-230.75,0.02c0-23.22,0-46.45,0-69.67
		c0-12.61,0-25.22,0-37.84C537.92,762.66,539.82,750.59,535.36,741.05z M665.88,351.61C665.47,351.25,663.75,349.59,665.88,351.61
		L665.88,351.61z"></path>
	<path class="st2" d="M473.3,180.3c0,7.96,0,15.92,0,23.89c0,6.45-0.8,13.58,0.84,19.89c2.81,10.85,12.47,18.92,23.57,19.57
		c0.47,0.08,0.97,0.1,1.52,0.06c0.49,0,0.94-0.05,1.37-0.14c9.39-1.1,18.05-6.12,22.14-15c2.19-4.76,2.41-9.6,2.41-14.76
		c0-7.3,0-14.6,0-21.9c0-14.26,0-28.53,0-42.79c0-6.9,0-13.81,0-20.71c0-5.84,0.67-12.07-1.01-17.75
		c-2.77-9.36-10.8-17.12-20.55-18.66c-9.94-1.57-20.4,3.2-26.01,11.49c-6.53,9.66-4.28,23.01-4.28,34.01
		C473.3,151.77,473.3,166.04,473.3,180.3z"></path>
	<path class="st2" d="M130.4,281.48c5.68,5.58,11.36,11.16,17.04,16.75c12.3,12.09,24.61,24.19,36.91,36.28
		c8.57,8.42,16.42,17.72,29.53,17.16c10.56-0.45,19.24-7.19,22.82-17.07c4.01-11.03,0.04-21.28-7.97-29.15
		c-10.65-10.46-21.29-20.93-31.94-31.39c-10.41-10.23-20.82-20.47-31.23-30.7c-8.71-8.57-16.92-19.73-29.9-21.17
		c-22.17-2.46-36.77,24.43-22.75,41.81C118,270.31,124.61,275.79,130.4,281.48z"></path>
	<path class="st2" d="M600.31,594.02c5.94-48.74-25.65-94.34-70.55-111.32c-41.17-14.86-90.29-0.68-117.17,33.85
		c-28.31,36.36-31.37,88.98-4.3,126.95c25.98,36.45,73.83,53.35,116.98,40.93C565.94,672.74,595.25,635.54,600.31,594.02z
		 M526.85,626.84c-0.97,0.46-1.84,1.12-2.75,1.67c-3.94,2.39-7.88,4.43-12.28,5.79c-8.85,2.73-18.58,3.58-27.68,1.53
		c-4.61-1.04-8.8-2.49-12.98-4.67c-2.2-1.15-4.37-2.32-6.51-3.58c-0.46-0.27-1.47-0.99-2.13-1.36c-0.01-0.01-0.04-0.03-0.07-0.05
		c-5.71-5.61-10.74-10.13-14.69-17.1c-3.69-6.51-6.34-14.11-6.67-21.65c-0.42-9.57,0.84-19.16,5.04-27.87
		c4.05-8.39,10.02-13.82,16.4-20.29c5.83-3.39,10.95-6.56,17.33-8.39c7.2-2.07,14.32-2.42,21.76-1.88c0.56,0.14,1.06,0.26,1.5,0.32
		c0.37,0.05,0.73,0.08,1.1,0.08c4.03,0.69,8.65,1.68,12.14,3.63c0.54,0.3,1.1,0.5,1.65,0.61c3.26,1.87,6.59,3.64,9.66,5.83
		c-0.36-0.2,2.64,2.22,2.73,2.3c1.08,0.99,2.12,2.01,3.14,3.05c1.58,1.62,4.21,4.43,5.06,5.58c0.95,1.3,2.85,4.44,4.04,6.57
		c0.72,1.28,1.4,2.58,2.04,3.9c0.18,0.36,0.18,0.32,0.13,0.15c0.09,0.24,0.21,0.53,0.36,0.91c1.39,3.53,2.38,7.26,3.18,10.95
		c0.44,2.04,0.18,1.88,0.56,3.49c0.29,4.21,0.34,8.4,0.07,12.61c-0.31,3.34-1.29,6.74-2.21,9.96c-0.29,1.01-0.59,2.01-0.89,3.02
		c-0.08,0.27-0.39,0.94-0.56,1.43c-4.14,7.35-7.45,13.5-13.67,19.34c-1.38,1.3-2.76,2.71-4.16,3.97
		C527.51,626.6,527.38,626.59,526.85,626.84z"></path>
</g>
</symbol><symbol id="svgtofont-arrow-down"></symbol><symbol id="svgtofont-arrow"></symbol><symbol id="svgtofont-contact-customer"></symbol><symbol id="svgtofont-crown"></symbol><symbol id="svgtofont-customer-service"></symbol><symbol id="svgtofont-desired"></symbol><symbol id="svgtofont-display-menu"></symbol><symbol id="svgtofont-el-arrow-down-bold"></symbol><symbol id="svgtofont-el-arrow-down"></symbol><symbol id="svgtofont-el-arrow-left-bold"></symbol><symbol id="svgtofont-el-arrow-left"></symbol><symbol id="svgtofont-el-arrow-right-bold"></symbol><symbol id="svgtofont-el-arrow-right"></symbol><symbol id="svgtofont-el-arrow-up-bold"></symbol><symbol id="svgtofont-el-arrow-up"></symbol><symbol id="svgtofont-el-back"></symbol><symbol id="svgtofont-el-bell"></symbol><symbol id="svgtofont-el-bottom"></symbol><symbol id="svgtofont-el-caret-bottom"></symbol><symbol id="svgtofont-el-caret-left"></symbol><symbol id="svgtofont-el-caret-right"></symbol><symbol id="svgtofont-el-caret-top"></symbol><symbol id="svgtofont-el-check"></symbol><symbol id="svgtofont-el-circle-check-filled"></symbol><symbol id="svgtofont-el-circle-check"></symbol><symbol id="svgtofont-el-circle-close-filled"></symbol><symbol id="svgtofont-el-circle-close"></symbol><symbol id="svgtofont-el-circle-plus-filled"></symbol><symbol id="svgtofont-el-clock"></symbol><symbol id="svgtofont-el-close-bold"></symbol><symbol id="svgtofont-el-close"></symbol><symbol id="svgtofont-el-d-arrow-left"></symbol><symbol id="svgtofont-el-d-arrow-right"></symbol><symbol id="svgtofont-el-delete-filled"></symbol><symbol id="svgtofont-el-delete"></symbol><symbol id="svgtofont-el-document-copy"></symbol><symbol id="svgtofont-el-document"></symbol><symbol id="svgtofont-el-download"></symbol><symbol id="svgtofont-el-edit-pen"></symbol><symbol id="svgtofont-el-edit"></symbol><symbol id="svgtofont-el-empty"></symbol><symbol id="svgtofont-el-expand"></symbol><symbol id="svgtofont-el-fold"></symbol><symbol id="svgtofont-el-folder-opened"></symbol><symbol id="svgtofont-el-folder"></symbol><symbol viewBox="0 0 1024 1024" id="svgtofont-el-fullscreen-expand">
<style type="text/css">
	.st0{fill:#666666;}
</style>
<path class="st0" d="M131.5,388.6c17.9,0,33.5-15.6,33.5-33.5v-143l196.6,196.6c6.7,6.7,15.6,8.9,24.6,8.9s17.9-2.2,24.6-8.9
	c13.4-13.4,13.4-33.5,0-46.9L214.2,165.2H355c17.9,0,33.5-15.6,33.5-33.5S372.8,98.2,355,98.2H131.5c-4.5,0-8.9,0-11.2,2.2
	c-8.9,4.5-15.6,11.2-20.1,17.9c-2.2,4.5-2.2,8.9-2.2,13.4v223.4C98,373,113.6,388.6,131.5,388.6z M891.2,634.4
	c-17.9,0-33.5,15.6-33.5,33.5v143l-210-210c-13.4-13.4-33.5-13.4-46.9,0c-13.4,13.4-13.4,33.5,0,46.9l210,210h-143
	c-17.9,0-33.5,15.6-33.5,33.5s15.6,33.5,33.5,33.5h223.4c4.5,0,8.9,0,11.2-2.2c8.9-4.5,15.6-8.9,17.9-17.9c2.2-4.5,2.2-8.9,2.2-11.2
	V667.9C924.7,650,909.1,634.4,891.2,634.4z M375.1,598.7l-210,210V667.9c0-17.9-15.6-33.5-33.5-33.5S98,650,98,667.9v223.4
	c0,4.5,0,8.9,2.2,11.2c4.5,8.9,8.9,15.6,17.9,17.9c4.5,2.2,8.9,2.2,11.2,2.2h223.4c17.9,0,33.5-15.6,33.5-33.5s-15.6-33.5-33.5-33.5
	h-143l210-210c13.4-13.4,13.4-33.5,0-46.9S388.5,587.5,375.1,598.7z M922.5,120.5C922.5,118.3,922.5,118.3,922.5,120.5
	c-4.5-8.9-11.2-15.6-17.9-17.9c-4.5-2.2-8.9-2.2-11.2-2.2H667.8c-17.9,0-33.5,15.6-33.5,33.5s15.6,33.5,33.5,33.5h143L614.2,364
	c-13.4,13.4-13.4,33.5,0,46.9c6.7,6.7,15.6,8.9,24.6,8.9c8.9,0,17.9-2.2,24.6-8.9l196.6-196.6v140.8c0,17.9,15.6,33.5,33.5,33.5
	S927,373,927,355.1V131.7C924.7,127.2,924.7,122.7,922.5,120.5z"></path>
</symbol><symbol viewBox="0 0 1024 1024" id="svgtofont-el-fullscreen-shrink">
<style type="text/css">
	.st0{fill:#666666;}
</style>
<path class="st0" d="M301.4,352.4H158c-17.9,0-33.6,15.7-33.6,33.6c0,17.9,15.7,33.6,33.6,33.6h224c4.5,0,9,0,11.2-2.2
	c9-4.5,15.7-9,17.9-17.9c2.2-4.5,2.2-9,2.2-11.2v-224c0-17.9-15.7-33.6-33.6-33.6s-33.6,15.7-33.6,33.6v143.4L153.6,108.2
	c-13.4-13.4-33.6-13.4-47,0s-13.4,33.6,0,47C106.5,155.2,301.4,352.4,301.4,352.4z M702.4,659.3h143.4c17.9,0,33.6-15.7,33.6-33.6
	s-15.7-33.6-33.6-33.6h-224c-4.5,0-9,0-11.2,2.2c-9,4.5-15.7,9-17.9,17.9c-2.2,4.5-2.2,9-2.2,11.2v224c0,17.9,15.7,33.6,33.6,33.6
	c17.9,0,33.6-15.7,33.6-33.6V704.1l210.6,210.6c6.7,6.7,15.7,9,24.6,9s17.9-2.2,24.6-9c13.4-13.4,13.4-33.6,0-47
	C917.5,867.6,702.4,659.3,702.4,659.3z M429.1,612.2c-4.5-9-9-15.7-17.9-17.9c-4.5-2.2-9-2.2-11.2-2.2H173.7
	c-17.9,0-33.6,15.7-33.6,33.6c0,17.9,15.7,33.6,33.6,33.6h143.4L106.5,869.9c-13.4,13.4-13.4,33.6,0,47c6.7,6.7,15.7,9,24.6,9
	s17.9-2.2,24.6-9l210.6-210.6v143.4c0,17.9,15.7,33.6,33.6,33.6c17.9,0,33.6-15.7,33.6-33.6v-224
	C431.4,621.2,431.4,616.7,429.1,612.2z M606.1,399.4c4.5,9,9,15.7,17.9,17.9c4.5,2.2,9,2.2,11.2,2.2h224c17.9,0,33.6-15.7,33.6-33.6
	c0-17.9-15.7-33.6-33.6-33.6H715.9L913,155.2c13.4-13.4,13.4-33.6,0-47s-33.6-13.4-47,0L668.8,305.3V162c0-17.9-15.7-33.6-33.6-33.6
	c-17.9,0-33.6,15.7-33.6,33.6v224C603.8,390.5,603.8,394.9,606.1,399.4z"></path>
</symbol><symbol id="svgtofont-el-hide"></symbol><symbol id="svgtofont-el-info-filled"></symbol><symbol id="svgtofont-el-link"></symbol><symbol id="svgtofont-el-loading"></symbol><symbol id="svgtofont-el-message"></symbol><symbol id="svgtofont-el-monitor"></symbol><symbol id="svgtofont-el-more-filled"></symbol><symbol id="svgtofont-el-mute-notification"></symbol><symbol viewBox="0 0 1024 1024" id="svgtofont-el-plus">
<path d="M480,480V128c0-17.7,14.3-32,32-32c17.7,0,32,14.3,32,32v352h352c17.7,0,32,14.3,32,32c0,17.7-14.3,32-32,32H544v352
	c0,17.7-14.3,32-32,32c-17.7,0-32-14.3-32-32V544H128c-17.7,0-32-14.3-32-32c0-17.7,14.3-32,32-32H480z"></path>
</symbol><symbol id="svgtofont-el-qrcode"></symbol><symbol id="svgtofont-el-question-filled"></symbol><symbol id="svgtofont-el-refresh-left"></symbol><symbol id="svgtofont-el-refresh-right"></symbol><symbol id="svgtofont-el-refresh"></symbol><symbol id="svgtofont-el-remove-filled"></symbol><symbol id="svgtofont-el-remove"></symbol><symbol id="svgtofont-el-right"></symbol><symbol id="svgtofont-el-search"></symbol><symbol id="svgtofont-el-select"></symbol><symbol id="svgtofont-el-semi-select"></symbol><symbol id="svgtofont-el-service"></symbol><symbol id="svgtofont-el-setting"></symbol><symbol id="svgtofont-el-share"></symbol><symbol id="svgtofont-el-star-filled"></symbol><symbol id="svgtofont-el-success-filled"></symbol><symbol id="svgtofont-el-top"></symbol><symbol id="svgtofont-el-unlock"></symbol><symbol id="svgtofont-el-upload-filled"></symbol><symbol id="svgtofont-el-upload"></symbol><symbol id="svgtofont-el-view"></symbol><symbol viewBox="0 0 1024 1024" id="svgtofont-el-warn-triangle-filled">
<path d="M928.99,755.82L574.6,203.24c-12.89-20.16-36.76-32.58-62.6-32.58s-49.71,12.43-62.6,32.58L95.01,755.82
	c-12.91,20.12-12.9,44.91,0.01,65.03c12.92,20.12,36.78,32.51,62.59,32.49h708.78c25.82,0.01,49.68-12.37,62.59-32.49
	C941.89,800.73,941.9,775.94,928.99,755.82 M554.67,767.99h-85.33v-85.33h85.33V767.99z M554.67,341.32v298.66h-85.33V341.31
	L554.67,341.32z"></path>
</symbol><symbol id="svgtofont-el-warning-filled"></symbol><symbol id="svgtofont-el-warning"></symbol><symbol id="svgtofont-el-zoom-in"></symbol><symbol id="svgtofont-el-zoom-out"></symbol><symbol id="svgtofont-empty"></symbol><symbol id="svgtofont-evaluation-feedback"></symbol><symbol id="svgtofont-file-hdd"></symbol><symbol id="svgtofont-file-text"></symbol><symbol id="svgtofont-folder-open"></symbol><symbol id="svgtofont-free-certificate-icon"></symbol><symbol id="svgtofont-free-customer"></symbol><symbol id="svgtofont-free-fifteen-icon"></symbol><symbol id="svgtofont-free-function-icon"></symbol><symbol id="svgtofont-free-group-icon"></symbol><symbol id="svgtofont-free-ip-icon"></symbol><symbol id="svgtofont-free-message-icon"></symbol><symbol id="svgtofont-free-plunge-icon"></symbol><symbol id="svgtofont-free-recommend"></symbol><symbol id="svgtofont-free-refund-icon"></symbol><symbol id="svgtofont-free-time-icon"></symbol><symbol id="svgtofont-hint-confirm-icon"></symbol><symbol id="svgtofont-ico-mysql"></symbol><symbol id="svgtofont-ico-nginx"></symbol><symbol id="svgtofont-ico-php"></symbol><symbol id="svgtofont-icon-anonymous"></symbol><symbol id="svgtofont-icon-balancepay-default"></symbol><symbol id="svgtofont-icon-browse"></symbol><symbol id="svgtofont-icon-bug-scan"></symbol><symbol id="svgtofont-icon-centos"></symbol><symbol id="svgtofont-icon-copy"></symbol><symbol id="svgtofont-icon-customer-service"></symbol><symbol id="svgtofont-icon-debian"></symbol><symbol id="svgtofont-icon-drag"></symbol><symbol id="svgtofont-icon-dynamic-kill"></symbol><symbol id="svgtofont-icon-eye-close"></symbol><symbol id="svgtofont-icon-fedora"></symbol><symbol id="svgtofont-icon-file-lock"></symbol><symbol id="svgtofont-icon-file-unlock"></symbol><symbol id="svgtofont-icon-file_mode"></symbol><symbol id="svgtofont-icon-ftp-log"></symbol><symbol id="svgtofont-icon-history"></symbol><symbol id="svgtofont-icon-linux"></symbol><symbol id="svgtofont-icon-log"></symbol><symbol id="svgtofont-icon-login-address"></symbol><symbol id="svgtofont-icon-login-time"></symbol><symbol id="svgtofont-icon-ltd"></symbol><symbol id="svgtofont-icon-max-black"></symbol><symbol id="svgtofont-icon-memo-active"></symbol><symbol id="svgtofont-icon-minmax-black"></symbol><symbol id="svgtofont-icon-new-file-lock"></symbol><symbol id="svgtofont-icon-new-file-unlock"></symbol><symbol id="svgtofont-icon-other"></symbol><symbol id="svgtofont-icon-pro"></symbol><symbol id="svgtofont-icon-proc"></symbol><symbol id="svgtofont-icon-refresh"></symbol><symbol id="svgtofont-icon-refresh2"></symbol><symbol id="svgtofont-icon-rootkit"></symbol><symbol id="svgtofont-icon-safaty-detect"></symbol><symbol id="svgtofont-icon-safe-report"></symbol><symbol id="svgtofont-icon-scan"></symbol><symbol id="svgtofont-icon-shell-file"></symbol><symbol id="svgtofont-icon-sshd_service"></symbol><symbol id="svgtofont-icon-start"></symbol><symbol id="svgtofont-icon-stop"></symbol><symbol id="svgtofont-icon-term"></symbol><symbol id="svgtofont-icon-top"></symbol><symbol id="svgtofont-icon-transferpay-default"></symbol><symbol id="svgtofont-icon-ubuntu"></symbol><symbol id="svgtofont-icon-user"></symbol><symbol id="svgtofont-icon-website_permissions"></symbol><symbol id="svgtofont-icon-wechatpay-ltd"></symbol><symbol id="svgtofont-icon-windows"></symbol><symbol id="svgtofont-layer-close"></symbol><symbol id="svgtofont-left-config"></symbol><symbol id="svgtofont-left-control"></symbol><symbol id="svgtofont-left-crontab"></symbol><symbol id="svgtofont-left-database"></symbol><symbol viewBox="0 0 1024 1024" id="svgtofont-left-docker">
<style type="text/css">
	.st0{fill:#979797;}
</style>
    <g>
	<rect x="487.44" y="150.04" class="st0" width="95.61" height="94.89"></rect>
        <rect x="142.43" y="396.93" class="st0" width="95.61" height="94.89"></rect>
        <rect x="257.43" y="396.75" class="st0" width="95.61" height="94.89"></rect>
        <rect x="487.44" y="396.75" class="st0" width="95.61" height="94.89"></rect>
        <rect x="372.44" y="396.75" class="st0" width="95.61" height="94.89"></rect>
        <rect x="257.43" y="272.08" class="st0" width="95.61" height="94.89"></rect>
        <rect x="487.44" y="272.08" class="st0" width="95.61" height="94.89"></rect>
        <rect x="372.44" y="272.08" class="st0" width="95.61" height="94.89"></rect>
        <rect x="602.44" y="397.98" class="st0" width="95.61" height="94.89"></rect>
        <path class="st0" d="M108,514.98h567.63c0,0,33.5-2.33,53.69-16.69c0,0-48.46-82.94,16.7-184.11c0,0,67.16,47.71,70.85,114.08
		c0,0,74.58-16.99,111.13,27.02c0,0-26.86,106.56-128.36,97.4c0,0-86.53,336.86-433.11,319.09S108,514.98,108,514.98z"></path>
</g>
</symbol><symbol viewBox="0 0 1024 1024" id="svgtofont-left-exit">
<style type="text/css">
	.st0{fill-rule:evenodd;clip-rule:evenodd;fill:#989898;}
</style>
	<g>
	<path class="st0" d="M667.55,179.97v116.8h51.88v-116.8c-0.02-16.17-4.49-32.03-12.93-45.83c-5.7-9.17-13.16-17.13-21.94-23.42
		c-12.6-8.84-27.59-13.64-42.99-13.76H174.73c-15.4-0.06-30.43,4.75-42.93,13.76c-8.83,6.23-16.3,14.2-21.94,23.42
		c-5.38,8.64-9.15,18.18-11.15,28.16c-1.19,5.81-1.79,11.73-1.78,17.67v664.05c0.02,16.17,4.49,32.03,12.93,45.83
		c5.7,9.17,13.16,17.13,21.94,23.42c12.58,8.84,27.55,13.63,42.93,13.76h466.85c15.42,0.07,30.47-4.75,42.99-13.76
		c8.83-6.23,16.3-14.2,21.94-23.42c5.38-8.64,9.16-18.18,11.15-28.16c1.19-5.75,1.78-11.62,1.78-17.67v-82.41h-51.88v82.41
		c0.22,10.97-6.06,21.04-16.01,25.67c-3.14,1.37-6.54,2.05-9.96,2.02H174.73c-6.99,0.05-13.67-2.91-18.32-8.12
		c-5-5.27-7.73-12.3-7.59-19.57V179.97c-0.22-10.96,6.06-21.01,16.01-25.61c3.12-1.38,6.49-2.09,9.9-2.08h466.85
		c7.01-0.07,13.71,2.89,18.38,8.12C664.96,165.68,667.69,172.71,667.55,179.97z M838.31,484.31L735.97,375.04
		c-10.27-11.02-10.27-28.11,0-39.13c9-10.13,24.52-11.05,34.65-2.05c0.72,0.64,1.41,1.33,2.05,2.05l146.68,156.53
		c10.27,11.02,10.27,28.11,0,39.13L772.67,688.09c-8.99,10.15-24.5,11.1-34.65,2.11c-0.75-0.66-1.45-1.36-2.11-2.11
		c-10.27-11.02-10.27-28.11,0-39.13l102.51-109.27H372.82v-55.38h465.55H838.31z"></path>
</g>
</symbol><symbol id="svgtofont-left-files"></symbol><symbol id="svgtofont-left-firewall"></symbol><symbol id="svgtofont-left-ftp"></symbol><symbol id="svgtofont-left-home"></symbol><symbol id="svgtofont-left-logs"></symbol><symbol id="svgtofont-left-mail"></symbol><symbol id="svgtofont-left-node"></symbol><symbol id="svgtofont-left-site"></symbol><symbol id="svgtofont-left-soft"></symbol><symbol id="svgtofont-left-ssl"></symbol><symbol id="svgtofont-left-sub"></symbol><symbol id="svgtofont-left-total"></symbol><symbol id="svgtofont-left-vhost"></symbol><symbol id="svgtofont-left-waf"></symbol><symbol id="svgtofont-left-wp"></symbol><symbol id="svgtofont-left-xterm"></symbol><symbol id="svgtofont-loading"></symbol><symbol id="svgtofont-lower-select"></symbol><symbol id="svgtofont-menu-setting"></symbol><symbol id="svgtofont-scanning-danger"></symbol><symbol id="svgtofont-scanning-scan"></symbol><symbol id="svgtofont-scanning-success"></symbol><symbol id="svgtofont-scroll-bar-down"></symbol><symbol id="svgtofont-scroll-bar-up"></symbol><symbol id="svgtofont-shrink-menu"></symbol><symbol viewBox="0 0 18 18" id="svgtofont-tamper-pro">
	<desc>
			Created with Pixso.
	</desc>
	<defs></defs>
	<path id="path" d="M11.2747 16.0535C10.9172 16.0535 10.5596 16.0535 10.2019 16.0535C9.34692 16.0535 8.49194 16.0535 7.63696 16.0535C6.59961 16.0535 5.56226 16.0535 4.52466 16.0535C3.63135 16.0535 2.73779 16.0535 1.84424 16.0535C1.57764 16.0535 1.30981 16.0482 1.04248 16.0474C1.04248 15.7075 1.04248 15.3678 1.04248 15.0279C1.04248 14.4869 1.04248 13.9457 1.04248 13.4047C1.04248 12.7474 1.04248 12.0901 1.04248 11.4331C1.04248 10.71 1.04248 9.987 1.04248 9.26398C1.04248 8.53735 1.04248 7.81061 1.04248 7.08405C1.04248 6.61743 1.04248 6.15088 1.04248 5.68408C1.42749 5.68408 1.81274 5.68408 2.19775 5.68408C2.80029 5.68408 3.40283 5.68408 4.00537 5.68408C4.73999 5.68408 5.4751 5.68408 6.20972 5.68408C7.01489 5.68408 7.81958 5.68408 8.62451 5.68408C9.44067 5.68408 10.2568 5.68408 11.0728 5.68408C11.8303 5.68408 12.5879 5.68408 13.3455 5.68408C13.9856 5.68408 14.6262 5.68408 15.2664 5.68408C15.7271 5.68408 16.1877 5.68408 16.6484 5.68408C16.7507 5.68408 16.853 5.68469 16.9553 5.68524C16.9553 6.03345 16.9553 6.38159 16.9553 6.7298C16.9553 7.42474 16.9553 8.11987 16.9553 8.81482C16.9553 9.15417 16.9465 9.49469 16.9553 9.83405C16.9556 9.83893 16.9553 9.84363 16.9553 9.84857C16.9553 10.095 17.1948 10.3312 17.4756 10.3198C17.7576 10.3085 17.9961 10.1127 17.9961 9.84857C17.9961 9.57068 17.9961 9.29279 17.9961 9.01477C17.9961 8.34747 17.9961 7.68024 17.9961 7.01276C17.9961 6.20563 17.9961 5.39856 17.9961 4.59149C17.9961 3.89648 17.9961 3.20135 17.9961 2.50641C17.9961 2.16705 18.0049 1.82654 17.9961 1.48724C17.9958 1.4823 17.9961 1.4776 17.9961 1.47272C17.9961 1.21802 17.7576 1.0014 17.4756 1.0014C17.3247 1.0014 17.1736 1.0014 17.0225 1.0014C16.6116 1.0014 16.2004 1.0014 15.7896 1.0014C15.1816 1.0014 14.5737 1.0014 13.9658 1.0014C13.2239 1.0014 12.4822 1.0014 11.7402 1.0014C10.9275 1.0014 10.115 1.0014 9.30249 1.0014C8.48193 1.0014 7.66187 1.0014 6.84131 1.0014C6.07642 1.0014 5.31152 1.0014 4.54639 1.0014C3.8999 1.0014 3.25342 1.0014 2.60693 1.0014C2.14185 1.0014 1.67676 1.0014 1.21191 1.0014C0.991699 1.0014 0.770996 0.99823 0.550537 1.0014C0.541016 1.00159 0.531494 1.0014 0.521973 1.0014C0.240723 1.0014 0.00170898 1.21741 0.00170898 1.47272C0.00170898 1.60742 0.00170898 1.74194 0.00170898 1.87665C0.00170898 2.24091 0.00170898 2.60535 0.00170898 2.9696C0.00170898 3.51062 0.00170898 4.05182 0.00170898 4.59283C0.00170898 4.78882 0.00170898 4.98499 0.00170898 5.18097C0.0012207 5.19141 0.0012207 5.20197 0.00170898 5.21259C0.00170898 5.66327 0.00170898 6.11395 0.00170898 6.56439C0.00170898 7.28748 0.00170898 8.0105 0.00170898 8.73352C0.00170898 9.46014 0.00170898 10.1869 0.00170898 10.9135C0.00170898 11.5941 0.00170898 12.2745 0.00170898 12.9551C0.00170898 13.5278 0.00170898 14.1004 0.00170898 14.673C0.00170898 15.0865 0.00170898 15.5001 0.00170898 15.9139C0.00170898 16.1089 -0.00195312 16.3043 0.00170898 16.4993C0.00195312 16.5077 0.00170898 16.5162 0.00170898 16.5246C0.00170898 16.7793 0.240234 16.9959 0.521973 16.9959C0.879395 16.9959 1.2373 16.9959 1.59473 16.9959C2.44971 16.9959 3.30469 16.9959 4.15967 16.9959C5.19702 16.9959 6.23462 16.9959 7.27197 16.9959C8.16553 16.9959 9.05884 16.9959 9.95239 16.9959C10.3865 16.9959 10.822 17.0051 11.2561 16.9959C11.2625 16.9957 11.2683 16.9959 11.2747 16.9959C11.5469 16.9959 11.8076 16.7791 11.7952 16.5246C11.7825 16.2695 11.5667 16.0535 11.2747 16.0535ZM2.20801 1.94415C2.81616 1.94415 3.42407 1.94415 4.03198 1.94415C4.77393 1.94415 5.51562 1.94415 6.25757 1.94415C7.07007 1.94415 7.88281 1.94415 8.69531 1.94415C9.51562 1.94415 10.3359 1.94415 11.1562 1.94415C11.9211 1.94415 12.686 1.94415 13.4512 1.94415C14.0979 1.94415 14.7444 1.94415 15.3909 1.94415C15.856 1.94415 16.321 1.94415 16.7859 1.94415C16.8423 1.94415 16.8987 1.94458 16.9553 1.94495C16.9553 2.06555 16.9553 2.1861 16.9553 2.3067C16.9553 2.97394 16.9553 3.64124 16.9553 4.30872C16.9553 4.453 16.9553 4.59735 16.9553 4.7417C16.9319 4.7417 16.9084 4.7417 16.885 4.7417C16.4758 4.7417 16.0669 4.7417 15.6577 4.7417C15.0552 4.7417 14.4526 4.7417 13.8501 4.7417C13.1155 4.7417 12.3804 4.7417 11.6458 4.7417C10.8406 4.7417 10.0359 4.7417 9.23071 4.7417C8.41479 4.7417 7.59863 4.7417 6.78271 4.7417C6.02515 4.7417 5.26758 4.7417 4.51001 4.7417C3.86987 4.7417 3.22925 4.7417 2.58911 4.7417C2.12842 4.7417 1.66772 4.7417 1.20703 4.7417C1.15234 4.7417 1.09741 4.74152 1.04248 4.74133C1.04248 4.26904 1.04248 3.79694 1.04248 3.32465C1.04248 2.91113 1.04248 2.49756 1.04248 2.0838C1.04248 2.03748 1.04297 1.99091 1.04346 1.9444C1.4314 1.94415 1.81982 1.94415 2.20801 1.94415Z" fill-rule="nonzero" fill="#999999"></path>
	<path id="path" d="M17.9961 13.9879C17.9961 13.8675 17.9961 13.7471 17.9961 13.6266C17.9961 13.3719 17.7576 13.1553 17.4756 13.1553C17.3865 13.1553 17.2976 13.1553 17.2085 13.1553C17.2085 13.0275 17.2085 12.8996 17.2085 12.7718C17.2085 12.2155 16.9856 11.6528 16.5022 11.2889C16.1604 11.0315 15.7612 10.8724 15.3135 10.8483C14.9326 10.8277 14.5225 10.9373 14.2039 11.1248C13.606 11.4767 13.2495 12.0762 13.2444 12.7215C13.2434 12.866 13.2434 13.0106 13.2437 13.1553C13.1772 13.1553 13.1108 13.1553 13.0444 13.1553C12.7634 13.1553 12.5242 13.3713 12.5242 13.6266C12.5242 14.4722 12.5242 15.3177 12.5242 16.1635C12.5242 16.2839 12.5242 16.4042 12.5242 16.5248C12.5242 16.7795 12.7627 16.9961 13.0444 16.9961C13.5452 16.9961 14.0457 16.9961 14.5464 16.9961C14.9104 16.9961 15.2744 16.9961 15.6384 16.9961C15.6499 16.9965 15.6616 16.9965 15.6733 16.9961C16.0913 16.9961 16.509 16.9961 16.9272 16.9961C17.0984 16.9961 17.2695 16.9961 17.4407 16.9961C17.4524 16.9965 17.4639 16.9965 17.4756 16.9961C17.7478 16.9961 18.0085 16.7793 17.9961 16.5248C17.9961 15.6793 17.9961 14.8337 17.9961 13.9879ZM15.1104 11.7954C15.1064 11.7958 15.1035 11.796 15.1033 11.7956C15.1033 11.7958 15.106 11.7956 15.1104 11.7954ZM14.3672 12.3395C14.3848 12.3083 14.4019 12.2767 14.4211 12.2463C14.4358 12.2229 14.4512 12.2 14.4675 12.1774C14.4744 12.1675 14.4968 12.1398 14.5083 12.1249C14.5134 12.1194 14.5181 12.1147 14.5203 12.1119C14.5464 12.0851 14.5737 12.059 14.6021 12.0338C14.6233 12.015 14.6453 11.9967 14.6677 11.979C14.6721 11.9755 14.6758 11.9727 14.679 11.97C14.7332 11.9362 14.7881 11.9042 14.8464 11.8765C14.873 11.8638 14.9028 11.8541 14.9285 11.8401C14.9214 11.8439 14.9153 11.8472 14.9097 11.8504C14.9177 11.847 14.9255 11.8437 14.9326 11.8416C15 11.8206 15.0681 11.8074 15.137 11.7935C15.1558 11.7921 15.175 11.7905 15.1724 11.7905C15.2075 11.7889 15.2427 11.7885 15.2778 11.7895C15.2986 11.7901 15.437 11.7974 15.3535 11.7933C15.282 11.7897 15.3416 11.7922 15.3584 11.796C15.3833 11.8017 15.4084 11.806 15.4333 11.8119C15.4751 11.8219 15.5156 11.8361 15.5566 11.8478C15.5623 11.8498 15.5679 11.8517 15.5725 11.8539C15.6379 11.8828 15.7012 11.9162 15.7612 11.9535C15.7661 11.9566 15.7705 11.9592 15.7742 11.9614C15.7949 11.9777 15.8157 11.9937 15.8357 12.0108C15.8826 12.0505 15.9211 12.0966 15.9651 12.1382C15.9702 12.145 15.9753 12.1516 15.9805 12.1583C15.9973 12.1813 16.0132 12.2048 16.0288 12.2288C16.0466 12.2567 16.0637 12.2852 16.0791 12.3142C16.0818 12.3189 16.0842 12.3239 16.0867 12.3286C16.1062 12.382 16.1272 12.4344 16.1421 12.4892C16.1499 12.5184 16.155 12.5481 16.1624 12.5773C16.1626 12.5805 16.1631 12.5836 16.1633 12.5868C16.1682 12.6416 16.1682 12.6962 16.1682 12.751C16.1682 12.8857 16.1682 13.0202 16.1682 13.1549C16.1038 13.1549 16.0388 13.1549 15.9744 13.1549C15.4114 13.1549 14.8486 13.1549 14.2856 13.1549C14.2856 13.0485 14.2856 12.942 14.2856 12.8356C14.2856 12.7959 14.2854 12.7562 14.2856 12.7166C14.2861 12.6747 14.2876 12.6329 14.2917 12.5913C14.2991 12.5599 14.3049 12.5283 14.3132 12.4968C14.3276 12.4438 14.3472 12.392 14.3672 12.3395ZM16.1936 16.0535C16.1936 15.7307 16.1936 15.4081 16.1936 15.0852C16.1936 14.8388 15.9543 14.6025 15.6733 14.614C15.3916 14.6253 15.1531 14.8211 15.1531 15.0852C15.1531 15.4081 15.1531 15.7307 15.1531 16.0535C14.6331 16.0535 14.113 16.0535 13.593 16.0535C13.5837 16.0535 13.5745 16.0535 13.5649 16.0535C13.5649 15.4018 13.5649 14.7498 13.5649 14.0981C13.6199 14.0981 13.675 14.0981 13.73 14.0981C13.7415 14.0984 13.7532 14.0984 13.7649 14.0981C14.0254 14.0981 14.2859 14.0981 14.5464 14.0981C15.2488 14.0981 15.9512 14.0981 16.6536 14.0981C16.665 14.0984 16.6768 14.0984 16.6885 14.0981C16.7681 14.0981 16.8479 14.0981 16.9275 14.0981C16.9368 14.0981 16.946 14.0981 16.9556 14.0981C16.9556 14.7498 16.9556 15.4018 16.9556 16.0535C16.7014 16.0535 16.4475 16.0535 16.1936 16.0535Z" fill-rule="nonzero" fill="#20A53A"></path>
	<path id="path" d="" fill-rule="nonzero" fill="#999999"></path>
	<path id="path" d="M8.02368 3.85449C8.82861 3.85449 9.63306 3.85449 10.438 3.85449C11.7214 3.85449 13.0051 3.85449 14.2886 3.85449C14.5847 3.85449 14.8806 3.85449 15.1765 3.85449C15.4487 3.85449 15.7095 3.6377 15.6968 3.38324C15.6843 3.12793 15.468 2.91193 15.1765 2.91193C14.3718 2.91193 13.5671 2.91193 12.7622 2.91193C11.4788 2.91193 10.1951 2.91193 8.91162 2.91193C8.61572 2.91193 8.31958 2.91193 8.02368 2.91193C7.75171 2.91193 7.49072 3.12872 7.50342 3.38324C7.51587 3.63849 7.73193 3.85449 8.02368 3.85449Z" fill-rule="nonzero" fill="#999999"></path>
	<path id="path" d="M3.97363 3.92731C4.09302 3.92731 4.2124 3.92731 4.33179 3.92731C4.34229 3.92773 4.35229 3.92773 4.36279 3.92731C4.60596 3.92731 4.83887 3.7337 4.82764 3.50629C4.82764 3.38885 4.82764 3.27124 4.82764 3.15381C4.82764 2.92621 4.61475 2.73279 4.36279 2.73279C4.23315 2.73279 4.10327 2.73279 3.97363 2.73279C3.72241 2.73279 3.50879 2.9256 3.50879 3.15381C3.50879 3.27124 3.50879 3.38885 3.50879 3.50629C3.50879 3.73389 3.72168 3.92731 3.97363 3.92731Z" fill-rule="nonzero" fill="#999999"></path>
	<path id="path" d="M5.56323 3.92731C5.68262 3.92731 5.802 3.92731 5.92139 3.92731C5.93188 3.92773 5.94189 3.92773 5.95239 3.92731C6.19556 3.92731 6.42847 3.7337 6.41724 3.50629C6.41724 3.38885 6.41724 3.27124 6.41724 3.15381C6.41724 2.92621 6.20435 2.73279 5.95239 2.73279C5.82275 2.73279 5.69287 2.73279 5.56323 2.73279C5.31201 2.73279 5.09839 2.9256 5.09839 3.15381C5.09839 3.27124 5.09839 3.38885 5.09839 3.50629C5.09839 3.73389 5.31128 3.92731 5.56323 3.92731Z" fill-rule="nonzero" fill="#999999"></path>
	<path id="path" d="M2.34277 3.92731C2.46216 3.92731 2.58154 3.92731 2.70093 3.92731C2.71143 3.92773 2.72144 3.92773 2.73193 3.92731C2.9751 3.92731 3.20801 3.7337 3.19678 3.50629C3.19678 3.38885 3.19678 3.27124 3.19678 3.15381C3.19678 2.92621 2.98389 2.73279 2.73193 2.73279C2.60229 2.73279 2.47241 2.73279 2.34277 2.73279C2.09155 2.73279 1.87793 2.9256 1.87793 3.15381C1.87793 3.27124 1.87793 3.38885 1.87793 3.50629C1.87817 3.73389 2.09106 3.92731 2.34277 3.92731Z" fill-rule="nonzero" fill="#999999"></path>
</symbol><symbol id="svgtofont-wechat-pay"></symbol></svg>