<svg xmlns="http://www.w3.org/2000/svg" xmlns:xlink="http://www.w3.org/1999/xlink" viewBox="0 0 192 37" style="enable-background:new 0 0 150 37" xml:space="preserve"><defs><path id="a" d="M2.74 3h37.19v31.66H2.74z"/></defs><clipPath id="b"><use xlink:href="#a" style="overflow:visible"/></clipPath><path d="M10.55 3.02h9.2l-6.31 8.28-2.89-8.28zm-7.81 9.11 6.45-8.3 2.9 8.3H2.74zm.08 1.58h9.81l6.64 19.66L2.82 13.71zm11.94-1.58 6.57-8.61 6.57 8.62-13.14-.01zm-.5 1.58h14.13l-7.06 20.92-7.07-20.92zm8.65-10.69h9.2l-2.89 8.28-6.31-8.28zm7.67 9.11 2.9-8.3 6.45 8.3h-9.35zm-.55 1.58h9.81L23.39 33.37l6.64-19.66zm0 0" style="clip-path:url(#b);fill:#898989"/><text transform="translate(46 28)" style="font-weight:700;font-size:29px;font-family:'MicrosoftYaHei-Bold';fill:#898989">企业版优势</text></svg>