<?xml version="1.0" encoding="utf-8"?>
<!-- Generator: Adobe Illustrator 25.2.0, SVG Export Plug-In . SVG Version: 6.00 Build 0)  -->
<svg version="1.1" id="图层_1" xmlns="http://www.w3.org/2000/svg" xmlns:xlink="http://www.w3.org/1999/xlink" x="0px" y="0px"
	 viewBox="0 0 192 37" style="enable-background:new 0 0 150 37;" xml:space="preserve">
<style type="text/css">
	.st0{clip-path:url(#SVGID_2_);fill:#898989;}
	.st1{fill:#898989;}
	.st2{font-family:'MicrosoftYaHei-Bold';}
	.st3{font-size:29px;}
</style>
<g>
	<g>
		<defs>
			<rect id="SVGID_1_" x="2.74" y="3" width="37.19" height="31.66"/>
		</defs>
		<clipPath id="SVGID_2_">
			<use xlink:href="#SVGID_1_"  style="overflow:visible;"/>
		</clipPath>
		<path class="st0" d="M10.55,3.02h9.2l-6.31,8.28L10.55,3.02z M2.74,12.13l6.45-8.3l2.9,8.3H2.74z M2.82,13.71h9.81l6.64,19.66
			L2.82,13.71z M14.76,12.13l6.57-8.61l6.57,8.62L14.76,12.13L14.76,12.13z M14.26,13.71h14.13l-7.06,20.92L14.26,13.71z
			 M22.91,3.02h9.2l-2.89,8.28L22.91,3.02z M30.58,12.13l2.9-8.3l6.45,8.3H30.58z M30.03,13.71h9.81L23.39,33.37L30.03,13.71z
			 M30.03,13.71"/>
	</g>
</g>
<text transform="matrix(1 0 0 1 46 28)" class="st1 st2 st3" style="font-weight: bold;">专业版优势</text>
</svg>
