<svg class="icon" viewBox="0 0 1024 1024" xmlns="http://www.w3.org/2000/svg" width="16" height="16"><path d="M721.12 351.98c17.67 0 32 14.33 32 32s-14.33 32-32 32H273.15c-17.67 0-32-14.33-32-32s14.33-32 32-32h447.97zM465.14 543.97c17.67 0 32 14.33 32 32s-14.33 32-32 32H273.15c-17.67 0-32-14.33-32-32s14.33-32 32-32h191.99zm140.88 208.02c-26.51 45.91-10.78 104.62 35.14 131.13 45.91 26.51 104.62 10.78 131.13-35.14 26.51-45.91 10.78-104.62-35.14-131.13-45.92-26.51-104.63-10.78-131.13 35.14zm163.12-90.56c67.04 38.7 95.47 118.6 71.78 189.26l85.91 49.58c15.3 8.84 20.55 28.41 11.71 43.71s-28.41 20.55-43.71 11.71l-85.91-49.59c-49.35 55.83-132.75 71.15-199.78 32.45C532.62 894.37 506.4 796.52 550.58 720c44.19-76.53 142.04-102.75 218.56-58.57zM337.14 64c17.67 0 32 14.33 32 32v32h255.98V96c0-17.67 14.33-32 32-32h64c17.67 0 32 14.33 32 32v32h127.99c17.67 0 32 14.33 32 32v447.97c0 17.67-14.33 32-32 32s-32-14.33-32-32V191.99H145.15v703.96h319.98c17.67 0 32 14.33 32 32s-14.33 32-32 32H113.16c-17.67 0-32-14.33-32-32V159.99c0-17.67 14.33-32 32-32h127.99V96c0-17.67 14.33-32 32-32h63.99z" fill="#888"/></svg>