<svg class="icon" viewBox="0 0 1024 1024" xmlns="http://www.w3.org/2000/svg" width="16" height="16"><path d="M939.875 772.974c-3.4-29.292-9.198-60.283-17.895-93.173-8.498-32.69-21.994-62.282-40.188-88.274-18.295-25.993-40.289-45.787-66.081-59.383l50.485-138.46H734.435c10.997-32.49 15.095-65.18 12.296-98.47 15.296-3.1 28.992-6.399 41.388-9.798 42.088-11.496 67.18-24.492 75.178-38.988 1.9-3.4 2.8-6.798 2.8-10.297 0-23.393-42.988-43.687-129.163-60.982-6.998-25.393-17.595-52.885-31.69-82.376-14.096-29.492-28.592-52.885-43.388-70.08C648.76 7.698 633.065.1 615.07.1c-12.297 0-29.492 6.298-51.585 18.994S524.096 38.09 511.9 38.09s-29.491-6.298-51.585-18.995S421.027.1 408.73.1c-17.994 0-33.59 7.598-46.686 22.793-14.796 17.195-29.291 40.588-43.287 70.08-14.096 29.491-24.693 56.983-31.691 82.376-86.075 17.195-129.162 37.489-129.162 60.982 0 3.799 1.1 7.398 3.199 10.997 8.497 14.295 34.09 27.192 76.777 38.788 11.797 3.2 24.893 6.298 39.389 9.297-.9 8.198-1.3 14.796-1.3 19.695 0 26.292 4.499 52.484 13.596 78.777H157.604l55.384 135.46c-21.694 10.597-40.988 25.892-57.584 45.787s-29.59 41.187-39.088 63.68-17.096 47.888-22.993 75.98c-5.999 28.091-9.797 53.784-11.597 77.277-1.8 23.393-2.7 47.586-2.7 72.579 0 49.585 14.996 88.474 44.888 116.865 29.89 28.292 69.58 42.488 119.265 42.488H780.82c49.586 0 89.374-14.096 119.265-42.488 29.892-28.191 44.887-67.18 44.887-116.865.1-31.791-1.5-62.282-5.098-91.673zM338.15 230.333l10.397-38.09c5.898-21.393 15.195-45.486 27.692-71.778 11.396-23.793 22.593-42.388 33.49-55.284 3.599 1.4 9.697 4.199 18.595 9.297 32.69 18.795 59.282 27.492 83.475 27.492s50.685-8.697 83.476-27.492c8.997-5.098 14.995-7.898 18.594-9.297 10.897 12.896 22.094 31.49 33.49 55.284 12.497 26.092 21.794 50.185 27.792 71.779l10.497 37.989 29.591 5.898c-71.479 13.896-145.557 20.594-218.835 19.494-63.882-.9-126.863-7.398-188.245-19.494l29.99-5.798zm307.51 227.433-51.385 43.987c-47.386 40.588-117.266 40.588-164.652 0l-51.385-43.987h.8l-14.196-41.088c.2.3.3.6.5.8 1 1.7 2.8 4.498 5.598 8.697 2.7 4.099 5.199 6.898 7.398 8.298 2.2 1.4 5.199 3.399 8.698 5.798 3.499 2.4 7.098 4.099 10.696 4.899 3.8.8 7.898 1.7 12.597 2.499 4.698.8 9.697 1.3 14.995 1.3 14.796 0 26.893-2.6 36.39-7.598 9.497-5.199 16.095-11.297 20.094-18.495 3.899-7.098 6.898-14.196 8.897-21.194 2.1-6.998 4.399-13.096 7.098-18.094 2.7-5.199 6.198-7.598 10.797-7.598h7.398c4.499 0 8.197 2.6 10.697 7.598 2.699 5.198 4.998 11.096 7.098 18.094s4.998 14.096 8.897 21.194c3.899 7.098 10.597 13.296 20.094 18.495 9.497 5.198 21.494 7.597 36.39 7.597 5.298 0 10.396-.4 14.995-1.3 4.699-.799 8.897-1.699 12.496-2.498 3.8-.8 7.298-2.5 10.697-4.899 3.5-2.5 6.298-4.399 8.698-5.798 2.2-1.4 4.698-4.1 7.398-8.298 2.399-3.699 4.098-6.298 5.198-7.998l-13.396 39.589h.4zm-18.995 100.47L512 862.047l-114.966-304.41 1.8 1.6c65.38 55.783 161.652 55.683 226.933-.2l.9-.8zm1-222.434c-28.691 0-62.981 3.898-102.77 11.596-2.799.8-7.098 1.3-12.896 1.3-5.698 0-10.097-.4-12.896-1.3-39.689-7.797-73.979-11.596-102.77-11.596-28.392 0-46.686 1.1-54.784 3.199-1.2-8.098-1.8-16.096-1.8-23.993 0-.8 0-3.4.5-8.098 50.985 7.798 102.87 12.197 155.355 12.896 5.298.1 10.597.1 15.895.1 57.383 0 115.166-4.498 171.85-13.096.6 10.797.1 21.494-1.4 32.09-8.397-2.099-26.492-3.098-54.284-3.098zM243.18 959.719c-32.99 0-57.583-8.098-75.278-24.893-7.998-7.598-13.896-16.395-17.995-26.992-4.599-11.996-6.998-26.692-6.998-43.387 0-23.193.9-45.987 2.5-67.68 1.599-20.494 5.098-43.688 10.396-68.88 5.199-24.293 11.697-45.987 19.495-64.481 6.898-16.496 16.795-32.49 29.291-47.486 10.797-12.897 22.693-22.494 36.49-29.192l53.784-26.292-22.694-55.484-19.294-47.286h38.089l5.198 13.796L477.81 952.62l2.7 7.098H243.178zm630.915-51.785c-3.999 10.497-9.897 19.294-17.795 26.792h-.1c-17.695 16.795-42.287 24.893-75.278 24.893h-237.43l2.699-7.098 181.547-480.96 5.298-13.895h41.688l-19.194 52.585-19.195 52.584 49.486 25.992c16.795 8.798 30.99 21.694 43.487 39.489 13.796 19.694 24.093 42.388 30.691 67.68v.2c7.598 28.892 13.096 57.183 16.195 84.175v.6c3.2 25.593 4.699 52.985 4.699 83.676.2 16.595-2.2 31.29-6.798 43.287z" fill="#888"/></svg>