<svg class="icon" viewBox="0 0 1024 1024" xmlns="http://www.w3.org/2000/svg" width="16" height="16"><path d="M642.8 531.8c64.3-42.6 106.9-115.4 106.9-198.1C749.7 202.6 643.1 96 512 96S274.3 202.6 274.3 333.7c0 82.7 42.6 155.6 106.9 198.1C215.8 582.9 96 727.7 96 898.3c0 16.4 13.3 29.7 29.7 29.7s29.7-13.3 29.7-29.7c0-180.2 159.9-326.9 356.6-326.9 196.6 0 356.6 146.6 356.6 326.9 0 16.4 13.3 29.7 29.7 29.7s29.7-13.3 29.7-29.7c0-170.6-119.8-315.4-285.2-366.5zM333.7 333.7c0-98.3 80-178.3 178.3-178.3s178.3 80 178.3 178.3S610.3 512 512 512s-178.3-80-178.3-178.3z" fill="#888"/></svg>