<svg class="icon" viewBox="0 0 1024 1024" xmlns="http://www.w3.org/2000/svg" width="16" height="16"><path d="M878.08 731.275a32 32 0 0 1-54.88-32.939A360.79 360.79 0 0 0 874.667 512c0-200.299-162.368-362.667-362.667-362.667S149.333 311.701 149.333 512 311.701 874.667 512 874.667a360.79 360.79 0 0 0 186.315-51.446 32 32 0 0 1 32.928 54.88A424.779 424.779 0 0 1 512 938.667c-235.637 0-426.667-191.03-426.667-426.667S276.363 85.333 512 85.333 938.667 276.363 938.667 512c0 78.293-21.152 153.568-60.587 219.275zm-548.704-81.899L480 498.741V320a32 32 0 0 1 64 0v192a32 32 0 0 1-9.376 22.624l-160 160a32 32 0 1 1-45.248-45.248z" fill="#888"/></svg>