<svg class="icon" viewBox="0 0 1024 1024" xmlns="http://www.w3.org/2000/svg" width="16" height="16"><path d="m494.5 771.5 16.9 18.7 17.1-18.5c2.4-2.6 60.4-65.5 119.4-145.3C729 516.6 770.2 431.3 770.2 372.9c0-68.3-26.6-132.6-74.9-180.9-48.3-48.3-112.6-74.9-180.9-74.9s-132.7 26.6-181 74.9c-48.3 48.3-74.9 112.6-74.9 180.9 0 58.3 40.2 143.5 119.4 253.3 57.5 79.8 114.2 142.7 116.6 145.3zM304.4 372.9c0-115.7 94.1-209.8 209.8-209.8S724 257.2 724 372.9c0 25.5-11.5 60.3-34.1 103.2-19 36-45.5 77.3-79 122.6-38.7 52.4-77.7 98.1-99.3 122.7-21.1-24.5-59-70-96.6-122.1-32.7-45.4-58.7-86.7-77.3-122.8-22-43.1-33.3-78-33.3-103.6z" fill="#888"/><path d="M852.2 718.4c-35.6-15-85.9-27.4-145.4-36l-6.5 45.5c55.7 8 102 19.3 134.1 32.8 32.5 13.7 39.2 25.1 39.2 27.4 0 4.3-16.9 25.9-95.2 45.4-70.9 17.6-165.5 27.4-266.4 27.4-100.9 0-195.5-9.7-266.4-27.4-78.2-19.5-95.2-41.1-95.2-45.4 0-2.3 6.6-13.7 38.9-27.3 31.9-13.5 78-24.8 133.4-32.8l-6.6-45.5c-59.3 8.5-109.3 21-144.7 35.9-44.5 18.8-67 42.2-67 69.7 0 21.6 14 40.9 41.6 57.1 21.3 12.5 51.1 23.6 88.5 32.9 74.4 18.5 172.9 28.7 277.5 28.7s203.1-10.2 277.5-28.7c37.5-9.3 67.2-20.4 88.5-32.9 27.6-16.2 41.6-35.4 41.6-57.1 0-27.4-22.7-50.9-67.4-69.7zM511.4 459.5c48 0 87-39 87-87s-39-87-87-87-87 39-87 87 39.1 87 87 87zm0-128c22.6 0 41 18.4 41 41s-18.4 41-41 41-41-18.4-41-41 18.4-41 41-41z" fill="#888"/></svg>