<svg class="icon" viewBox="0 0 1024 1024" xmlns="http://www.w3.org/2000/svg" width="16" height="16"><path d="M663.808 212.16c1.408.384 2.752.768 4.16 1.152 20.096 5.632 29.504 28.608 19.2 46.528-19.136 33.408-38.464 66.688-57.728 99.968-77.824 134.848-155.648 269.632-233.472 404.544-3.136 5.44-6.848 10.176-12.224 13.44-3.456 2.112-7.296 3.392-11.2 4.352-.512.128-1.024.384-1.472.64h-8.256c-1.024-.384-2.048-.768-3.072-1.024-15.424-3.776-25.6-17.152-24.896-32.896.192-4.992 1.6-9.728 4.096-14.144 57.536-99.712 115.136-199.36 172.672-299.072 39.616-68.672 79.296-137.28 118.848-205.952 3.84-6.656 8.832-11.904 15.936-14.848 2.368-.96 4.864-1.472 7.36-2.176.448-.128.832-.32 1.216-.512h8.832zM64.064 496.64c.384-.832.896-1.6 1.088-2.432 1.408-6.272 4.48-11.584 8.96-16.064 55.616-55.616 111.232-111.296 166.912-166.848 9.152-9.152 20.416-11.776 32.64-7.808 12.352 3.968 19.712 12.8 21.76 25.6 1.664 10.56-1.408 19.968-9.088 27.648-38.592 38.592-77.248 77.184-115.904 115.84a15372.954 15372.954 0 0 0-32.256 32.32c-.512.512-1.024 1.024-1.6 1.664a35.549 35.549 0 0 0 2.048 2.24l147.648 147.648c17.6 17.6 9.984 47.296-14.016 53.76-11.776 3.2-22.4.448-31.168-8.192-10.432-10.304-20.736-20.736-31.104-31.104A133810.58 133810.58 0 0 0 75.2 536.128c-5.12-5.056-8.768-10.688-10.176-17.792-.128-.64-.64-1.28-.96-1.856v-19.84zm894.656 21.44c-.32 1.088-.64 2.24-.96 3.328-1.536 5.12-4.224 9.472-8 13.312-18.816 18.816-37.568 37.696-56.32 56.512-6.336 6.4-12.672 12.736-19.008 19.136l-66.816 67.008c-8.192 8.256-16.256 16.64-24.64 24.768-9.344 9.024-20.544 11.584-32.768 7.552-12.352-4.096-19.648-13.056-21.568-26.048-1.536-10.624 1.792-19.712 9.344-27.264 24.32-24.448 48.64-48.832 72.96-73.28 20.928-20.992 41.792-41.984 62.72-62.976 4.416-4.416 8.896-8.704 13.568-13.312-.832-.896-1.408-1.536-2.048-2.176-10.88-10.944-21.76-21.824-32.576-32.768-28.096-28.16-56.192-56.384-84.288-84.544-10.304-10.304-20.736-20.544-30.848-31.04-8.64-8.96-11.392-19.776-7.744-31.744 3.648-11.904 11.904-19.456 24.064-22.08 11.392-2.432 21.44.768 29.696 9.024 22.4 22.464 44.8 44.992 67.2 67.456 24.896 25.024 49.856 50.048 74.752 75.008 8.192 8.256 16.448 16.448 24.64 24.768 4.224 4.352 7.232 9.408 8.128 15.552.064.256.32.448.448.64.064 7.744.064 15.488.064 23.168z" fill="#888"/></svg>