<svg version="1.1" id="图层_1" xmlns="http://www.w3.org/2000/svg" x="0" y="0" viewBox="0 0 128 128" style="enable-background:new 0 0 128 128" xml:space="preserve"><style>.st0{fill:#f39c12}</style><path class="st0" d="m91.8 34.3-27.3-5c-.3-.1-.6-.1-.9 0l-27.4 5c-1.2.2-2 1.2-2 2.4V69c0 5.1 1.6 9.9 4.8 14.2 2.5 3.3 5.9 6.4 10.1 9.1 7.1 4.5 14.1 6.4 14.4 6.4.4.1.9.1 1.3 0 .3-.1 7.3-2 14.3-6.5 4.2-2.7 7.6-5.7 10-9.1 3.1-4.3 4.7-9 4.7-14.1V36.7c0-1.2-.8-2.2-2-2.4zM88.9 69c0 7.3-4.2 13.6-12.4 18.9-5.2 3.4-10.6 5.2-12.4 5.8-4-1.2-24.9-8.4-24.9-24.7V38.8l24.9-4.6 24.8 4.6V69z"/><path class="st0" d="M64.9 52.2H52.5c-.6 0-1.1-.5-1.1-1.1 0-.6.5-1.1 1.1-1.1h12.4c.6 0 1.1.5 1.1 1.1 0 .6-.5 1.1-1.1 1.1zm-6.2 18.5h-6.2c-.6 0-1.1-.5-1.1-1.1 0-.6.5-1.1 1.1-1.1h6.2c.6 0 1.1.5 1.1 1.1 0 .6-.5 1.1-1.1 1.1zm-.4-12.3h-5.8c-.6 0-1.1-.5-1.1-1.1 0-.6.5-1.1 1.1-1.1h5.8c.6 0 1.1.5 1.1 1.1 0 .6-.5 1.1-1.1 1.1zm-1.8 6.1h-4c-.6 0-1.1-.5-1.1-1.1s.5-1.1 1.1-1.1h4c.6 0 1.1.5 1.1 1.1 0 .6-.5 1.1-1.1 1.1zm12 5.5c-4.5 0-8.1-3.6-8.1-8.1s3.6-8.1 8.1-8.1 8.1 3.6 8.1 8.1c0 2.1-.8 4-2.2 5.5-1.5 1.7-3.7 2.6-5.9 2.6zm0-14c-3.3 0-5.9 2.7-5.9 5.9s2.7 5.9 5.9 5.9c1.7 0 3.2-.7 4.3-1.9 1-1.1 1.6-2.5 1.6-4 0-3.3-2.7-5.9-5.9-5.9z"/><path class="st0" d="M77.2 71.6c-.3 0-.6-.1-.8-.3l-3-3.2c-.4-.4-.4-1.1 0-1.6.4-.4 1.1-.4 1.6 0l3 3.2c.4.4.4 1.1 0 1.6-.3.2-.5.3-.8.3z"/></svg>