<svg version="1.1" id="图层_1" xmlns="http://www.w3.org/2000/svg" x="0" y="0" viewBox="0 0 128 128" style="enable-background:new 0 0 128 128" xml:space="preserve"><style>.st0{fill:#888}</style><path class="st0" d="M105.5 17.1c2 0 3.7 1.6 3.7 3.7v42c0 .5-.4.9-.9.9h-6.5c-.5 0-.9-.4-.9-.9V48.7H24.4v53.6h41.2c.5 0 .9.4.9.9v6.2c0 .5-.4.9-.9.9H19.8c-2 0-3.7-1.6-3.7-3.7V20.8c0-2 1.6-3.7 3.7-3.7h85.7zm-4.7 8H24.4v16h76.4v-16z"/><path class="st0" d="M31.1 33c0 1.6.9 3.1 2.3 3.9 1.4.8 3.2.8 4.6 0 1.4-.8 2.3-2.3 2.3-3.9 0-2.5-2-4.5-4.6-4.5s-4.6 2-4.6 4.5zm13.6 0c0 1.6.9 3.1 2.3 3.9 1.4.8 3.2.8 4.6 0s2.3-2.3 2.3-3.9c0-2.5-2-4.5-4.6-4.5-2.6 0-4.6 2-4.6 4.5zm13.6 0c0 1.6.9 3.1 2.3 3.9 1.4.8 3.2.8 4.6 0 1.4-.8 2.3-2.3 2.3-3.9 0-2.5-2-4.5-4.6-4.5-2.5 0-4.6 2-4.6 4.5zm37.4 31.8c.6.3 1.1.9 1.2 1.5l.2 1.3c.3 1.5.4 2.2.5 2.5l.1.1c.8 1 4.2 4.8 13.9 16 .6.7.5.7 0 1.5l-4.8 7.2c-.5.8-.2.7-1.1.5l-11.4-3c-.4-.1-.6-.1-.7 0-.1.1-.4.5-.6 1.4l-.1.2c.2.1.9.5 1.5.9l.9.5c3.5 2 8.9 5.3 8.8 15.3H79.7c-.2 0-.2-.1-.2-.3v-3.6c0-.2-.1-.3.2-.3h19.7c-1-4.3-3.3-6.4-5.7-7.7-1.6-.9-1.8-1-.6-.4-2.9-1.7-4.7-3-4.3-5.7.4-1.8 1.3-3.2 2.5-4 .8-.5 2-.5 4 0l9.4 2.1 2.1-3.4-1.1-1.3C94.5 73 93.9 72.2 93.7 71.6v-.1c-.1-.2-.1-.4-.3-1.4-13.3 9.2-19.5 22.5-19 40.4l-4.2.1v-.4c-.7-20 7.3-35.3 23.5-45.2.6-.4 1.3-.5 2-.2z"/><path class="st0" d="M90.6 81.2c0 1.4 1.1 2.5 2.5 2.5s2.5-1.1 2.5-2.5-1.1-2.5-2.5-2.5c-1.3 0-2.5 1.2-2.5 2.5z"/></svg>