<svg version="1.1" id="图层_1" xmlns="http://www.w3.org/2000/svg" x="0" y="0" viewBox="0 0 128 128" style="enable-background:new 0 0 128 128" xml:space="preserve"><style>.st0{fill:#20a53a}</style><path class="st0" d="m95.6 28.4-32.2-6c-.4-.1-.7-.1-1.1 0l-32.4 6c-1.4.3-2.4 1.5-2.4 2.9v38.2c0 6 1.9 11.6 5.6 16.7C36 90.1 40 93.7 45 96.9c8.4 5.3 16.7 7.5 17 7.6.5.1 1 .1 1.5 0 .3-.1 8.6-2.4 16.9-7.7 5-3.2 9-6.8 11.9-10.7C96.1 81 98 75.4 98 69.4V31.2c0-1.4-1-2.6-2.4-2.8zm-3.5 41c0 8.6-4.9 16.1-14.6 22.3-6.2 4-12.5 6.1-14.7 6.8-4.7-1.4-29.4-10-29.4-29.1V33.7l29.4-5.4 29.3 5.4v35.7z"/><path class="st0" d="M63.9 49.5H49.2c-.7 0-1.3-.6-1.3-1.3 0-.7.6-1.3 1.3-1.3h14.7c.7 0 1.3.6 1.3 1.3-.1.7-.6 1.3-1.3 1.3zm-7.4 21.8h-7.3c-.7 0-1.3-.6-1.3-1.3 0-.7.6-1.3 1.3-1.3h7.3c.7 0 1.3.6 1.3 1.3 0 .8-.6 1.3-1.3 1.3zM56 56.8h-6.8c-.7 0-1.3-.6-1.3-1.3s.6-1.3 1.3-1.3H56c.7 0 1.3.6 1.3 1.3s-.6 1.3-1.3 1.3zm-2.1 7.3h-4.7c-.7 0-1.3-.6-1.3-1.3 0-.7.6-1.3 1.3-1.3h4.7c.7 0 1.3.6 1.3 1.3 0 .7-.6 1.3-1.3 1.3zm14.2 6.5c-5.3 0-9.6-4.3-9.6-9.6s4.3-9.6 9.6-9.6 9.6 4.3 9.6 9.6c0 2.4-.9 4.8-2.6 6.5-1.8 2-4.4 3.1-7 3.1zm0-16.6c-3.9 0-7 3.1-7 7s3.1 7 7 7c2 0 3.8-.8 5.1-2.2 1.2-1.3 1.9-3 1.9-4.8 0-3.9-3.2-7-7-7z"/><path class="st0" d="M78.3 72.5c-.3 0-.7-.1-.9-.4l-3.6-3.8c-.5-.5-.5-1.3.1-1.8.5-.5 1.3-.5 1.8.1l3.6 3.8c.5.5.5 1.3-.1 1.8-.2.2-.5.3-.9.3z"/></svg>