<svg xmlns="http://www.w3.org/2000/svg" viewBox="0 0 128 128" style="enable-background:new 0 0 128 128" xml:space="preserve"><path d="m65.6 19.6.5.3 44.8 38.4c1.3 1.1 1.5 3.2.4 4.5-1 1.2-2.7 1.5-4.1.7l-.5-.3-1.1-1v36.9c0 4.9-3.8 9.1-8.7 9.6H32c-4.9 0-9.1-3.8-9.6-8.7V62.3l-1.1 1c-1.2 1-2.9 1-4.1.1l-.4-.4c-1-1.2-1-2.9-.1-4.1l.4-.4L61.9 20c1.1-.9 2.5-1.1 3.7-.4zm-1.6 7L28.8 56.8v42.4c0 1.5 1.1 2.9 2.6 3.1l.6.1h17.1c.8 0 1.5-.5 1.7-1.3l.1-.5V80.7c0-4.2 3.1-7.7 7.3-8.1l.9-.1h10c4.2 0 7.7 3.1 8.1 7.3l.1.9v19.9c0 .8.5 1.5 1.3 1.7l.5.1H96c1.5 0 2.9-1.1 3.1-2.6l.1-.6V56.8L64 26.6zm5 52.3H59c-.8 0-1.5.5-1.7 1.3l-.1.5v19.9c0 .6-.1 1.2-.2 1.8h13.9c-.1-.3-.1-.6-.1-.9l-.1-.9V80.7c0-.8-.5-1.5-1.3-1.7l-.4-.1z" style="fill:#888"/></svg>