<svg xmlns="http://www.w3.org/2000/svg" viewBox="0 0 128 128" style="enable-background:new 0 0 128 128" xml:space="preserve"><path d="M64 16c11 0 20 9.2 20 20.6 0 2.9-.6 5.8-1.7 8.4 3.5 2 6.6 4.7 9.2 7.7h-.2c4.7 0 8.7-4 8.7-9.1 0-.5-.1-1.8-.2-3.6h8.2v3.6c0 7.4-5.1 13.7-12.1 15.7 2 3.9 3.4 8.1 3.8 12.6h12.2v8H99.7c-.5 4.4-1.8 8.7-3.8 12.7 7 2 12.1 8.3 12.1 15.7v3.6h-8v-3.6c0-5-3.9-9-8.5-9.1C84.6 107.4 74.6 112 64 112c-10.6 0-20.6-4.6-27.5-12.7h.2c-4.7 0-8.7 4-8.7 9.1v3.6h-8v-3.6c0-7.4 5.1-13.7 12.1-15.7-2.1-3.9-3.4-8.2-3.8-12.7H16v-8h12.2c.5-4.4 1.8-8.7 3.8-12.6-7-2-12.1-8.3-12.1-15.7V40h8v3.6c0 5 3.9 9 8.5 9.1 2.6-3.1 5.7-5.7 9.2-7.7-1.1-2.6-1.7-5.5-1.7-8.3C44 25.2 53 16 64 16zm-4 32.3C44.7 50.5 34.1 64.7 36.3 80c1.8 12.3 11.4 21.9 23.7 23.7V48.3zm8 0v55.4c15.3-2.2 25.9-16.4 23.7-31.7C89.9 59.7 80.3 50.1 68 48.3zm-4-24c-6.6 0-12 5.5-12 12.4 0 1.8.4 3.5 1 5.1 3.5-1.1 7.2-1.7 11-1.7s7.5.6 11 1.7c.7-1.6 1-3.3 1-5.1 0-6.9-5.4-12.4-12-12.4z" style="fill:#888"/></svg>