<svg width="26" height="30" viewBox="0 0 26 30" fill="none" xmlns="http://www.w3.org/2000/svg"><path d="M7.339 14.161a5.494 5.494 0 1 1 10.988.012 5.494 5.494 0 0 1-10.988-.012zm4.534-4.16c.313-.071.635-.107.965-.107a4.275 4.275 0 0 1 1.662.337 4.263 4.263 0 0 1 1.918 1.608 4.258 4.258 0 0 1 .688 2.332 4.271 4.271 0 0 1-.337 1.662 4.266 4.266 0 0 1-2.277 2.273 4.236 4.236 0 0 1-1.663.333 4.272 4.272 0 0 1-1.663-.337 4.246 4.246 0 0 1-1.357-.917 4.278 4.278 0 0 1-1.141-2.057 4.276 4.276 0 0 1-.108-.966 4.274 4.274 0 0 1 .337-1.662 4.258 4.258 0 0 1 1.608-1.918 4.256 4.256 0 0 1 1.367-.58z" fill-rule="evenodd" fill="#20A53A"/><path d="M11.694 13.05 10.1 15.433l1.093.727 1.036-1.55 1.945.647 1.464-2.22-1.051-.787-.896 1.463-1.998-.665zm7.126 7.462-2.195-2.927a.73.73 0 0 0-1.032-.14.73.73 0 0 0-.154 1.03l2.195 2.926a.73.73 0 0 0 1.032.14.73.73 0 0 0 .154-1.03z" fill-rule="evenodd" fill="#20A53A"/><path d="M12.676 2.118 3.178 5.674a1.802 1.802 0 0 0-.855.659A1.75 1.75 0 0 0 2 7.35v8.989a1.69 1.69 0 0 0 .143.687c.299.668.704 1.4 1.218 2.192.607.939 1.3 1.86 2.08 2.765a27.595 27.595 0 0 0 6.822 5.714c.155.091.414.214.583.255a1.854 1.854 0 0 0 1.03-.055 1.78 1.78 0 0 0 .465-.252 41.83 41.83 0 0 0 2.362-1.9 42.16 42.16 0 0 0 2.68-2.519c2.12-2.18 3.609-4.224 4.469-6.13a1.678 1.678 0 0 0 .148-.7V7.328a1.749 1.749 0 0 0-.311-1 1.797 1.797 0 0 0-.828-.66l-8.836-3.535a1.86 1.86 0 0 0-1.349-.016zm-9.221 4.76a.612.612 0 0 1 .16-.087l9.498-3.556a.618.618 0 0 1 .45.005l8.835 3.536a.611.611 0 0 1 .354.379.583.583 0 0 1 .026.174v9.066c0 .08-.015.152-.045.218-.422.937-1.022 1.925-1.8 2.965a28.985 28.985 0 0 1-2.436 2.824 41.35 41.35 0 0 1-2.603 2.446 40.654 40.654 0 0 1-2.293 1.846.553.553 0 0 1-.614.034 26.085 26.085 0 0 1-3.755-2.674 26.565 26.565 0 0 1-2.856-2.842 24.015 24.015 0 0 1-1.983-2.633 15.215 15.215 0 0 1-1.13-2.032.506.506 0 0 1-.04-.208v-8.99a.583.583 0 0 1 .232-.47z" fill-rule="evenodd" fill="#999"/></svg>