<svg width="40" height="40" viewBox="0 0 40 40" fill="none" xmlns="http://www.w3.org/2000/svg"><path d="m29.778 12.466-8.556-5.193c-.733-.455-1.65-.455-2.444 0l-8.556 5.193C9.49 12.921 9 13.765 9 14.738v10.387c0 .91.489 1.818 1.222 2.273l8.556 5.193c.733.454 1.65.454 2.444 0l8.556-5.194C30.51 26.944 31 26.1 31 25.126V14.738c0-.909-.489-1.752-1.222-2.272zM24.033 25.58a2.22 2.22 0 0 1-1.65-.78l-5.439-6.88v6.426c0 .714-.488 1.234-1.16 1.234h-.062c-.672 0-1.161-.584-1.161-1.234v-8.829c0-.649.55-1.233 1.345-1.233.61 0 1.222.26 1.65.779l5.438 6.881v-6.427c0-.714.55-1.233 1.162-1.233h.06c.673 0 1.162.584 1.162 1.233v8.83c.061.713-.55 1.233-1.345 1.233z" fill="#20A53A"/></svg>