<svg width="30" height="29" viewBox="0 0 30 29" fill="none" xmlns="http://www.w3.org/2000/svg"><defs><linearGradient id="a" x1="21.701" y1="3.625" x2="6.75" y2="25.375" gradientUnits="userSpaceOnUse"><stop stop-color="#EB8F1D"/><stop offset=".288" stop-color="#D14C28"/><stop offset=".498" stop-color="#C42033"/><stop offset=".752" stop-color="#792272"/></linearGradient></defs><path d="M21.368 3.625c-.2 0-.385.035-.556.103-.518.202-1.38.772-2.407 1.598l-.214.174a38.799 38.799 0 0 0-3.62 3.411l-.031.033-.061.065c-.845.909-1.63 1.84-2.353 2.793a20.192 20.192 0 0 0-1.514 2.317c-.126.227-.24.447-.344.658-.086.18-.168.36-.245.54-.184.423-.342.846-.471 1.267l-.017.057a8.654 8.654 0 0 0-.32 1.534l-.007.053c-.386-.407-1.417-.803-1.416-.8.74.706 1.3 1.405 1.382 2.092-.395.054-.937-.023-1.564-.175.653.395 1.143.504 1.334.533-.6.024-1.223.296-1.853.608.92-.248 1.664-.345 2.196-.266a93.778 93.778 0 0 0-2.537 5.155c.255-.048.422-.155.501-.32a87.444 87.444 0 0 1 2.722-5.406l.135-.247.038-.07c.166-.301.338-.61.515-.924l.123-.214-.829-1.086.829 1.086c.164-.288.333-.584.505-.879l.072-.123.073-.124.056-.094-.056.094-.073.124-.072.123c-.172.295-.341.591-.505.879l.148.183.13-.01.014-.025c.21-.378.418-.747.625-1.105l.007-.013a69.17 69.17 0 0 0-.632 1.118l-.014.026-.09.165a79.8 79.8 0 0 0-.491.9l-.007.014-.07.13c-.11.206-.207.392-.426.814.363.11.653.396.928.72-.027-.357-.241-.655-.641-.896 1.784.052 3.322-.244 4.118-1.103a1.97 1.97 0 0 0 .194-.243c-.36.302-.81.43-1.652.398 1.241-.366 1.864-.717 2.414-1.3.14-.147.268-.3.387-.455-1.086.734-2.343.943-3.669.784l-.059-.006c1.188-.097 2.767-.682 3.789-1.403.47-.333.898-.725 1.293-1.184.294-.342.57-.72.833-1.14.23-.366.45-.763.663-1.194a5.05 5.05 0 0 1-1.115.237 9.84 9.84 0 0 1-.19.02l.19-.02a5.12 5.12 0 0 0 .184-.024l-.184.024-.19.02c1.104-.281 1.81-.824 2.317-1.486a5.143 5.143 0 0 1-1.568.413l-.06.005.06-.005c.072-.008.143-.017.215-.027l.02-.001h-.02l-.274.033a5.57 5.57 0 0 0 .991-.366c.206-.106.395-.224.566-.354.11-.086.213-.18.31-.281l.088-.094.106-.138c.189-.252.358-.509.506-.771l.043-.08c.039-.077.072-.146.096-.206a1.32 1.32 0 0 0 .073-.214 1.12 1.12 0 0 1-.129.058c-.335.132-.909.251-1.371.307l-.137.01-3.122.227-.017.022-.106.143-.323.442-.06.085.06-.085c.109-.15.216-.298.323-.442l.106-.143c.006-.008.013-.014.017-.022l-.116.006-.092-.12c-.176.23-.35.46-.52.692l-.281.384a57.953 57.953 0 0 0-1.503 2.181 79.158 79.158 0 0 0-1.489 2.36l.119-.197c.442-.725.899-1.446 1.37-2.163a58.96 58.96 0 0 1 1.503-2.18l.28-.385c.163-.22.327-.44.494-.657l.027-.034c.263-.343.529-.68.797-1.012a35.8 35.8 0 0 1 1.797-2.048l.055-.058c.308-.32.62-.63.932-.925a18.529 18.529 0 0 1 2.095-1.721l-.08.056c-.22.16-.886.671-1.892 1.688.969-.031 2.457-.162 3.671-.299.361-1.332-.354-1.941-.354-1.941s-.616-.653-1.426-.658zm-2.265 6.804c.91-.275 1.312-.525 1.706-.885.105-.1.21-.203.316-.31.32-.33.634-.693.915-1.054a9.71 9.71 0 0 0 .694-1.005 3.752 3.752 0 0 0 .414-.95c-1.215.135-2.702.267-3.671.298-.331.335-.655.673-.963 1.016-.28.313-.58.655-.895 1.03a43.222 43.222 0 0 0-1.638 2.087l3.122-.227zm.11-.008-.14.015.14-.015zm-.11.008-.03.007.03-.007zm-3.786 1.129-.146.206-.183.26a61.687 61.687 0 0 0-1.268 1.89 72.02 72.02 0 0 0-1.993 3.27l-.007.013a60.334 60.334 0 0 1 3.268-5.173l.184-.26.145-.206z" fill="url(#a)"/></svg>