<svg width="26" height="26" viewBox="0 0 26 26" fill="none" xmlns="http://www.w3.org/2000/svg"><path d="M13.342 16.405h.817v-3.034h2.52c-.105 1.01-.22 1.435-.357 1.588-.09.083-.183.106-.346.106-.183 0-.598-.012-1.033-.06.115.212.182.507.193.729.483.025.933.037 1.174 0 .29-.012.472-.08.635-.259.275-.27.401-.938.55-2.54.012-.115.023-.339.023-.339h-3.359v-1.352h2.76v-.766h-2.76V9.232h3.269V8.47h-3.269V7.28h-.817v1.19h-3.047v.763h3.047v1.246h-2.575v.766h2.575v1.352h-3.103v.775h3.103v3.034zM9.96 9.574c-.368-.54-1.16-1.34-1.817-1.906l-.644.47c.655.59 1.438 1.413 1.784 1.953l.677-.517zm-.346 1.975h-2.3v.823h1.472v3.574c-.47.2-1.023.634-1.55 1.151l.539.743c.564-.66 1.115-1.26 1.508-1.26.264 0 .61.319 1.081.589.77.436 1.736.54 3.07.54 1.14 0 3.128-.058 4.038-.116.011-.26.137-.66.241-.872-1.162.13-2.934.212-4.257.212-1.23 0-2.207-.083-2.932-.47-.413-.224-.668-.445-.91-.54v-4.374z" fill="#999"/><path d="m6.512 4.493 12.016 18.438h-1.106L5.829 5.267l.683-.774z" fill-rule="evenodd" fill="#20A53A"/><path d="M18.506 22.9c-1.746.88-3.477 1.1-5.799 1.1C6.794 24 2 19.075 2 13S6.794 2 12.707 2c5.063 0 9.305 3.61 10.421 8.46a11.66 11.66 0 0 0-.915.534 9.554 9.554 0 0 0-.528-1.814c-.473-1.173-1.182-2.245-2.128-3.217-.945-.972-1.99-1.7-3.13-2.186-1.143-.486-2.382-.729-3.72-.729-1.337 0-2.577.243-3.718.729-1.142.486-2.186 1.214-3.131 2.186-.946.972-1.656 2.044-2.128 3.217-.473 1.172-.71 2.446-.71 3.82 0 1.374.237 2.648.71 3.82.472 1.173 1.182 2.245 2.128 3.217.945.972 1.989 1.7 3.13 2.186 1.142.486 2.382.729 3.72.729 1.337 0 3.006-.116 4.147-.602.69-.293-.117-.127.55-.127.21.282 1.097.677 1.1.677z" fill-rule="evenodd" fill="#20A53A"/><path d="M16.856 16.08c.002-1.943 1.568-3.518 3.497-3.516 1.928.002 3.49 1.58 3.489 3.524-.002 1.944-1.568 3.518-3.497 3.516-1.929-.002-3.49-1.58-3.489-3.523zm2.882-2.664a2.699 2.699 0 0 1 2.095.375 2.729 2.729 0 0 1 .795.802 2.74 2.74 0 0 1 .437 1.494 2.759 2.759 0 0 1-.44 1.493 2.738 2.738 0 0 1-1.665 1.173 2.695 2.695 0 0 1-1.227-.002 2.686 2.686 0 0 1-1.307-.733 2.741 2.741 0 0 1-.579-3.002 2.743 2.743 0 0 1 1.448-1.455c.144-.062.292-.11.443-.145z" fill-rule="evenodd" fill="#20A53A"/><path d="m19.603 15.52-1.005 1.61.69.49.653-1.047 1.227.437.923-1.498-.663-.532-.565.988-1.26-.449zm4.245 4.749-1.432-1.91a.472.472 0 0 0-.668-.095.472.472 0 0 0-.095.668l1.432 1.91c.16.213.454.255.668.095a.472.472 0 0 0 .095-.668z" fill-rule="evenodd" fill="#20A53A"/></svg>