<svg width="20" height="16" viewBox="0 0 20 16" fill="none" xmlns="http://www.w3.org/2000/svg"><path d="m14.004 2.302 3.78 3.816a.764.764 0 0 1 .163.24.653.653 0 0 1-.012.542.784.784 0 0 1-.174.236l-7.003 6.583a1.079 1.079 0 0 1-.545.262 1.22 1.22 0 0 1-.816-.143.937.937 0 0 1-.156-.119L2.239 7.136a.783.783 0 0 1-.174-.236.66.66 0 0 1-.012-.541.763.763 0 0 1 .164-.242l3.78-3.815a.98.98 0 0 1 .347-.223c.137-.053.282-.079.434-.079h6.444c.152 0 .297.026.434.08a.986.986 0 0 1 .348.222m-.782.499H6.778l-3.78 3.815L10 13.2l7.003-6.583-3.78-3.815z" fill-rule="evenodd" fill="#F08900"/><path d="M10 9.875a.856.856 0 0 1-.702-.37L7.406 7.516a.417.417 0 0 1 .087-.564.374.374 0 0 1 .538.09l1.89 1.989c.023.032.063.037.078.037s.056-.003.079-.037l1.891-1.989a.374.374 0 0 1 .538-.09c.173.13.211.383.086.564l-1.89 1.987a.856.856 0 0 1-.702.372z" fill-rule="evenodd" fill="#F08900"/></svg>