<svg width="12" height="14" viewBox="0 0 12 14" fill="none" xmlns="http://www.w3.org/2000/svg"><path d="M11.998 2.49v-.492l-1.046-.016a7.568 7.568 0 0 1-2.302-.488C7.423 1.008 6.638.452 6.632.448L5.998 0l-.625.445c-.032.023-.795.561-2.021 1.05a7.26 7.26 0 0 1-2.302.487L0 1.998v5.908c0 1.359.795 2.881 2.182 4.179a8.746 8.746 0 0 0 1.926 1.375c.689.354 1.342.54 1.893.54.548 0 1.207-.19 1.905-.549a8.723 8.723 0 0 0 1.912-1.366 8.063 8.063 0 0 0 1.532-1.917c.432-.774.65-1.533.65-2.262l-.002-5.415zM5.971 1.255c.092.066 1.003.654 2.29 1.167 1.262.5 2.447.555 2.672.561l.044 4.926c.002 1.084-.678 2.343-1.865 3.455C8.065 12.341 6.815 13 6 13c-.378 0-.886-.154-1.43-.433a7.62 7.62 0 0 1-1.68-1.207c-1.187-1.11-1.867-2.37-1.867-3.455V2.982c.052 0 1.359-.025 2.714-.563 1.275-.507 2.14-1.1 2.234-1.165z" fill="#EFA209"/></svg>