<svg width="168" height="84" viewBox="0 0 168 84" fill="none" xmlns="http://www.w3.org/2000/svg"><path d="M168 82V2.018a2 2 0 0 0-2-2H79.692c-7.658-.329-22.974 3.806-22.974 22.968 0 19.163-15.317 28.766-22.975 31.173C23.333 56.783 2.011 66.937 0 84h166a2 2 0 0 0 2-2z" fill-rule="evenodd" fill="#FFCE07" fill-opacity=".1"/><path d="M168 81.672V2a2 2 0 0 0-2-2h-34.257c-4.786.984-16.727 2.953-26.205 2.953C93.692 2.953 84 1.313 84 17.391s3.948 49.218-24.052 39.375c-7.178-1.97-20.891.656-18.307 26.906H166a2 2 0 0 0 2-2z" fill-rule="evenodd" fill="#FDB320" fill-opacity=".1"/><path d="M168 82V2a2 2 0 0 0-2-2h-19.897c-4.907.11-14.718 3.872-14.718 18.047 0 17.719-9.693 25.922-23.693 20.344-11.2-4.463-15.435 2.953-16.154 7.219-1.795 11.703-10.481 33.665-30.871 27.89C40.277 67.725 25.787 78.203 21 84h145a2 2 0 0 0 2-2z" fill-rule="evenodd" fill="#F8982A" fill-opacity=".1"/><path d="M168 82V29.612c-9.932-2.23-32.738 1.338-44.513 33.444-.717 1.45-4.307 4.35-12.923 4.35-10.77 0-33.97-8.157-49.764 16.594H166a2 2 0 0 0 2-2z" fill-rule="evenodd" fill="#F58030" fill-opacity=".1"/><path d="M84.8 84H166a2 2 0 0 0 2-2V58.154c-7.897.891-24.626 2.408-28.359 1.338-4.666-1.338-18.308-4.348-26.923 10.701C105.825 82.233 90.902 83.665 84.8 84z" fill-rule="evenodd" fill="#F05E34" fill-opacity=".1"/><path d="M168 45.231c-2.513 1.003-7.754 6.354-8.615 19.731-.862 13.378-11.367 12.932-16.513 11.037-8.137-2.23-25.601-2.7-28.472 8.001H166a2 2 0 0 0 2-2V45.231z" fill-rule="evenodd" fill="#EE4038" fill-opacity=".1"/></svg>