<svg width="94.567" height="15.36" viewBox="0 0 94.567 15.36" fill="none" xmlns="http://www.w3.org/2000/svg"><path d="M6.014 5.276 9.28 15.36l3.267-10.084H6.014zM6.703 0H2.939L0 4.221h4.789L6.703 0zm5.779 4.22L10.568 0H7.99L6.076 4.221h6.406zM.271 5.277l3.241 3.628c.008-.003 4.22 4.724 4.22 4.724L4.754 5.277H.27zM11.856 0l1.915 4.22 4.843.001L15.62 0h-3.764zm-.958 13.56 5.632-6.265c-.01-.004 1.806-2.018 1.806-2.018h-4.533l-2.905 8.283zm14.397-8.8c2.505-.977 5.069-2.645 6.467-4.743l1.5.741c-.099.127-.198.267-.294.393 1.832 1.932 3.78 2.882 5.766 3.582-.406.352-.854.94-1.049 1.443-1.931-.841-3.78-1.863-5.684-3.893-1.555 1.654-3.541 2.97-5.571 3.893a6.277 6.277 0 0 0-1.135-1.415zm30.519 1.15c0 .293 0 .614-.014.94h2.731v6.326h-1.51V8.319h-1.275c-.113 1.818-.434 3.654-1.204 4.97-.266-.308-.827-.814-1.162-1.036.81-1.695.91-4.368.91-6.344V.505h1.524v3.32h.954V.142h1.497v3.681h.967v1.47h-3.418v.615zm2.717 6.524c1.022-1.849 1.149-4.775 1.149-6.76V.98c2.044-.14 4.31-.417 5.838-.769l.922 1.456c-1.51.335-3.4.547-5.178.66v1.665h3.695l.267-.055.994.25c-.266 2.45-.854 4.412-1.736 5.936.588.756 1.288 1.388 2.085 1.822-.362.294-.855.896-1.121 1.33a7.88 7.88 0 0 1-1.918-1.808 8.098 8.098 0 0 1-2.197 1.808 7.693 7.693 0 0 0-.869-1.248 6.248 6.248 0 0 1-.615 1.33 6.813 6.813 0 0 0-1.316-.923zM80.5 5.63V4.09h-3.066V2.9h2.478V1.387h-2.478V.143h-1.597v1.244h-2.41v1.514h2.41v1.19h-3.223v1.538h4.802V6.89h-4.521v1.542h1.654l-1.162.741c.588.67 1.258 1.597 1.538 2.198l1.275-.854c-.322-.602-1.022-1.47-1.61-2.085h2.826v2.895c0 .184-.054.225-.28.239-.222 0-.964 0-1.623-.027.198.461.406 1.175.478 1.65 1.009 0 1.791-.027 2.325-.28.543-.266.683-.714.683-1.552V8.432h1.374V6.89h-1.374V5.63h1.5zm4.83-.503c.543.448 2.012 1.863 2.323 2.198l-.94 1.525c-.307-.49-.854-1.23-1.384-1.89v6.258h-1.64v-5.6c-.448 1.316-.992 2.52-1.597 3.333-.18-.475-.615-1.275-.936-1.723.936-1.107 1.79-3.066 2.225-4.789h-1.777V2.901h2.085V.143h1.64v2.758h1.61V4.44h-1.61v.687zm-12.852 1.57-1.08.307v-2.55h1.063V2.871h-1.063V.157h-1.583V2.87h-.56c.057-.462.099-.923.126-1.385l-1.302-.239c-.096 1.695-.335 3.514-.698 4.635.322.14.937.42 1.217.615a22.07 22.07 0 0 0 .448-2.044h.769v2.984c-.854.222-1.624.403-2.239.543l.349 1.696 1.89-.574v4.115h1.583V8.613l1.203-.38-.123-1.538zm-23.83 4.214V8.274l1.274.646c.728-1.343 1.61-3.318 2.226-5.082l-1.498-.714c-.461 1.596-1.302 3.585-2.002 4.915V.324h-1.723V10.91h-1.832V.324H43.37V10.91h-3.613v1.664h12.517V10.91h-3.627zm44.21-9.591.267-.072 1.064.338c-.418 3.316-1.303 5.893-2.646 7.838.786.954 1.764 1.736 3.025 2.45-.434.322-.954.923-1.19 1.416-1.189-.77-2.143-1.583-2.925-2.506-.927 1.008-2.003 1.791-3.234 2.407-.239-.435-.687-1.077-1.053-1.385a9.071 9.071 0 0 0 3.292-2.41c-.995-1.664-1.61-3.708-2.071-6.384l.42-.082h-.714V1.32h5.766zm-2.337 6.62c.868-1.384 1.483-3.065 1.863-5.01h-3.445c.379 2.044.868 3.667 1.582 5.01zm-47.25.308c-.349-1.33-1.162-3.527-1.818-5.164l-1.528.447c.646 1.723 1.374 3.962 1.681 5.305l1.665-.588zm-6.566.294h-3.736v2.8h5.011v1.5H26.078v-1.5h1.514V6.455h1.65v4.884h1.963V4.16h1.763v2.884h3.736v1.497zm26.797.027c.434-.895.769-1.93.995-3.066h-2.102a14.98 14.98 0 0 0 1.107 3.066zm-2.239-2.365c-.03 1.764-.17 3.866-.728 5.602.81-.42 1.497-1.035 2.099-1.794-.588-1.118-1.022-2.407-1.37-3.808z" fill-rule="evenodd" fill="#9E6700"/></svg>