<svg width="118" height="84.051" viewBox="0 0 118 84.051" fill="none" xmlns="http://www.w3.org/2000/svg"><path d="M118 80.387V2a2 2 0 0 0-2-2h-12.337l-.163 26.54L118 80.386z" fill-rule="evenodd" fill="#A25B00" fill-opacity=".35"/><path d="m92.637.05 11.028 15.356L99.253.05h-6.616z" fill-rule="evenodd" fill="#CA7200" fill-opacity=".35"/><path d="m99.251.05 4.412 15.356V.05h-4.412z" fill-rule="evenodd" fill="#B16300" fill-opacity=".35"/><path d="M118 80.05v4l-57.5-.01-11.977-6.312 20.954-5.42 27.57-9.935 6.453-45.834.084 9.694L118 80.05z" fill-rule="evenodd" fill="#EFCB9C"/><path d="m38 84.04 10.523-6.313L60.5 84.04H38z" fill-rule="evenodd" fill="#FF9D06" fill-opacity=".35"/><path d="M15.44 84.05 38 84.04l10.524-6.312-23.159-19.871L8.823 81.34l6.617 2.71z" fill-rule="evenodd" fill="#FFBD66" fill-opacity=".35"/><path d="m8.822 81.341 16.542-23.483-4.41-20.774L0 55.148 8.822 81.34z" fill-rule="evenodd" fill="#FFDBAC" fill-opacity=".35"/><path d="M25.365 57.857 50.73 44.31l-29.776-7.226 4.411 20.774z" fill-rule="evenodd" fill="#FFCA86" fill-opacity=".35"/><path d="m25.364 57.857 23.159 19.871 20.953-5.42-18.748-28-25.364 13.549z" fill-rule="evenodd" fill="#FFAD42" fill-opacity=".35"/><path d="m50.73 44.309 18.748 28 27.57-9.936L50.73 44.309z" fill-rule="evenodd" fill="#FFA42D" fill-opacity=".35"/><path d="m50.73 44.309 46.317 18.064 6.617-46.968L50.73 44.31z" fill-rule="evenodd" fill="#FF9812" fill-opacity=".35"/><path d="m50.728 44.31 52.935-28.904-70.579-.904L50.728 44.31z" fill-rule="evenodd" fill="#FCAA3F" fill-opacity=".35"/><path d="m50.729 44.31-29.775-7.227-1.103-9.032 13.233-13.549L50.729 44.31z" fill-rule="evenodd" fill="#FFC375" fill-opacity=".35"/><path d="M19.85 9.986v18.065l13.234-13.549-13.233-4.516z" fill-rule="evenodd" fill="#FFD49E" fill-opacity=".35"/><path d="m19.85 9.986 13.234 4.516L38.598.051h-6.617l-12.13 9.935z" fill-rule="evenodd" fill="#FFC985" fill-opacity=".35"/><path d="M33.084 14.502 38.598.051h20.953l44.112 15.355-70.579-.904z" fill-rule="evenodd" fill="#FDB352" fill-opacity=".35"/><path d="m59.55.05 44.112 15.356L92.634.05H59.55z" fill-rule="evenodd" fill="#E89020" fill-opacity=".35"/><path d="M15.439 84.05H1.952l6.87-2.71 6.617 2.71z" fill-rule="evenodd" fill="#FFC985" fill-opacity=".35"/></svg>