<svg width="18" height="18" viewBox="0 0 18 18" fill="none" xmlns="http://www.w3.org/2000/svg"><path d="M14.303 14.303a7.439 7.439 0 0 1-2.384 1.607A7.417 7.417 0 0 1 9 16.5a7.418 7.418 0 0 1-2.92-.59 7.44 7.44 0 0 1-2.383-1.607A7.44 7.44 0 0 1 2.09 11.92 7.418 7.418 0 0 1 1.5 9c0-1.017.197-1.99.59-2.92a7.44 7.44 0 0 1 1.607-2.383A7.44 7.44 0 0 1 6.08 2.09 7.419 7.419 0 0 1 9 1.5c1.017 0 1.99.197 2.92.59a7.44 7.44 0 0 1 2.383 1.607A7.44 7.44 0 0 1 15.91 6.08c.393.929.59 1.902.59 2.919 0 .999-.19 1.956-.57 2.87l-.01-.025-.887-.368-.026.01A6.43 6.43 0 0 0 15.5 9a6.43 6.43 0 0 0-.51-2.53 6.447 6.447 0 0 0-1.394-2.066A6.454 6.454 0 0 0 11.53 3.01 6.43 6.43 0 0 0 9 2.5a6.43 6.43 0 0 0-2.53.51 6.453 6.453 0 0 0-2.066 1.394c-.6.6-1.065 1.288-1.393 2.066A6.43 6.43 0 0 0 2.5 9c0 .882.17 1.725.51 2.53a6.447 6.447 0 0 0 1.394 2.066c.6.6 1.288 1.064 2.066 1.393A6.43 6.43 0 0 0 9 15.5a6.43 6.43 0 0 0 2.53-.51 6.455 6.455 0 0 0 2.066-1.394v.028l.679.68h.028zm-.707-.707.707.707a.495.495 0 0 0 0-.707.495.495 0 0 0-.707 0zm2.335-1.725-.924-.383a.495.495 0 0 0 .27.653.495.495 0 0 0 .654-.27z" fill-rule="evenodd" fill="#F08900"/><path d="M6.915 10.312c0 .798-.665 1.266-1.476 1.266-.695 0-1.147-.276-1.44-.605l.336-.446c.258.266.587.487 1.044.487.498 0 .84-.276.84-.731 0-.492-.312-.81-1.308-.81V8.96c.87 0 1.158-.33 1.158-.773 0-.39-.257-.636-.678-.642-.343.006-.63.175-.882.42l-.36-.431C4.498 7.223 4.905 7 5.415 7c.792 0 1.35.409 1.35 1.14 0 .51-.294.864-.762 1.038v.03c.51.126.912.51.912 1.104zm2.046 1.266c.864 0 1.428-.768 1.428-2.305C10.389 7.75 9.825 7 8.96 7c-.87 0-1.427.744-1.427 2.273 0 1.537.556 2.305 1.427 2.305zm0-.545c-.45 0-.768-.48-.768-1.76 0-1.265.318-1.727.768-1.727s.769.462.769 1.727c0 1.28-.318 1.76-.77 1.76zm3.685-.211h-.53V9.525H10.9v-.504h1.217V7.727h.529V9.02h1.217v.504h-1.217v1.297z" fill-rule="evenodd" fill="#F08900"/></svg>