<svg width="118" height="84.051" viewBox="0 0 118 84.051" fill="none" xmlns="http://www.w3.org/2000/svg"><path d="M118 80.387V2a2 2 0 0 0-2-2h-12.337l-.163 26.54L118 80.386z" fill-rule="evenodd" fill="#A25B00" fill-opacity=".3"/><path d="m92.637.05 11.028 15.355L99.253.051h-6.616z" fill-rule="evenodd" fill="#CA7200" fill-opacity=".3"/><path d="m99.251.05 4.412 15.355V.051h-4.412z" fill-rule="evenodd" fill="#B16300" fill-opacity=".3"/><path d="M118 80.051v3.999l-57.5-.01-11.977-6.312 20.954-5.42 27.57-9.935L103.5 16.54l.084 9.694L118 80.051z" fill-rule="evenodd" fill="#EE8700" fill-opacity=".3"/><path d="m38 84.04 10.523-6.313L60.5 84.04H38z" fill-rule="evenodd" fill="#FF9D06" fill-opacity=".3"/><path d="M15.44 84.05 38 84.04l10.524-6.311-23.159-19.871L8.823 81.34l6.617 2.71z" fill-rule="evenodd" fill="#FFBD66" fill-opacity=".3"/><path d="m8.822 81.341 16.542-23.484-4.41-20.774L0 55.148 8.822 81.34z" fill-rule="evenodd" fill="#FFDBAC" fill-opacity=".3"/><path d="M25.365 57.857 50.73 44.309l-29.776-7.226 4.411 20.774z" fill-rule="evenodd" fill="#FFCA86" fill-opacity=".3"/><path d="m25.364 57.857 23.159 19.87 20.953-5.419-18.748-28-25.364 13.549z" fill-rule="evenodd" fill="#FFAD42" fill-opacity=".3"/><path d="m50.73 44.308 18.748 28 27.57-9.935L50.73 44.308z" fill-rule="evenodd" fill="#FFA42D" fill-opacity=".3"/><path d="m50.73 44.309 46.317 18.064 6.617-46.967L50.73 44.309z" fill-rule="evenodd" fill="#FF9812" fill-opacity=".3"/><path d="m50.728 44.309 52.935-28.903-70.579-.904L50.728 44.31z" fill-rule="evenodd" fill="#FCAA3F" fill-opacity=".3"/><path d="m50.729 44.309-29.775-7.226-1.103-9.032 13.233-13.549L50.729 44.31z" fill-rule="evenodd" fill="#FFC375" fill-opacity=".3"/><path d="M19.85 9.986v18.065l13.234-13.549-13.233-4.516z" fill-rule="evenodd" fill="#FFD49E" fill-opacity=".3"/><path d="m19.85 9.986 13.233 4.516L38.599.051H31.98L19.85 9.986z" fill-rule="evenodd" fill="#FFC985" fill-opacity=".3"/><path d="M33.084 14.502 38.598.051h20.953l44.112 15.354-70.579-.903z" fill-rule="evenodd" fill="#FDB352" fill-opacity=".3"/><path d="m59.55.05 44.113 15.355L92.635.051H59.55z" fill-rule="evenodd" fill="#E89020" fill-opacity=".3"/><path d="M15.44 84.05H1.952l6.871-2.709 6.617 2.71z" fill-rule="evenodd" fill="#FFC985" fill-opacity=".3"/></svg>