<svg width="169" height="84" viewBox="0 0 169 84" fill="none" xmlns="http://www.w3.org/2000/svg"><path d="M0 82V2.018a2 2 0 0 1 2-2h86.834c7.703-.329 23.11 3.806 23.11 22.968 0 19.163 15.408 28.766 23.112 31.173C145.528 56.783 166.978 66.937 169 84H2a2 2 0 0 1-2-2z" fill-rule="evenodd" fill="#FFCE07" fill-opacity=".1"/><path d="M0 81.672V2a2 2 0 0 1 2-2h34.472C41.287.984 53.3 2.953 62.833 2.953c11.917 0 21.667-1.64 21.667 14.438s-3.972 49.218 24.194 39.375c7.223-1.97 21.017.656 18.417 26.906H2a2 2 0 0 1-2-2z" fill-rule="evenodd" fill="#FDB320" fill-opacity=".1"/><path d="M0 82V2a2 2 0 0 1 2-2h20.028c4.935.11 14.806 3.872 14.806 18.047 0 17.719 9.75 25.922 23.832 20.344 11.267-4.463 15.528 2.953 16.25 7.219 1.806 11.703 10.545 33.665 31.056 27.89 20.511-5.775 35.088 4.703 39.903 10.5H2a2 2 0 0 1-2-2z" fill-rule="evenodd" fill="#F8982A" fill-opacity=".1"/><path d="M0 82V29.611c9.99-2.23 32.933 1.338 44.778 33.444.722 1.449 4.333 4.35 13 4.35 10.833 0 34.171-8.157 50.06 16.593H2a2 2 0 0 1-2-2z" fill-rule="evenodd" fill="#F58030" fill-opacity=".1"/><path d="M83.695 84H2a2 2 0 0 1-2-2V58.154c7.944.891 24.772 2.408 28.528 1.338 4.694-1.338 18.416-4.348 27.083 10.701C62.544 82.233 77.556 83.665 83.695 84z" fill-rule="evenodd" fill="#F05E34" fill-opacity=".1"/><path d="M0 45.23c2.528 1.004 7.8 6.355 8.666 19.732.867 13.377 11.436 12.932 16.612 11.037 8.185-2.23 25.752-2.701 28.64 8H2a2 2 0 0 1-2-2V45.231z" fill-rule="evenodd" fill="#EE4038" fill-opacity=".1"/></svg>