<svg width="14" height="14" viewBox="0 0 14 14" fill="none" xmlns="http://www.w3.org/2000/svg"><path d="M13.506 11.474h-2.283a.503.503 0 0 1-.494-.513l-.005-6.034C10.693 2.817 9.039 1.205 7 1.195c-2.039.01-3.693 1.621-3.726 3.732l-.003 5.235s.638 2.283 2.157 2.018c.115-.4.523-.55.786-.55h1.6c.546 0 .988.458.988 1.024v.321c0 .566-.442 1.025-.988 1.025H6.342a.992.992 0 0 1-.92-.654c-.024-.014-.22.004-.414-.04a4.236 4.236 0 0 1-2.155-1.84l-2.359.01A.504.504 0 0 1 0 10.963V5.71c0-.283.221-.513.494-.513h1.631c0-.433-.001-.272-.001-.272C2.182.017 6.919.001 6.919.001h.162s4.737.018 4.795 4.924l-.001.272h1.63c.274 0 .495.23.495.513v5.251a.503.503 0 0 1-.494.513zM2.227 6.699c0-.174-.09-.316-.2-.316h-.843c-.11 0-.2.142-.2.316v3.234c0 .175.09.315.2.315h.843c.11 0 .2-.141.2-.315V6.699zm10.79 0c0-.174-.09-.316-.2-.316h-.842c-.11 0-.202.142-.202.316v3.234c0 .175.091.315.202.315h.841c.11 0 .2-.141.2-.315V6.699z" fill="#EFA209"/></svg>