<svg width="148" height="84" viewBox="0 0 148 84" fill="none" xmlns="http://www.w3.org/2000/svg"><path d="M0 83.984V18.27l14.846 23.574L0 83.984z" fill-rule="evenodd" fill="#FF9812" fill-opacity=".3"/><path d="m.001 83.985 14.846-42.14 22.27 14.146L0 83.985z" fill-rule="evenodd" fill="#FFAB3E" fill-opacity=".3"/><path d="M.001 83.985 37.117 55.99l34.331 14.44L.001 83.984z" fill-rule="evenodd" fill="#FFBB62" fill-opacity=".3"/><path d="M.001 83.985 71.448 70.43l-15.31 13.555H.001z" fill-rule="evenodd" fill="#FFAB3E" fill-opacity=".3"/><path d="m54.748 84 30.62-.015L71.45 70.429 54.748 84z" fill-rule="evenodd" fill="#FFC579" fill-opacity=".3"/><path d="M31.087 38.898 67.737 0H14.384L.002 10.02v8.25L14.85 41.845l16.238-2.947z" fill-rule="evenodd" fill="#FFB657" fill-opacity=".3"/><path d="m14.847 41.845 16.238-2.947 12.057 5.69-6.026 11.401-22.269-14.144z" fill-rule="evenodd" fill="#FFC983" fill-opacity=".3"/><path d="M31.086 38.899 67.738 0l16.238 38.603-52.89.295z" fill-rule="evenodd" fill="#FCC071" fill-opacity=".3"/><path d="m31.086 38.9 52.89-.295L37.118 55.99l5.567-11.198-11.599-5.894z" fill-rule="evenodd" fill="#FFC983" fill-opacity=".3"/><path d="m37.117 55.99 46.858-17.386 17.178 20.311L71.449 70.43 37.117 55.99z" fill-rule="evenodd" fill="#FFD296" fill-opacity=".3"/><path d="M.002 10.02V2a2 2 0 0 1 2-2h43.39L.002 10.02z" fill-rule="evenodd" fill="#FF9812" fill-opacity=".3"/><path d="m71.45 70.43 13.918 13.555H148L71.45 70.43z" fill-rule="evenodd" fill="#FFCD8C" fill-opacity=".3"/><path d="M71.45 70.429 148 83.984l-46.858-25.048L71.45 70.43z" fill-rule="evenodd" fill="#FFD9A7" fill-opacity=".3"/></svg>