<svg width="148" height="84" viewBox="0 0 148 84" fill="none" xmlns="http://www.w3.org/2000/svg"><path d="M0 83.984V18.27l14.846 23.575L0 83.984z" fill-rule="evenodd" fill="#FF9812" fill-opacity=".35"/><path d="m.001 83.985 14.847-42.14L37.117 55.99 0 83.985z" fill-rule="evenodd" fill="#FFAB3E" fill-opacity=".35"/><path d="M.001 83.985 37.117 55.99l34.331 14.44L.001 83.985z" fill-rule="evenodd" fill="#FFBB62" fill-opacity=".35"/><path d="M.001 83.985 71.448 70.43l-15.31 13.555H.001z" fill-rule="evenodd" fill="#FFAB3E" fill-opacity=".35"/><path d="m54.748 84 30.62-.016L71.45 70.429 54.748 84z" fill-rule="evenodd" fill="#FFC579" fill-opacity=".35"/><path d="M31.086 38.898 67.737 0H14.384L.002 10.019v8.251l14.846 23.575 16.238-2.947z" fill-rule="evenodd" fill="#FFB657" fill-opacity=".35"/><path d="m14.847 41.845 16.238-2.947 12.057 5.69-6.026 11.401-22.269-14.144z" fill-rule="evenodd" fill="#FFC983" fill-opacity=".35"/><path d="M31.086 38.899 67.737 0l16.238 38.604-52.89.294z" fill-rule="evenodd" fill="#FCC071" fill-opacity=".35"/><path d="m31.086 38.9 52.89-.295-46.859 17.386 5.567-11.197L31.086 38.9z" fill-rule="evenodd" fill="#FFC983" fill-opacity=".35"/><path d="m37.118 55.99 46.858-17.386 17.177 20.311L71.449 70.43 37.118 55.99z" fill-rule="evenodd" fill="#FFD296" fill-opacity=".35"/><path d="M.002 10.019V2a2 2 0 0 1 2-2h43.39L.002 10.019z" fill-rule="evenodd" fill="#FF9812" fill-opacity=".35"/><path d="m71.45 70.43 13.918 13.555H148L71.45 70.43z" fill-rule="evenodd" fill="#FFCD8C" fill-opacity=".35"/><path d="M71.45 70.429 148 83.984l-46.858-25.048L71.45 70.429z" fill-rule="evenodd" fill="#FFD9A7" fill-opacity=".35"/></svg>