<svg width="18" height="18" viewBox="0 0 18 18" fill="none" xmlns="http://www.w3.org/2000/svg"><path d="M14.303 14.303a7.437 7.437 0 0 1-2.384 1.607A7.417 7.417 0 0 1 9 16.5a7.418 7.418 0 0 1-2.92-.59 7.44 7.44 0 0 1-2.383-1.607A7.44 7.44 0 0 1 2.09 11.92 7.42 7.42 0 0 1 1.5 9c0-1.017.197-1.99.59-2.92a7.44 7.44 0 0 1 1.607-2.383A7.44 7.44 0 0 1 6.08 2.09 7.419 7.419 0 0 1 9 1.5c1.017 0 1.99.197 2.92.59.897.38 1.691.915 2.383 1.607A7.44 7.44 0 0 1 15.91 6.08c.393.929.59 1.902.59 2.919 0 .999-.19 1.956-.57 2.87a.495.495 0 0 1-.652.271.495.495 0 0 1-.27-.653A6.432 6.432 0 0 0 15.5 9a6.43 6.43 0 0 0-.51-2.53 6.448 6.448 0 0 0-1.394-2.066A6.45 6.45 0 0 0 11.53 3.01 6.43 6.43 0 0 0 9 2.5a6.43 6.43 0 0 0-2.53.51 6.449 6.449 0 0 0-2.066 1.394c-.6.6-1.065 1.288-1.393 2.066A6.428 6.428 0 0 0 2.5 9c0 .882.17 1.725.51 2.53a6.448 6.448 0 0 0 1.394 2.066c.6.6 1.288 1.065 2.066 1.393A6.43 6.43 0 0 0 9 15.5a6.43 6.43 0 0 0 2.53-.51 6.45 6.45 0 0 0 2.066-1.394.495.495 0 0 1 .707 0 .495.495 0 0 1 0 .707z" fill-rule="evenodd" fill="#EFA209"/><path d="M7.384 10.75H5v-.513h.914V7.472h-.75v-.394c.393-.071.67-.162.908-.303h.495v3.462h.817v.512zm1.884.07c.731 0 1.407-.498 1.407-1.377 0-.87-.573-1.264-1.271-1.264-.227 0-.398.054-.574.14l.097-1.02h1.549v-.524H8.359L8.235 8.66l.318.199c.244-.15.402-.227.67-.227.476 0 .793.303.793.832 0 .53-.357.848-.828.848-.437 0-.737-.2-.976-.426l-.311.405c.295.275.709.528 1.367.528zm3.58-.68h-.5V8.971h-1.15V8.52h1.15V7.354h.5v1.165H14v.453h-1.151v1.167z" fill-rule="evenodd" fill="#EFA209"/></svg>