<svg width="14.4" height="14.4" viewBox="0 0 14.4 14.4" fill="none" xmlns="http://www.w3.org/2000/svg"><path d="M7.199 14.2a7 7 0 1 1 .002-14 7 7 0 0 1-.002 14zM7.201.867a6.333 6.333 0 1 0 0 12.667A6.333 6.333 0 0 0 7.2.867zm1.663 8.001h-.33c-.513 0-.981-.191-1.335-.508v2.51h-.667V3.534h.667v.51c.354-.317.822-.51 1.335-.51h.33a2 2 0 0 1 2.002 2v1.333c0 1.103-.897 2-2.002 2zm1.337-3.336c0-.733-.598-1.332-1.333-1.332h-.333c-.733 0-1.332.595-1.332 1.332v1.336c0 .732.598 1.331 1.332 1.331h.333c.733 0 1.333-.595 1.333-1.331V5.532zM4.534 3.535h.667v7.332h-.667V3.535z" fill-rule="evenodd" fill="#EFA209"/><path d="M.2 7.2a7 7 0 1 1 14 0 7 7 0 0 1-14 0zm.667 0a6.333 6.333 0 1 0 12.667 0 6.333 6.333 0 0 0-12.667 0zm7.667 1.668c-.513 0-.981-.191-1.335-.508v2.51h-.667V3.534h.667v.51c.354-.317.822-.51 1.335-.51h.33a2 2 0 0 1 2.002 2v1.333c0 1.103-.897 2-2.002 2h-.33zM8.868 4.2h-.333c-.733 0-1.332.595-1.332 1.332v1.336c0 .732.598 1.331 1.332 1.331h.333c.733 0 1.333-.595 1.333-1.331V5.532c0-.733-.598-1.332-1.333-1.332zm-3.667-.665v7.332h-.667V3.535h.667z" stroke="#EFA209" stroke-width=".4"/></svg>