<svg width="16" height="14" viewBox="0 0 16 14" fill="none" xmlns="http://www.w3.org/2000/svg"><path d="M15.082 11.168a2.37 2.37 0 0 0-.861.373 2.034 2.034 0 0 1-.94.608c.047-.343.206-.657.447-.89.203-.33.345-.69.428-1.076a1.028 1.028 0 0 1 .268-.699.915.915 0 0 1 .3-.214.863.863 0 0 1 .705-.002c.112.049.212.12.299.212a1.036 1.036 0 0 1 .203 1.075.994.994 0 0 1-.199.322.913.913 0 0 1-.298.214.867.867 0 0 1-.352.077zm-2.816-5.625C11.988 3.05 9.577 1.097 6.66 1.097c-3.107 0-5.636 2.215-5.636 4.938a4.898 4.898 0 0 0 .572 2.142 4.551 4.551 0 0 0 1.442 1.605c.196.155.401.296.614.423l-.25 1.068c.09.046.178.094.27.136l1.263-.676c.184.051.378.084.57.12.123.023.246.047.372.063.794.107 1.58.059 2.357-.145.024.367.085.726.185 1.078a7.282 7.282 0 0 1-1.759.22 7.154 7.154 0 0 1-1.58-.186l-2.29 1.224a.479.479 0 0 1-.549-.061.574.574 0 0 1-.177-.56l.41-1.768a5.406 5.406 0 0 1-1.007-.887 5.692 5.692 0 0 1-.776-1.123 5.938 5.938 0 0 1-.5-1.291A6.097 6.097 0 0 1 0 6.035C0 2.702 2.982 0 6.66 0c3.493 0 6.353 2.438 6.631 5.538a4.234 4.234 0 0 0-.483-.052 4.208 4.208 0 0 0-.542.057z" fill-rule="evenodd" fill="#F08900"/><path d="M12.808 5.486a4.208 4.208 0 0 0-.542.057 4.426 4.426 0 0 0-.463-1.527c-.623-1.214-1.79-2.169-3.227-2.625a6.33 6.33 0 0 0-1.916-.294c-3.107 0-5.636 2.215-5.636 4.938a4.898 4.898 0 0 0 .572 2.142 4.551 4.551 0 0 0 1.442 1.605c.196.155.401.296.614.423l-.25 1.068c.09.046.178.094.27.136l1.263-.676c.184.051.378.084.57.12.123.023.246.047.372.063.794.107 1.58.059 2.357-.145.024.367.085.726.185 1.078a7.282 7.282 0 0 1-1.759.22 7.154 7.154 0 0 1-1.58-.186l-2.29 1.224a.479.479 0 0 1-.549-.061.574.574 0 0 1-.177-.56l.41-1.768a5.406 5.406 0 0 1-1.007-.887 5.692 5.692 0 0 1-.776-1.123 5.938 5.938 0 0 1-.5-1.291A6.097 6.097 0 0 1 0 6.035C0 2.702 2.982 0 6.66 0c3.493 0 6.353 2.438 6.631 5.538a4.234 4.234 0 0 0-.483-.052zm-.809-1.526c.218.434.364.886.438 1.356a4.86 4.86 0 0 1 .362-.03h.018c.082.005.165.01.247.02a5.335 5.335 0 0 0-.61-1.846 5.896 5.896 0 0 0-1.401-1.7A6.53 6.53 0 0 0 9.063.617 7 7 0 0 0 6.66.2c-.879 0-1.719.154-2.52.461a6.486 6.486 0 0 0-2.055 1.255A5.795 5.795 0 0 0 .705 3.77 5.288 5.288 0 0 0 .2 6.033a5.873 5.873 0 0 0 .668 2.581c.208.394.458.756.749 1.084.29.327.614.612.97.855l.113.077-.44 1.9a.379.379 0 0 0 .007.203c.02.065.056.12.106.162a.276.276 0 0 0 .323.036l2.356-1.26.073.017a6.93 6.93 0 0 0 1.535.181c.51 0 1.015-.057 1.514-.167a5.344 5.344 0 0 1-.12-.681 6.209 6.209 0 0 1-2.557.033l-.028-.005-.062-.011a7.771 7.771 0 0 1-.447-.092l-1.28.686-.09-.04a4.404 4.404 0 0 1-.193-.096l-.084-.044-.141-.07.253-1.082a5.783 5.783 0 0 1-.505-.356 4.572 4.572 0 0 1-.844-.736 4.795 4.795 0 0 1-.656-.937 5.102 5.102 0 0 1-.595-2.23v-.006c0-.7.154-1.369.463-2.008a5.13 5.13 0 0 1 1.257-1.633A5.909 5.909 0 0 1 4.4 1.298 6.42 6.42 0 0 1 6.66.897c.67 0 1.317.097 1.941.292 1.7.375 2.834 1.299 3.398 2.771zm3.082 7.208a2.37 2.37 0 0 0-.86.373 2.034 2.034 0 0 1-.94.608c.047-.343.206-.657.447-.89.203-.33.345-.69.428-1.076a1.028 1.028 0 0 1 .268-.699.915.915 0 0 1 .3-.214.863.863 0 0 1 .705-.002c.112.049.212.12.299.212a1.036 1.036 0 0 1 .203 1.075.994.994 0 0 1-.199.322.913.913 0 0 1-.298.214.867.867 0 0 1-.352.077zm-.994.222-.016.018a1.876 1.876 0 0 1-.487.396c.066-.149.16-.283.283-.4l.018-.018.013-.022c.215-.35.366-.73.454-1.14l.004-.02v-.022c0-.106.018-.207.056-.306a.796.796 0 0 1 .159-.256.715.715 0 0 1 .234-.168.663.663 0 0 1 .543-.002c.088.04.166.095.234.167a.832.832 0 0 1 .218.56.836.836 0 0 1-.215.563.71.71 0 0 1-.233.169.663.663 0 0 1-.271.059h-.02l-.021.004a2.575 2.575 0 0 0-.933.404l-.02.014z" fill-rule="evenodd" fill="#F08900"/><path d="M10.102 11.198a.897.897 0 0 1-.342.125.837.837 0 0 1-.67-.197.92.92 0 0 1-.227-.292 1.07 1.07 0 0 1 .378-1.358.884.884 0 0 1 .343-.125c.3-.107.574-.27.822-.487.236-.328.53-.572.883-.73a1.556 1.556 0 0 1-.37.942 3.652 3.652 0 0 0-.336 1.131 1.072 1.072 0 0 1-.205.735.977.977 0 0 1-.276.256z" fill-rule="evenodd" fill="#F08900"/><path d="M10.102 11.198a.897.897 0 0 1-.342.125.837.837 0 0 1-.67-.197.92.92 0 0 1-.227-.292 1.07 1.07 0 0 1 .378-1.358.884.884 0 0 1 .343-.125c.3-.107.574-.27.822-.487.236-.328.53-.572.883-.73a1.556 1.556 0 0 1-.37.942 3.652 3.652 0 0 0-.336 1.131 1.072 1.072 0 0 1-.205.735.977.977 0 0 1-.276.256zm-.097-.17a.68.68 0 0 1-.263.095.646.646 0 0 1-.52-.154.737.737 0 0 1-.181-.233.872.872 0 0 1 .08-.89.767.767 0 0 1 .217-.2.68.68 0 0 1 .263-.096l.02-.003.02-.006a2.72 2.72 0 0 0 .89-.528l.019-.016.014-.02c.132-.182.282-.335.453-.46a1.328 1.328 0 0 1-.245.433l-.018.02-.011.025a3.807 3.807 0 0 0-.357 1.196l-.003.022.002.022a.871.871 0 0 1-.164.592.758.758 0 0 1-.216.2zM11.78 7.52a1.036 1.036 0 0 1 0-.755.981.981 0 0 1 .2-.32.91.91 0 0 1 .3-.215.865.865 0 0 1 .705 0 .976.976 0 0 1 .499.535c.047.12.07.246.07.377.06.332.173.64.341.926.273.284.459.622.56 1.015a1.324 1.324 0 0 1-.823-.485 2.994 2.994 0 0 0-1-.469.9.9 0 0 1-.652-.29.981.981 0 0 1-.2-.319z" fill-rule="evenodd" fill="#F08900"/><path d="M11.78 7.52a1.036 1.036 0 0 1 0-.755.981.981 0 0 1 .2-.32.91.91 0 0 1 .3-.215.865.865 0 0 1 .705 0 .976.976 0 0 1 .499.535c.047.12.07.246.07.377.06.332.173.64.341.926.273.284.459.622.56 1.015a1.324 1.324 0 0 1-.823-.485 2.994 2.994 0 0 0-1-.469.9.9 0 0 1-.652-.29.981.981 0 0 1-.2-.319zm.187-.072a.836.836 0 0 1 .16-.867.715.715 0 0 1 .233-.168.663.663 0 0 1 .544 0c.088.04.166.095.234.168a.792.792 0 0 1 .16.255c.037.099.056.2.056.306v.018l.003.017c.063.356.186.687.366.993l.012.02.016.017c.158.164.284.35.378.554a1.15 1.15 0 0 1-.342-.29l-.017-.02-.021-.016a3.16 3.16 0 0 0-1.067-.499l-.025-.006h-.025a.663.663 0 0 1-.272-.058.715.715 0 0 1-.234-.168.786.786 0 0 1-.16-.256zm1.051 5.187a1.037 1.037 0 0 1 0 .755.982.982 0 0 1-.2.32.91.91 0 0 1-.299.215.865.865 0 0 1-.706 0 .973.973 0 0 1-.499-.535 1.032 1.032 0 0 1-.07-.377 2.77 2.77 0 0 0-.341-.927 2.246 2.246 0 0 1-.559-1.014c.33.058.603.216.822.485a2.98 2.98 0 0 0 1 .468.902.902 0 0 1 .652.29.972.972 0 0 1 .2.32z" fill-rule="evenodd" fill="#F08900"/><path d="M13.018 12.635a1.037 1.037 0 0 1 0 .755.982.982 0 0 1-.2.32.91.91 0 0 1-.299.215.865.865 0 0 1-.706 0 .973.973 0 0 1-.499-.535 1.032 1.032 0 0 1-.07-.377 2.77 2.77 0 0 0-.341-.927 2.246 2.246 0 0 1-.559-1.014c.33.058.603.216.822.485a2.98 2.98 0 0 0 1 .468.902.902 0 0 1 .652.29.972.972 0 0 1 .2.32zm-.187.072a.836.836 0 0 1-.16.867.716.716 0 0 1-.233.168.663.663 0 0 1-.543 0 .714.714 0 0 1-.234-.168.792.792 0 0 1-.16-.256.846.846 0 0 1-.057-.305v-.018l-.003-.018a2.961 2.961 0 0 0-.366-.992l-.011-.02-.017-.017a2.025 2.025 0 0 1-.378-.554c.129.07.243.167.342.29l.017.02.022.016c.326.234.681.4 1.067.499l.024.006h.025c.094 0 .185.02.272.058a.77.77 0 0 1 .394.424z" fill-rule="evenodd" fill="#F08900"/></svg>