<svg width="20" height="18" viewBox="0 0 20 18" fill="none" xmlns="http://www.w3.org/2000/svg"><path d="M16.757 3.317a4.19 4.19 0 0 0-1.38-.974 4.074 4.074 0 0 0-1.627-.341 4.018 4.018 0 0 0-1.627.342 4.189 4.189 0 0 0-1.38.973l-.74.784-.743-.784a4.179 4.179 0 0 0-1.379-.977A3.987 3.987 0 0 0 6.253 2a3.981 3.981 0 0 0-1.628.34c-.52.228-.98.554-1.378.977A4.601 4.601 0 0 0 2 6.5c0 1.202.442 2.332 1.246 3.181l1.1 1.163 4.318 4.57c.357.377.831.586 1.336.586.504 0 .98-.207 1.336-.586l5.42-5.734a4.589 4.589 0 0 0 1.163-2.304A4.733 4.733 0 0 0 17.284 4a4.456 4.456 0 0 0-.528-.683M3.963 8.922a3.373 3.373 0 0 1-.704-1.111 3.546 3.546 0 0 1-.245-1.312c0-.915.338-1.776.949-2.423 1.223-1.294 3.356-1.294 4.58 0l.7.74L7.564 6.61a2.311 2.311 0 0 0-.577 1.146 2.357 2.357 0 0 0 .12 1.293 2.252 2.252 0 0 0 .779 1.005c.174.123.36.216.56.281.2.065.405.097.614.098.543 0 1.086-.22 1.5-.656l1.677-1.793 2.345 2.481-3.96 4.191c-.014.013-.03.018-.043.03a.86.86 0 0 1-1.197-.03L3.963 8.922m12.077 0-.742.786-2.348-2.486-.297-.314-.463-.483L9.8 8.977a1.039 1.039 0 0 1-.34.24.987.987 0 0 1-.8 0 1.04 1.04 0 0 1-.34-.24 1.156 1.156 0 0 1 .002-1.568l1.868-1.995 1.27-1.336a3.288 3.288 0 0 1 1.05-.742 3.099 3.099 0 0 1 1.872-.194 3.095 3.095 0 0 1 1.167.51 3.288 3.288 0 0 1 .893.945 3.498 3.498 0 0 1 .483 1.235 3.614 3.614 0 0 1-.483 2.571 3.45 3.45 0 0 1-.402.52z" fill-rule="evenodd" fill="#F08900"/></svg>