<svg width="20" height="18" viewBox="0 0 20 18" fill="none" xmlns="http://www.w3.org/2000/svg"><path d="m7.333 6.375 1.778 2.188m0 4.313V8.563l1.778-2.188" stroke="#F08900" stroke-linejoin="round"/><path d="M6.349 9h5.333m-5.333 1.75h5.333" stroke="#F08900" stroke-linecap="round"/><path d="M16.722 9a7.439 7.439 0 0 0-2.232-5.306 7.556 7.556 0 0 0-2.419-1.605 7.626 7.626 0 0 0-2.96-.589 7.626 7.626 0 0 0-2.96.589 7.556 7.556 0 0 0-2.419 1.605A7.438 7.438 0 0 0 1.5 9a7.438 7.438 0 0 0 2.232 5.306 7.557 7.557 0 0 0 2.419 1.605 7.613 7.613 0 0 0 2.96.589 7.63 7.63 0 0 0 2.912-.568l-.027-.011-.362-.89.01-.025a6.642 6.642 0 0 1-2.533.494 6.638 6.638 0 0 1-4.677-1.906 6.445 6.445 0 0 1-1.416-2.067A6.335 6.335 0 0 1 2.5 9c0-.88.173-1.723.518-2.527a6.446 6.446 0 0 1 1.416-2.067A6.637 6.637 0 0 1 9.112 2.5a6.637 6.637 0 0 1 4.677 1.906A6.443 6.443 0 0 1 15.722 9l.02-.02h.96l.02.02zm-1 0h1c0 .28-.22.5-.5.5s-.5-.22-.5-.5zm-3.7 6.932-.377-.926a.495.495 0 0 1 .651.274.495.495 0 0 1-.273.652z" fill-rule="evenodd" fill="#F08900"/><path d="m14.444 8.125 1.778 1.75L18 8.125" stroke="#F08900" stroke-linecap="round"/></svg>