<svg width="22" height="22" viewBox="0 0 22 22" fill="none" xmlns="http://www.w3.org/2000/svg"><path d="M8.654 8.627 2 15.061l3.676.492L3.238 20l6.408-6.334-3.058-.618 2.066-4.42z" fill-rule="evenodd" fill="#F08900"/><path d="M5.1 9.05a7.377 7.377 0 0 1 .607-2.93c.39-.906.94-1.708 1.652-2.406A7.733 7.733 0 0 1 12.8 1.5c1.043 0 2.041.198 2.994.594a7.649 7.649 0 0 1 2.447 1.62 7.507 7.507 0 0 1 1.652 2.406c.405.938.607 1.921.607 2.95 0 1.027-.202 2.01-.607 2.949a7.504 7.504 0 0 1-1.652 2.405 7.732 7.732 0 0 1-5.441 2.214 7.731 7.731 0 0 1-2.926-.566l-.019-.007-.463-.189.377-.926.463.188a6.74 6.74 0 0 0 2.568.5 6.742 6.742 0 0 0 4.74-1.927 6.514 6.514 0 0 0 1.435-2.088c.35-.813.525-1.664.525-2.554 0-.89-.175-1.741-.525-2.554a6.514 6.514 0 0 0-1.434-2.088A6.739 6.739 0 0 0 12.8 2.5a6.739 6.739 0 0 0-4.742 1.927 6.513 6.513 0 0 0-1.434 2.088A6.386 6.386 0 0 0 6.1 9.07v.5h-1v-.52z" fill-rule="evenodd" fill="#F08900"/><path d="M11.9 5.976v3.919a.5.5 0 0 0 .5.5h3.1" stroke="#F08900" stroke-linecap="round"/></svg>