<svg width="20" height="18" viewBox="0 0 20 18" fill="none" xmlns="http://www.w3.org/2000/svg"><path d="m6.333 6.375 1.778 2.188m0 4.313V8.563L9.89 6.374" stroke="#EFA209" stroke-linejoin="round"/><path d="M5.349 9h5.333m-5.333 1.75h5.333" stroke="#EFA209" stroke-linecap="round"/><path d="M15.722 9a7.433 7.433 0 0 0-2.232-5.306 7.556 7.556 0 0 0-2.419-1.606 7.626 7.626 0 0 0-2.96-.588 7.627 7.627 0 0 0-2.96.588c-.91.38-1.717.915-2.42 1.606A7.436 7.436 0 0 0 .5 9a7.437 7.437 0 0 0 2.232 5.306 7.56 7.56 0 0 0 2.419 1.605 7.613 7.613 0 0 0 2.96.589 7.63 7.63 0 0 0 2.912-.568.495.495 0 0 0 .273-.652.495.495 0 0 0-.651-.274 6.638 6.638 0 0 1-2.534.494 6.636 6.636 0 0 1-4.678-1.907 6.444 6.444 0 0 1-1.415-2.066A6.336 6.336 0 0 1 1.5 9c0-.88.173-1.723.518-2.527a6.444 6.444 0 0 1 1.415-2.066A6.635 6.635 0 0 1 8.111 2.5a6.636 6.636 0 0 1 4.678 1.907c.61.6 1.08 1.288 1.415 2.066.345.804.518 1.646.518 2.527 0 .28.22.5.5.5s.5-.22.5-.5z" fill-rule="evenodd" fill="#EFA209"/><path d="m13.444 8.125 1.778 1.75L17 8.125" stroke="#EFA209" stroke-linecap="round"/></svg>