<svg class="icon" viewBox="0 0 1024 1024" xmlns="http://www.w3.org/2000/svg" width="120" height="120"><path d="M963.304 982.127c0 22.754-18.255 41.204-40.78 41.204-22.527 0-40.783-18.45-40.783-41.204l-.358-3.847c0-1.63.293-3.194.456-4.792-25.46-180.861-178.937-313.77-365.829-315.854-1.499.032-2.934.228-4.433.228s-2.935-.195-4.4-.228C322.435 659.72 170.425 789.66 142.39 967.39c.913 3.489 1.596 7.108 1.596 10.888l.392 3.879c0 23.112-18.55 41.858-41.433 41.858-22.853 0-41.434-18.745-41.434-41.858l-.032-.39h-.782c.097-1.207.358-2.381.488-3.587 0-3.456.522-6.715 1.304-9.943 21.22-166.711 131.83-301.543 282.34-359.602-87.627-56.722-144.772-156.965-144.772-271.487 0-177.112 136.232-320.712 311.551-320.712 175.287 0 311.519 143.6 311.519 320.712 0 114.489-57.081 214.7-144.676 271.421 149.467 57.604 259.555 190.87 281.984 355.92 1.532 4.336 2.542 8.932 2.542 13.79l.326 3.847zm-211.797-644.88c0-133.917-107.448-242.473-239.996-242.473-132.549 0-239.996 108.588-239.996 242.473 0 133.919 107.447 242.474 239.996 242.474 132.515 0 239.996-108.555 239.996-242.474z" fill="#999"/></svg>