<svg width="20" height="24" viewBox="0 0 20 24" fill="none" xmlns="http://www.w3.org/2000/svg"><path d="M15.95 18.48c-.346 0-.619.3-.619.668 0 .246.124.465.313.577v1.095c0 .187.138.332.312.332.173 0 .312-.145.312-.332v-1.09a.687.687 0 0 0 .312-.576c-.01-.374-.282-.673-.63-.673zm2.806-2.003h-.322v-.993a.34.34 0 0 0 .005-.102C18.29 14.026 17.299 13 15.946 13c-1.482 0-2.483 1.229-2.483 2.735v.737h.62v-.737c0-1.138.728-2.062 1.863-2.062 1.02 0 1.75.759 1.868 1.774v1.036h-4.673c-.684 0-1.25.593-1.25 1.335v4.007c0 .737.566 1.33 1.25 1.33h5.61c.684 0 1.249-.604 1.249-1.33v-4.007c.005-.742-.555-1.34-1.244-1.34zm.62 5.342c0 .374-.273.668-.62.668h-5.61c-.342 0-.62-.294-.62-.662v-4.017c0-.364.283-.668.62-.668h5.61c.347 0 .62.294.62.668v4.011z" fill="#999"/><path d="M5.405 9.693a.452.452 0 0 0-.45.462c0 .258.198.461.45.461h8.559c.252 0 .45-.203.45-.461a.452.452 0 0 0-.45-.462H5.405z" fill-rule="evenodd" fill="#999"/><path d="M10.36 5.539a.452.452 0 0 0-.45-.462.452.452 0 0 0-.45.462v8.77c0 .258.198.462.45.462s.45-.204.45-.462v-8.77z" fill-rule="evenodd" fill="#999"/><path d="M10.037.001a2.068 2.068 0 0 0-.573.06L1.66 1.974c-.544.133-.954.376-1.231.73C.152 3.065 0 3.56 0 4.151v9.91c0 .17.018.33.053.483a11.197 11.197 0 0 0 .75 2.192c1.42 3.063 4.252 5.438 8.494 7.126.205.081.41.127.613.137v-.9a1.07 1.07 0 0 1-.304-.073c-4.103-1.633-6.804-3.916-8.104-6.852a11.429 11.429 0 0 1-.611-1.839 1.218 1.218 0 0 1-.03-.273v-9.91c0-.354.084-.64.25-.858.166-.212.42-.369.747-.449L9.662.932a1.24 1.24 0 0 1 .685.026l7.706 2.515c.302.099.528.255.679.468.15.214.226.485.226.813v9.093h.862V4.754c0-.547-.126-1-.377-1.355-.252-.356-.629-.616-1.132-.78L10.605.104a2.075 2.075 0 0 0-.568-.103z" fill-rule="evenodd" fill="#999"/></svg>