<svg xmlns="http://www.w3.org/2000/svg" xmlns:xlink="http://www.w3.org/1999/xlink" t="1661829438805" class="icon" viewBox="0 0 1024 1024" version="1.1" p-id="3320" width="40" height="40"><path d="M414.3 872.08c-9.86 0-19.72-3.18-28.13-9.53l-114.94-86.7C162.72 694 97.94 562.24 97.94 423.36V271.88c0-26.5 21.2-48.06 47.25-48.06h60.3c32.49 0 64.76-8.51 93.34-24.61l92.76-52.25c14.09-7.95 30.98-8.08 45.19-0.33l99.03 53.93c27.94 15.21 59.38 23.26 90.92 23.26h56.68c26.05 0 47.24 21.56 47.24 48.06V393.2c0 13.46-10.92 24.39-24.39 24.39s-24.39-10.92-24.39-24.39V272.6h-55.15c-39.66 0-79.16-10.1-114.24-29.2l-97.99-53.36-91.73 51.66c-35.87 20.21-76.42 30.9-117.28 30.9H146.7v150.77c0 123.65 57.52 240.87 153.88 313.56l113.71 85.77 54.92-41.44c10.73-8.11 26.02-5.99 34.16 4.78 8.11 10.75 5.98 26.04-4.77 34.15l-56.16 42.38c-8.42 6.33-18.28 9.51-28.14 9.51z" p-id="3321" fill="#fc6d26"/><path d="M389.88 579.35c-6.24 0-12.48-2.38-17.24-7.14l-78.16-78.16c-9.53-9.53-9.53-24.96 0-34.48s24.96-9.53 34.48 0l78.16 78.16c9.53 9.53 9.53 24.96 0 34.48-4.76 4.76-11 7.14-17.24 7.14z" p-id="3322" fill="#fc6d26"/><path d="M389.88 579.35c-6.24 0-12.48-2.38-17.24-7.14-9.53-9.53-9.53-24.96 0-34.48l164.05-164.04c9.53-9.53 24.96-9.53 34.48 0 9.53 9.53 9.53 24.96 0 34.48L407.12 572.21c-4.76 4.76-11 7.14-17.24 7.14zM671.95 843.51c-108.89 0-197.48-88.59-197.48-197.48s88.59-197.48 197.48-197.48 197.48 88.59 197.48 197.48-88.59 197.48-197.48 197.48z m0-346.18c-82 0-148.7 66.72-148.7 148.7s66.71 148.7 148.7 148.7 148.7-66.72 148.7-148.7-66.7-148.7-148.7-148.7z" p-id="3323" fill="#fc6d26"/><path d="M636.04 571.15c10.87-5.22 23.05-8.15 35.91-8.15 1.4 0 2.79 0.03 4.17 0.1" fill="#fc6d26" p-id="3324"/><path d="M636.05 595.53c-9.09 0-17.81-5.1-22.01-13.84-5.83-12.15-0.7-26.72 11.45-32.53 16.19-7.76 33.89-11.19 51.74-10.4 13.46 0.62 23.86 12.02 23.24 25.48-0.62 13.45-12.02 23.74-25.48 23.23l-3.05-0.08c-8.88 0-17.41 1.94-25.37 5.75a24.27 24.27 0 0 1-10.52 2.39zM902.71 885.62c-5.95 0-11.92-2.18-16.62-6.56l-104.18-97.15c-9.85-9.18-10.39-24.61-1.21-34.47 9.17-9.84 24.6-10.38 34.47-1.19l104.18 97.15c9.85 9.18 10.39 24.61 1.21 34.47-4.81 5.15-11.32 7.75-17.85 7.75z" p-id="3325" fill="#fc6d26"/></svg>