<svg width="16" height="18.5" viewBox="0 0 16 18.5" fill="none" xmlns="http://www.w3.org/2000/svg"><rect x=".5" y="7" rx="2" width="15" height="11" stroke="#999"/><path d="M3 7.371V5.412c0-1.323.395-2.664 1.428-3.491 1.77-1.417 4.38-2.328 6.865.02.887.84 1.207 2.084 1.207 3.305V7.37" stroke="#999"/><path d="M12.355 13.525a7.05 7.05 0 0 0 .668-.852l.175-.264-.212-.239c-1.008-1.131-2.053-1.904-3.134-2.318a4.96 4.96 0 0 0-2.89-.239c-.796.172-1.558.529-2.284 1.072a7.031 7.031 0 0 0-1.506 1.519L3 12.44l.166.24c.899 1.301 1.883 2.188 2.953 2.661.473.21.955.336 1.444.379.493.043.993.002 1.502-.122.826-.203 1.623-.612 2.39-1.228.32-.256.62-.538.9-.845zm-.287-1.045a7.04 7.04 0 0 1-1.202 1.238c-.662.53-1.338.88-2.03 1.05-.402.099-.799.13-1.189.096a3.588 3.588 0 0 1-1.142-.299c-.849-.375-1.65-1.078-2.404-2.11a6.159 6.159 0 0 1 1.142-1.099c.618-.462 1.259-.764 1.922-.907.278-.06.557-.09.836-.09a4.14 4.14 0 0 1 1.509.287c.866.332 1.719.943 2.558 1.834z" fill-rule="evenodd" fill="#999"/><path d="M6.274 12.568c0-.946.814-1.714 1.818-1.714 1.005 0 1.819.768 1.819 1.714 0 .947-.814 1.715-1.819 1.715-1.004 0-1.818-.768-1.818-1.715zm1.818-.857a.961.961 0 0 0-.489.135.91.91 0 0 0-.277.26.837.837 0 0 0-.143.462.813.813 0 0 0 .267.607.904.904 0 0 0 .424.226.961.961 0 0 0 .861-.226.874.874 0 0 0 .195-.273.81.81 0 0 0-.071-.795.874.874 0 0 0-.277-.261.925.925 0 0 0-.49-.135z" fill-rule="evenodd" fill="#999"/></svg>