<svg class="icon" viewBox="0 0 1245 1024" xmlns="http://www.w3.org/2000/svg" width="145.898" height="120"><path d="M1160.64 251.011h-39.422V150.996a36.502 36.502 0 0 0-36.502-36.502H465.642L421.84 48.791A36.502 36.502 0 0 0 391.179 32H68.502A36.502 36.502 0 0 0 32 68.502v886.996A36.502 36.502 0 0 0 68.502 992h1095.06a36.502 36.502 0 0 0 36.502-36.502V287.514a36.502 36.502 0 0 0-39.422-36.502zm-112.426-63.513v63.513H556.167l-42.342-63.513zm73.004 730.038H105.004V105.004h266.464l135.057 202.95a36.502 36.502 0 0 0 30.662 16.06h584.03z" fill="#999"/></svg>