<svg class="icon" viewBox="0 0 1024 1024" xmlns="http://www.w3.org/2000/svg" width="120" height="120"><path d="M736.18 456.704c-19.928-11.525-44.483-11.525-64.405 0s-32.2 32.824-32.2 55.875 12.273 44.349 32.2 55.869a64.306 64.306 0 0 0 64.404 0c19.932-11.52 32.2-32.82 32.2-55.87s-12.268-44.349-32.2-55.874z" fill="#999"/><path d="M997.719 357.709c-10.931-34.407-25.19-67.374-43.182-98.663-12.165-21.155-40.35-22.932-54.042-3.4-8.56 12.202-7.198 24.613-.2 37.361 59.613 108.555 74.092 223.058 40.131 342.078C871.696 876 621.747 1012.239 382.013 940.913 206.351 888.658 78.68 729.887 65.132 546.545c-5.54-74.978 6.906-146.909 36.89-215.916C184.57 140.652 395.243 31.043 597.79 72.812c46.566 9.6 90.619 25.8 131.998 49.254 7.087 4.009 14.408 6.692 22.687 5.412 13.911-2.156 24.735-12.304 27.228-25.431 2.74-14.393-3.701-27.474-17.725-35.257C647.235 3.036 525.46-15.555 397.507 13.082 165.39 65.029.057 273.182 0 511.652c-.005 38.149 4.02 75.873 12.421 113.065 65.009 287.82 359.521 461.43 642.048 378.552 199.629-58.562 343.839-232.514 364.795-440.709 7.014-69.673-.323-138.045-21.545-204.851z" fill="#999"/><path d="M478.628 456.704c-19.927 11.525-32.205 32.824-32.205 55.875 0 35.63 28.836 64.517 64.405 64.517s64.404-28.887 64.404-64.517c0-23.05-12.273-44.35-32.205-55.875a64.296 64.296 0 0 0-64.4 0zm-193.019 0c-19.927 11.525-32.205 32.824-32.205 55.875s12.273 44.349 32.205 55.869a64.306 64.306 0 0 0 64.404 0c19.927-11.52 32.2-32.82 32.2-55.87s-12.273-44.349-32.2-55.874a64.306 64.306 0 0 0-64.404 0z" fill="#999"/></svg>