<svg class="icon" viewBox="0 0 1024 1024" xmlns="http://www.w3.org/2000/svg" width="120" height="120"><path d="M512 64C264.58 64 64 264.58 64 512s200.58 448 448 448 448-200.58 448-448S759.42 64 512 64zm-32 254.28c-42.98-3.6-83.97-14.09-121.75-30.77 30.6-80.53 75.81-135.21 121.75-153.02v183.79zm0 64.01V480H320.89c2.05-47.45 8.52-91.44 18.39-131.18 43.79 18.45 91.1 29.93 140.72 33.47zM480 544v97.71c-49.62 3.54-96.93 15.02-140.72 33.47-9.88-39.74-16.34-83.73-18.39-131.18H480zm0 161.72v183.79c-45.94-17.81-91.15-72.5-121.75-153.02 37.78-16.69 78.77-27.18 121.75-30.77zm64 0c42.98 3.6 83.97 14.09 121.75 30.77-30.6 80.53-75.81 135.22-121.75 153.02V705.72zm0-64.01V544h159.11c-2.05 47.45-8.51 91.44-18.39 131.18-43.79-18.46-91.1-29.93-140.72-33.47zM544 480v-97.71c49.62-3.54 96.93-15.02 140.72-33.47 9.88 39.74 16.34 83.73 18.39 131.18H544zm0-161.72V134.49c45.94 17.8 91.15 72.5 121.75 153.02-37.78 16.69-78.77 27.18-121.75 30.77zm128.96-154.45a384.634 384.634 0 0 1 92.13 60.11c-13.46 11.87-27.99 22.48-43.01 32.4-13.84-34.73-30.36-65.9-49.12-92.51zm-371.03 92.52c-15.02-9.93-29.55-20.53-43.01-32.4a384.332 384.332 0 0 1 92.13-60.11c-18.77 26.6-35.29 57.77-49.12 92.51zm-20.74 62.85c-13.48 49.33-21.94 103.51-24.26 160.8h-127.3c6.58-79.23 37.12-151.72 84.62-210.04 20.64 18.46 43.14 34.81 66.94 49.24zM256.92 544c2.32 57.29 10.78 111.47 24.26 160.8-23.8 14.43-46.29 30.78-66.95 49.24-47.5-58.32-78.04-130.81-84.62-210.04h127.31zm45.01 223.65c13.83 34.74 30.35 65.92 49.12 92.52a384.634 384.634 0 0 1-92.13-60.11c13.46-11.88 27.99-22.49 43.01-32.41zm420.14 0c15.02 9.93 29.55 20.53 43.01 32.4a384.332 384.332 0 0 1-92.13 60.11c18.77-26.6 35.29-57.77 49.12-92.51zm20.74-62.85c13.48-49.33 21.94-103.51 24.26-160.8h127.3c-6.58 79.23-37.12 151.72-84.62 210.04-20.64-18.46-43.14-34.81-66.94-49.24zM767.08 480c-2.32-57.29-10.78-111.47-24.26-160.8 23.8-14.43 46.29-30.78 66.95-49.24 47.5 58.32 78.04 130.81 84.62 210.04H767.08z" fill="#999"/></svg>