<svg class="icon" viewBox="0 0 1024 1024" xmlns="http://www.w3.org/2000/svg" width="120" height="120"><path d="M398.222 113.778v284.444H113.778V113.778h284.444m0-56.89H113.778c-31.29 0-56.89 25.6-56.89 56.89v284.444c0 31.29 25.6 56.89 56.89 56.89h284.444c31.29 0 56.89-25.6 56.89-56.89V113.778c0-31.29-25.6-56.89-56.89-56.89zm0 568.89v284.444H113.778V625.778h284.444m0-56.89H113.778c-31.29 0-56.89 25.6-56.89 56.89v284.444c0 31.29 25.6 56.89 56.89 56.89h284.444c31.29 0 56.89-25.6 56.89-56.89V625.778c0-31.29-25.6-56.89-56.89-56.89zm512-455.11v284.444H625.778V113.778h284.444m0-56.89H625.778c-31.29 0-56.89 25.6-56.89 56.89v284.444c0 31.29 25.6 56.89 56.89 56.89h284.444c31.29 0 56.89-25.6 56.89-56.89V113.778c0-31.29-25.6-56.89-56.89-56.89zm0 568.89v284.444H625.778V625.778h284.444m0-56.89H625.778c-31.29 0-56.89 25.6-56.89 56.89v284.444c0 31.29 25.6 56.89 56.89 56.89h284.444c31.29 0 56.89-25.6 56.89-56.89V625.778c0-31.29-25.6-56.89-56.89-56.89z" fill="#999"/></svg>