<svg width="20" height="20" viewBox="0 0 20 20" fill="none" xmlns="http://www.w3.org/2000/svg"><path d="M18.692 0H1.306C.946 0 .637.146.382.437A1.544 1.544 0 0 0 0 1.492v13.902c0 .824.585 1.493 1.306 1.493h17.388c.721 0 1.306-.669 1.306-1.494V1.492a1.55 1.55 0 0 0-.382-1.056C19.363.144 19.054 0 18.692 0zm.171 15.028c0 .274-.195.51-.446.51H1.57c-.247 0-.447-.228-.447-.51V1.858c0-.275.195-.51.447-.51h16.848c.24 0 .446.221.446.51v13.17zM16.303 20v-1.429H3.757V20h12.546z" fill="#999"/><path d="M13.801 12.51c.467.695-.487.558-.646.909-.159.34.031.893-.522.855-.39-.026-.079-.58-.76-.921a5.075 5.075 0 0 0-.212-.129 23.954 23.954 0 0 0-.99-.475 1.087 1.087 0 0 0-.945 0c-.341.154-.674.315-.991.475-.065.035-.204.124-.212.129-.681.34-.37.895-.76.921-.553.039-.364-.517-.522-.855-.162-.352-1.116-.215-.648-.91a.467.467 0 0 1 .612-.162c.323.162.994-.077.998-.077a.943.943 0 0 0 .166-.039c.15-.052.3-.106.45-.162.036-.013.036-.069 0-.084a23.449 23.449 0 0 0-.854-.296 3.206 3.206 0 0 0-.39-.1c-.204-.039-.352-.045-.5.028-.225.108-.444.427-.585.008-.17-.507.61-.68.614-1.05.006-.37-.004-1.012.508-.827.422.153.142.324.363.602.07.09.16.162.256.213.49.266.988.513 1.492.743.303.138.642.138.944 0 .505-.23 1.002-.477 1.492-.743a.815.815 0 0 0 .256-.213c.22-.278-.058-.449.364-.602.51-.185.501.457.507.827.006.369.786.543.615 1.05-.141.42-.36.1-.585-.008-.148-.073-.295-.067-.5-.028-.13.024-.261.06-.39.1-.286.094-.571.193-.854.296-.035.015-.035.07 0 .084.151.056.3.11.45.162.054.018.11.03.166.039.004 0 .675.24.998.077a.47.47 0 0 1 .615.162zm.014-6.073c-.132-.934-.517-1.705-1.158-2.311-.675-.65-1.496-.975-2.465-.975-.968 0-1.79.322-2.465.963-.642.614-1.024 1.388-1.148 2.322a2.674 2.674 0 0 0-.04.439c.003.613.184 1.15.543 1.61.174.22.373.407.597.56.23.16.492.293.786.4.093.034.139.105.139.213 0 .205.062.375.185.514a.672.672 0 0 0 .461.23.955.955 0 0 0 .08.004.517.517 0 0 0 .302-.08c.015 0 .073-.01.087 0a.731.731 0 0 0 .83.019c.018 0 .093-.013.109-.004a.543.543 0 0 0 .274.064.696.696 0 0 0 .536-.24.72.72 0 0 0 .186-.507c0-.08.034-.13.102-.152.658-.208 1.169-.54 1.538-.999.375-.459.56-1.003.56-1.631a2.55 2.55 0 0 0-.039-.44zm-1.398 1.096a.867.867 0 0 1-.712.34.894.894 0 0 1-.703-.34 1.231 1.231 0 0 1-.29-.826c0-.322.096-.596.29-.824a.903.903 0 0 1 1.415 0c.193.228.29.502.29.824 0 .323-.097.599-.29.826zM10.25 8.947c-.163 0-.284-.048-.363-.141a.325.325 0 0 1-.069-.218c0-.138.048-.274.142-.412.095-.137.187-.206.28-.206.09 0 .18.075.26.229a.92.92 0 0 1 .123.433c0 .21-.124.315-.373.315zM8.69 7.873a.904.904 0 0 1-.707-.34 1.221 1.221 0 0 1-.295-.826c0-.322.099-.596.295-.824a.905.905 0 0 1 1.414 0c.196.228.295.502.295.824 0 .322-.098.598-.295.826-.196.226-.431.34-.707.34z" fill="#999"/></svg>